<?xml version="1.0" encoding="utf-8" standalone="no"?>
<!DOCTYPE svg PUBLIC "-//W3C//DTD SVG 1.1//EN"
  "http://www.w3.org/Graphics/SVG/1.1/DTD/svg11.dtd">
<!-- Created with matplotlib (https://matplotlib.org/) -->
<svg height="541.727175pt" version="1.1" viewBox="0 0 785.914375 541.727175" width="785.914375pt" xmlns="http://www.w3.org/2000/svg" xmlns:xlink="http://www.w3.org/1999/xlink">
 <metadata>
  <rdf:RDF xmlns:cc="http://creativecommons.org/ns#" xmlns:dc="http://purl.org/dc/elements/1.1/" xmlns:rdf="http://www.w3.org/1999/02/22-rdf-syntax-ns#">
   <cc:Work>
    <dc:type rdf:resource="http://purl.org/dc/dcmitype/StillImage"/>
    <dc:date>2020-12-18T09:43:33.775138</dc:date>
    <dc:format>image/svg+xml</dc:format>
    <dc:creator>
     <cc:Agent>
      <dc:title>Matplotlib v3.3.1, https://matplotlib.org/</dc:title>
     </cc:Agent>
    </dc:creator>
   </cc:Work>
  </rdf:RDF>
 </metadata>
 <defs>
  <style type="text/css">*{stroke-linecap:butt;stroke-linejoin:round;}</style>
 </defs>
 <g id="figure_1">
  <g id="patch_1">
   <path d="M 0 541.727175 
L 785.914375 541.727175 
L 785.914375 0 
L 0 0 
z
" style="fill:#ffffff;"/>
  </g>
  <g id="axes_1">
   <g id="patch_2">
    <path d="M 44.86125 419.802 
L 778.714375 419.802 
L 778.714375 62.28 
L 44.86125 62.28 
z
" style="fill:#ffffff;"/>
   </g>
   <g id="matplotlib.axis_1">
    <g id="xtick_1">
     <g id="line2d_1">
      <defs>
       <path d="M 0 0 
L 0 5 
" id="m06bf2b75be" style="stroke:#262626;"/>
      </defs>
      <g>
       <use style="fill:#262626;stroke:#262626;" x="51.532642" xlink:href="#m06bf2b75be" y="419.802"/>
      </g>
     </g>
     <g id="text_1">
      <!-- 0 -->
      <g style="fill:#262626;" transform="translate(48.752173 435.459813)scale(0.1 -0.1)">
       <defs>
        <path d="M 4.15625 35.296875 
Q 4.15625 48 6.765625 55.734375 
Q 9.375 63.484375 14.515625 67.671875 
Q 19.671875 71.875 27.484375 71.875 
Q 33.25 71.875 37.59375 69.546875 
Q 41.9375 67.234375 44.765625 62.859375 
Q 47.609375 58.5 49.21875 52.21875 
Q 50.828125 45.953125 50.828125 35.296875 
Q 50.828125 22.703125 48.234375 14.96875 
Q 45.65625 7.234375 40.5 3 
Q 35.359375 -1.21875 27.484375 -1.21875 
Q 17.140625 -1.21875 11.234375 6.203125 
Q 4.15625 15.140625 4.15625 35.296875 
z
M 13.1875 35.296875 
Q 13.1875 17.671875 17.3125 11.828125 
Q 21.4375 6 27.484375 6 
Q 33.546875 6 37.671875 11.859375 
Q 41.796875 17.71875 41.796875 35.296875 
Q 41.796875 52.984375 37.671875 58.78125 
Q 33.546875 64.59375 27.390625 64.59375 
Q 21.34375 64.59375 17.71875 59.46875 
Q 13.1875 52.9375 13.1875 35.296875 
z
" id="ArialMT-48"/>
       </defs>
       <use xlink:href="#ArialMT-48"/>
      </g>
     </g>
    </g>
    <g id="xtick_2">
     <g id="line2d_2">
      <g>
       <use style="fill:#262626;stroke:#262626;" x="104.903778" xlink:href="#m06bf2b75be" y="419.802"/>
      </g>
     </g>
     <g id="text_2">
      <!-- 2 -->
      <g style="fill:#262626;" transform="translate(102.12331 435.459813)scale(0.1 -0.1)">
       <defs>
        <path d="M 50.34375 8.453125 
L 50.34375 0 
L 3.03125 0 
Q 2.9375 3.171875 4.046875 6.109375 
Q 5.859375 10.9375 9.828125 15.625 
Q 13.8125 20.3125 21.34375 26.46875 
Q 33.015625 36.03125 37.109375 41.625 
Q 41.21875 47.21875 41.21875 52.203125 
Q 41.21875 57.421875 37.46875 61 
Q 33.734375 64.59375 27.734375 64.59375 
Q 21.390625 64.59375 17.578125 60.78125 
Q 13.765625 56.984375 13.71875 50.25 
L 4.6875 51.171875 
Q 5.609375 61.28125 11.65625 66.578125 
Q 17.71875 71.875 27.9375 71.875 
Q 38.234375 71.875 44.234375 66.15625 
Q 50.25 60.453125 50.25 52 
Q 50.25 47.703125 48.484375 43.546875 
Q 46.734375 39.40625 42.65625 34.8125 
Q 38.578125 30.21875 29.109375 22.21875 
Q 21.1875 15.578125 18.9375 13.203125 
Q 16.703125 10.84375 15.234375 8.453125 
z
" id="ArialMT-50"/>
       </defs>
       <use xlink:href="#ArialMT-50"/>
      </g>
     </g>
    </g>
    <g id="xtick_3">
     <g id="line2d_3">
      <g>
       <use style="fill:#262626;stroke:#262626;" x="158.274915" xlink:href="#m06bf2b75be" y="419.802"/>
      </g>
     </g>
     <g id="text_3">
      <!-- 4 -->
      <g style="fill:#262626;" transform="translate(155.494446 435.459813)scale(0.1 -0.1)">
       <defs>
        <path d="M 32.328125 0 
L 32.328125 17.140625 
L 1.265625 17.140625 
L 1.265625 25.203125 
L 33.9375 71.578125 
L 41.109375 71.578125 
L 41.109375 25.203125 
L 50.78125 25.203125 
L 50.78125 17.140625 
L 41.109375 17.140625 
L 41.109375 0 
z
M 32.328125 25.203125 
L 32.328125 57.46875 
L 9.90625 25.203125 
z
" id="ArialMT-52"/>
       </defs>
       <use xlink:href="#ArialMT-52"/>
      </g>
     </g>
    </g>
    <g id="xtick_4">
     <g id="line2d_4">
      <g>
       <use style="fill:#262626;stroke:#262626;" x="211.646051" xlink:href="#m06bf2b75be" y="419.802"/>
      </g>
     </g>
     <g id="text_4">
      <!-- 6 -->
      <g style="fill:#262626;" transform="translate(208.865582 435.459813)scale(0.1 -0.1)">
       <defs>
        <path d="M 49.75 54.046875 
L 41.015625 53.375 
Q 39.84375 58.546875 37.703125 60.890625 
Q 34.125 64.65625 28.90625 64.65625 
Q 24.703125 64.65625 21.53125 62.3125 
Q 17.390625 59.28125 14.984375 53.46875 
Q 12.59375 47.65625 12.5 36.921875 
Q 15.671875 41.75 20.265625 44.09375 
Q 24.859375 46.4375 29.890625 46.4375 
Q 38.671875 46.4375 44.84375 39.96875 
Q 51.03125 33.5 51.03125 23.25 
Q 51.03125 16.5 48.125 10.71875 
Q 45.21875 4.9375 40.140625 1.859375 
Q 35.0625 -1.21875 28.609375 -1.21875 
Q 17.625 -1.21875 10.6875 6.859375 
Q 3.765625 14.9375 3.765625 33.5 
Q 3.765625 54.25 11.421875 63.671875 
Q 18.109375 71.875 29.4375 71.875 
Q 37.890625 71.875 43.28125 67.140625 
Q 48.6875 62.40625 49.75 54.046875 
z
M 13.875 23.1875 
Q 13.875 18.65625 15.796875 14.5 
Q 17.71875 10.359375 21.1875 8.171875 
Q 24.65625 6 28.46875 6 
Q 34.03125 6 38.03125 10.484375 
Q 42.046875 14.984375 42.046875 22.703125 
Q 42.046875 30.125 38.078125 34.390625 
Q 34.125 38.671875 28.125 38.671875 
Q 22.171875 38.671875 18.015625 34.390625 
Q 13.875 30.125 13.875 23.1875 
z
" id="ArialMT-54"/>
       </defs>
       <use xlink:href="#ArialMT-54"/>
      </g>
     </g>
    </g>
    <g id="xtick_5">
     <g id="line2d_5">
      <g>
       <use style="fill:#262626;stroke:#262626;" x="265.017187" xlink:href="#m06bf2b75be" y="419.802"/>
      </g>
     </g>
     <g id="text_5">
      <!-- 8 -->
      <g style="fill:#262626;" transform="translate(262.236719 435.459813)scale(0.1 -0.1)">
       <defs>
        <path d="M 17.671875 38.8125 
Q 12.203125 40.828125 9.5625 44.53125 
Q 6.9375 48.25 6.9375 53.421875 
Q 6.9375 61.234375 12.546875 66.546875 
Q 18.171875 71.875 27.484375 71.875 
Q 36.859375 71.875 42.578125 66.421875 
Q 48.296875 60.984375 48.296875 53.171875 
Q 48.296875 48.1875 45.671875 44.5 
Q 43.0625 40.828125 37.75 38.8125 
Q 44.34375 36.671875 47.78125 31.875 
Q 51.21875 27.09375 51.21875 20.453125 
Q 51.21875 11.28125 44.71875 5.03125 
Q 38.234375 -1.21875 27.640625 -1.21875 
Q 17.046875 -1.21875 10.546875 5.046875 
Q 4.046875 11.328125 4.046875 20.703125 
Q 4.046875 27.6875 7.59375 32.390625 
Q 11.140625 37.109375 17.671875 38.8125 
z
M 15.921875 53.71875 
Q 15.921875 48.640625 19.1875 45.40625 
Q 22.46875 42.1875 27.6875 42.1875 
Q 32.765625 42.1875 36.015625 45.375 
Q 39.265625 48.578125 39.265625 53.21875 
Q 39.265625 58.0625 35.90625 61.359375 
Q 32.5625 64.65625 27.59375 64.65625 
Q 22.5625 64.65625 19.234375 61.421875 
Q 15.921875 58.203125 15.921875 53.71875 
z
M 13.09375 20.65625 
Q 13.09375 16.890625 14.875 13.375 
Q 16.65625 9.859375 20.171875 7.921875 
Q 23.6875 6 27.734375 6 
Q 34.03125 6 38.125 10.046875 
Q 42.234375 14.109375 42.234375 20.359375 
Q 42.234375 26.703125 38.015625 30.859375 
Q 33.796875 35.015625 27.4375 35.015625 
Q 21.234375 35.015625 17.15625 30.90625 
Q 13.09375 26.8125 13.09375 20.65625 
z
" id="ArialMT-56"/>
       </defs>
       <use xlink:href="#ArialMT-56"/>
      </g>
     </g>
    </g>
    <g id="xtick_6">
     <g id="line2d_6">
      <g>
       <use style="fill:#262626;stroke:#262626;" x="318.388324" xlink:href="#m06bf2b75be" y="419.802"/>
      </g>
     </g>
     <g id="text_6">
      <!-- 10 -->
      <g style="fill:#262626;" transform="translate(312.827386 435.459813)scale(0.1 -0.1)">
       <defs>
        <path d="M 37.25 0 
L 28.46875 0 
L 28.46875 56 
Q 25.296875 52.984375 20.140625 49.953125 
Q 14.984375 46.921875 10.890625 45.40625 
L 10.890625 53.90625 
Q 18.265625 57.375 23.78125 62.296875 
Q 29.296875 67.234375 31.59375 71.875 
L 37.25 71.875 
z
" id="ArialMT-49"/>
       </defs>
       <use xlink:href="#ArialMT-49"/>
       <use x="55.615234" xlink:href="#ArialMT-48"/>
      </g>
     </g>
    </g>
    <g id="xtick_7">
     <g id="line2d_7">
      <g>
       <use style="fill:#262626;stroke:#262626;" x="371.75946" xlink:href="#m06bf2b75be" y="419.802"/>
      </g>
     </g>
     <g id="text_7">
      <!-- 12 -->
      <g style="fill:#262626;" transform="translate(366.198523 435.459813)scale(0.1 -0.1)">
       <use xlink:href="#ArialMT-49"/>
       <use x="55.615234" xlink:href="#ArialMT-50"/>
      </g>
     </g>
    </g>
    <g id="xtick_8">
     <g id="line2d_8">
      <g>
       <use style="fill:#262626;stroke:#262626;" x="425.130597" xlink:href="#m06bf2b75be" y="419.802"/>
      </g>
     </g>
     <g id="text_8">
      <!-- 14 -->
      <g style="fill:#262626;" transform="translate(419.569659 435.459813)scale(0.1 -0.1)">
       <use xlink:href="#ArialMT-49"/>
       <use x="55.615234" xlink:href="#ArialMT-52"/>
      </g>
     </g>
    </g>
    <g id="xtick_9">
     <g id="line2d_9">
      <g>
       <use style="fill:#262626;stroke:#262626;" x="478.501733" xlink:href="#m06bf2b75be" y="419.802"/>
      </g>
     </g>
     <g id="text_9">
      <!-- 16 -->
      <g style="fill:#262626;" transform="translate(472.940795 435.459813)scale(0.1 -0.1)">
       <use xlink:href="#ArialMT-49"/>
       <use x="55.615234" xlink:href="#ArialMT-54"/>
      </g>
     </g>
    </g>
    <g id="xtick_10">
     <g id="line2d_10">
      <g>
       <use style="fill:#262626;stroke:#262626;" x="531.872869" xlink:href="#m06bf2b75be" y="419.802"/>
      </g>
     </g>
     <g id="text_10">
      <!-- 18 -->
      <g style="fill:#262626;" transform="translate(526.311932 435.459813)scale(0.1 -0.1)">
       <use xlink:href="#ArialMT-49"/>
       <use x="55.615234" xlink:href="#ArialMT-56"/>
      </g>
     </g>
    </g>
    <g id="xtick_11">
     <g id="line2d_11">
      <g>
       <use style="fill:#262626;stroke:#262626;" x="585.244006" xlink:href="#m06bf2b75be" y="419.802"/>
      </g>
     </g>
     <g id="text_11">
      <!-- 20 -->
      <g style="fill:#262626;" transform="translate(579.683068 435.459813)scale(0.1 -0.1)">
       <use xlink:href="#ArialMT-50"/>
       <use x="55.615234" xlink:href="#ArialMT-48"/>
      </g>
     </g>
    </g>
    <g id="xtick_12">
     <g id="line2d_12">
      <g>
       <use style="fill:#262626;stroke:#262626;" x="638.615142" xlink:href="#m06bf2b75be" y="419.802"/>
      </g>
     </g>
     <g id="text_12">
      <!-- 22 -->
      <g style="fill:#262626;" transform="translate(633.054205 435.459813)scale(0.1 -0.1)">
       <use xlink:href="#ArialMT-50"/>
       <use x="55.615234" xlink:href="#ArialMT-50"/>
      </g>
     </g>
    </g>
    <g id="xtick_13">
     <g id="line2d_13">
      <g>
       <use style="fill:#262626;stroke:#262626;" x="691.986278" xlink:href="#m06bf2b75be" y="419.802"/>
      </g>
     </g>
     <g id="text_13">
      <!-- 24 -->
      <g style="fill:#262626;" transform="translate(686.425341 435.459813)scale(0.1 -0.1)">
       <use xlink:href="#ArialMT-50"/>
       <use x="55.615234" xlink:href="#ArialMT-52"/>
      </g>
     </g>
    </g>
    <g id="xtick_14">
     <g id="line2d_14">
      <g>
       <use style="fill:#262626;stroke:#262626;" x="745.357415" xlink:href="#m06bf2b75be" y="419.802"/>
      </g>
     </g>
     <g id="text_14">
      <!-- 26 -->
      <g style="fill:#262626;" transform="translate(739.796477 435.459813)scale(0.1 -0.1)">
       <use xlink:href="#ArialMT-50"/>
       <use x="55.615234" xlink:href="#ArialMT-54"/>
      </g>
     </g>
    </g>
    <g id="xtick_15">
     <g id="line2d_15"/>
    </g>
    <g id="xtick_16">
     <g id="line2d_16"/>
    </g>
    <g id="xtick_17">
     <g id="line2d_17"/>
    </g>
    <g id="xtick_18">
     <g id="line2d_18"/>
    </g>
    <g id="xtick_19">
     <g id="line2d_19"/>
    </g>
    <g id="xtick_20">
     <g id="line2d_20"/>
    </g>
    <g id="xtick_21">
     <g id="line2d_21"/>
    </g>
    <g id="xtick_22">
     <g id="line2d_22"/>
    </g>
    <g id="xtick_23">
     <g id="line2d_23"/>
    </g>
    <g id="xtick_24">
     <g id="line2d_24"/>
    </g>
    <g id="xtick_25">
     <g id="line2d_25"/>
    </g>
    <g id="xtick_26">
     <g id="line2d_26"/>
    </g>
    <g id="xtick_27">
     <g id="line2d_27"/>
    </g>
    <g id="xtick_28">
     <g id="line2d_28"/>
    </g>
    <g id="xtick_29">
     <g id="line2d_29"/>
    </g>
    <g id="xtick_30">
     <g id="line2d_30"/>
    </g>
    <g id="xtick_31">
     <g id="line2d_31"/>
    </g>
    <g id="xtick_32">
     <g id="line2d_32"/>
    </g>
    <g id="xtick_33">
     <g id="line2d_33"/>
    </g>
    <g id="xtick_34">
     <g id="line2d_34"/>
    </g>
    <g id="xtick_35">
     <g id="line2d_35"/>
    </g>
    <g id="xtick_36">
     <g id="line2d_36"/>
    </g>
    <g id="xtick_37">
     <g id="line2d_37"/>
    </g>
    <g id="xtick_38">
     <g id="line2d_38"/>
    </g>
    <g id="xtick_39">
     <g id="line2d_39"/>
    </g>
    <g id="xtick_40">
     <g id="line2d_40"/>
    </g>
    <g id="xtick_41">
     <g id="line2d_41"/>
    </g>
    <g id="xtick_42">
     <g id="line2d_42"/>
    </g>
    <g id="xtick_43">
     <g id="line2d_43"/>
    </g>
    <g id="xtick_44">
     <g id="line2d_44"/>
    </g>
    <g id="xtick_45">
     <g id="line2d_45"/>
    </g>
    <g id="xtick_46">
     <g id="line2d_46"/>
    </g>
    <g id="xtick_47">
     <g id="line2d_47"/>
    </g>
    <g id="xtick_48">
     <g id="line2d_48"/>
    </g>
    <g id="xtick_49">
     <g id="line2d_49"/>
    </g>
    <g id="xtick_50">
     <g id="line2d_50"/>
    </g>
    <g id="xtick_51">
     <g id="line2d_51"/>
    </g>
    <g id="xtick_52">
     <g id="line2d_52"/>
    </g>
    <g id="xtick_53">
     <g id="line2d_53"/>
    </g>
    <g id="xtick_54">
     <g id="line2d_54"/>
    </g>
    <g id="xtick_55">
     <g id="line2d_55"/>
    </g>
    <g id="text_15">
     <!-- Time (Months) -->
     <g style="fill:#262626;" transform="translate(373.34375 450.182938)scale(0.12 -0.12)">
      <defs>
       <path d="M 25.921875 0 
L 25.921875 63.140625 
L 2.34375 63.140625 
L 2.34375 71.578125 
L 59.078125 71.578125 
L 59.078125 63.140625 
L 35.40625 63.140625 
L 35.40625 0 
z
" id="ArialMT-84"/>
       <path d="M 6.640625 61.46875 
L 6.640625 71.578125 
L 15.4375 71.578125 
L 15.4375 61.46875 
z
M 6.640625 0 
L 6.640625 51.859375 
L 15.4375 51.859375 
L 15.4375 0 
z
" id="ArialMT-105"/>
       <path d="M 6.59375 0 
L 6.59375 51.859375 
L 14.453125 51.859375 
L 14.453125 44.578125 
Q 16.890625 48.390625 20.9375 50.703125 
Q 25 53.03125 30.171875 53.03125 
Q 35.9375 53.03125 39.625 50.640625 
Q 43.3125 48.25 44.828125 43.953125 
Q 50.984375 53.03125 60.84375 53.03125 
Q 68.5625 53.03125 72.703125 48.75 
Q 76.859375 44.484375 76.859375 35.59375 
L 76.859375 0 
L 68.109375 0 
L 68.109375 32.671875 
Q 68.109375 37.9375 67.25 40.25 
Q 66.40625 42.578125 64.15625 43.984375 
Q 61.921875 45.40625 58.890625 45.40625 
Q 53.421875 45.40625 49.796875 41.765625 
Q 46.1875 38.140625 46.1875 30.125 
L 46.1875 0 
L 37.40625 0 
L 37.40625 33.6875 
Q 37.40625 39.546875 35.25 42.46875 
Q 33.109375 45.40625 28.21875 45.40625 
Q 24.515625 45.40625 21.359375 43.453125 
Q 18.21875 41.5 16.796875 37.734375 
Q 15.375 33.984375 15.375 26.90625 
L 15.375 0 
z
" id="ArialMT-109"/>
       <path d="M 42.09375 16.703125 
L 51.171875 15.578125 
Q 49.03125 7.625 43.21875 3.21875 
Q 37.40625 -1.171875 28.375 -1.171875 
Q 17 -1.171875 10.328125 5.828125 
Q 3.65625 12.84375 3.65625 25.484375 
Q 3.65625 38.578125 10.390625 45.796875 
Q 17.140625 53.03125 27.875 53.03125 
Q 38.28125 53.03125 44.875 45.953125 
Q 51.46875 38.875 51.46875 26.03125 
Q 51.46875 25.25 51.421875 23.6875 
L 12.75 23.6875 
Q 13.234375 15.140625 17.578125 10.59375 
Q 21.921875 6.0625 28.421875 6.0625 
Q 33.25 6.0625 36.671875 8.59375 
Q 40.09375 11.140625 42.09375 16.703125 
z
M 13.234375 30.90625 
L 42.1875 30.90625 
Q 41.609375 37.453125 38.875 40.71875 
Q 34.671875 45.796875 27.984375 45.796875 
Q 21.921875 45.796875 17.796875 41.75 
Q 13.671875 37.703125 13.234375 30.90625 
z
" id="ArialMT-101"/>
       <path id="ArialMT-32"/>
       <path d="M 23.390625 -21.046875 
Q 16.109375 -11.859375 11.078125 0.4375 
Q 6.0625 12.75 6.0625 25.921875 
Q 6.0625 37.546875 9.8125 48.1875 
Q 14.203125 60.546875 23.390625 72.796875 
L 29.6875 72.796875 
Q 23.78125 62.640625 21.875 58.296875 
Q 18.890625 51.5625 17.1875 44.234375 
Q 15.09375 35.109375 15.09375 25.875 
Q 15.09375 2.390625 29.6875 -21.046875 
z
" id="ArialMT-40"/>
       <path d="M 7.421875 0 
L 7.421875 71.578125 
L 21.6875 71.578125 
L 38.625 20.90625 
Q 40.96875 13.8125 42.046875 10.296875 
Q 43.265625 14.203125 45.84375 21.78125 
L 62.984375 71.578125 
L 75.734375 71.578125 
L 75.734375 0 
L 66.609375 0 
L 66.609375 59.90625 
L 45.796875 0 
L 37.25 0 
L 16.546875 60.9375 
L 16.546875 0 
z
" id="ArialMT-77"/>
       <path d="M 3.328125 25.921875 
Q 3.328125 40.328125 11.328125 47.265625 
Q 18.015625 53.03125 27.640625 53.03125 
Q 38.328125 53.03125 45.109375 46.015625 
Q 51.90625 39.015625 51.90625 26.65625 
Q 51.90625 16.65625 48.90625 10.90625 
Q 45.90625 5.171875 40.15625 2 
Q 34.421875 -1.171875 27.640625 -1.171875 
Q 16.75 -1.171875 10.03125 5.8125 
Q 3.328125 12.796875 3.328125 25.921875 
z
M 12.359375 25.921875 
Q 12.359375 15.96875 16.703125 11.015625 
Q 21.046875 6.0625 27.640625 6.0625 
Q 34.1875 6.0625 38.53125 11.03125 
Q 42.875 16.015625 42.875 26.21875 
Q 42.875 35.84375 38.5 40.796875 
Q 34.125 45.75 27.640625 45.75 
Q 21.046875 45.75 16.703125 40.8125 
Q 12.359375 35.890625 12.359375 25.921875 
z
" id="ArialMT-111"/>
       <path d="M 6.59375 0 
L 6.59375 51.859375 
L 14.5 51.859375 
L 14.5 44.484375 
Q 20.21875 53.03125 31 53.03125 
Q 35.6875 53.03125 39.625 51.34375 
Q 43.5625 49.65625 45.515625 46.921875 
Q 47.46875 44.1875 48.25 40.4375 
Q 48.734375 37.984375 48.734375 31.890625 
L 48.734375 0 
L 39.9375 0 
L 39.9375 31.546875 
Q 39.9375 36.921875 38.90625 39.578125 
Q 37.890625 42.234375 35.28125 43.8125 
Q 32.671875 45.40625 29.15625 45.40625 
Q 23.53125 45.40625 19.453125 41.84375 
Q 15.375 38.28125 15.375 28.328125 
L 15.375 0 
z
" id="ArialMT-110"/>
       <path d="M 25.78125 7.859375 
L 27.046875 0.09375 
Q 23.34375 -0.6875 20.40625 -0.6875 
Q 15.625 -0.6875 12.984375 0.828125 
Q 10.359375 2.34375 9.28125 4.8125 
Q 8.203125 7.28125 8.203125 15.1875 
L 8.203125 45.015625 
L 1.765625 45.015625 
L 1.765625 51.859375 
L 8.203125 51.859375 
L 8.203125 64.703125 
L 16.9375 69.96875 
L 16.9375 51.859375 
L 25.78125 51.859375 
L 25.78125 45.015625 
L 16.9375 45.015625 
L 16.9375 14.703125 
Q 16.9375 10.9375 17.40625 9.859375 
Q 17.875 8.796875 18.921875 8.15625 
Q 19.96875 7.515625 21.921875 7.515625 
Q 23.390625 7.515625 25.78125 7.859375 
z
" id="ArialMT-116"/>
       <path d="M 6.59375 0 
L 6.59375 71.578125 
L 15.375 71.578125 
L 15.375 45.90625 
Q 21.53125 53.03125 30.90625 53.03125 
Q 36.671875 53.03125 40.921875 50.75 
Q 45.171875 48.484375 47 44.484375 
Q 48.828125 40.484375 48.828125 32.859375 
L 48.828125 0 
L 40.046875 0 
L 40.046875 32.859375 
Q 40.046875 39.453125 37.1875 42.453125 
Q 34.328125 45.453125 29.109375 45.453125 
Q 25.203125 45.453125 21.75 43.421875 
Q 18.3125 41.40625 16.84375 37.9375 
Q 15.375 34.46875 15.375 28.375 
L 15.375 0 
z
" id="ArialMT-104"/>
       <path d="M 3.078125 15.484375 
L 11.765625 16.84375 
Q 12.5 11.625 15.84375 8.84375 
Q 19.1875 6.0625 25.203125 6.0625 
Q 31.25 6.0625 34.171875 8.515625 
Q 37.109375 10.984375 37.109375 14.3125 
Q 37.109375 17.28125 34.515625 19 
Q 32.71875 20.171875 25.53125 21.96875 
Q 15.875 24.421875 12.140625 26.203125 
Q 8.40625 27.984375 6.46875 31.125 
Q 4.546875 34.28125 4.546875 38.09375 
Q 4.546875 41.546875 6.125 44.5 
Q 7.71875 47.46875 10.453125 49.421875 
Q 12.5 50.921875 16.03125 51.96875 
Q 19.578125 53.03125 23.640625 53.03125 
Q 29.734375 53.03125 34.34375 51.265625 
Q 38.96875 49.515625 41.15625 46.5 
Q 43.359375 43.5 44.1875 38.484375 
L 35.59375 37.3125 
Q 35.015625 41.3125 32.203125 43.546875 
Q 29.390625 45.796875 24.265625 45.796875 
Q 18.21875 45.796875 15.625 43.796875 
Q 13.03125 41.796875 13.03125 39.109375 
Q 13.03125 37.40625 14.109375 36.03125 
Q 15.1875 34.625 17.484375 33.6875 
Q 18.796875 33.203125 25.25 31.453125 
Q 34.578125 28.953125 38.25 27.359375 
Q 41.9375 25.78125 44.03125 22.75 
Q 46.140625 19.734375 46.140625 15.234375 
Q 46.140625 10.84375 43.578125 6.953125 
Q 41.015625 3.078125 36.171875 0.953125 
Q 31.34375 -1.171875 25.25 -1.171875 
Q 15.140625 -1.171875 9.84375 3.03125 
Q 4.546875 7.234375 3.078125 15.484375 
z
" id="ArialMT-115"/>
       <path d="M 12.359375 -21.046875 
L 6.0625 -21.046875 
Q 20.65625 2.390625 20.65625 25.875 
Q 20.65625 35.0625 18.5625 44.09375 
Q 16.890625 51.421875 13.921875 58.15625 
Q 12.015625 62.546875 6.0625 72.796875 
L 12.359375 72.796875 
Q 21.53125 60.546875 25.921875 48.1875 
Q 29.6875 37.546875 29.6875 25.921875 
Q 29.6875 12.75 24.625 0.4375 
Q 19.578125 -11.859375 12.359375 -21.046875 
z
" id="ArialMT-41"/>
      </defs>
      <use xlink:href="#ArialMT-84"/>
      <use x="57.333984" xlink:href="#ArialMT-105"/>
      <use x="79.550781" xlink:href="#ArialMT-109"/>
      <use x="162.851562" xlink:href="#ArialMT-101"/>
      <use x="218.466797" xlink:href="#ArialMT-32"/>
      <use x="246.25" xlink:href="#ArialMT-40"/>
      <use x="279.550781" xlink:href="#ArialMT-77"/>
      <use x="362.851562" xlink:href="#ArialMT-111"/>
      <use x="418.466797" xlink:href="#ArialMT-110"/>
      <use x="474.082031" xlink:href="#ArialMT-116"/>
      <use x="501.865234" xlink:href="#ArialMT-104"/>
      <use x="557.480469" xlink:href="#ArialMT-115"/>
      <use x="607.480469" xlink:href="#ArialMT-41"/>
     </g>
    </g>
   </g>
   <g id="matplotlib.axis_2">
    <g id="ytick_1">
     <g id="line2d_56">
      <path clip-path="url(#pe5bfd0f178)" d="M 44.86125 419.802 
L 778.714375 419.802 
" style="fill:none;stroke:#cccccc;stroke-linecap:round;stroke-width:0.8;"/>
     </g>
     <g id="line2d_57">
      <defs>
       <path d="M 0 0 
L -5 0 
" id="m80854f904e" style="stroke:#262626;"/>
      </defs>
      <g>
       <use style="fill:#262626;stroke:#262626;" x="44.86125" xlink:href="#m80854f904e" y="419.802"/>
      </g>
     </g>
     <g id="text_16">
      <!-- 0.0 -->
      <g style="fill:#262626;" transform="translate(22.46125 423.380906)scale(0.1 -0.1)">
       <defs>
        <path d="M 9.078125 0 
L 9.078125 10.015625 
L 19.09375 10.015625 
L 19.09375 0 
z
" id="ArialMT-46"/>
       </defs>
       <use xlink:href="#ArialMT-48"/>
       <use x="55.615234" xlink:href="#ArialMT-46"/>
       <use x="83.398438" xlink:href="#ArialMT-48"/>
      </g>
     </g>
    </g>
    <g id="ytick_2">
     <g id="line2d_58">
      <path clip-path="url(#pe5bfd0f178)" d="M 44.86125 341.888444 
L 778.714375 341.888444 
" style="fill:none;stroke:#cccccc;stroke-linecap:round;stroke-width:0.8;"/>
     </g>
     <g id="line2d_59">
      <g>
       <use style="fill:#262626;stroke:#262626;" x="44.86125" xlink:href="#m80854f904e" y="341.888444"/>
      </g>
     </g>
     <g id="text_17">
      <!-- 0.5 -->
      <g style="fill:#262626;" transform="translate(22.46125 345.46735)scale(0.1 -0.1)">
       <defs>
        <path d="M 4.15625 18.75 
L 13.375 19.53125 
Q 14.40625 12.796875 18.140625 9.390625 
Q 21.875 6 27.15625 6 
Q 33.5 6 37.890625 10.78125 
Q 42.28125 15.578125 42.28125 23.484375 
Q 42.28125 31 38.0625 35.34375 
Q 33.84375 39.703125 27 39.703125 
Q 22.75 39.703125 19.328125 37.765625 
Q 15.921875 35.84375 13.96875 32.765625 
L 5.71875 33.84375 
L 12.640625 70.609375 
L 48.25 70.609375 
L 48.25 62.203125 
L 19.671875 62.203125 
L 15.828125 42.96875 
Q 22.265625 47.46875 29.34375 47.46875 
Q 38.71875 47.46875 45.15625 40.96875 
Q 51.609375 34.46875 51.609375 24.265625 
Q 51.609375 14.546875 45.953125 7.46875 
Q 39.0625 -1.21875 27.15625 -1.21875 
Q 17.390625 -1.21875 11.203125 4.25 
Q 5.03125 9.71875 4.15625 18.75 
z
" id="ArialMT-53"/>
       </defs>
       <use xlink:href="#ArialMT-48"/>
       <use x="55.615234" xlink:href="#ArialMT-46"/>
       <use x="83.398438" xlink:href="#ArialMT-53"/>
      </g>
     </g>
    </g>
    <g id="ytick_3">
     <g id="line2d_60">
      <path clip-path="url(#pe5bfd0f178)" d="M 44.86125 263.974887 
L 778.714375 263.974887 
" style="fill:none;stroke:#cccccc;stroke-linecap:round;stroke-width:0.8;"/>
     </g>
     <g id="line2d_61">
      <g>
       <use style="fill:#262626;stroke:#262626;" x="44.86125" xlink:href="#m80854f904e" y="263.974887"/>
      </g>
     </g>
     <g id="text_18">
      <!-- 1.0 -->
      <g style="fill:#262626;" transform="translate(22.46125 267.553793)scale(0.1 -0.1)">
       <use xlink:href="#ArialMT-49"/>
       <use x="55.615234" xlink:href="#ArialMT-46"/>
       <use x="83.398438" xlink:href="#ArialMT-48"/>
      </g>
     </g>
    </g>
    <g id="ytick_4">
     <g id="line2d_62">
      <path clip-path="url(#pe5bfd0f178)" d="M 44.86125 186.061331 
L 778.714375 186.061331 
" style="fill:none;stroke:#cccccc;stroke-linecap:round;stroke-width:0.8;"/>
     </g>
     <g id="line2d_63">
      <g>
       <use style="fill:#262626;stroke:#262626;" x="44.86125" xlink:href="#m80854f904e" y="186.061331"/>
      </g>
     </g>
     <g id="text_19">
      <!-- 1.5 -->
      <g style="fill:#262626;" transform="translate(22.46125 189.640237)scale(0.1 -0.1)">
       <use xlink:href="#ArialMT-49"/>
       <use x="55.615234" xlink:href="#ArialMT-46"/>
       <use x="83.398438" xlink:href="#ArialMT-53"/>
      </g>
     </g>
    </g>
    <g id="ytick_5">
     <g id="line2d_64">
      <path clip-path="url(#pe5bfd0f178)" d="M 44.86125 108.147774 
L 778.714375 108.147774 
" style="fill:none;stroke:#cccccc;stroke-linecap:round;stroke-width:0.8;"/>
     </g>
     <g id="line2d_65">
      <g>
       <use style="fill:#262626;stroke:#262626;" x="44.86125" xlink:href="#m80854f904e" y="108.147774"/>
      </g>
     </g>
     <g id="text_20">
      <!-- 2.0 -->
      <g style="fill:#262626;" transform="translate(22.46125 111.726681)scale(0.1 -0.1)">
       <use xlink:href="#ArialMT-50"/>
       <use x="55.615234" xlink:href="#ArialMT-46"/>
       <use x="83.398438" xlink:href="#ArialMT-48"/>
      </g>
     </g>
    </g>
    <g id="text_21">
     <!-- Total Views (All Articles) -->
     <g style="fill:#262626;" transform="translate(15.935625 304.615688)rotate(-90)scale(0.12 -0.12)">
      <defs>
       <path d="M 40.4375 6.390625 
Q 35.546875 2.25 31.03125 0.53125 
Q 26.515625 -1.171875 21.34375 -1.171875 
Q 12.796875 -1.171875 8.203125 3 
Q 3.609375 7.171875 3.609375 13.671875 
Q 3.609375 17.484375 5.34375 20.625 
Q 7.078125 23.78125 9.890625 25.6875 
Q 12.703125 27.59375 16.21875 28.5625 
Q 18.796875 29.25 24.03125 29.890625 
Q 34.671875 31.15625 39.703125 32.90625 
Q 39.75 34.71875 39.75 35.203125 
Q 39.75 40.578125 37.25 42.78125 
Q 33.890625 45.75 27.25 45.75 
Q 21.046875 45.75 18.09375 43.578125 
Q 15.140625 41.40625 13.71875 35.890625 
L 5.125 37.0625 
Q 6.296875 42.578125 8.984375 45.96875 
Q 11.671875 49.359375 16.75 51.1875 
Q 21.828125 53.03125 28.515625 53.03125 
Q 35.15625 53.03125 39.296875 51.46875 
Q 43.453125 49.90625 45.40625 47.53125 
Q 47.359375 45.171875 48.140625 41.546875 
Q 48.578125 39.3125 48.578125 33.453125 
L 48.578125 21.734375 
Q 48.578125 9.46875 49.140625 6.21875 
Q 49.703125 2.984375 51.375 0 
L 42.1875 0 
Q 40.828125 2.734375 40.4375 6.390625 
z
M 39.703125 26.03125 
Q 34.90625 24.078125 25.34375 22.703125 
Q 19.921875 21.921875 17.671875 20.9375 
Q 15.4375 19.96875 14.203125 18.09375 
Q 12.984375 16.21875 12.984375 13.921875 
Q 12.984375 10.40625 15.640625 8.0625 
Q 18.3125 5.71875 23.4375 5.71875 
Q 28.515625 5.71875 32.46875 7.9375 
Q 36.421875 10.15625 38.28125 14.015625 
Q 39.703125 17 39.703125 22.796875 
z
" id="ArialMT-97"/>
       <path d="M 6.390625 0 
L 6.390625 71.578125 
L 15.1875 71.578125 
L 15.1875 0 
z
" id="ArialMT-108"/>
       <path d="M 28.171875 0 
L 0.4375 71.578125 
L 10.6875 71.578125 
L 29.296875 19.578125 
Q 31.546875 13.328125 33.0625 7.859375 
Q 34.71875 13.71875 36.921875 19.578125 
L 56.25 71.578125 
L 65.921875 71.578125 
L 37.890625 0 
z
" id="ArialMT-86"/>
       <path d="M 16.15625 0 
L 0.296875 51.859375 
L 9.375 51.859375 
L 17.625 21.921875 
L 20.703125 10.796875 
Q 20.90625 11.625 23.390625 21.484375 
L 31.640625 51.859375 
L 40.671875 51.859375 
L 48.4375 21.78125 
L 51.03125 11.859375 
L 54 21.875 
L 62.890625 51.859375 
L 71.4375 51.859375 
L 55.21875 0 
L 46.09375 0 
L 37.84375 31.0625 
L 35.84375 39.890625 
L 25.34375 0 
z
" id="ArialMT-119"/>
       <path d="M -0.140625 0 
L 27.34375 71.578125 
L 37.546875 71.578125 
L 66.84375 0 
L 56.0625 0 
L 47.703125 21.6875 
L 17.78125 21.6875 
L 9.90625 0 
z
M 20.515625 29.390625 
L 44.78125 29.390625 
L 37.3125 49.21875 
Q 33.890625 58.25 32.234375 64.0625 
Q 30.859375 57.171875 28.375 50.390625 
z
" id="ArialMT-65"/>
       <path d="M 6.5 0 
L 6.5 51.859375 
L 14.40625 51.859375 
L 14.40625 44 
Q 17.4375 49.515625 20 51.265625 
Q 22.5625 53.03125 25.640625 53.03125 
Q 30.078125 53.03125 34.671875 50.203125 
L 31.640625 42.046875 
Q 28.421875 43.953125 25.203125 43.953125 
Q 22.3125 43.953125 20.015625 42.21875 
Q 17.71875 40.484375 16.75 37.40625 
Q 15.28125 32.71875 15.28125 27.15625 
L 15.28125 0 
z
" id="ArialMT-114"/>
       <path d="M 40.4375 19 
L 49.078125 17.875 
Q 47.65625 8.9375 41.8125 3.875 
Q 35.984375 -1.171875 27.484375 -1.171875 
Q 16.84375 -1.171875 10.375 5.78125 
Q 3.90625 12.75 3.90625 25.734375 
Q 3.90625 34.125 6.6875 40.421875 
Q 9.46875 46.734375 15.15625 49.875 
Q 20.84375 53.03125 27.546875 53.03125 
Q 35.984375 53.03125 41.359375 48.75 
Q 46.734375 44.484375 48.25 36.625 
L 39.703125 35.296875 
Q 38.484375 40.53125 35.375 43.15625 
Q 32.28125 45.796875 27.875 45.796875 
Q 21.234375 45.796875 17.078125 41.03125 
Q 12.9375 36.28125 12.9375 25.984375 
Q 12.9375 15.53125 16.9375 10.796875 
Q 20.953125 6.0625 27.390625 6.0625 
Q 32.5625 6.0625 36.03125 9.234375 
Q 39.5 12.40625 40.4375 19 
z
" id="ArialMT-99"/>
      </defs>
      <use xlink:href="#ArialMT-84"/>
      <use x="49.958984" xlink:href="#ArialMT-111"/>
      <use x="105.574219" xlink:href="#ArialMT-116"/>
      <use x="133.357422" xlink:href="#ArialMT-97"/>
      <use x="188.972656" xlink:href="#ArialMT-108"/>
      <use x="211.189453" xlink:href="#ArialMT-32"/>
      <use x="238.972656" xlink:href="#ArialMT-86"/>
      <use x="303.921875" xlink:href="#ArialMT-105"/>
      <use x="326.138672" xlink:href="#ArialMT-101"/>
      <use x="381.753906" xlink:href="#ArialMT-119"/>
      <use x="453.970703" xlink:href="#ArialMT-115"/>
      <use x="503.970703" xlink:href="#ArialMT-32"/>
      <use x="531.753906" xlink:href="#ArialMT-40"/>
      <use x="565.054688" xlink:href="#ArialMT-65"/>
      <use x="631.753906" xlink:href="#ArialMT-108"/>
      <use x="653.970703" xlink:href="#ArialMT-108"/>
      <use x="676.1875" xlink:href="#ArialMT-32"/>
      <use x="698.470703" xlink:href="#ArialMT-65"/>
      <use x="765.169922" xlink:href="#ArialMT-114"/>
      <use x="798.470703" xlink:href="#ArialMT-116"/>
      <use x="826.253906" xlink:href="#ArialMT-105"/>
      <use x="848.470703" xlink:href="#ArialMT-99"/>
      <use x="898.470703" xlink:href="#ArialMT-108"/>
      <use x="920.6875" xlink:href="#ArialMT-101"/>
      <use x="976.302734" xlink:href="#ArialMT-115"/>
      <use x="1026.302734" xlink:href="#ArialMT-41"/>
     </g>
    </g>
   </g>
   <g id="PathCollection_1">
    <defs>
     <path d="M 0 3.535534 
C 0.937635 3.535534 1.836992 3.163008 2.5 2.5 
C 3.163008 1.836992 3.535534 0.937635 3.535534 0 
C 3.535534 -0.937635 3.163008 -1.836992 2.5 -2.5 
C 1.836992 -3.163008 0.937635 -3.535534 0 -3.535534 
C -0.937635 -3.535534 -1.836992 -3.163008 -2.5 -2.5 
C -3.163008 -1.836992 -3.535534 -0.937635 -3.535534 0 
C -3.535534 0.937635 -3.163008 1.836992 -2.5 2.5 
C -1.836992 3.163008 -0.937635 3.535534 0 3.535534 
z
" id="mcaf2f54fe9" style="stroke:#daa520;"/>
    </defs>
    <g clip-path="url(#pe5bfd0f178)">
     <use style="fill:#daa520;stroke:#daa520;" x="78.21821" xlink:href="#mcaf2f54fe9" y="260.512937"/>
     <use style="fill:#daa520;stroke:#daa520;" x="104.903778" xlink:href="#mcaf2f54fe9" y="285.778294"/>
     <use style="fill:#daa520;stroke:#daa520;" x="131.589347" xlink:href="#mcaf2f54fe9" y="276.69898"/>
     <use style="fill:#daa520;stroke:#daa520;" x="158.274915" xlink:href="#mcaf2f54fe9" y="299.750451"/>
     <use style="fill:#daa520;stroke:#daa520;" x="184.960483" xlink:href="#mcaf2f54fe9" y="285.711181"/>
     <use style="fill:#daa520;stroke:#daa520;" x="211.646051" xlink:href="#mcaf2f54fe9" y="302.378314"/>
     <use style="fill:#daa520;stroke:#daa520;" x="238.331619" xlink:href="#mcaf2f54fe9" y="294.143815"/>
     <use style="fill:#daa520;stroke:#daa520;" x="265.017187" xlink:href="#mcaf2f54fe9" y="278.60698"/>
     <use style="fill:#daa520;stroke:#daa520;" x="291.702756" xlink:href="#mcaf2f54fe9" y="281.353724"/>
     <use style="fill:#daa520;stroke:#daa520;" x="318.388324" xlink:href="#mcaf2f54fe9" y="252.442511"/>
     <use style="fill:#daa520;stroke:#daa520;" x="345.073892" xlink:href="#mcaf2f54fe9" y="255.115397"/>
     <use style="fill:#daa520;stroke:#daa520;" x="371.75946" xlink:href="#mcaf2f54fe9" y="267.731297"/>
     <use style="fill:#daa520;stroke:#daa520;" x="398.445028" xlink:href="#mcaf2f54fe9" y="243.786785"/>
     <use style="fill:#daa520;stroke:#daa520;" x="425.130597" xlink:href="#mcaf2f54fe9" y="253.000493"/>
     <use style="fill:#daa520;stroke:#daa520;" x="451.816165" xlink:href="#mcaf2f54fe9" y="249.504882"/>
     <use style="fill:#daa520;stroke:#daa520;" x="478.501733" xlink:href="#mcaf2f54fe9" y="268.58488"/>
     <use style="fill:#daa520;stroke:#daa520;" x="505.187301" xlink:href="#mcaf2f54fe9" y="251.009529"/>
     <use style="fill:#daa520;stroke:#daa520;" x="531.872869" xlink:href="#mcaf2f54fe9" y="270.155291"/>
     <use style="fill:#daa520;stroke:#daa520;" x="558.558437" xlink:href="#mcaf2f54fe9" y="273.181617"/>
     <use style="fill:#daa520;stroke:#daa520;" x="585.244006" xlink:href="#mcaf2f54fe9" y="279.365964"/>
     <use style="fill:#daa520;stroke:#daa520;" x="611.929574" xlink:href="#mcaf2f54fe9" y="236.347525"/>
     <use style="fill:#daa520;stroke:#daa520;" x="638.615142" xlink:href="#mcaf2f54fe9" y="235.160737"/>
     <use style="fill:#daa520;stroke:#daa520;" x="665.30071" xlink:href="#mcaf2f54fe9" y="226.632998"/>
     <use style="fill:#daa520;stroke:#daa520;" x="691.986278" xlink:href="#mcaf2f54fe9" y="258.5444"/>
     <use style="fill:#daa520;stroke:#daa520;" x="718.671847" xlink:href="#mcaf2f54fe9" y="238.81924"/>
     <use style="fill:#daa520;stroke:#daa520;" x="745.357415" xlink:href="#mcaf2f54fe9" y="239.028842"/>
    </g>
   </g>
   <g id="PolyCollection_1">
    <path clip-path="url(#pe5bfd0f178)" d="M 78.21821 286.229148 
L 78.21821 286.229148 
L 104.903778 288.077485 
L 131.589347 290.701509 
L 158.274915 294.821328 
L 184.960483 300.923286 
L 211.646051 308.521038 
L 238.331619 316.894478 
L 238.331619 316.894478 
L 238.331619 286.620558 
L 211.646051 284.772221 
L 184.960483 282.148197 
L 158.274915 278.028378 
L 131.589347 271.92642 
L 104.903778 264.328668 
L 78.21821 255.955228 
z
" style="fill:#ffff00;fill-opacity:0.25;"/>
   </g>
   <g id="PolyCollection_2">
    <path clip-path="url(#pe5bfd0f178)" d="M 265.017187 300.373937 
L 265.017187 300.373937 
L 291.702756 284.016599 
L 318.388324 274.078003 
L 345.073892 270.558148 
L 345.073892 270.558148 
L 345.073892 233.385369 
L 318.388324 249.742707 
L 291.702756 259.681303 
L 265.017187 263.201158 
z
" style="fill:#ffff00;fill-opacity:0.25;"/>
   </g>
   <g id="PolyCollection_3">
    <path clip-path="url(#pe5bfd0f178)" d="M 371.75946 264.09839 
L 371.75946 264.09839 
L 398.445028 264.638187 
L 425.130597 265.495495 
L 451.816165 266.912098 
L 478.501733 269.21841 
L 505.187301 272.596678 
L 531.872869 276.864656 
L 558.558437 281.691928 
L 585.244006 286.836712 
L 585.244006 286.836712 
L 585.244006 259.528441 
L 558.558437 258.988644 
L 531.872869 258.131336 
L 505.187301 256.714734 
L 478.501733 254.408421 
L 451.816165 251.030153 
L 425.130597 246.762176 
L 398.445028 241.934903 
L 371.75946 236.790119 
z
" style="fill:#ffff00;fill-opacity:0.25;"/>
   </g>
   <g id="PolyCollection_4">
    <path clip-path="url(#pe5bfd0f178)" d="M 611.929574 251.146018 
L 611.929574 251.146018 
L 638.615142 248.747072 
L 665.30071 247.734685 
L 691.986278 249.343071 
L 718.671847 253.572229 
L 745.357415 259.187946 
L 745.357415 259.187946 
L 745.357415 227.031896 
L 718.671847 229.430843 
L 691.986278 230.443229 
L 665.30071 228.834844 
L 638.615142 224.605686 
L 611.929574 218.989968 
z
" style="fill:#ffff00;fill-opacity:0.25;"/>
   </g>
   <g id="PathCollection_2">
    <defs>
     <path d="M 0 3.535534 
C 0.937635 3.535534 1.836992 3.163008 2.5 2.5 
C 3.163008 1.836992 3.535534 0.937635 3.535534 0 
C 3.535534 -0.937635 3.163008 -1.836992 2.5 -2.5 
C 1.836992 -3.163008 0.937635 -3.535534 0 -3.535534 
C -0.937635 -3.535534 -1.836992 -3.163008 -2.5 -2.5 
C -3.163008 -1.836992 -3.535534 -0.937635 -3.535534 0 
C -3.535534 0.937635 -3.163008 1.836992 -2.5 2.5 
C -1.836992 3.163008 -0.937635 3.535534 0 3.535534 
z
" id="m05be925c36" style="stroke:#00008b;"/>
    </defs>
    <g clip-path="url(#pe5bfd0f178)">
     <use style="fill:#00008b;stroke:#00008b;" x="78.21821" xlink:href="#m05be925c36" y="301.88705"/>
     <use style="fill:#00008b;stroke:#00008b;" x="104.903778" xlink:href="#m05be925c36" y="284.521749"/>
     <use style="fill:#00008b;stroke:#00008b;" x="131.589347" xlink:href="#m05be925c36" y="248.551187"/>
     <use style="fill:#00008b;stroke:#00008b;" x="158.274915" xlink:href="#m05be925c36" y="256.70081"/>
     <use style="fill:#00008b;stroke:#00008b;" x="184.960483" xlink:href="#m05be925c36" y="158.003863"/>
     <use style="fill:#00008b;stroke:#00008b;" x="211.646051" xlink:href="#m05be925c36" y="224.135318"/>
     <use style="fill:#00008b;stroke:#00008b;" x="238.331619" xlink:href="#m05be925c36" y="269.088963"/>
     <use style="fill:#00008b;stroke:#00008b;" x="265.017187" xlink:href="#m05be925c36" y="304.570828"/>
     <use style="fill:#00008b;stroke:#00008b;" x="291.702756" xlink:href="#m05be925c36" y="314.16944"/>
     <use style="fill:#00008b;stroke:#00008b;" x="318.388324" xlink:href="#m05be925c36" y="307.151302"/>
     <use style="fill:#00008b;stroke:#00008b;" x="345.073892" xlink:href="#m05be925c36" y="282.723696"/>
     <use style="fill:#00008b;stroke:#00008b;" x="371.75946" xlink:href="#m05be925c36" y="276.069857"/>
     <use style="fill:#00008b;stroke:#00008b;" x="398.445028" xlink:href="#m05be925c36" y="259.473743"/>
     <use style="fill:#00008b;stroke:#00008b;" x="425.130597" xlink:href="#m05be925c36" y="274.887901"/>
     <use style="fill:#00008b;stroke:#00008b;" x="451.816165" xlink:href="#m05be925c36" y="250.824564"/>
     <use style="fill:#00008b;stroke:#00008b;" x="478.501733" xlink:href="#m05be925c36" y="180.674396"/>
     <use style="fill:#00008b;stroke:#00008b;" x="505.187301" xlink:href="#m05be925c36" y="94.782"/>
     <use style="fill:#00008b;stroke:#00008b;" x="531.872869" xlink:href="#m05be925c36" y="230.377764"/>
     <use style="fill:#00008b;stroke:#00008b;" x="558.558437" xlink:href="#m05be925c36" y="233.91641"/>
     <use style="fill:#00008b;stroke:#00008b;" x="585.244006" xlink:href="#m05be925c36" y="265.949485"/>
     <use style="fill:#00008b;stroke:#00008b;" x="611.929574" xlink:href="#m05be925c36" y="313.988414"/>
     <use style="fill:#00008b;stroke:#00008b;" x="638.615142" xlink:href="#m05be925c36" y="317.61648"/>
     <use style="fill:#00008b;stroke:#00008b;" x="665.30071" xlink:href="#m05be925c36" y="300.257718"/>
     <use style="fill:#00008b;stroke:#00008b;" x="691.986278" xlink:href="#m05be925c36" y="301.09975"/>
     <use style="fill:#00008b;stroke:#00008b;" x="718.671847" xlink:href="#m05be925c36" y="293.804555"/>
     <use style="fill:#00008b;stroke:#00008b;" x="745.357415" xlink:href="#m05be925c36" y="318.11982"/>
    </g>
   </g>
   <g id="PolyCollection_5">
    <path clip-path="url(#pe5bfd0f178)" d="M 78.21821 346.244515 
L 78.21821 346.244515 
L 104.903778 321.372486 
L 131.589347 299.784041 
L 158.274915 284.527487 
L 184.960483 277.66158 
L 211.646051 277.127565 
L 238.331619 279.877134 
L 238.331619 279.877134 
L 238.331619 151.723754 
L 211.646051 176.595783 
L 184.960483 198.184228 
L 158.274915 213.440782 
L 131.589347 220.306688 
L 104.903778 220.840704 
L 78.21821 218.091135 
z
" style="fill:#87cefa;fill-opacity:0.25;"/>
   </g>
   <g id="PolyCollection_6">
    <path clip-path="url(#pe5bfd0f178)" d="M 265.017187 391.716312 
L 265.017187 391.716312 
L 291.702756 357.289005 
L 318.388324 350.033051 
L 345.073892 369.948451 
L 345.073892 369.948451 
L 345.073892 212.591322 
L 318.388324 247.018629 
L 291.702756 254.274582 
L 265.017187 234.359182 
z
" style="fill:#87cefa;fill-opacity:0.25;"/>
   </g>
   <g id="PolyCollection_7">
    <path clip-path="url(#pe5bfd0f178)" d="M 371.75946 311.60925 
L 371.75946 311.60925 
L 398.445028 295.825561 
L 425.130597 281.385938 
L 451.816165 269.313882 
L 478.501733 261.008082 
L 505.187301 257.240004 
L 531.872869 257.238184 
L 558.558437 259.603929 
L 585.244006 263.31374 
L 585.244006 263.31374 
L 585.244006 147.714333 
L 558.558437 163.498022 
L 531.872869 177.937644 
L 505.187301 190.009701 
L 478.501733 198.315501 
L 451.816165 202.083578 
L 425.130597 202.085399 
L 398.445028 199.719654 
L 371.75946 196.009842 
z
" style="fill:#87cefa;fill-opacity:0.25;"/>
   </g>
   <g id="PolyCollection_8">
    <path clip-path="url(#pe5bfd0f178)" d="M 611.929574 379.108369 
L 611.929574 379.108369 
L 638.615142 360.718056 
L 665.30071 348.197228 
L 691.986278 346.770465 
L 718.671847 356.437767 
L 745.357415 371.974554 
L 745.357415 371.974554 
L 745.357415 235.853877 
L 718.671847 254.24419 
L 691.986278 266.765018 
L 665.30071 268.191781 
L 638.615142 258.524479 
L 611.929574 242.987692 
z
" style="fill:#87cefa;fill-opacity:0.25;"/>
   </g>
   <g id="line2d_66">
    <path clip-path="url(#pe5bfd0f178)" d="M 78.21821 271.092188 
L 104.903778 276.203076 
L 131.589347 281.313965 
L 158.274915 286.424853 
L 184.960483 291.535741 
L 211.646051 296.64663 
L 238.331619 301.757518 
" style="fill:none;stroke:#ffd700;stroke-linecap:round;stroke-opacity:0.9;stroke-width:4;"/>
   </g>
   <g id="line2d_67">
    <path clip-path="url(#pe5bfd0f178)" d="M 265.017187 281.787547 
L 291.702756 271.848951 
L 318.388324 261.910355 
L 345.073892 251.971758 
" style="fill:none;stroke:#ffd700;stroke-linecap:round;stroke-opacity:0.9;stroke-width:4;"/>
   </g>
   <g id="line2d_68">
    <path clip-path="url(#pe5bfd0f178)" d="M 371.75946 250.444255 
L 398.445028 253.286545 
L 425.130597 256.128835 
L 451.816165 258.971125 
L 478.501733 261.813416 
L 505.187301 264.655706 
L 531.872869 267.497996 
L 558.558437 270.340286 
L 585.244006 273.182576 
" style="fill:none;stroke:#ffd700;stroke-linecap:round;stroke-opacity:0.9;stroke-width:4;"/>
   </g>
   <g id="line2d_69">
    <path clip-path="url(#pe5bfd0f178)" d="M 611.929574 235.067993 
L 638.615142 236.676379 
L 665.30071 238.284764 
L 691.986278 239.89315 
L 718.671847 241.501536 
L 745.357415 243.109921 
" style="fill:none;stroke:#ffd700;stroke-linecap:round;stroke-opacity:0.9;stroke-width:4;"/>
   </g>
   <g id="line2d_70">
    <path clip-path="url(#pe5bfd0f178)" d="M 78.21821 286.229148 
L 104.903778 288.077485 
L 131.589347 290.701509 
L 158.274915 294.821328 
L 184.960483 300.923286 
L 211.646051 308.521038 
L 238.331619 316.894478 
" style="fill:none;stroke:#ffff00;stroke-linecap:round;stroke-opacity:0.1;stroke-width:2;"/>
   </g>
   <g id="line2d_71">
    <path clip-path="url(#pe5bfd0f178)" d="M 78.21821 255.955228 
L 104.903778 264.328668 
L 131.589347 271.92642 
L 158.274915 278.028378 
L 184.960483 282.148197 
L 211.646051 284.772221 
L 238.331619 286.620558 
" style="fill:none;stroke:#ffff00;stroke-linecap:round;stroke-opacity:0.1;stroke-width:2;"/>
   </g>
   <g id="line2d_72">
    <path clip-path="url(#pe5bfd0f178)" d="M 265.017187 300.373937 
L 291.702756 284.016599 
L 318.388324 274.078003 
L 345.073892 270.558148 
" style="fill:none;stroke:#ffff00;stroke-linecap:round;stroke-opacity:0.1;stroke-width:2;"/>
   </g>
   <g id="line2d_73">
    <path clip-path="url(#pe5bfd0f178)" d="M 265.017187 263.201158 
L 291.702756 259.681303 
L 318.388324 249.742707 
L 345.073892 233.385369 
" style="fill:none;stroke:#ffff00;stroke-linecap:round;stroke-opacity:0.1;stroke-width:2;"/>
   </g>
   <g id="line2d_74">
    <path clip-path="url(#pe5bfd0f178)" d="M 371.75946 264.09839 
L 398.445028 264.638187 
L 425.130597 265.495495 
L 451.816165 266.912098 
L 478.501733 269.21841 
L 505.187301 272.596678 
L 531.872869 276.864656 
L 558.558437 281.691928 
L 585.244006 286.836712 
" style="fill:none;stroke:#ffff00;stroke-linecap:round;stroke-opacity:0.1;stroke-width:2;"/>
   </g>
   <g id="line2d_75">
    <path clip-path="url(#pe5bfd0f178)" d="M 371.75946 236.790119 
L 398.445028 241.934903 
L 425.130597 246.762176 
L 451.816165 251.030153 
L 478.501733 254.408421 
L 505.187301 256.714734 
L 531.872869 258.131336 
L 558.558437 258.988644 
L 585.244006 259.528441 
" style="fill:none;stroke:#ffff00;stroke-linecap:round;stroke-opacity:0.1;stroke-width:2;"/>
   </g>
   <g id="line2d_76">
    <path clip-path="url(#pe5bfd0f178)" d="M 611.929574 251.146018 
L 638.615142 248.747072 
L 665.30071 247.734685 
L 691.986278 249.343071 
L 718.671847 253.572229 
L 745.357415 259.187946 
" style="fill:none;stroke:#ffff00;stroke-linecap:round;stroke-opacity:0.1;stroke-width:2;"/>
   </g>
   <g id="line2d_77">
    <path clip-path="url(#pe5bfd0f178)" d="M 611.929574 218.989968 
L 638.615142 224.605686 
L 665.30071 228.834844 
L 691.986278 230.443229 
L 718.671847 229.430843 
L 745.357415 227.031896 
" style="fill:none;stroke:#ffff00;stroke-linecap:round;stroke-opacity:0.1;stroke-width:2;"/>
   </g>
   <g id="line2d_78">
    <path clip-path="url(#pe5bfd0f178)" d="M 78.21821 282.167825 
L 104.903778 271.106595 
L 131.589347 260.045365 
L 158.274915 248.984134 
L 184.960483 237.922904 
L 211.646051 226.861674 
L 238.331619 215.800444 
" style="fill:none;stroke:#4169e1;stroke-linecap:round;stroke-opacity:0.9;stroke-width:4;"/>
   </g>
   <g id="line2d_79">
    <path clip-path="url(#pe5bfd0f178)" d="M 265.017187 313.037747 
L 291.702756 305.781793 
L 318.388324 298.52584 
L 345.073892 291.269886 
" style="fill:none;stroke:#4169e1;stroke-linecap:round;stroke-opacity:0.9;stroke-width:4;"/>
   </g>
   <g id="line2d_80">
    <path clip-path="url(#pe5bfd0f178)" d="M 371.75946 253.809546 
L 398.445028 247.772607 
L 425.130597 241.735669 
L 451.816165 235.69873 
L 478.501733 229.661791 
L 505.187301 223.624853 
L 531.872869 217.587914 
L 558.558437 211.550975 
L 585.244006 205.514036 
" style="fill:none;stroke:#4169e1;stroke-linecap:round;stroke-opacity:0.9;stroke-width:4;"/>
   </g>
   <g id="line2d_81">
    <path clip-path="url(#pe5bfd0f178)" d="M 611.929574 311.048031 
L 638.615142 309.621268 
L 665.30071 308.194505 
L 691.986278 306.767741 
L 718.671847 305.340978 
L 745.357415 303.914215 
" style="fill:none;stroke:#4169e1;stroke-linecap:round;stroke-opacity:0.9;stroke-width:4;"/>
   </g>
   <g id="line2d_82">
    <path clip-path="url(#pe5bfd0f178)" d="M 78.21821 346.244515 
L 104.903778 321.372486 
L 131.589347 299.784041 
L 158.274915 284.527487 
L 184.960483 277.66158 
L 211.646051 277.127565 
L 238.331619 279.877134 
" style="fill:none;stroke:#87cefa;stroke-linecap:round;stroke-opacity:0.1;stroke-width:2;"/>
   </g>
   <g id="line2d_83">
    <path clip-path="url(#pe5bfd0f178)" d="M 78.21821 218.091135 
L 104.903778 220.840704 
L 131.589347 220.306688 
L 158.274915 213.440782 
L 184.960483 198.184228 
L 211.646051 176.595783 
L 238.331619 151.723754 
" style="fill:none;stroke:#87cefa;stroke-linecap:round;stroke-opacity:0.1;stroke-width:2;"/>
   </g>
   <g id="line2d_84">
    <path clip-path="url(#pe5bfd0f178)" d="M 265.017187 391.716312 
L 291.702756 357.289005 
L 318.388324 350.033051 
L 345.073892 369.948451 
" style="fill:none;stroke:#87cefa;stroke-linecap:round;stroke-opacity:0.1;stroke-width:2;"/>
   </g>
   <g id="line2d_85">
    <path clip-path="url(#pe5bfd0f178)" d="M 265.017187 234.359182 
L 291.702756 254.274582 
L 318.388324 247.018629 
L 345.073892 212.591322 
" style="fill:none;stroke:#87cefa;stroke-linecap:round;stroke-opacity:0.1;stroke-width:2;"/>
   </g>
   <g id="line2d_86">
    <path clip-path="url(#pe5bfd0f178)" d="M 371.75946 311.60925 
L 398.445028 295.825561 
L 425.130597 281.385938 
L 451.816165 269.313882 
L 478.501733 261.008082 
L 505.187301 257.240004 
L 531.872869 257.238184 
L 558.558437 259.603929 
L 585.244006 263.31374 
" style="fill:none;stroke:#87cefa;stroke-linecap:round;stroke-opacity:0.1;stroke-width:2;"/>
   </g>
   <g id="line2d_87">
    <path clip-path="url(#pe5bfd0f178)" d="M 371.75946 196.009842 
L 398.445028 199.719654 
L 425.130597 202.085399 
L 451.816165 202.083578 
L 478.501733 198.315501 
L 505.187301 190.009701 
L 531.872869 177.937644 
L 558.558437 163.498022 
L 585.244006 147.714333 
" style="fill:none;stroke:#87cefa;stroke-linecap:round;stroke-opacity:0.1;stroke-width:2;"/>
   </g>
   <g id="line2d_88">
    <path clip-path="url(#pe5bfd0f178)" d="M 611.929574 379.108369 
L 638.615142 360.718056 
L 665.30071 348.197228 
L 691.986278 346.770465 
L 718.671847 356.437767 
L 745.357415 371.974554 
" style="fill:none;stroke:#87cefa;stroke-linecap:round;stroke-opacity:0.1;stroke-width:2;"/>
   </g>
   <g id="line2d_89">
    <path clip-path="url(#pe5bfd0f178)" d="M 611.929574 242.987692 
L 638.615142 258.524479 
L 665.30071 268.191781 
L 691.986278 266.765018 
L 718.671847 254.24419 
L 745.357415 235.853877 
" style="fill:none;stroke:#87cefa;stroke-linecap:round;stroke-opacity:0.1;stroke-width:2;"/>
   </g>
   <g id="line2d_90">
    <path clip-path="url(#pe5bfd0f178)" d="M 251.674403 419.802 
L 251.674403 62.28 
" style="fill:none;stroke:#000000;stroke-linecap:round;stroke-width:3.5;"/>
   </g>
   <g id="line2d_91">
    <path clip-path="url(#pe5bfd0f178)" d="M 358.416676 419.802 
L 358.416676 62.28 
" style="fill:none;stroke:#000000;stroke-linecap:round;stroke-width:3.5;"/>
   </g>
   <g id="line2d_92">
    <path clip-path="url(#pe5bfd0f178)" d="M 598.58679 419.802 
L 598.58679 62.28 
" style="fill:none;stroke:#000000;stroke-linecap:round;stroke-width:3.5;"/>
   </g>
   <g id="patch_3">
    <path d="M 44.86125 419.802 
L 44.86125 62.28 
" style="fill:none;stroke:#cccccc;stroke-linecap:square;stroke-linejoin:miter;"/>
   </g>
   <g id="patch_4">
    <path d="M 778.714375 419.802 
L 778.714375 62.28 
" style="fill:none;stroke:#cccccc;stroke-linecap:square;stroke-linejoin:miter;"/>
   </g>
   <g id="patch_5">
    <path d="M 44.86125 419.802 
L 778.714375 419.802 
" style="fill:none;stroke:#cccccc;stroke-linecap:square;stroke-linejoin:miter;"/>
   </g>
   <g id="patch_6">
    <path d="M 44.86125 62.28 
L 778.714375 62.28 
" style="fill:none;stroke:#cccccc;stroke-linecap:square;stroke-linejoin:miter;"/>
   </g>
   <g id="text_22">
    <!-- 2018-08 -->
    <g style="fill:#262626;" transform="translate(222.320278 62.28)scale(0.13 -0.13)">
     <defs>
      <path d="M 3.171875 21.484375 
L 3.171875 30.328125 
L 30.171875 30.328125 
L 30.171875 21.484375 
z
" id="ArialMT-45"/>
     </defs>
     <use xlink:href="#ArialMT-50"/>
     <use x="55.615234" xlink:href="#ArialMT-48"/>
     <use x="111.230469" xlink:href="#ArialMT-49"/>
     <use x="166.845703" xlink:href="#ArialMT-56"/>
     <use x="222.460938" xlink:href="#ArialMT-45"/>
     <use x="255.761719" xlink:href="#ArialMT-48"/>
     <use x="311.376953" xlink:href="#ArialMT-56"/>
    </g>
   </g>
   <g id="text_23">
    <!-- 2018-12 -->
    <g style="fill:#262626;" transform="translate(329.062551 62.28)scale(0.13 -0.13)">
     <use xlink:href="#ArialMT-50"/>
     <use x="55.615234" xlink:href="#ArialMT-48"/>
     <use x="111.230469" xlink:href="#ArialMT-49"/>
     <use x="166.845703" xlink:href="#ArialMT-56"/>
     <use x="222.460938" xlink:href="#ArialMT-45"/>
     <use x="255.761719" xlink:href="#ArialMT-49"/>
     <use x="311.376953" xlink:href="#ArialMT-50"/>
    </g>
   </g>
   <g id="text_24">
    <!-- 2019-09 -->
    <g style="fill:#262626;" transform="translate(569.232665 62.28)scale(0.13 -0.13)">
     <defs>
      <path d="M 5.46875 16.546875 
L 13.921875 17.328125 
Q 14.984375 11.375 18.015625 8.6875 
Q 21.046875 6 25.78125 6 
Q 29.828125 6 32.875 7.859375 
Q 35.9375 9.71875 37.890625 12.8125 
Q 39.84375 15.921875 41.15625 21.1875 
Q 42.484375 26.46875 42.484375 31.9375 
Q 42.484375 32.515625 42.4375 33.6875 
Q 39.796875 29.5 35.234375 26.875 
Q 30.671875 24.265625 25.34375 24.265625 
Q 16.453125 24.265625 10.296875 30.703125 
Q 4.15625 37.15625 4.15625 47.703125 
Q 4.15625 58.59375 10.578125 65.234375 
Q 17 71.875 26.65625 71.875 
Q 33.640625 71.875 39.421875 68.109375 
Q 45.21875 64.359375 48.21875 57.390625 
Q 51.21875 50.4375 51.21875 37.25 
Q 51.21875 23.53125 48.234375 15.40625 
Q 45.265625 7.28125 39.375 3.03125 
Q 33.5 -1.21875 25.59375 -1.21875 
Q 17.1875 -1.21875 11.859375 3.4375 
Q 6.546875 8.109375 5.46875 16.546875 
z
M 41.453125 48.140625 
Q 41.453125 55.71875 37.421875 60.15625 
Q 33.40625 64.59375 27.734375 64.59375 
Q 21.875 64.59375 17.53125 59.8125 
Q 13.1875 55.03125 13.1875 47.40625 
Q 13.1875 40.578125 17.3125 36.296875 
Q 21.4375 32.03125 27.484375 32.03125 
Q 33.59375 32.03125 37.515625 36.296875 
Q 41.453125 40.578125 41.453125 48.140625 
z
" id="ArialMT-57"/>
     </defs>
     <use xlink:href="#ArialMT-50"/>
     <use x="55.615234" xlink:href="#ArialMT-48"/>
     <use x="111.230469" xlink:href="#ArialMT-49"/>
     <use x="166.845703" xlink:href="#ArialMT-57"/>
     <use x="222.460938" xlink:href="#ArialMT-45"/>
     <use x="255.761719" xlink:href="#ArialMT-48"/>
     <use x="311.376953" xlink:href="#ArialMT-57"/>
    </g>
   </g>
   <g id="legend_1">
    <g id="patch_7">
     <path d="M 152.331422 534.527175 
L 555.124547 534.527175 
Q 557.524547 534.527175 557.524547 532.127175 
L 557.524547 481.8303 
Q 557.524547 479.4303 555.124547 479.4303 
L 152.331422 479.4303 
Q 149.931422 479.4303 149.931422 481.8303 
L 149.931422 532.127175 
Q 149.931422 534.527175 152.331422 534.527175 
z
" style="fill:#ffffff;opacity:0.8;stroke:#000000;stroke-linejoin:miter;"/>
    </g>
    <g id="line2d_93">
     <path d="M 154.731422 488.765925 
L 178.731422 488.765925 
" style="fill:none;stroke:#ffd700;stroke-linecap:round;stroke-opacity:0.9;stroke-width:4;"/>
    </g>
    <g id="line2d_94"/>
    <g id="text_25">
     <!-- Climate Article Trend -->
     <g style="fill:#262626;" transform="translate(188.331422 492.965925)scale(0.12 -0.12)">
      <defs>
       <path d="M 58.796875 25.09375 
L 68.265625 22.703125 
Q 65.28125 11.03125 57.546875 4.90625 
Q 49.8125 -1.21875 38.625 -1.21875 
Q 27.046875 -1.21875 19.796875 3.484375 
Q 12.546875 8.203125 8.765625 17.140625 
Q 4.984375 26.078125 4.984375 36.328125 
Q 4.984375 47.515625 9.25 55.828125 
Q 13.53125 64.15625 21.40625 68.46875 
Q 29.296875 72.796875 38.765625 72.796875 
Q 49.515625 72.796875 56.828125 67.328125 
Q 64.15625 61.859375 67.046875 51.953125 
L 57.71875 49.75 
Q 55.21875 57.5625 50.484375 61.125 
Q 45.75 64.703125 38.578125 64.703125 
Q 30.328125 64.703125 24.78125 60.734375 
Q 19.234375 56.78125 16.984375 50.109375 
Q 14.75 43.453125 14.75 36.375 
Q 14.75 27.25 17.40625 20.4375 
Q 20.0625 13.625 25.671875 10.25 
Q 31.296875 6.890625 37.84375 6.890625 
Q 45.796875 6.890625 51.3125 11.46875 
Q 56.84375 16.0625 58.796875 25.09375 
z
" id="ArialMT-67"/>
       <path d="M 40.234375 0 
L 40.234375 6.546875 
Q 35.296875 -1.171875 25.734375 -1.171875 
Q 19.53125 -1.171875 14.328125 2.25 
Q 9.125 5.671875 6.265625 11.796875 
Q 3.421875 17.921875 3.421875 25.875 
Q 3.421875 33.640625 6 39.96875 
Q 8.59375 46.296875 13.765625 49.65625 
Q 18.953125 53.03125 25.34375 53.03125 
Q 30.03125 53.03125 33.6875 51.046875 
Q 37.359375 49.078125 39.65625 45.90625 
L 39.65625 71.578125 
L 48.390625 71.578125 
L 48.390625 0 
z
M 12.453125 25.875 
Q 12.453125 15.921875 16.640625 10.984375 
Q 20.84375 6.0625 26.5625 6.0625 
Q 32.328125 6.0625 36.34375 10.765625 
Q 40.375 15.484375 40.375 25.140625 
Q 40.375 35.796875 36.265625 40.765625 
Q 32.171875 45.75 26.171875 45.75 
Q 20.3125 45.75 16.375 40.96875 
Q 12.453125 36.1875 12.453125 25.875 
z
" id="ArialMT-100"/>
      </defs>
      <use xlink:href="#ArialMT-67"/>
      <use x="72.216797" xlink:href="#ArialMT-108"/>
      <use x="94.433594" xlink:href="#ArialMT-105"/>
      <use x="116.650391" xlink:href="#ArialMT-109"/>
      <use x="199.951172" xlink:href="#ArialMT-97"/>
      <use x="255.566406" xlink:href="#ArialMT-116"/>
      <use x="283.349609" xlink:href="#ArialMT-101"/>
      <use x="338.964844" xlink:href="#ArialMT-32"/>
      <use x="361.248047" xlink:href="#ArialMT-65"/>
      <use x="427.947266" xlink:href="#ArialMT-114"/>
      <use x="461.248047" xlink:href="#ArialMT-116"/>
      <use x="489.03125" xlink:href="#ArialMT-105"/>
      <use x="511.248047" xlink:href="#ArialMT-99"/>
      <use x="561.248047" xlink:href="#ArialMT-108"/>
      <use x="583.464844" xlink:href="#ArialMT-101"/>
      <use x="639.080078" xlink:href="#ArialMT-32"/>
      <use x="665.113281" xlink:href="#ArialMT-84"/>
      <use x="722.447266" xlink:href="#ArialMT-114"/>
      <use x="755.748047" xlink:href="#ArialMT-101"/>
      <use x="811.363281" xlink:href="#ArialMT-110"/>
      <use x="866.978516" xlink:href="#ArialMT-100"/>
     </g>
    </g>
    <g id="line2d_95">
     <path d="M 154.731422 505.7403 
L 178.731422 505.7403 
" style="fill:none;stroke:#4169e1;stroke-linecap:round;stroke-opacity:0.9;stroke-width:4;"/>
    </g>
    <g id="line2d_96"/>
    <g id="text_26">
     <!-- Popular Article Trend -->
     <g style="fill:#262626;" transform="translate(188.331422 509.9403)scale(0.12 -0.12)">
      <defs>
       <path d="M 7.71875 0 
L 7.71875 71.578125 
L 34.71875 71.578125 
Q 41.84375 71.578125 45.609375 70.90625 
Q 50.875 70.015625 54.4375 67.546875 
Q 58.015625 65.09375 60.1875 60.640625 
Q 62.359375 56.203125 62.359375 50.875 
Q 62.359375 41.75 56.546875 35.421875 
Q 50.734375 29.109375 35.546875 29.109375 
L 17.1875 29.109375 
L 17.1875 0 
z
M 17.1875 37.546875 
L 35.6875 37.546875 
Q 44.875 37.546875 48.734375 40.96875 
Q 52.59375 44.390625 52.59375 50.59375 
Q 52.59375 55.078125 50.3125 58.265625 
Q 48.046875 61.46875 44.34375 62.5 
Q 41.9375 63.140625 35.5 63.140625 
L 17.1875 63.140625 
z
" id="ArialMT-80"/>
       <path d="M 6.59375 -19.875 
L 6.59375 51.859375 
L 14.59375 51.859375 
L 14.59375 45.125 
Q 17.4375 49.078125 21 51.046875 
Q 24.5625 53.03125 29.640625 53.03125 
Q 36.28125 53.03125 41.359375 49.609375 
Q 46.4375 46.1875 49.015625 39.953125 
Q 51.609375 33.734375 51.609375 26.3125 
Q 51.609375 18.359375 48.75 11.984375 
Q 45.90625 5.609375 40.453125 2.21875 
Q 35.015625 -1.171875 29 -1.171875 
Q 24.609375 -1.171875 21.109375 0.6875 
Q 17.625 2.546875 15.375 5.375 
L 15.375 -19.875 
z
M 14.546875 25.640625 
Q 14.546875 15.625 18.59375 10.84375 
Q 22.65625 6.0625 28.421875 6.0625 
Q 34.28125 6.0625 38.453125 11.015625 
Q 42.625 15.96875 42.625 26.375 
Q 42.625 36.28125 38.546875 41.203125 
Q 34.46875 46.140625 28.8125 46.140625 
Q 23.1875 46.140625 18.859375 40.890625 
Q 14.546875 35.640625 14.546875 25.640625 
z
" id="ArialMT-112"/>
       <path d="M 40.578125 0 
L 40.578125 7.625 
Q 34.515625 -1.171875 24.125 -1.171875 
Q 19.53125 -1.171875 15.546875 0.578125 
Q 11.578125 2.34375 9.640625 5 
Q 7.71875 7.671875 6.9375 11.53125 
Q 6.390625 14.109375 6.390625 19.734375 
L 6.390625 51.859375 
L 15.1875 51.859375 
L 15.1875 23.09375 
Q 15.1875 16.21875 15.71875 13.8125 
Q 16.546875 10.359375 19.234375 8.375 
Q 21.921875 6.390625 25.875 6.390625 
Q 29.828125 6.390625 33.296875 8.421875 
Q 36.765625 10.453125 38.203125 13.9375 
Q 39.65625 17.4375 39.65625 24.078125 
L 39.65625 51.859375 
L 48.4375 51.859375 
L 48.4375 0 
z
" id="ArialMT-117"/>
      </defs>
      <use xlink:href="#ArialMT-80"/>
      <use x="66.699219" xlink:href="#ArialMT-111"/>
      <use x="122.314453" xlink:href="#ArialMT-112"/>
      <use x="177.929688" xlink:href="#ArialMT-117"/>
      <use x="233.544922" xlink:href="#ArialMT-108"/>
      <use x="255.761719" xlink:href="#ArialMT-97"/>
      <use x="311.376953" xlink:href="#ArialMT-114"/>
      <use x="344.677734" xlink:href="#ArialMT-32"/>
      <use x="366.960938" xlink:href="#ArialMT-65"/>
      <use x="433.660156" xlink:href="#ArialMT-114"/>
      <use x="466.960938" xlink:href="#ArialMT-116"/>
      <use x="494.744141" xlink:href="#ArialMT-105"/>
      <use x="516.960938" xlink:href="#ArialMT-99"/>
      <use x="566.960938" xlink:href="#ArialMT-108"/>
      <use x="589.177734" xlink:href="#ArialMT-101"/>
      <use x="644.792969" xlink:href="#ArialMT-32"/>
      <use x="670.826172" xlink:href="#ArialMT-84"/>
      <use x="728.160156" xlink:href="#ArialMT-114"/>
      <use x="761.460938" xlink:href="#ArialMT-101"/>
      <use x="817.076172" xlink:href="#ArialMT-110"/>
      <use x="872.691406" xlink:href="#ArialMT-100"/>
     </g>
    </g>
    <g id="PathCollection_3">
     <g>
      <use style="fill:#daa520;stroke:#daa520;" x="166.731422" xlink:href="#mcaf2f54fe9" y="523.764675"/>
     </g>
    </g>
    <g id="text_27">
     <!-- Climate-related Articles -->
     <g style="fill:#262626;" transform="translate(188.331422 526.914675)scale(0.12 -0.12)">
      <use xlink:href="#ArialMT-67"/>
      <use x="72.216797" xlink:href="#ArialMT-108"/>
      <use x="94.433594" xlink:href="#ArialMT-105"/>
      <use x="116.650391" xlink:href="#ArialMT-109"/>
      <use x="199.951172" xlink:href="#ArialMT-97"/>
      <use x="255.566406" xlink:href="#ArialMT-116"/>
      <use x="283.349609" xlink:href="#ArialMT-101"/>
      <use x="338.964844" xlink:href="#ArialMT-45"/>
      <use x="372.265625" xlink:href="#ArialMT-114"/>
      <use x="405.566406" xlink:href="#ArialMT-101"/>
      <use x="461.181641" xlink:href="#ArialMT-108"/>
      <use x="483.398438" xlink:href="#ArialMT-97"/>
      <use x="539.013672" xlink:href="#ArialMT-116"/>
      <use x="566.796875" xlink:href="#ArialMT-101"/>
      <use x="622.412109" xlink:href="#ArialMT-100"/>
      <use x="678.027344" xlink:href="#ArialMT-32"/>
      <use x="700.310547" xlink:href="#ArialMT-65"/>
      <use x="767.009766" xlink:href="#ArialMT-114"/>
      <use x="800.310547" xlink:href="#ArialMT-116"/>
      <use x="828.09375" xlink:href="#ArialMT-105"/>
      <use x="850.310547" xlink:href="#ArialMT-99"/>
      <use x="900.310547" xlink:href="#ArialMT-108"/>
      <use x="922.527344" xlink:href="#ArialMT-101"/>
      <use x="978.142578" xlink:href="#ArialMT-115"/>
     </g>
    </g>
    <g id="patch_8">
     <path d="M 335.702672 492.965925 
L 359.702672 492.965925 
L 359.702672 484.565925 
L 335.702672 484.565925 
z
" style="fill:#ffff00;opacity:0.25;"/>
    </g>
    <g id="text_28">
     <!-- Climate Confidence Interval (95%) -->
     <g style="fill:#262626;" transform="translate(369.302672 492.965925)scale(0.12 -0.12)">
      <defs>
       <path d="M 8.6875 0 
L 8.6875 45.015625 
L 0.921875 45.015625 
L 0.921875 51.859375 
L 8.6875 51.859375 
L 8.6875 57.375 
Q 8.6875 62.59375 9.625 65.140625 
Q 10.890625 68.5625 14.078125 70.671875 
Q 17.28125 72.796875 23.046875 72.796875 
Q 26.765625 72.796875 31.25 71.921875 
L 29.9375 64.265625 
Q 27.203125 64.75 24.75 64.75 
Q 20.75 64.75 19.09375 63.03125 
Q 17.4375 61.328125 17.4375 56.640625 
L 17.4375 51.859375 
L 27.546875 51.859375 
L 27.546875 45.015625 
L 17.4375 45.015625 
L 17.4375 0 
z
" id="ArialMT-102"/>
       <path d="M 9.328125 0 
L 9.328125 71.578125 
L 18.796875 71.578125 
L 18.796875 0 
z
" id="ArialMT-73"/>
       <path d="M 21 0 
L 1.265625 51.859375 
L 10.546875 51.859375 
L 21.6875 20.796875 
Q 23.484375 15.765625 25 10.359375 
Q 26.171875 14.453125 28.265625 20.21875 
L 39.796875 51.859375 
L 48.828125 51.859375 
L 29.203125 0 
z
" id="ArialMT-118"/>
       <path d="M 5.8125 54.390625 
Q 5.8125 62.0625 9.671875 67.421875 
Q 13.53125 72.796875 20.84375 72.796875 
Q 27.59375 72.796875 32 67.984375 
Q 36.421875 63.1875 36.421875 53.859375 
Q 36.421875 44.78125 31.953125 39.875 
Q 27.484375 34.96875 20.953125 34.96875 
Q 14.453125 34.96875 10.125 39.796875 
Q 5.8125 44.625 5.8125 54.390625 
z
M 21.09375 66.75 
Q 17.828125 66.75 15.65625 63.90625 
Q 13.484375 61.078125 13.484375 53.515625 
Q 13.484375 46.625 15.671875 43.8125 
Q 17.875 41.015625 21.09375 41.015625 
Q 24.421875 41.015625 26.59375 43.84375 
Q 28.765625 46.6875 28.765625 54.203125 
Q 28.765625 61.140625 26.5625 63.9375 
Q 24.359375 66.75 21.09375 66.75 
z
M 21.140625 -2.640625 
L 60.296875 72.796875 
L 67.4375 72.796875 
L 28.421875 -2.640625 
z
M 52.09375 16.796875 
Q 52.09375 24.515625 55.953125 29.859375 
Q 59.8125 35.203125 67.1875 35.203125 
Q 73.921875 35.203125 78.34375 30.390625 
Q 82.765625 25.59375 82.765625 16.265625 
Q 82.765625 7.171875 78.296875 2.265625 
Q 73.828125 -2.640625 67.234375 -2.640625 
Q 60.75 -2.640625 56.421875 2.21875 
Q 52.09375 7.078125 52.09375 16.796875 
z
M 67.4375 29.15625 
Q 64.109375 29.15625 61.9375 26.3125 
Q 59.765625 23.484375 59.765625 15.921875 
Q 59.765625 9.078125 61.953125 6.25 
Q 64.15625 3.421875 67.390625 3.421875 
Q 70.75 3.421875 72.921875 6.25 
Q 75.09375 9.078125 75.09375 16.609375 
Q 75.09375 23.53125 72.890625 26.34375 
Q 70.703125 29.15625 67.4375 29.15625 
z
" id="ArialMT-37"/>
      </defs>
      <use xlink:href="#ArialMT-67"/>
      <use x="72.216797" xlink:href="#ArialMT-108"/>
      <use x="94.433594" xlink:href="#ArialMT-105"/>
      <use x="116.650391" xlink:href="#ArialMT-109"/>
      <use x="199.951172" xlink:href="#ArialMT-97"/>
      <use x="255.566406" xlink:href="#ArialMT-116"/>
      <use x="283.349609" xlink:href="#ArialMT-101"/>
      <use x="338.964844" xlink:href="#ArialMT-32"/>
      <use x="366.748047" xlink:href="#ArialMT-67"/>
      <use x="438.964844" xlink:href="#ArialMT-111"/>
      <use x="494.580078" xlink:href="#ArialMT-110"/>
      <use x="550.195312" xlink:href="#ArialMT-102"/>
      <use x="577.978516" xlink:href="#ArialMT-105"/>
      <use x="600.195312" xlink:href="#ArialMT-100"/>
      <use x="655.810547" xlink:href="#ArialMT-101"/>
      <use x="711.425781" xlink:href="#ArialMT-110"/>
      <use x="767.041016" xlink:href="#ArialMT-99"/>
      <use x="817.041016" xlink:href="#ArialMT-101"/>
      <use x="872.65625" xlink:href="#ArialMT-32"/>
      <use x="900.439453" xlink:href="#ArialMT-73"/>
      <use x="928.222656" xlink:href="#ArialMT-110"/>
      <use x="983.837891" xlink:href="#ArialMT-116"/>
      <use x="1011.621094" xlink:href="#ArialMT-101"/>
      <use x="1067.236328" xlink:href="#ArialMT-114"/>
      <use x="1100.537109" xlink:href="#ArialMT-118"/>
      <use x="1150.537109" xlink:href="#ArialMT-97"/>
      <use x="1206.152344" xlink:href="#ArialMT-108"/>
      <use x="1228.369141" xlink:href="#ArialMT-32"/>
      <use x="1256.152344" xlink:href="#ArialMT-40"/>
      <use x="1289.453125" xlink:href="#ArialMT-57"/>
      <use x="1345.068359" xlink:href="#ArialMT-53"/>
      <use x="1400.683594" xlink:href="#ArialMT-37"/>
      <use x="1489.599609" xlink:href="#ArialMT-41"/>
     </g>
    </g>
    <g id="PathCollection_4">
     <g>
      <use style="fill:#00008b;stroke:#00008b;" x="347.702672" xlink:href="#m05be925c36" y="506.930925"/>
     </g>
    </g>
    <g id="text_29">
     <!-- Popular-related Articles -->
     <g style="fill:#262626;" transform="translate(369.302672 510.080925)scale(0.12 -0.12)">
      <use xlink:href="#ArialMT-80"/>
      <use x="66.699219" xlink:href="#ArialMT-111"/>
      <use x="122.314453" xlink:href="#ArialMT-112"/>
      <use x="177.929688" xlink:href="#ArialMT-117"/>
      <use x="233.544922" xlink:href="#ArialMT-108"/>
      <use x="255.761719" xlink:href="#ArialMT-97"/>
      <use x="311.376953" xlink:href="#ArialMT-114"/>
      <use x="344.677734" xlink:href="#ArialMT-45"/>
      <use x="377.978516" xlink:href="#ArialMT-114"/>
      <use x="411.279297" xlink:href="#ArialMT-101"/>
      <use x="466.894531" xlink:href="#ArialMT-108"/>
      <use x="489.111328" xlink:href="#ArialMT-97"/>
      <use x="544.726562" xlink:href="#ArialMT-116"/>
      <use x="572.509766" xlink:href="#ArialMT-101"/>
      <use x="628.125" xlink:href="#ArialMT-100"/>
      <use x="683.740234" xlink:href="#ArialMT-32"/>
      <use x="706.023438" xlink:href="#ArialMT-65"/>
      <use x="772.722656" xlink:href="#ArialMT-114"/>
      <use x="806.023438" xlink:href="#ArialMT-116"/>
      <use x="833.806641" xlink:href="#ArialMT-105"/>
      <use x="856.023438" xlink:href="#ArialMT-99"/>
      <use x="906.023438" xlink:href="#ArialMT-108"/>
      <use x="928.240234" xlink:href="#ArialMT-101"/>
      <use x="983.855469" xlink:href="#ArialMT-115"/>
     </g>
    </g>
    <g id="patch_9">
     <path d="M 335.702672 527.20155 
L 359.702672 527.20155 
L 359.702672 518.80155 
L 335.702672 518.80155 
z
" style="fill:#87cefa;opacity:0.25;"/>
    </g>
    <g id="text_30">
     <!-- Popular Confidence Interval (95%) -->
     <g style="fill:#262626;" transform="translate(369.302672 527.20155)scale(0.12 -0.12)">
      <use xlink:href="#ArialMT-80"/>
      <use x="66.699219" xlink:href="#ArialMT-111"/>
      <use x="122.314453" xlink:href="#ArialMT-112"/>
      <use x="177.929688" xlink:href="#ArialMT-117"/>
      <use x="233.544922" xlink:href="#ArialMT-108"/>
      <use x="255.761719" xlink:href="#ArialMT-97"/>
      <use x="311.376953" xlink:href="#ArialMT-114"/>
      <use x="344.677734" xlink:href="#ArialMT-32"/>
      <use x="372.460938" xlink:href="#ArialMT-67"/>
      <use x="444.677734" xlink:href="#ArialMT-111"/>
      <use x="500.292969" xlink:href="#ArialMT-110"/>
      <use x="555.908203" xlink:href="#ArialMT-102"/>
      <use x="583.691406" xlink:href="#ArialMT-105"/>
      <use x="605.908203" xlink:href="#ArialMT-100"/>
      <use x="661.523438" xlink:href="#ArialMT-101"/>
      <use x="717.138672" xlink:href="#ArialMT-110"/>
      <use x="772.753906" xlink:href="#ArialMT-99"/>
      <use x="822.753906" xlink:href="#ArialMT-101"/>
      <use x="878.369141" xlink:href="#ArialMT-32"/>
      <use x="906.152344" xlink:href="#ArialMT-73"/>
      <use x="933.935547" xlink:href="#ArialMT-110"/>
      <use x="989.550781" xlink:href="#ArialMT-116"/>
      <use x="1017.333984" xlink:href="#ArialMT-101"/>
      <use x="1072.949219" xlink:href="#ArialMT-114"/>
      <use x="1106.25" xlink:href="#ArialMT-118"/>
      <use x="1156.25" xlink:href="#ArialMT-97"/>
      <use x="1211.865234" xlink:href="#ArialMT-108"/>
      <use x="1234.082031" xlink:href="#ArialMT-32"/>
      <use x="1261.865234" xlink:href="#ArialMT-40"/>
      <use x="1295.166016" xlink:href="#ArialMT-57"/>
      <use x="1350.78125" xlink:href="#ArialMT-53"/>
      <use x="1406.396484" xlink:href="#ArialMT-37"/>
      <use x="1495.3125" xlink:href="#ArialMT-41"/>
     </g>
    </g>
   </g>
  </g>
  <g id="text_31">
   <!-- [COMMON] Climate articles vs. Popular articles 2018, 2019 -->
   <g style="fill:#262626;" transform="translate(130.100313 21.771875)scale(0.2 -0.2)">
    <defs>
     <path d="M 6.78125 -19.875 
L 6.78125 71.578125 
L 26.171875 71.578125 
L 26.171875 64.3125 
L 15.578125 64.3125 
L 15.578125 -12.59375 
L 26.171875 -12.59375 
L 26.171875 -19.875 
z
" id="ArialMT-91"/>
     <path d="M 4.828125 34.859375 
Q 4.828125 52.6875 14.390625 62.765625 
Q 23.96875 72.859375 39.109375 72.859375 
Q 49.03125 72.859375 56.984375 68.109375 
Q 64.9375 63.375 69.109375 54.90625 
Q 73.296875 46.4375 73.296875 35.6875 
Q 73.296875 24.8125 68.890625 16.21875 
Q 64.5 7.625 56.4375 3.203125 
Q 48.390625 -1.21875 39.0625 -1.21875 
Q 28.953125 -1.21875 20.984375 3.65625 
Q 13.03125 8.546875 8.921875 16.984375 
Q 4.828125 25.4375 4.828125 34.859375 
z
M 14.59375 34.71875 
Q 14.59375 21.78125 21.546875 14.328125 
Q 28.515625 6.890625 39.015625 6.890625 
Q 49.703125 6.890625 56.609375 14.40625 
Q 63.53125 21.921875 63.53125 35.75 
Q 63.53125 44.484375 60.578125 51 
Q 57.625 57.515625 51.921875 61.109375 
Q 46.234375 64.703125 39.15625 64.703125 
Q 29.109375 64.703125 21.84375 57.78125 
Q 14.59375 50.875 14.59375 34.71875 
z
" id="ArialMT-79"/>
     <path d="M 7.625 0 
L 7.625 71.578125 
L 17.328125 71.578125 
L 54.9375 15.375 
L 54.9375 71.578125 
L 64.015625 71.578125 
L 64.015625 0 
L 54.296875 0 
L 16.703125 56.25 
L 16.703125 0 
z
" id="ArialMT-78"/>
     <path d="M 21.296875 -19.875 
L 1.90625 -19.875 
L 1.90625 -12.59375 
L 12.5 -12.59375 
L 12.5 64.3125 
L 1.90625 64.3125 
L 1.90625 71.578125 
L 21.296875 71.578125 
z
" id="ArialMT-93"/>
     <path d="M 8.890625 0 
L 8.890625 10.015625 
L 18.890625 10.015625 
L 18.890625 0 
Q 18.890625 -5.515625 16.9375 -8.90625 
Q 14.984375 -12.3125 10.75 -14.15625 
L 8.296875 -10.40625 
Q 11.078125 -9.1875 12.390625 -6.8125 
Q 13.71875 -4.4375 13.875 0 
z
" id="ArialMT-44"/>
    </defs>
    <use xlink:href="#ArialMT-91"/>
    <use x="27.783203" xlink:href="#ArialMT-67"/>
    <use x="100" xlink:href="#ArialMT-79"/>
    <use x="177.783203" xlink:href="#ArialMT-77"/>
    <use x="261.083984" xlink:href="#ArialMT-77"/>
    <use x="344.384766" xlink:href="#ArialMT-79"/>
    <use x="422.167969" xlink:href="#ArialMT-78"/>
    <use x="494.384766" xlink:href="#ArialMT-93"/>
    <use x="522.167969" xlink:href="#ArialMT-32"/>
    <use x="549.951172" xlink:href="#ArialMT-67"/>
    <use x="622.167969" xlink:href="#ArialMT-108"/>
    <use x="644.384766" xlink:href="#ArialMT-105"/>
    <use x="666.601562" xlink:href="#ArialMT-109"/>
    <use x="749.902344" xlink:href="#ArialMT-97"/>
    <use x="805.517578" xlink:href="#ArialMT-116"/>
    <use x="833.300781" xlink:href="#ArialMT-101"/>
    <use x="888.916016" xlink:href="#ArialMT-32"/>
    <use x="916.699219" xlink:href="#ArialMT-97"/>
    <use x="972.314453" xlink:href="#ArialMT-114"/>
    <use x="1005.615234" xlink:href="#ArialMT-116"/>
    <use x="1033.398438" xlink:href="#ArialMT-105"/>
    <use x="1055.615234" xlink:href="#ArialMT-99"/>
    <use x="1105.615234" xlink:href="#ArialMT-108"/>
    <use x="1127.832031" xlink:href="#ArialMT-101"/>
    <use x="1183.447266" xlink:href="#ArialMT-115"/>
    <use x="1233.447266" xlink:href="#ArialMT-32"/>
    <use x="1261.230469" xlink:href="#ArialMT-118"/>
    <use x="1311.230469" xlink:href="#ArialMT-115"/>
    <use x="1361.230469" xlink:href="#ArialMT-46"/>
    <use x="1389.013672" xlink:href="#ArialMT-32"/>
    <use x="1416.796875" xlink:href="#ArialMT-80"/>
    <use x="1483.496094" xlink:href="#ArialMT-111"/>
    <use x="1539.111328" xlink:href="#ArialMT-112"/>
    <use x="1594.726562" xlink:href="#ArialMT-117"/>
    <use x="1650.341797" xlink:href="#ArialMT-108"/>
    <use x="1672.558594" xlink:href="#ArialMT-97"/>
    <use x="1728.173828" xlink:href="#ArialMT-114"/>
    <use x="1761.474609" xlink:href="#ArialMT-32"/>
    <use x="1789.257812" xlink:href="#ArialMT-97"/>
    <use x="1844.873047" xlink:href="#ArialMT-114"/>
    <use x="1878.173828" xlink:href="#ArialMT-116"/>
    <use x="1905.957031" xlink:href="#ArialMT-105"/>
    <use x="1928.173828" xlink:href="#ArialMT-99"/>
    <use x="1978.173828" xlink:href="#ArialMT-108"/>
    <use x="2000.390625" xlink:href="#ArialMT-101"/>
    <use x="2056.005859" xlink:href="#ArialMT-115"/>
    <use x="2106.005859" xlink:href="#ArialMT-32"/>
    <use x="2133.789062" xlink:href="#ArialMT-50"/>
    <use x="2189.404297" xlink:href="#ArialMT-48"/>
    <use x="2245.019531" xlink:href="#ArialMT-49"/>
    <use x="2300.634766" xlink:href="#ArialMT-56"/>
    <use x="2356.25" xlink:href="#ArialMT-44"/>
    <use x="2384.033203" xlink:href="#ArialMT-32"/>
    <use x="2411.816406" xlink:href="#ArialMT-50"/>
    <use x="2467.431641" xlink:href="#ArialMT-48"/>
    <use x="2523.046875" xlink:href="#ArialMT-49"/>
    <use x="2578.662109" xlink:href="#ArialMT-57"/>
   </g>
  </g>
 </g>
 <defs>
  <clipPath id="pe5bfd0f178">
   <rect height="357.522" width="733.853125" x="44.86125" y="62.28"/>
  </clipPath>
 </defs>
</svg>
