<?xml version="1.0" encoding="utf-8" standalone="no"?>
<!DOCTYPE svg PUBLIC "-//W3C//DTD SVG 1.1//EN"
  "http://www.w3.org/Graphics/SVG/1.1/DTD/svg11.dtd">
<!-- Created with matplotlib (https://matplotlib.org/) -->
<svg height="473.080312pt" version="1.1" viewBox="0 0 674.765937 473.080312" width="674.765937pt" xmlns="http://www.w3.org/2000/svg" xmlns:xlink="http://www.w3.org/1999/xlink">
 <metadata>
  <rdf:RDF xmlns:cc="http://creativecommons.org/ns#" xmlns:dc="http://purl.org/dc/elements/1.1/" xmlns:rdf="http://www.w3.org/1999/02/22-rdf-syntax-ns#">
   <cc:Work>
    <dc:type rdf:resource="http://purl.org/dc/dcmitype/StillImage"/>
    <dc:date>2020-12-18T10:39:49.811549</dc:date>
    <dc:format>image/svg+xml</dc:format>
    <dc:creator>
     <cc:Agent>
      <dc:title>Matplotlib v3.3.1, https://matplotlib.org/</dc:title>
     </cc:Agent>
    </dc:creator>
   </cc:Work>
  </rdf:RDF>
 </metadata>
 <defs>
  <style type="text/css">*{stroke-linecap:butt;stroke-linejoin:round;}</style>
 </defs>
 <g id="figure_1">
  <g id="patch_1">
   <path d="M 0 473.080312 
L 674.765937 473.080312 
L 674.765937 0 
L 0 0 
z
" style="fill:#ffffff;"/>
  </g>
  <g id="axes_1">
   <g id="patch_2">
    <path d="M 53.765937 438.12 
L 667.565938 438.12 
L 667.565938 57.6 
L 53.765937 57.6 
z
" style="fill:#ffffff;"/>
   </g>
   <g id="matplotlib.axis_1">
    <g id="xtick_1">
     <g id="line2d_1">
      <path clip-path="url(#p7c19c4d0d8)" d="M 77.390075 438.12 
L 77.390075 57.6 
" style="fill:none;stroke:#cccccc;stroke-linecap:round;stroke-width:0.8;"/>
     </g>
     <g id="line2d_2"/>
     <g id="text_1">
      <!-- 0 -->
      <g style="fill:#262626;" transform="translate(74.609607 448.777812)scale(0.1 -0.1)">
       <defs>
        <path d="M 4.15625 35.296875 
Q 4.15625 48 6.765625 55.734375 
Q 9.375 63.484375 14.515625 67.671875 
Q 19.671875 71.875 27.484375 71.875 
Q 33.25 71.875 37.59375 69.546875 
Q 41.9375 67.234375 44.765625 62.859375 
Q 47.609375 58.5 49.21875 52.21875 
Q 50.828125 45.953125 50.828125 35.296875 
Q 50.828125 22.703125 48.234375 14.96875 
Q 45.65625 7.234375 40.5 3 
Q 35.359375 -1.21875 27.484375 -1.21875 
Q 17.140625 -1.21875 11.234375 6.203125 
Q 4.15625 15.140625 4.15625 35.296875 
z
M 13.1875 35.296875 
Q 13.1875 17.671875 17.3125 11.828125 
Q 21.4375 6 27.484375 6 
Q 33.546875 6 37.671875 11.859375 
Q 41.796875 17.71875 41.796875 35.296875 
Q 41.796875 52.984375 37.671875 58.78125 
Q 33.546875 64.59375 27.390625 64.59375 
Q 21.34375 64.59375 17.71875 59.46875 
Q 13.1875 52.9375 13.1875 35.296875 
z
" id="ArialMT-48"/>
       </defs>
       <use xlink:href="#ArialMT-48"/>
      </g>
     </g>
    </g>
    <g id="xtick_2">
     <g id="line2d_3">
      <path clip-path="url(#p7c19c4d0d8)" d="M 148.654443 438.12 
L 148.654443 57.6 
" style="fill:none;stroke:#cccccc;stroke-linecap:round;stroke-width:0.8;"/>
     </g>
     <g id="line2d_4"/>
     <g id="text_2">
      <!-- 100 -->
      <g style="fill:#262626;" transform="translate(140.313037 448.777812)scale(0.1 -0.1)">
       <defs>
        <path d="M 37.25 0 
L 28.46875 0 
L 28.46875 56 
Q 25.296875 52.984375 20.140625 49.953125 
Q 14.984375 46.921875 10.890625 45.40625 
L 10.890625 53.90625 
Q 18.265625 57.375 23.78125 62.296875 
Q 29.296875 67.234375 31.59375 71.875 
L 37.25 71.875 
z
" id="ArialMT-49"/>
       </defs>
       <use xlink:href="#ArialMT-49"/>
       <use x="55.615234" xlink:href="#ArialMT-48"/>
       <use x="111.230469" xlink:href="#ArialMT-48"/>
      </g>
     </g>
    </g>
    <g id="xtick_3">
     <g id="line2d_5">
      <path clip-path="url(#p7c19c4d0d8)" d="M 219.918811 438.12 
L 219.918811 57.6 
" style="fill:none;stroke:#cccccc;stroke-linecap:round;stroke-width:0.8;"/>
     </g>
     <g id="line2d_6"/>
     <g id="text_3">
      <!-- 200 -->
      <g style="fill:#262626;" transform="translate(211.577405 448.777812)scale(0.1 -0.1)">
       <defs>
        <path d="M 50.34375 8.453125 
L 50.34375 0 
L 3.03125 0 
Q 2.9375 3.171875 4.046875 6.109375 
Q 5.859375 10.9375 9.828125 15.625 
Q 13.8125 20.3125 21.34375 26.46875 
Q 33.015625 36.03125 37.109375 41.625 
Q 41.21875 47.21875 41.21875 52.203125 
Q 41.21875 57.421875 37.46875 61 
Q 33.734375 64.59375 27.734375 64.59375 
Q 21.390625 64.59375 17.578125 60.78125 
Q 13.765625 56.984375 13.71875 50.25 
L 4.6875 51.171875 
Q 5.609375 61.28125 11.65625 66.578125 
Q 17.71875 71.875 27.9375 71.875 
Q 38.234375 71.875 44.234375 66.15625 
Q 50.25 60.453125 50.25 52 
Q 50.25 47.703125 48.484375 43.546875 
Q 46.734375 39.40625 42.65625 34.8125 
Q 38.578125 30.21875 29.109375 22.21875 
Q 21.1875 15.578125 18.9375 13.203125 
Q 16.703125 10.84375 15.234375 8.453125 
z
" id="ArialMT-50"/>
       </defs>
       <use xlink:href="#ArialMT-50"/>
       <use x="55.615234" xlink:href="#ArialMT-48"/>
       <use x="111.230469" xlink:href="#ArialMT-48"/>
      </g>
     </g>
    </g>
    <g id="xtick_4">
     <g id="line2d_7">
      <path clip-path="url(#p7c19c4d0d8)" d="M 291.183179 438.12 
L 291.183179 57.6 
" style="fill:none;stroke:#cccccc;stroke-linecap:round;stroke-width:0.8;"/>
     </g>
     <g id="line2d_8"/>
     <g id="text_4">
      <!-- 300 -->
      <g style="fill:#262626;" transform="translate(282.841773 448.777812)scale(0.1 -0.1)">
       <defs>
        <path d="M 4.203125 18.890625 
L 12.984375 20.0625 
Q 14.5 12.59375 18.140625 9.296875 
Q 21.78125 6 27 6 
Q 33.203125 6 37.46875 10.296875 
Q 41.75 14.59375 41.75 20.953125 
Q 41.75 27 37.796875 30.921875 
Q 33.84375 34.859375 27.734375 34.859375 
Q 25.25 34.859375 21.53125 33.890625 
L 22.515625 41.609375 
Q 23.390625 41.5 23.921875 41.5 
Q 29.546875 41.5 34.03125 44.421875 
Q 38.53125 47.359375 38.53125 53.46875 
Q 38.53125 58.296875 35.25 61.46875 
Q 31.984375 64.65625 26.8125 64.65625 
Q 21.6875 64.65625 18.265625 61.421875 
Q 14.84375 58.203125 13.875 51.765625 
L 5.078125 53.328125 
Q 6.6875 62.15625 12.390625 67.015625 
Q 18.109375 71.875 26.609375 71.875 
Q 32.46875 71.875 37.390625 69.359375 
Q 42.328125 66.84375 44.9375 62.5 
Q 47.5625 58.15625 47.5625 53.265625 
Q 47.5625 48.640625 45.0625 44.828125 
Q 42.578125 41.015625 37.703125 38.765625 
Q 44.046875 37.3125 47.5625 32.6875 
Q 51.078125 28.078125 51.078125 21.140625 
Q 51.078125 11.765625 44.234375 5.25 
Q 37.40625 -1.265625 26.953125 -1.265625 
Q 17.53125 -1.265625 11.296875 4.34375 
Q 5.078125 9.96875 4.203125 18.890625 
z
" id="ArialMT-51"/>
       </defs>
       <use xlink:href="#ArialMT-51"/>
       <use x="55.615234" xlink:href="#ArialMT-48"/>
       <use x="111.230469" xlink:href="#ArialMT-48"/>
      </g>
     </g>
    </g>
    <g id="xtick_5">
     <g id="line2d_9">
      <path clip-path="url(#p7c19c4d0d8)" d="M 362.447547 438.12 
L 362.447547 57.6 
" style="fill:none;stroke:#cccccc;stroke-linecap:round;stroke-width:0.8;"/>
     </g>
     <g id="line2d_10"/>
     <g id="text_5">
      <!-- 400 -->
      <g style="fill:#262626;" transform="translate(354.10614 448.777812)scale(0.1 -0.1)">
       <defs>
        <path d="M 32.328125 0 
L 32.328125 17.140625 
L 1.265625 17.140625 
L 1.265625 25.203125 
L 33.9375 71.578125 
L 41.109375 71.578125 
L 41.109375 25.203125 
L 50.78125 25.203125 
L 50.78125 17.140625 
L 41.109375 17.140625 
L 41.109375 0 
z
M 32.328125 25.203125 
L 32.328125 57.46875 
L 9.90625 25.203125 
z
" id="ArialMT-52"/>
       </defs>
       <use xlink:href="#ArialMT-52"/>
       <use x="55.615234" xlink:href="#ArialMT-48"/>
       <use x="111.230469" xlink:href="#ArialMT-48"/>
      </g>
     </g>
    </g>
    <g id="xtick_6">
     <g id="line2d_11">
      <path clip-path="url(#p7c19c4d0d8)" d="M 433.711915 438.12 
L 433.711915 57.6 
" style="fill:none;stroke:#cccccc;stroke-linecap:round;stroke-width:0.8;"/>
     </g>
     <g id="line2d_12"/>
     <g id="text_6">
      <!-- 500 -->
      <g style="fill:#262626;" transform="translate(425.370508 448.777812)scale(0.1 -0.1)">
       <defs>
        <path d="M 4.15625 18.75 
L 13.375 19.53125 
Q 14.40625 12.796875 18.140625 9.390625 
Q 21.875 6 27.15625 6 
Q 33.5 6 37.890625 10.78125 
Q 42.28125 15.578125 42.28125 23.484375 
Q 42.28125 31 38.0625 35.34375 
Q 33.84375 39.703125 27 39.703125 
Q 22.75 39.703125 19.328125 37.765625 
Q 15.921875 35.84375 13.96875 32.765625 
L 5.71875 33.84375 
L 12.640625 70.609375 
L 48.25 70.609375 
L 48.25 62.203125 
L 19.671875 62.203125 
L 15.828125 42.96875 
Q 22.265625 47.46875 29.34375 47.46875 
Q 38.71875 47.46875 45.15625 40.96875 
Q 51.609375 34.46875 51.609375 24.265625 
Q 51.609375 14.546875 45.953125 7.46875 
Q 39.0625 -1.21875 27.15625 -1.21875 
Q 17.390625 -1.21875 11.203125 4.25 
Q 5.03125 9.71875 4.15625 18.75 
z
" id="ArialMT-53"/>
       </defs>
       <use xlink:href="#ArialMT-53"/>
       <use x="55.615234" xlink:href="#ArialMT-48"/>
       <use x="111.230469" xlink:href="#ArialMT-48"/>
      </g>
     </g>
    </g>
    <g id="xtick_7">
     <g id="line2d_13">
      <path clip-path="url(#p7c19c4d0d8)" d="M 504.976282 438.12 
L 504.976282 57.6 
" style="fill:none;stroke:#cccccc;stroke-linecap:round;stroke-width:0.8;"/>
     </g>
     <g id="line2d_14"/>
     <g id="text_7">
      <!-- 600 -->
      <g style="fill:#262626;" transform="translate(496.634876 448.777812)scale(0.1 -0.1)">
       <defs>
        <path d="M 49.75 54.046875 
L 41.015625 53.375 
Q 39.84375 58.546875 37.703125 60.890625 
Q 34.125 64.65625 28.90625 64.65625 
Q 24.703125 64.65625 21.53125 62.3125 
Q 17.390625 59.28125 14.984375 53.46875 
Q 12.59375 47.65625 12.5 36.921875 
Q 15.671875 41.75 20.265625 44.09375 
Q 24.859375 46.4375 29.890625 46.4375 
Q 38.671875 46.4375 44.84375 39.96875 
Q 51.03125 33.5 51.03125 23.25 
Q 51.03125 16.5 48.125 10.71875 
Q 45.21875 4.9375 40.140625 1.859375 
Q 35.0625 -1.21875 28.609375 -1.21875 
Q 17.625 -1.21875 10.6875 6.859375 
Q 3.765625 14.9375 3.765625 33.5 
Q 3.765625 54.25 11.421875 63.671875 
Q 18.109375 71.875 29.4375 71.875 
Q 37.890625 71.875 43.28125 67.140625 
Q 48.6875 62.40625 49.75 54.046875 
z
M 13.875 23.1875 
Q 13.875 18.65625 15.796875 14.5 
Q 17.71875 10.359375 21.1875 8.171875 
Q 24.65625 6 28.46875 6 
Q 34.03125 6 38.03125 10.484375 
Q 42.046875 14.984375 42.046875 22.703125 
Q 42.046875 30.125 38.078125 34.390625 
Q 34.125 38.671875 28.125 38.671875 
Q 22.171875 38.671875 18.015625 34.390625 
Q 13.875 30.125 13.875 23.1875 
z
" id="ArialMT-54"/>
       </defs>
       <use xlink:href="#ArialMT-54"/>
       <use x="55.615234" xlink:href="#ArialMT-48"/>
       <use x="111.230469" xlink:href="#ArialMT-48"/>
      </g>
     </g>
    </g>
    <g id="xtick_8">
     <g id="line2d_15">
      <path clip-path="url(#p7c19c4d0d8)" d="M 576.24065 438.12 
L 576.24065 57.6 
" style="fill:none;stroke:#cccccc;stroke-linecap:round;stroke-width:0.8;"/>
     </g>
     <g id="line2d_16"/>
     <g id="text_8">
      <!-- 700 -->
      <g style="fill:#262626;" transform="translate(567.899244 448.777812)scale(0.1 -0.1)">
       <defs>
        <path d="M 4.734375 62.203125 
L 4.734375 70.65625 
L 51.078125 70.65625 
L 51.078125 63.8125 
Q 44.234375 56.546875 37.515625 44.484375 
Q 30.8125 32.421875 27.15625 19.671875 
Q 24.515625 10.6875 23.78125 0 
L 14.75 0 
Q 14.890625 8.453125 18.0625 20.40625 
Q 21.234375 32.375 27.171875 43.484375 
Q 33.109375 54.59375 39.796875 62.203125 
z
" id="ArialMT-55"/>
       </defs>
       <use xlink:href="#ArialMT-55"/>
       <use x="55.615234" xlink:href="#ArialMT-48"/>
       <use x="111.230469" xlink:href="#ArialMT-48"/>
      </g>
     </g>
    </g>
    <g id="xtick_9">
     <g id="line2d_17">
      <path clip-path="url(#p7c19c4d0d8)" d="M 647.505018 438.12 
L 647.505018 57.6 
" style="fill:none;stroke:#cccccc;stroke-linecap:round;stroke-width:0.8;"/>
     </g>
     <g id="line2d_18"/>
     <g id="text_9">
      <!-- 800 -->
      <g style="fill:#262626;" transform="translate(639.163612 448.777812)scale(0.1 -0.1)">
       <defs>
        <path d="M 17.671875 38.8125 
Q 12.203125 40.828125 9.5625 44.53125 
Q 6.9375 48.25 6.9375 53.421875 
Q 6.9375 61.234375 12.546875 66.546875 
Q 18.171875 71.875 27.484375 71.875 
Q 36.859375 71.875 42.578125 66.421875 
Q 48.296875 60.984375 48.296875 53.171875 
Q 48.296875 48.1875 45.671875 44.5 
Q 43.0625 40.828125 37.75 38.8125 
Q 44.34375 36.671875 47.78125 31.875 
Q 51.21875 27.09375 51.21875 20.453125 
Q 51.21875 11.28125 44.71875 5.03125 
Q 38.234375 -1.21875 27.640625 -1.21875 
Q 17.046875 -1.21875 10.546875 5.046875 
Q 4.046875 11.328125 4.046875 20.703125 
Q 4.046875 27.6875 7.59375 32.390625 
Q 11.140625 37.109375 17.671875 38.8125 
z
M 15.921875 53.71875 
Q 15.921875 48.640625 19.1875 45.40625 
Q 22.46875 42.1875 27.6875 42.1875 
Q 32.765625 42.1875 36.015625 45.375 
Q 39.265625 48.578125 39.265625 53.21875 
Q 39.265625 58.0625 35.90625 61.359375 
Q 32.5625 64.65625 27.59375 64.65625 
Q 22.5625 64.65625 19.234375 61.421875 
Q 15.921875 58.203125 15.921875 53.71875 
z
M 13.09375 20.65625 
Q 13.09375 16.890625 14.875 13.375 
Q 16.65625 9.859375 20.171875 7.921875 
Q 23.6875 6 27.734375 6 
Q 34.03125 6 38.125 10.046875 
Q 42.234375 14.109375 42.234375 20.359375 
Q 42.234375 26.703125 38.015625 30.859375 
Q 33.796875 35.015625 27.4375 35.015625 
Q 21.234375 35.015625 17.15625 30.90625 
Q 13.09375 26.8125 13.09375 20.65625 
z
" id="ArialMT-56"/>
       </defs>
       <use xlink:href="#ArialMT-56"/>
       <use x="55.615234" xlink:href="#ArialMT-48"/>
       <use x="111.230469" xlink:href="#ArialMT-48"/>
      </g>
     </g>
    </g>
    <g id="text_10">
     <!-- Days -->
     <g style="fill:#262626;" transform="translate(346.99625 463.354687)scale(0.12 -0.12)">
      <defs>
       <path d="M 7.71875 0 
L 7.71875 71.578125 
L 32.375 71.578125 
Q 40.71875 71.578125 45.125 70.5625 
Q 51.265625 69.140625 55.609375 65.4375 
Q 61.28125 60.640625 64.078125 53.1875 
Q 66.890625 45.75 66.890625 36.1875 
Q 66.890625 28.03125 64.984375 21.734375 
Q 63.09375 15.4375 60.109375 11.296875 
Q 57.125 7.171875 53.578125 4.796875 
Q 50.046875 2.4375 45.046875 1.21875 
Q 40.046875 0 33.546875 0 
z
M 17.1875 8.453125 
L 32.46875 8.453125 
Q 39.546875 8.453125 43.578125 9.765625 
Q 47.609375 11.078125 50 13.484375 
Q 53.375 16.84375 55.25 22.53125 
Q 57.125 28.21875 57.125 36.328125 
Q 57.125 47.5625 53.4375 53.59375 
Q 49.75 59.625 44.484375 61.671875 
Q 40.671875 63.140625 32.234375 63.140625 
L 17.1875 63.140625 
z
" id="ArialMT-68"/>
       <path d="M 40.4375 6.390625 
Q 35.546875 2.25 31.03125 0.53125 
Q 26.515625 -1.171875 21.34375 -1.171875 
Q 12.796875 -1.171875 8.203125 3 
Q 3.609375 7.171875 3.609375 13.671875 
Q 3.609375 17.484375 5.34375 20.625 
Q 7.078125 23.78125 9.890625 25.6875 
Q 12.703125 27.59375 16.21875 28.5625 
Q 18.796875 29.25 24.03125 29.890625 
Q 34.671875 31.15625 39.703125 32.90625 
Q 39.75 34.71875 39.75 35.203125 
Q 39.75 40.578125 37.25 42.78125 
Q 33.890625 45.75 27.25 45.75 
Q 21.046875 45.75 18.09375 43.578125 
Q 15.140625 41.40625 13.71875 35.890625 
L 5.125 37.0625 
Q 6.296875 42.578125 8.984375 45.96875 
Q 11.671875 49.359375 16.75 51.1875 
Q 21.828125 53.03125 28.515625 53.03125 
Q 35.15625 53.03125 39.296875 51.46875 
Q 43.453125 49.90625 45.40625 47.53125 
Q 47.359375 45.171875 48.140625 41.546875 
Q 48.578125 39.3125 48.578125 33.453125 
L 48.578125 21.734375 
Q 48.578125 9.46875 49.140625 6.21875 
Q 49.703125 2.984375 51.375 0 
L 42.1875 0 
Q 40.828125 2.734375 40.4375 6.390625 
z
M 39.703125 26.03125 
Q 34.90625 24.078125 25.34375 22.703125 
Q 19.921875 21.921875 17.671875 20.9375 
Q 15.4375 19.96875 14.203125 18.09375 
Q 12.984375 16.21875 12.984375 13.921875 
Q 12.984375 10.40625 15.640625 8.0625 
Q 18.3125 5.71875 23.4375 5.71875 
Q 28.515625 5.71875 32.46875 7.9375 
Q 36.421875 10.15625 38.28125 14.015625 
Q 39.703125 17 39.703125 22.796875 
z
" id="ArialMT-97"/>
       <path d="M 6.203125 -19.96875 
L 5.21875 -11.71875 
Q 8.109375 -12.5 10.25 -12.5 
Q 13.1875 -12.5 14.9375 -11.515625 
Q 16.703125 -10.546875 17.828125 -8.796875 
Q 18.65625 -7.46875 20.515625 -2.25 
Q 20.75 -1.515625 21.296875 -0.09375 
L 1.609375 51.859375 
L 11.078125 51.859375 
L 21.875 21.828125 
Q 23.96875 16.109375 25.640625 9.8125 
Q 27.15625 15.875 29.25 21.625 
L 40.328125 51.859375 
L 49.125 51.859375 
L 29.390625 -0.875 
Q 26.21875 -9.421875 24.46875 -12.640625 
Q 22.125 -17 19.09375 -19.015625 
Q 16.0625 -21.046875 11.859375 -21.046875 
Q 9.328125 -21.046875 6.203125 -19.96875 
z
" id="ArialMT-121"/>
       <path d="M 3.078125 15.484375 
L 11.765625 16.84375 
Q 12.5 11.625 15.84375 8.84375 
Q 19.1875 6.0625 25.203125 6.0625 
Q 31.25 6.0625 34.171875 8.515625 
Q 37.109375 10.984375 37.109375 14.3125 
Q 37.109375 17.28125 34.515625 19 
Q 32.71875 20.171875 25.53125 21.96875 
Q 15.875 24.421875 12.140625 26.203125 
Q 8.40625 27.984375 6.46875 31.125 
Q 4.546875 34.28125 4.546875 38.09375 
Q 4.546875 41.546875 6.125 44.5 
Q 7.71875 47.46875 10.453125 49.421875 
Q 12.5 50.921875 16.03125 51.96875 
Q 19.578125 53.03125 23.640625 53.03125 
Q 29.734375 53.03125 34.34375 51.265625 
Q 38.96875 49.515625 41.15625 46.5 
Q 43.359375 43.5 44.1875 38.484375 
L 35.59375 37.3125 
Q 35.015625 41.3125 32.203125 43.546875 
Q 29.390625 45.796875 24.265625 45.796875 
Q 18.21875 45.796875 15.625 43.796875 
Q 13.03125 41.796875 13.03125 39.109375 
Q 13.03125 37.40625 14.109375 36.03125 
Q 15.1875 34.625 17.484375 33.6875 
Q 18.796875 33.203125 25.25 31.453125 
Q 34.578125 28.953125 38.25 27.359375 
Q 41.9375 25.78125 44.03125 22.75 
Q 46.140625 19.734375 46.140625 15.234375 
Q 46.140625 10.84375 43.578125 6.953125 
Q 41.015625 3.078125 36.171875 0.953125 
Q 31.34375 -1.171875 25.25 -1.171875 
Q 15.140625 -1.171875 9.84375 3.03125 
Q 4.546875 7.234375 3.078125 15.484375 
z
" id="ArialMT-115"/>
      </defs>
      <use xlink:href="#ArialMT-68"/>
      <use x="72.216797" xlink:href="#ArialMT-97"/>
      <use x="127.832031" xlink:href="#ArialMT-121"/>
      <use x="177.832031" xlink:href="#ArialMT-115"/>
     </g>
    </g>
   </g>
   <g id="matplotlib.axis_2">
    <g id="ytick_1">
     <g id="line2d_19">
      <path clip-path="url(#p7c19c4d0d8)" d="M 53.765937 410.566931 
L 667.565938 410.566931 
" style="fill:none;stroke:#cccccc;stroke-linecap:round;stroke-width:0.8;"/>
     </g>
     <g id="line2d_20"/>
     <g id="text_11">
      <!-- 6000 -->
      <g style="fill:#262626;" transform="translate(28.022187 414.145837)scale(0.1 -0.1)">
       <use xlink:href="#ArialMT-54"/>
       <use x="55.615234" xlink:href="#ArialMT-48"/>
       <use x="111.230469" xlink:href="#ArialMT-48"/>
       <use x="166.845703" xlink:href="#ArialMT-48"/>
      </g>
     </g>
    </g>
    <g id="ytick_2">
     <g id="line2d_21">
      <path clip-path="url(#p7c19c4d0d8)" d="M 53.765937 366.560227 
L 667.565938 366.560227 
" style="fill:none;stroke:#cccccc;stroke-linecap:round;stroke-width:0.8;"/>
     </g>
     <g id="line2d_22"/>
     <g id="text_12">
      <!-- 8000 -->
      <g style="fill:#262626;" transform="translate(28.022187 370.139133)scale(0.1 -0.1)">
       <use xlink:href="#ArialMT-56"/>
       <use x="55.615234" xlink:href="#ArialMT-48"/>
       <use x="111.230469" xlink:href="#ArialMT-48"/>
       <use x="166.845703" xlink:href="#ArialMT-48"/>
      </g>
     </g>
    </g>
    <g id="ytick_3">
     <g id="line2d_23">
      <path clip-path="url(#p7c19c4d0d8)" d="M 53.765937 322.553522 
L 667.565938 322.553522 
" style="fill:none;stroke:#cccccc;stroke-linecap:round;stroke-width:0.8;"/>
     </g>
     <g id="line2d_24"/>
     <g id="text_13">
      <!-- 10000 -->
      <g style="fill:#262626;" transform="translate(22.46125 326.132429)scale(0.1 -0.1)">
       <use xlink:href="#ArialMT-49"/>
       <use x="55.615234" xlink:href="#ArialMT-48"/>
       <use x="111.230469" xlink:href="#ArialMT-48"/>
       <use x="166.845703" xlink:href="#ArialMT-48"/>
       <use x="222.460938" xlink:href="#ArialMT-48"/>
      </g>
     </g>
    </g>
    <g id="ytick_4">
     <g id="line2d_25">
      <path clip-path="url(#p7c19c4d0d8)" d="M 53.765937 278.546818 
L 667.565938 278.546818 
" style="fill:none;stroke:#cccccc;stroke-linecap:round;stroke-width:0.8;"/>
     </g>
     <g id="line2d_26"/>
     <g id="text_14">
      <!-- 12000 -->
      <g style="fill:#262626;" transform="translate(22.46125 282.125724)scale(0.1 -0.1)">
       <use xlink:href="#ArialMT-49"/>
       <use x="55.615234" xlink:href="#ArialMT-50"/>
       <use x="111.230469" xlink:href="#ArialMT-48"/>
       <use x="166.845703" xlink:href="#ArialMT-48"/>
       <use x="222.460938" xlink:href="#ArialMT-48"/>
      </g>
     </g>
    </g>
    <g id="ytick_5">
     <g id="line2d_27">
      <path clip-path="url(#p7c19c4d0d8)" d="M 53.765937 234.540114 
L 667.565938 234.540114 
" style="fill:none;stroke:#cccccc;stroke-linecap:round;stroke-width:0.8;"/>
     </g>
     <g id="line2d_28"/>
     <g id="text_15">
      <!-- 14000 -->
      <g style="fill:#262626;" transform="translate(22.46125 238.11902)scale(0.1 -0.1)">
       <use xlink:href="#ArialMT-49"/>
       <use x="55.615234" xlink:href="#ArialMT-52"/>
       <use x="111.230469" xlink:href="#ArialMT-48"/>
       <use x="166.845703" xlink:href="#ArialMT-48"/>
       <use x="222.460938" xlink:href="#ArialMT-48"/>
      </g>
     </g>
    </g>
    <g id="ytick_6">
     <g id="line2d_29">
      <path clip-path="url(#p7c19c4d0d8)" d="M 53.765937 190.533409 
L 667.565938 190.533409 
" style="fill:none;stroke:#cccccc;stroke-linecap:round;stroke-width:0.8;"/>
     </g>
     <g id="line2d_30"/>
     <g id="text_16">
      <!-- 16000 -->
      <g style="fill:#262626;" transform="translate(22.46125 194.112316)scale(0.1 -0.1)">
       <use xlink:href="#ArialMT-49"/>
       <use x="55.615234" xlink:href="#ArialMT-54"/>
       <use x="111.230469" xlink:href="#ArialMT-48"/>
       <use x="166.845703" xlink:href="#ArialMT-48"/>
       <use x="222.460938" xlink:href="#ArialMT-48"/>
      </g>
     </g>
    </g>
    <g id="ytick_7">
     <g id="line2d_31">
      <path clip-path="url(#p7c19c4d0d8)" d="M 53.765937 146.526705 
L 667.565938 146.526705 
" style="fill:none;stroke:#cccccc;stroke-linecap:round;stroke-width:0.8;"/>
     </g>
     <g id="line2d_32"/>
     <g id="text_17">
      <!-- 18000 -->
      <g style="fill:#262626;" transform="translate(22.46125 150.105611)scale(0.1 -0.1)">
       <use xlink:href="#ArialMT-49"/>
       <use x="55.615234" xlink:href="#ArialMT-56"/>
       <use x="111.230469" xlink:href="#ArialMT-48"/>
       <use x="166.845703" xlink:href="#ArialMT-48"/>
       <use x="222.460938" xlink:href="#ArialMT-48"/>
      </g>
     </g>
    </g>
    <g id="ytick_8">
     <g id="line2d_33">
      <path clip-path="url(#p7c19c4d0d8)" d="M 53.765937 102.520001 
L 667.565938 102.520001 
" style="fill:none;stroke:#cccccc;stroke-linecap:round;stroke-width:0.8;"/>
     </g>
     <g id="line2d_34"/>
     <g id="text_18">
      <!-- 20000 -->
      <g style="fill:#262626;" transform="translate(22.46125 106.098907)scale(0.1 -0.1)">
       <use xlink:href="#ArialMT-50"/>
       <use x="55.615234" xlink:href="#ArialMT-48"/>
       <use x="111.230469" xlink:href="#ArialMT-48"/>
       <use x="166.845703" xlink:href="#ArialMT-48"/>
       <use x="222.460938" xlink:href="#ArialMT-48"/>
      </g>
     </g>
    </g>
    <g id="ytick_9">
     <g id="line2d_35">
      <path clip-path="url(#p7c19c4d0d8)" d="M 53.765937 58.513296 
L 667.565938 58.513296 
" style="fill:none;stroke:#cccccc;stroke-linecap:round;stroke-width:0.8;"/>
     </g>
     <g id="line2d_36"/>
     <g id="text_19">
      <!-- 22000 -->
      <g style="fill:#262626;" transform="translate(22.46125 62.092203)scale(0.1 -0.1)">
       <use xlink:href="#ArialMT-50"/>
       <use x="55.615234" xlink:href="#ArialMT-50"/>
       <use x="111.230469" xlink:href="#ArialMT-48"/>
       <use x="166.845703" xlink:href="#ArialMT-48"/>
       <use x="222.460938" xlink:href="#ArialMT-48"/>
      </g>
     </g>
    </g>
    <g id="text_20">
     <!-- Number of daily pageviews -->
     <g style="fill:#262626;" transform="translate(15.935625 319.890937)rotate(-90)scale(0.12 -0.12)">
      <defs>
       <path d="M 7.625 0 
L 7.625 71.578125 
L 17.328125 71.578125 
L 54.9375 15.375 
L 54.9375 71.578125 
L 64.015625 71.578125 
L 64.015625 0 
L 54.296875 0 
L 16.703125 56.25 
L 16.703125 0 
z
" id="ArialMT-78"/>
       <path d="M 40.578125 0 
L 40.578125 7.625 
Q 34.515625 -1.171875 24.125 -1.171875 
Q 19.53125 -1.171875 15.546875 0.578125 
Q 11.578125 2.34375 9.640625 5 
Q 7.71875 7.671875 6.9375 11.53125 
Q 6.390625 14.109375 6.390625 19.734375 
L 6.390625 51.859375 
L 15.1875 51.859375 
L 15.1875 23.09375 
Q 15.1875 16.21875 15.71875 13.8125 
Q 16.546875 10.359375 19.234375 8.375 
Q 21.921875 6.390625 25.875 6.390625 
Q 29.828125 6.390625 33.296875 8.421875 
Q 36.765625 10.453125 38.203125 13.9375 
Q 39.65625 17.4375 39.65625 24.078125 
L 39.65625 51.859375 
L 48.4375 51.859375 
L 48.4375 0 
z
" id="ArialMT-117"/>
       <path d="M 6.59375 0 
L 6.59375 51.859375 
L 14.453125 51.859375 
L 14.453125 44.578125 
Q 16.890625 48.390625 20.9375 50.703125 
Q 25 53.03125 30.171875 53.03125 
Q 35.9375 53.03125 39.625 50.640625 
Q 43.3125 48.25 44.828125 43.953125 
Q 50.984375 53.03125 60.84375 53.03125 
Q 68.5625 53.03125 72.703125 48.75 
Q 76.859375 44.484375 76.859375 35.59375 
L 76.859375 0 
L 68.109375 0 
L 68.109375 32.671875 
Q 68.109375 37.9375 67.25 40.25 
Q 66.40625 42.578125 64.15625 43.984375 
Q 61.921875 45.40625 58.890625 45.40625 
Q 53.421875 45.40625 49.796875 41.765625 
Q 46.1875 38.140625 46.1875 30.125 
L 46.1875 0 
L 37.40625 0 
L 37.40625 33.6875 
Q 37.40625 39.546875 35.25 42.46875 
Q 33.109375 45.40625 28.21875 45.40625 
Q 24.515625 45.40625 21.359375 43.453125 
Q 18.21875 41.5 16.796875 37.734375 
Q 15.375 33.984375 15.375 26.90625 
L 15.375 0 
z
" id="ArialMT-109"/>
       <path d="M 14.703125 0 
L 6.546875 0 
L 6.546875 71.578125 
L 15.328125 71.578125 
L 15.328125 46.046875 
Q 20.90625 53.03125 29.546875 53.03125 
Q 34.328125 53.03125 38.59375 51.09375 
Q 42.875 49.171875 45.625 45.671875 
Q 48.390625 42.1875 49.953125 37.25 
Q 51.515625 32.328125 51.515625 26.703125 
Q 51.515625 13.375 44.921875 6.09375 
Q 38.328125 -1.171875 29.109375 -1.171875 
Q 19.921875 -1.171875 14.703125 6.5 
z
M 14.59375 26.3125 
Q 14.59375 17 17.140625 12.84375 
Q 21.296875 6.0625 28.375 6.0625 
Q 34.125 6.0625 38.328125 11.0625 
Q 42.53125 16.0625 42.53125 25.984375 
Q 42.53125 36.140625 38.5 40.96875 
Q 34.46875 45.796875 28.765625 45.796875 
Q 23 45.796875 18.796875 40.796875 
Q 14.59375 35.796875 14.59375 26.3125 
z
" id="ArialMT-98"/>
       <path d="M 42.09375 16.703125 
L 51.171875 15.578125 
Q 49.03125 7.625 43.21875 3.21875 
Q 37.40625 -1.171875 28.375 -1.171875 
Q 17 -1.171875 10.328125 5.828125 
Q 3.65625 12.84375 3.65625 25.484375 
Q 3.65625 38.578125 10.390625 45.796875 
Q 17.140625 53.03125 27.875 53.03125 
Q 38.28125 53.03125 44.875 45.953125 
Q 51.46875 38.875 51.46875 26.03125 
Q 51.46875 25.25 51.421875 23.6875 
L 12.75 23.6875 
Q 13.234375 15.140625 17.578125 10.59375 
Q 21.921875 6.0625 28.421875 6.0625 
Q 33.25 6.0625 36.671875 8.59375 
Q 40.09375 11.140625 42.09375 16.703125 
z
M 13.234375 30.90625 
L 42.1875 30.90625 
Q 41.609375 37.453125 38.875 40.71875 
Q 34.671875 45.796875 27.984375 45.796875 
Q 21.921875 45.796875 17.796875 41.75 
Q 13.671875 37.703125 13.234375 30.90625 
z
" id="ArialMT-101"/>
       <path d="M 6.5 0 
L 6.5 51.859375 
L 14.40625 51.859375 
L 14.40625 44 
Q 17.4375 49.515625 20 51.265625 
Q 22.5625 53.03125 25.640625 53.03125 
Q 30.078125 53.03125 34.671875 50.203125 
L 31.640625 42.046875 
Q 28.421875 43.953125 25.203125 43.953125 
Q 22.3125 43.953125 20.015625 42.21875 
Q 17.71875 40.484375 16.75 37.40625 
Q 15.28125 32.71875 15.28125 27.15625 
L 15.28125 0 
z
" id="ArialMT-114"/>
       <path id="ArialMT-32"/>
       <path d="M 3.328125 25.921875 
Q 3.328125 40.328125 11.328125 47.265625 
Q 18.015625 53.03125 27.640625 53.03125 
Q 38.328125 53.03125 45.109375 46.015625 
Q 51.90625 39.015625 51.90625 26.65625 
Q 51.90625 16.65625 48.90625 10.90625 
Q 45.90625 5.171875 40.15625 2 
Q 34.421875 -1.171875 27.640625 -1.171875 
Q 16.75 -1.171875 10.03125 5.8125 
Q 3.328125 12.796875 3.328125 25.921875 
z
M 12.359375 25.921875 
Q 12.359375 15.96875 16.703125 11.015625 
Q 21.046875 6.0625 27.640625 6.0625 
Q 34.1875 6.0625 38.53125 11.03125 
Q 42.875 16.015625 42.875 26.21875 
Q 42.875 35.84375 38.5 40.796875 
Q 34.125 45.75 27.640625 45.75 
Q 21.046875 45.75 16.703125 40.8125 
Q 12.359375 35.890625 12.359375 25.921875 
z
" id="ArialMT-111"/>
       <path d="M 8.6875 0 
L 8.6875 45.015625 
L 0.921875 45.015625 
L 0.921875 51.859375 
L 8.6875 51.859375 
L 8.6875 57.375 
Q 8.6875 62.59375 9.625 65.140625 
Q 10.890625 68.5625 14.078125 70.671875 
Q 17.28125 72.796875 23.046875 72.796875 
Q 26.765625 72.796875 31.25 71.921875 
L 29.9375 64.265625 
Q 27.203125 64.75 24.75 64.75 
Q 20.75 64.75 19.09375 63.03125 
Q 17.4375 61.328125 17.4375 56.640625 
L 17.4375 51.859375 
L 27.546875 51.859375 
L 27.546875 45.015625 
L 17.4375 45.015625 
L 17.4375 0 
z
" id="ArialMT-102"/>
       <path d="M 40.234375 0 
L 40.234375 6.546875 
Q 35.296875 -1.171875 25.734375 -1.171875 
Q 19.53125 -1.171875 14.328125 2.25 
Q 9.125 5.671875 6.265625 11.796875 
Q 3.421875 17.921875 3.421875 25.875 
Q 3.421875 33.640625 6 39.96875 
Q 8.59375 46.296875 13.765625 49.65625 
Q 18.953125 53.03125 25.34375 53.03125 
Q 30.03125 53.03125 33.6875 51.046875 
Q 37.359375 49.078125 39.65625 45.90625 
L 39.65625 71.578125 
L 48.390625 71.578125 
L 48.390625 0 
z
M 12.453125 25.875 
Q 12.453125 15.921875 16.640625 10.984375 
Q 20.84375 6.0625 26.5625 6.0625 
Q 32.328125 6.0625 36.34375 10.765625 
Q 40.375 15.484375 40.375 25.140625 
Q 40.375 35.796875 36.265625 40.765625 
Q 32.171875 45.75 26.171875 45.75 
Q 20.3125 45.75 16.375 40.96875 
Q 12.453125 36.1875 12.453125 25.875 
z
" id="ArialMT-100"/>
       <path d="M 6.640625 61.46875 
L 6.640625 71.578125 
L 15.4375 71.578125 
L 15.4375 61.46875 
z
M 6.640625 0 
L 6.640625 51.859375 
L 15.4375 51.859375 
L 15.4375 0 
z
" id="ArialMT-105"/>
       <path d="M 6.390625 0 
L 6.390625 71.578125 
L 15.1875 71.578125 
L 15.1875 0 
z
" id="ArialMT-108"/>
       <path d="M 6.59375 -19.875 
L 6.59375 51.859375 
L 14.59375 51.859375 
L 14.59375 45.125 
Q 17.4375 49.078125 21 51.046875 
Q 24.5625 53.03125 29.640625 53.03125 
Q 36.28125 53.03125 41.359375 49.609375 
Q 46.4375 46.1875 49.015625 39.953125 
Q 51.609375 33.734375 51.609375 26.3125 
Q 51.609375 18.359375 48.75 11.984375 
Q 45.90625 5.609375 40.453125 2.21875 
Q 35.015625 -1.171875 29 -1.171875 
Q 24.609375 -1.171875 21.109375 0.6875 
Q 17.625 2.546875 15.375 5.375 
L 15.375 -19.875 
z
M 14.546875 25.640625 
Q 14.546875 15.625 18.59375 10.84375 
Q 22.65625 6.0625 28.421875 6.0625 
Q 34.28125 6.0625 38.453125 11.015625 
Q 42.625 15.96875 42.625 26.375 
Q 42.625 36.28125 38.546875 41.203125 
Q 34.46875 46.140625 28.8125 46.140625 
Q 23.1875 46.140625 18.859375 40.890625 
Q 14.546875 35.640625 14.546875 25.640625 
z
" id="ArialMT-112"/>
       <path d="M 4.984375 -4.296875 
L 13.53125 -5.5625 
Q 14.0625 -9.515625 16.5 -11.328125 
Q 19.78125 -13.765625 25.4375 -13.765625 
Q 31.546875 -13.765625 34.859375 -11.328125 
Q 38.1875 -8.890625 39.359375 -4.5 
Q 40.046875 -1.8125 39.984375 6.78125 
Q 34.234375 0 25.640625 0 
Q 14.9375 0 9.078125 7.71875 
Q 3.21875 15.4375 3.21875 26.21875 
Q 3.21875 33.640625 5.90625 39.90625 
Q 8.59375 46.1875 13.6875 49.609375 
Q 18.796875 53.03125 25.6875 53.03125 
Q 34.859375 53.03125 40.828125 45.609375 
L 40.828125 51.859375 
L 48.921875 51.859375 
L 48.921875 7.03125 
Q 48.921875 -5.078125 46.453125 -10.125 
Q 44 -15.1875 38.640625 -18.109375 
Q 33.296875 -21.046875 25.484375 -21.046875 
Q 16.21875 -21.046875 10.5 -16.875 
Q 4.78125 -12.703125 4.984375 -4.296875 
z
M 12.25 26.859375 
Q 12.25 16.65625 16.296875 11.96875 
Q 20.359375 7.28125 26.46875 7.28125 
Q 32.515625 7.28125 36.609375 11.9375 
Q 40.71875 16.609375 40.71875 26.5625 
Q 40.71875 36.078125 36.5 40.90625 
Q 32.28125 45.75 26.3125 45.75 
Q 20.453125 45.75 16.34375 40.984375 
Q 12.25 36.234375 12.25 26.859375 
z
" id="ArialMT-103"/>
       <path d="M 21 0 
L 1.265625 51.859375 
L 10.546875 51.859375 
L 21.6875 20.796875 
Q 23.484375 15.765625 25 10.359375 
Q 26.171875 14.453125 28.265625 20.21875 
L 39.796875 51.859375 
L 48.828125 51.859375 
L 29.203125 0 
z
" id="ArialMT-118"/>
       <path d="M 16.15625 0 
L 0.296875 51.859375 
L 9.375 51.859375 
L 17.625 21.921875 
L 20.703125 10.796875 
Q 20.90625 11.625 23.390625 21.484375 
L 31.640625 51.859375 
L 40.671875 51.859375 
L 48.4375 21.78125 
L 51.03125 11.859375 
L 54 21.875 
L 62.890625 51.859375 
L 71.4375 51.859375 
L 55.21875 0 
L 46.09375 0 
L 37.84375 31.0625 
L 35.84375 39.890625 
L 25.34375 0 
z
" id="ArialMT-119"/>
      </defs>
      <use xlink:href="#ArialMT-78"/>
      <use x="72.216797" xlink:href="#ArialMT-117"/>
      <use x="127.832031" xlink:href="#ArialMT-109"/>
      <use x="211.132812" xlink:href="#ArialMT-98"/>
      <use x="266.748047" xlink:href="#ArialMT-101"/>
      <use x="322.363281" xlink:href="#ArialMT-114"/>
      <use x="355.664062" xlink:href="#ArialMT-32"/>
      <use x="383.447266" xlink:href="#ArialMT-111"/>
      <use x="439.0625" xlink:href="#ArialMT-102"/>
      <use x="466.845703" xlink:href="#ArialMT-32"/>
      <use x="494.628906" xlink:href="#ArialMT-100"/>
      <use x="550.244141" xlink:href="#ArialMT-97"/>
      <use x="605.859375" xlink:href="#ArialMT-105"/>
      <use x="628.076172" xlink:href="#ArialMT-108"/>
      <use x="650.292969" xlink:href="#ArialMT-121"/>
      <use x="700.292969" xlink:href="#ArialMT-32"/>
      <use x="728.076172" xlink:href="#ArialMT-112"/>
      <use x="783.691406" xlink:href="#ArialMT-97"/>
      <use x="839.306641" xlink:href="#ArialMT-103"/>
      <use x="894.921875" xlink:href="#ArialMT-101"/>
      <use x="950.537109" xlink:href="#ArialMT-118"/>
      <use x="1000.537109" xlink:href="#ArialMT-105"/>
      <use x="1022.753906" xlink:href="#ArialMT-101"/>
      <use x="1078.369141" xlink:href="#ArialMT-119"/>
      <use x="1150.585938" xlink:href="#ArialMT-115"/>
     </g>
    </g>
   </g>
   <g id="line2d_37">
    <path clip-path="url(#p7c19c4d0d8)" d="M 242.010765 438.12 
L 242.010765 57.6 
" style="fill:none;stroke:#000000;stroke-linecap:round;stroke-width:2;"/>
   </g>
   <g id="line2d_38">
    <path clip-path="url(#p7c19c4d0d8)" d="M 324.677432 438.12 
L 324.677432 57.6 
" style="fill:none;stroke:#000000;stroke-linecap:round;stroke-width:2;"/>
   </g>
   <g id="line2d_39">
    <path clip-path="url(#p7c19c4d0d8)" d="M 526.355593 438.12 
L 526.355593 57.6 
" style="fill:none;stroke:#000000;stroke-linecap:round;stroke-width:2;"/>
   </g>
   <g id="line2d_40">
    <path clip-path="url(#p7c19c4d0d8)" d="M 81.665938 299.717186 
L 82.378581 288.454613 
L 83.091225 286.156834 
L 83.803869 290.010564 
L 84.516512 295.655996 
L 85.229156 298.041788 
L 85.9418 303.042836 
L 86.654443 306.447068 
L 87.367087 306.585375 
L 88.079731 301.015384 
L 89.505018 287.121839 
L 90.217662 285.41815 
L 90.930305 286.842082 
L 91.642949 286.153691 
L 92.355593 285.974521 
L 93.068236 290.076574 
L 93.78088 299.075945 
L 94.493524 312.287387 
L 95.206167 320.086003 
L 95.918811 322.578669 
L 96.631455 324.14405 
L 97.344098 323.40851 
L 98.056742 325.294511 
L 98.769386 326.177789 
L 99.482029 321.327621 
L 100.194673 317.433028 
L 101.61996 315.95566 
L 102.332604 316.310857 
L 103.045248 316.490027 
L 103.757892 316.037387 
L 104.470535 314.827202 
L 105.183179 317.631058 
L 105.895823 318.567772 
L 106.608466 321.472215 
L 107.32111 328.088937 
L 109.459041 343.72389 
L 110.171685 344.547444 
L 110.884328 345.685332 
L 111.596972 348.464041 
L 113.022259 350.953563 
L 113.734903 348.146564 
L 114.447547 347.297863 
L 115.16019 348.555198 
L 115.872834 348.872675 
L 116.585478 346.659766 
L 118.010765 340.888601 
L 118.723409 343.71446 
L 119.436052 348.376028 
L 120.148696 351.890277 
L 120.86134 353.194762 
L 121.573983 356.143211 
L 122.286627 358.026069 
L 122.999271 355.17192 
L 123.711915 348.096271 
L 124.424558 337.738979 
L 125.137202 332.216137 
L 125.849846 331.194553 
L 126.562489 328.393841 
L 127.275133 328.617017 
L 127.987777 334.488769 
L 128.70042 341.954192 
L 129.413064 350.8184 
L 130.125708 355.461107 
L 130.838351 358.396983 
L 131.550995 365.504066 
L 132.976282 374.616597 
L 134.40157 385.149916 
L 135.826857 389.097946 
L 136.539501 391.882942 
L 137.964788 399.845012 
L 140.102719 417.111357 
L 140.815363 417.620577 
L 141.528006 419.547442 
L 142.24065 420.823636 
L 142.953294 420.100669 
L 143.665938 417.721164 
L 144.378581 413.48709 
L 145.091225 407.219278 
L 145.803869 402.768314 
L 146.516512 400.197065 
L 147.229156 396.764542 
L 147.9418 395.962992 
L 149.367087 393.347736 
L 150.079731 396.025858 
L 150.792374 400.844593 
L 151.505018 399.643838 
L 152.217662 399.213201 
L 152.930305 396.805406 
L 154.355593 391.005951 
L 155.068236 388.277535 
L 155.78088 387.655155 
L 156.493524 386.762447 
L 157.206167 387.652011 
L 158.631455 391.034241 
L 159.344098 394.652221 
L 160.056742 395.912698 
L 160.769386 394.28445 
L 161.482029 397.528373 
L 162.194673 399.967602 
L 162.907317 399.005741 
L 163.61996 396.987719 
L 164.332604 394.19958 
L 165.045248 392.112405 
L 165.757892 392.665632 
L 166.470535 391.810645 
L 167.183179 389.654316 
L 167.895823 390.789061 
L 168.608466 393.077409 
L 170.033754 394.576781 
L 170.746397 394.120997 
L 171.459041 392.935959 
L 172.171685 390.19497 
L 172.884328 388.107795 
L 174.309616 384.961316 
L 175.022259 384.021458 
L 176.447547 380.764962 
L 177.16019 381.365339 
L 177.872834 380.274602 
L 178.585478 379.598784 
L 179.298121 378.51119 
L 180.010765 376.027955 
L 181.436052 373.525859 
L 183.573983 371.06777 
L 184.286627 371.866178 
L 184.999271 374.060226 
L 185.711915 374.814627 
L 186.424558 373.727033 
L 187.137202 370.288223 
L 187.849846 369.417519 
L 188.562489 370.938894 
L 189.987777 373.026069 
L 190.70042 372.928625 
L 192.838351 386.466974 
L 194.263639 390.32699 
L 195.688926 395.268314 
L 196.40157 392.700209 
L 197.826857 391.134828 
L 199.252144 387.387971 
L 199.964788 384.599832 
L 200.677432 380.727242 
L 201.390075 377.744216 
L 202.815363 376.449162 
L 203.528006 374.937217 
L 204.953294 371.215507 
L 205.665938 369.596689 
L 206.378581 361.662909 
L 207.091225 358.701887 
L 207.803869 353.647402 
L 208.516512 351.173597 
L 209.229156 345.773345 
L 209.9418 342.246522 
L 210.654443 342.208802 
L 211.367087 341.859892 
L 212.079731 341.284662 
L 213.505018 347.841661 
L 214.930305 360.282985 
L 215.642949 361.549749 
L 216.355593 368.320495 
L 217.068236 372.120788 
L 217.78088 371.724728 
L 219.206167 366.324476 
L 219.918811 361.728919 
L 220.631455 360.415005 
L 221.344098 356.463831 
L 222.056742 353.204192 
L 222.769386 348.655785 
L 224.194673 343.286967 
L 224.907317 341.696439 
L 226.332604 338.084746 
L 227.045248 334.240446 
L 228.470535 330.669616 
L 229.895823 324.367227 
L 231.32111 320.554361 
L 232.033754 316.06882 
L 232.746397 306.849415 
L 234.171685 300.198116 
L 234.884328 299.550589 
L 235.596972 297.931771 
L 236.309616 297.299961 
L 237.022259 299.962366 
L 237.734903 313.884202 
L 238.447547 320.032567 
L 239.16019 318.482902 
L 239.872834 319.102139 
L 240.585478 322.113455 
L 241.298121 323.191619 
L 242.010765 324.631267 
L 242.723409 323.091033 
L 243.436052 319.784243 
L 244.148696 326.985626 
L 244.86134 329.267688 
L 245.573983 331.05939 
L 246.286627 337.245475 
L 247.711915 330.980806 
L 248.424558 331.137973 
L 249.137202 329.047654 
L 249.849846 329.214251 
L 250.562489 330.465299 
L 251.275133 330.003229 
L 252.70042 336.465927 
L 253.413064 335.4412 
L 254.125708 334.94141 
L 254.838351 332.605911 
L 256.263639 326.463832 
L 256.976282 324.486674 
L 257.688926 320.739817 
L 258.40157 322.666682 
L 259.114213 323.637973 
L 259.826857 321.475358 
L 261.252144 317.687638 
L 261.964788 317.979968 
L 262.677432 317.609055 
L 263.390075 315.138393 
L 264.102719 316.34229 
L 264.815363 319.133573 
L 265.528006 322.591242 
L 266.24065 324.235207 
L 266.953294 323.263916 
L 267.665938 320.45063 
L 268.378581 319.328459 
L 269.091225 317.209851 
L 269.803869 315.44644 
L 270.516512 313.296398 
L 271.229156 314.167102 
L 271.9418 319.504486 
L 272.654443 320.881267 
L 273.367087 320.991284 
L 274.079731 320.255744 
L 275.505018 322.858426 
L 276.217662 323.386506 
L 278.355593 278.267061 
L 279.068236 252.582862 
L 279.78088 234.709854 
L 281.206167 208.220961 
L 281.918811 203.38651 
L 282.631455 205.118488 
L 283.344098 212.983115 
L 284.056742 235.039904 
L 284.769386 245.764967 
L 285.482029 248.719702 
L 286.194673 248.279635 
L 286.907317 246.318194 
L 287.61996 251.979342 
L 288.332604 249.89531 
L 289.045248 245.029426 
L 289.757892 242.675067 
L 290.470535 246.978294 
L 291.183179 252.491706 
L 291.895823 264.191202 
L 292.608466 266.922761 
L 293.32111 269.189107 
L 294.033754 272.90453 
L 294.746397 278.769995 
L 296.884328 289.872258 
L 297.596972 298.686172 
L 298.309616 310.033615 
L 299.022259 314.041368 
L 299.734903 313.167521 
L 300.447547 310.954612 
L 301.16019 307.110312 
L 301.872834 300.57846 
L 302.585478 289.812534 
L 303.298121 277.311487 
L 304.010765 268.286969 
L 304.723409 264.376659 
L 305.436052 262.440364 
L 306.148696 260.903273 
L 306.86134 262.858428 
L 308.999271 291.959433 
L 309.711915 298.161235 
L 310.424558 295.435962 
L 311.137202 293.257631 
L 311.849846 282.193088 
L 312.562489 263.443088 
L 313.275133 248.801429 
L 313.987777 238.488144 
L 314.70042 230.14573 
L 315.413064 232.682402 
L 316.125708 233.496526 
L 316.838351 236.039485 
L 317.550995 237.479133 
L 318.263639 237.960063 
L 318.976282 238.0135 
L 319.688926 240.669619 
L 320.40157 240.823642 
L 321.114213 242.363877 
L 321.826857 246.252184 
L 322.539501 253.840197 
L 323.964788 263.807715 
L 324.677432 266.809601 
L 326.102719 277.672971 
L 326.815363 285.12582 
L 328.953294 312.884621 
L 329.665938 319.755953 
L 330.378581 321.959432 
L 331.091225 328.975358 
L 331.803869 344.836631 
L 332.516512 357.950629 
L 333.229156 364.935122 
L 333.9418 369.386086 
L 334.654443 369.244636 
L 335.367087 367.578667 
L 336.792374 365.321752 
L 337.505018 361.323429 
L 338.217662 353.619112 
L 338.930305 347.697067 
L 339.642949 343.198953 
L 340.355593 339.744427 
L 341.068236 329.732902 
L 342.493524 295.624563 
L 343.206167 285.216977 
L 343.918811 277.393214 
L 344.631455 274.378754 
L 345.344098 273.388604 
L 346.056742 274.114714 
L 346.769386 276.641956 
L 347.482029 283.164379 
L 348.194673 285.760774 
L 348.907317 283.381269 
L 351.045248 279.115762 
L 351.757892 276.135879 
L 352.470535 270.009517 
L 353.183179 267.721169 
L 353.895823 268.912493 
L 354.608466 273.948117 
L 355.32111 277.987304 
L 356.033754 278.414798 
L 356.746397 275.060858 
L 357.459041 256.024815 
L 358.884328 203.880014 
L 359.596972 185.617232 
L 360.309616 174.078045 
L 361.022259 165.983955 
L 361.734903 162.230812 
L 362.447547 162.909772 
L 363.16019 178.327835 
L 363.872834 197.389025 
L 364.585478 206.146359 
L 365.298121 211.317147 
L 366.010765 218.144473 
L 366.723409 215.925278 
L 367.436052 227.096694 
L 368.148696 234.096903 
L 368.86134 239.050801 
L 369.573983 241.380013 
L 370.999271 247.009728 
L 371.711915 257.778797 
L 372.424558 261.950004 
L 373.137202 268.299542 
L 373.849846 269.978084 
L 374.562489 269.792627 
L 375.987777 266.158931 
L 376.70042 259.111571 
L 378.125708 240.037808 
L 378.838351 235.992335 
L 379.550995 239.346274 
L 380.263639 241.408303 
L 381.688926 248.902016 
L 382.40157 260.554363 
L 383.114213 266.319241 
L 384.539501 265.08391 
L 385.252144 265.344807 
L 385.964788 262.610104 
L 386.677432 264.247782 
L 387.390075 267.265385 
L 388.102719 273.30059 
L 388.815363 277.984161 
L 389.528006 273.218863 
L 390.24065 270.958805 
L 390.953294 272.106122 
L 392.378581 279.188058 
L 393.091225 284.031939 
L 395.229156 307.104026 
L 395.9418 312.938057 
L 396.654443 313.507001 
L 397.367087 313.217814 
L 398.792374 307.99359 
L 400.217662 310.665425 
L 401.642949 315.96509 
L 402.355593 317.722215 
L 403.068236 315.370999 
L 404.493524 320.086003 
L 405.206167 321.481645 
L 405.918811 320.03571 
L 406.631455 316.345434 
L 407.344098 315.961947 
L 408.056742 320.019993 
L 408.769386 319.63022 
L 409.482029 315.999667 
L 410.194673 316.999248 
L 410.907317 318.636926 
L 412.332604 328.246104 
L 413.045248 332.847948 
L 413.757892 338.307922 
L 414.470535 345.198115 
L 415.895823 338.99317 
L 416.608466 330.763916 
L 417.32111 321.003858 
L 418.033754 314.132525 
L 418.746397 304.938267 
L 419.459041 288.102559 
L 420.171685 287.539902 
L 420.884328 287.863666 
L 421.596972 291.311906 
L 422.309616 292.402643 
L 423.022259 292.044303 
L 423.734903 290.997572 
L 424.447547 299.173389 
L 425.16019 298.613875 
L 425.872834 298.799332 
L 426.585478 300.141536 
L 427.298121 304.642794 
L 428.010765 304.363037 
L 428.723409 307.412073 
L 429.436052 309.628125 
L 430.148696 310.957756 
L 430.86134 312.52628 
L 431.573983 310.109055 
L 432.286627 305.186591 
L 432.999271 302.228712 
L 433.711915 297.614294 
L 434.424558 296.00805 
L 435.137202 292.518947 
L 435.849846 287.536759 
L 436.562489 285.336424 
L 437.275133 283.563582 
L 437.987777 281.400967 
L 438.70042 280.806877 
L 439.413064 276.343339 
L 440.125708 274.341034 
L 440.838351 276.76769 
L 441.550995 282.674018 
L 442.263639 285.908511 
L 442.976282 286.612618 
L 443.688926 292.962157 
L 444.40157 290.972425 
L 445.114213 278.229341 
L 445.826857 273.806667 
L 446.539501 272.341873 
L 447.252144 274.325318 
L 447.964788 276.868276 
L 448.677432 273.218863 
L 449.390075 278.087891 
L 450.102719 291.359056 
L 450.815363 292.43722 
L 451.528006 289.297027 
L 452.24065 288.67779 
L 452.953294 289.01727 
L 453.665938 289.686801 
L 454.378581 289.988561 
L 455.091225 293.578251 
L 455.803869 295.703146 
L 456.516512 299.943506 
L 457.229156 301.414588 
L 457.9418 305.406624 
L 458.654443 308.75742 
L 459.367087 313.233531 
L 460.792374 308.873724 
L 461.505018 304.312743 
L 462.217662 302.879382 
L 462.930305 301.137974 
L 463.642949 293.267061 
L 464.355593 289.19644 
L 465.068236 287.203565 
L 466.493524 276.465929 
L 467.918811 278.373934 
L 468.631455 284.70147 
L 469.344098 287.250715 
L 470.056742 288.784663 
L 470.769386 289.098997 
L 471.482029 298.576155 
L 472.194673 298.387555 
L 472.907317 298.774185 
L 473.61996 297.818611 
L 474.332604 300.23898 
L 475.045248 301.128544 
L 475.757892 302.813372 
L 476.470535 303.165426 
L 478.608466 313.167521 
L 479.32111 312.145937 
L 480.033754 311.869323 
L 480.746397 313.472424 
L 482.171685 312.699164 
L 482.884328 309.203774 
L 483.596972 304.105283 
L 484.309616 301.203984 
L 485.022259 297.067354 
L 485.734903 290.793255 
L 486.447547 282.570288 
L 487.16019 272.954823 
L 487.872834 274.601931 
L 488.585478 278.920875 
L 489.298121 282.479131 
L 490.010765 287.951679 
L 492.148696 321.695392 
L 493.573983 329.390278 
L 494.999271 334.928836 
L 495.711915 340.156204 
L 497.137202 343.189523 
L 497.849846 346.543463 
L 498.562489 351.632524 
L 499.275133 348.957545 
L 499.987777 347.882524 
L 500.70042 339.07804 
L 502.125708 325.423388 
L 502.838351 314.255115 
L 503.550995 299.214252 
L 504.976282 291.324479 
L 505.688926 288.712367 
L 506.40157 289.331604 
L 507.114213 288.259726 
L 507.826857 287.778796 
L 508.539501 291.013289 
L 509.252144 292.581813 
L 509.964788 294.819869 
L 510.677432 301.053104 
L 512.102719 305.601511 
L 512.815363 309.203774 
L 513.528006 309.417521 
L 514.24065 306.761402 
L 514.953294 302.407882 
L 515.665938 295.709433 
L 516.378581 292.811277 
L 517.091225 287.810229 
L 518.516512 283.428419 
L 519.229156 284.066516 
L 519.9418 286.200841 
L 520.654443 285.254697 
L 521.367087 282.133364 
L 522.079731 282.897195 
L 523.505018 271.766642 
L 524.217662 252.428839 
L 524.930305 237.130222 
L 525.642949 225.204406 
L 526.355593 203.911447 
L 527.068236 160.747157 
L 528.493524 98.23249 
L 529.918811 79.117864 
L 530.631455 74.896364 
L 531.344098 78.33203 
L 532.056742 104.251979 
L 532.769386 118.073227 
L 533.482029 141.440787 
L 534.907317 175.744013 
L 536.332604 197.857382 
L 537.757892 216.179888 
L 538.470535 215.3249 
L 539.183179 212.121841 
L 539.895823 210.487306 
L 540.608466 207.453987 
L 542.033754 205.489402 
L 542.746397 203.990031 
L 543.459041 201.327625 
L 544.884328 211.326577 
L 545.596972 214.869117 
L 546.309616 214.755957 
L 547.022259 218.515387 
L 547.734903 227.992545 
L 548.447547 242.722217 
L 549.16019 252.736886 
L 549.872834 259.539065 
L 550.585478 273.608637 
L 551.298121 283.925066 
L 552.010765 290.453775 
L 552.723409 292.930724 
L 553.436052 291.120162 
L 554.148696 286.021671 
L 554.86134 279.216349 
L 555.573983 262.899291 
L 556.999271 236.262662 
L 557.711915 220.995479 
L 558.424558 208.431565 
L 559.137202 201.208178 
L 559.849846 197.527332 
L 560.562489 194.996946 
L 561.275133 190.737726 
L 561.987777 178.393846 
L 562.70042 161.859898 
L 563.413064 154.381902 
L 564.125708 156.296193 
L 564.838351 158.908306 
L 565.550995 160.58056 
L 566.263639 162.661449 
L 566.976282 169.334751 
L 567.688926 181.398875 
L 568.40157 181.823225 
L 569.114213 172.974734 
L 569.826857 171.063586 
L 570.539501 170.390912 
L 571.252144 170.686386 
L 571.964788 176.595857 
L 572.677432 176.23123 
L 573.390075 189.999042 
L 574.102719 200.067147 
L 574.815363 201.755119 
L 575.528006 203.986887 
L 576.24065 197.860526 
L 576.953294 196.112831 
L 577.665938 205.618279 
L 578.378581 199.397617 
L 579.091225 196.556041 
L 580.516512 187.050593 
L 581.229156 196.216561 
L 581.9418 201.381062 
L 582.654443 202.006586 
L 583.367087 206.228086 
L 584.079731 207.714884 
L 585.505018 219.464674 
L 586.217662 219.999041 
L 587.642949 225.600466 
L 588.355593 234.02775 
L 590.493524 268.044932 
L 591.918811 312.444554 
L 592.631455 337.767269 
L 593.344098 350.177159 
L 594.056742 353.254485 
L 594.769386 348.728081 
L 595.482029 345.851929 
L 596.907317 327.802893 
L 597.61996 318.482902 
L 598.332604 306.635669 
L 599.045248 289.730808 
L 599.757892 278.219911 
L 601.183179 245.676953 
L 601.895823 222.10822 
L 602.608466 203.166477 
L 603.32111 191.907047 
L 604.033754 193.274398 
L 604.746397 195.308137 
L 605.459041 192.636301 
L 606.171685 194.880643 
L 606.884328 202.427793 
L 607.596972 203.223057 
L 608.309616 197.885672 
L 609.022259 194.732906 
L 609.734903 196.339151 
L 610.447547 196.669201 
L 611.16019 198.206293 
L 611.872834 193.233535 
L 612.585478 191.586427 
L 613.298121 196.524608 
L 614.010765 194.538019 
L 614.723409 195.877081 
L 615.436052 205.140492 
L 616.148696 205.134205 
L 616.86134 209.638606 
L 618.286627 221.668153 
L 618.999271 230.90956 
L 619.711915 235.357381 
L 620.424558 236.627289 
L 621.137202 239.651178 
L 622.562489 235.718865 
L 623.987777 230.592084 
L 625.413064 220.363668 
L 626.125708 217.540952 
L 626.838351 217.531522 
L 627.550995 217.047449 
L 628.263639 214.218446 
L 628.976282 219.294934 
L 629.688926 220.209645 
L 630.40157 218.968027 
L 631.114213 219.279217 
L 631.826857 217.280055 
L 632.539501 211.983534 
L 633.252144 210.33014 
L 633.964788 209.355705 
L 634.677432 205.492545 
L 636.102719 184.045564 
L 637.528006 174.301222 
L 638.24065 166.543469 
L 638.953294 160.3731 
L 639.665938 161.294098 
L 639.665938 161.294098 
" style="fill:none;stroke:#1f77b4;stroke-linecap:round;stroke-width:1.5;"/>
   </g>
   <g id="patch_3">
    <path d="M 53.765937 438.12 
L 53.765937 57.6 
" style="fill:none;stroke:#cccccc;stroke-linecap:square;stroke-linejoin:miter;"/>
   </g>
   <g id="patch_4">
    <path d="M 667.565938 438.12 
L 667.565938 57.6 
" style="fill:none;stroke:#cccccc;stroke-linecap:square;stroke-linejoin:miter;"/>
   </g>
   <g id="patch_5">
    <path d="M 53.765937 438.12 
L 667.565938 438.12 
" style="fill:none;stroke:#cccccc;stroke-linecap:square;stroke-linejoin:miter;"/>
   </g>
   <g id="patch_6">
    <path d="M 53.765937 57.6 
L 667.565938 57.6 
" style="fill:none;stroke:#cccccc;stroke-linecap:square;stroke-linejoin:miter;"/>
   </g>
   <g id="text_21">
    <!-- 2018-08 -->
    <g style="fill:#262626;" transform="translate(220.631455 54.112626)scale(0.13 -0.13)">
     <defs>
      <path d="M 3.171875 21.484375 
L 3.171875 30.328125 
L 30.171875 30.328125 
L 30.171875 21.484375 
z
" id="ArialMT-45"/>
     </defs>
     <use xlink:href="#ArialMT-50"/>
     <use x="55.615234" xlink:href="#ArialMT-48"/>
     <use x="111.230469" xlink:href="#ArialMT-49"/>
     <use x="166.845703" xlink:href="#ArialMT-56"/>
     <use x="222.460938" xlink:href="#ArialMT-45"/>
     <use x="255.761719" xlink:href="#ArialMT-48"/>
     <use x="311.376953" xlink:href="#ArialMT-56"/>
    </g>
   </g>
   <g id="text_22">
    <!-- 2018-12 -->
    <g style="fill:#262626;" transform="translate(303.298121 54.112626)scale(0.13 -0.13)">
     <use xlink:href="#ArialMT-50"/>
     <use x="55.615234" xlink:href="#ArialMT-48"/>
     <use x="111.230469" xlink:href="#ArialMT-49"/>
     <use x="166.845703" xlink:href="#ArialMT-56"/>
     <use x="222.460938" xlink:href="#ArialMT-45"/>
     <use x="255.761719" xlink:href="#ArialMT-49"/>
     <use x="311.376953" xlink:href="#ArialMT-50"/>
    </g>
   </g>
   <g id="text_23">
    <!-- 2018-08 -->
    <g style="fill:#262626;" transform="translate(504.976282 54.112626)scale(0.13 -0.13)">
     <use xlink:href="#ArialMT-50"/>
     <use x="55.615234" xlink:href="#ArialMT-48"/>
     <use x="111.230469" xlink:href="#ArialMT-49"/>
     <use x="166.845703" xlink:href="#ArialMT-56"/>
     <use x="222.460938" xlink:href="#ArialMT-45"/>
     <use x="255.761719" xlink:href="#ArialMT-48"/>
     <use x="311.376953" xlink:href="#ArialMT-56"/>
    </g>
   </g>
  </g>
  <g id="text_24">
   <!-- Global Warming article -->
   <g style="fill:#262626;" transform="translate(250.003438 21.759375)scale(0.2 -0.2)">
    <defs>
     <path d="M 41.21875 28.078125 
L 41.21875 36.46875 
L 71.53125 36.53125 
L 71.53125 9.96875 
Q 64.546875 4.390625 57.125 1.578125 
Q 49.703125 -1.21875 41.890625 -1.21875 
Q 31.34375 -1.21875 22.71875 3.296875 
Q 14.109375 7.8125 9.71875 16.359375 
Q 5.328125 24.90625 5.328125 35.453125 
Q 5.328125 45.90625 9.6875 54.953125 
Q 14.0625 64.015625 22.265625 68.40625 
Q 30.46875 72.796875 41.15625 72.796875 
Q 48.921875 72.796875 55.1875 70.28125 
Q 61.46875 67.78125 65.03125 63.28125 
Q 68.609375 58.796875 70.453125 51.5625 
L 61.921875 49.21875 
Q 60.296875 54.6875 57.90625 57.8125 
Q 55.515625 60.9375 51.0625 62.8125 
Q 46.625 64.703125 41.21875 64.703125 
Q 34.71875 64.703125 29.984375 62.71875 
Q 25.25 60.75 22.34375 57.515625 
Q 19.4375 54.296875 17.828125 50.4375 
Q 15.09375 43.796875 15.09375 36.03125 
Q 15.09375 26.46875 18.390625 20.015625 
Q 21.6875 13.578125 27.984375 10.453125 
Q 34.28125 7.328125 41.359375 7.328125 
Q 47.515625 7.328125 53.375 9.6875 
Q 59.234375 12.0625 62.25 14.75 
L 62.25 28.078125 
z
" id="ArialMT-71"/>
     <path d="M 20.21875 0 
L 1.21875 71.578125 
L 10.9375 71.578125 
L 21.828125 24.65625 
Q 23.578125 17.28125 24.859375 10.015625 
Q 27.59375 21.484375 28.078125 23.25 
L 41.703125 71.578125 
L 53.125 71.578125 
L 63.375 35.359375 
Q 67.234375 21.875 68.953125 10.015625 
Q 70.3125 16.796875 72.515625 25.59375 
L 83.734375 71.578125 
L 93.265625 71.578125 
L 73.640625 0 
L 64.5 0 
L 49.421875 54.546875 
Q 47.515625 61.375 47.171875 62.9375 
Q 46.046875 58.015625 45.0625 54.546875 
L 29.890625 0 
z
" id="ArialMT-87"/>
     <path d="M 6.59375 0 
L 6.59375 51.859375 
L 14.5 51.859375 
L 14.5 44.484375 
Q 20.21875 53.03125 31 53.03125 
Q 35.6875 53.03125 39.625 51.34375 
Q 43.5625 49.65625 45.515625 46.921875 
Q 47.46875 44.1875 48.25 40.4375 
Q 48.734375 37.984375 48.734375 31.890625 
L 48.734375 0 
L 39.9375 0 
L 39.9375 31.546875 
Q 39.9375 36.921875 38.90625 39.578125 
Q 37.890625 42.234375 35.28125 43.8125 
Q 32.671875 45.40625 29.15625 45.40625 
Q 23.53125 45.40625 19.453125 41.84375 
Q 15.375 38.28125 15.375 28.328125 
L 15.375 0 
z
" id="ArialMT-110"/>
     <path d="M 25.78125 7.859375 
L 27.046875 0.09375 
Q 23.34375 -0.6875 20.40625 -0.6875 
Q 15.625 -0.6875 12.984375 0.828125 
Q 10.359375 2.34375 9.28125 4.8125 
Q 8.203125 7.28125 8.203125 15.1875 
L 8.203125 45.015625 
L 1.765625 45.015625 
L 1.765625 51.859375 
L 8.203125 51.859375 
L 8.203125 64.703125 
L 16.9375 69.96875 
L 16.9375 51.859375 
L 25.78125 51.859375 
L 25.78125 45.015625 
L 16.9375 45.015625 
L 16.9375 14.703125 
Q 16.9375 10.9375 17.40625 9.859375 
Q 17.875 8.796875 18.921875 8.15625 
Q 19.96875 7.515625 21.921875 7.515625 
Q 23.390625 7.515625 25.78125 7.859375 
z
" id="ArialMT-116"/>
     <path d="M 40.4375 19 
L 49.078125 17.875 
Q 47.65625 8.9375 41.8125 3.875 
Q 35.984375 -1.171875 27.484375 -1.171875 
Q 16.84375 -1.171875 10.375 5.78125 
Q 3.90625 12.75 3.90625 25.734375 
Q 3.90625 34.125 6.6875 40.421875 
Q 9.46875 46.734375 15.15625 49.875 
Q 20.84375 53.03125 27.546875 53.03125 
Q 35.984375 53.03125 41.359375 48.75 
Q 46.734375 44.484375 48.25 36.625 
L 39.703125 35.296875 
Q 38.484375 40.53125 35.375 43.15625 
Q 32.28125 45.796875 27.875 45.796875 
Q 21.234375 45.796875 17.078125 41.03125 
Q 12.9375 36.28125 12.9375 25.984375 
Q 12.9375 15.53125 16.9375 10.796875 
Q 20.953125 6.0625 27.390625 6.0625 
Q 32.5625 6.0625 36.03125 9.234375 
Q 39.5 12.40625 40.4375 19 
z
" id="ArialMT-99"/>
    </defs>
    <use xlink:href="#ArialMT-71"/>
    <use x="77.783203" xlink:href="#ArialMT-108"/>
    <use x="100" xlink:href="#ArialMT-111"/>
    <use x="155.615234" xlink:href="#ArialMT-98"/>
    <use x="211.230469" xlink:href="#ArialMT-97"/>
    <use x="266.845703" xlink:href="#ArialMT-108"/>
    <use x="289.0625" xlink:href="#ArialMT-32"/>
    <use x="316.845703" xlink:href="#ArialMT-87"/>
    <use x="407.480469" xlink:href="#ArialMT-97"/>
    <use x="463.095703" xlink:href="#ArialMT-114"/>
    <use x="496.396484" xlink:href="#ArialMT-109"/>
    <use x="579.697266" xlink:href="#ArialMT-105"/>
    <use x="601.914062" xlink:href="#ArialMT-110"/>
    <use x="657.529297" xlink:href="#ArialMT-103"/>
    <use x="713.144531" xlink:href="#ArialMT-32"/>
    <use x="740.927734" xlink:href="#ArialMT-97"/>
    <use x="796.542969" xlink:href="#ArialMT-114"/>
    <use x="829.84375" xlink:href="#ArialMT-116"/>
    <use x="857.626953" xlink:href="#ArialMT-105"/>
    <use x="879.84375" xlink:href="#ArialMT-99"/>
    <use x="929.84375" xlink:href="#ArialMT-108"/>
    <use x="952.060547" xlink:href="#ArialMT-101"/>
   </g>
  </g>
 </g>
 <defs>
  <clipPath id="p7c19c4d0d8">
   <rect height="380.52" width="613.8" x="53.765937" y="57.6"/>
  </clipPath>
 </defs>
</svg>
