<?xml version="1.0" encoding="utf-8" standalone="no"?>
<!DOCTYPE svg PUBLIC "-//W3C//DTD SVG 1.1//EN"
  "http://www.w3.org/Graphics/SVG/1.1/DTD/svg11.dtd">
<!-- Created with matplotlib (https://matplotlib.org/) -->
<svg height="541.734675pt" version="1.1" viewBox="0 0 785.48126 541.734675" width="785.48126pt" xmlns="http://www.w3.org/2000/svg" xmlns:xlink="http://www.w3.org/1999/xlink">
 <metadata>
  <rdf:RDF xmlns:cc="http://creativecommons.org/ns#" xmlns:dc="http://purl.org/dc/elements/1.1/" xmlns:rdf="http://www.w3.org/1999/02/22-rdf-syntax-ns#">
   <cc:Work>
    <dc:type rdf:resource="http://purl.org/dc/dcmitype/StillImage"/>
    <dc:date>2020-12-17T20:42:19.451663</dc:date>
    <dc:format>image/svg+xml</dc:format>
    <dc:creator>
     <cc:Agent>
      <dc:title>Matplotlib v3.3.1, https://matplotlib.org/</dc:title>
     </cc:Agent>
    </dc:creator>
   </cc:Work>
  </rdf:RDF>
 </metadata>
 <defs>
  <style type="text/css">*{stroke-linecap:butt;stroke-linejoin:round;}</style>
 </defs>
 <g id="figure_1">
  <g id="patch_1">
   <path d="M 0 541.734675 
L 785.48126 541.734675 
L 785.48126 0 
L 0 0 
z
" style="fill:#ffffff;"/>
  </g>
  <g id="axes_1">
   <g id="patch_2">
    <path d="M 44.86125 419.802 
L 775.035887 419.802 
L 775.035887 62.28 
L 44.86125 62.28 
z
" style="fill:#ffffff;"/>
   </g>
   <g id="matplotlib.axis_1">
    <g id="xtick_1">
     <g id="line2d_1">
      <defs>
       <path d="M 0 0 
L 0 5 
" id="mfdaaa32364" style="stroke:#262626;"/>
      </defs>
      <g>
       <use style="fill:#262626;stroke:#262626;" x="62.61391" xlink:href="#mfdaaa32364" y="419.802"/>
      </g>
     </g>
     <g id="text_1">
      <!-- 0 -->
      <g style="fill:#262626;" transform="translate(59.833442 435.459813)scale(0.1 -0.1)">
       <defs>
        <path d="M 4.15625 35.296875 
Q 4.15625 48 6.765625 55.734375 
Q 9.375 63.484375 14.515625 67.671875 
Q 19.671875 71.875 27.484375 71.875 
Q 33.25 71.875 37.59375 69.546875 
Q 41.9375 67.234375 44.765625 62.859375 
Q 47.609375 58.5 49.21875 52.21875 
Q 50.828125 45.953125 50.828125 35.296875 
Q 50.828125 22.703125 48.234375 14.96875 
Q 45.65625 7.234375 40.5 3 
Q 35.359375 -1.21875 27.484375 -1.21875 
Q 17.140625 -1.21875 11.234375 6.203125 
Q 4.15625 15.140625 4.15625 35.296875 
z
M 13.1875 35.296875 
Q 13.1875 17.671875 17.3125 11.828125 
Q 21.4375 6 27.484375 6 
Q 33.546875 6 37.671875 11.859375 
Q 41.796875 17.71875 41.796875 35.296875 
Q 41.796875 52.984375 37.671875 58.78125 
Q 33.546875 64.59375 27.390625 64.59375 
Q 21.34375 64.59375 17.71875 59.46875 
Q 13.1875 52.9375 13.1875 35.296875 
z
" id="ArialMT-48"/>
       </defs>
       <use xlink:href="#ArialMT-48"/>
      </g>
     </g>
    </g>
    <g id="xtick_2">
     <g id="line2d_2">
      <g>
       <use style="fill:#262626;stroke:#262626;" x="93.488102" xlink:href="#mfdaaa32364" y="419.802"/>
      </g>
     </g>
     <g id="text_2">
      <!-- 2 -->
      <g style="fill:#262626;" transform="translate(90.707633 435.459813)scale(0.1 -0.1)">
       <defs>
        <path d="M 50.34375 8.453125 
L 50.34375 0 
L 3.03125 0 
Q 2.9375 3.171875 4.046875 6.109375 
Q 5.859375 10.9375 9.828125 15.625 
Q 13.8125 20.3125 21.34375 26.46875 
Q 33.015625 36.03125 37.109375 41.625 
Q 41.21875 47.21875 41.21875 52.203125 
Q 41.21875 57.421875 37.46875 61 
Q 33.734375 64.59375 27.734375 64.59375 
Q 21.390625 64.59375 17.578125 60.78125 
Q 13.765625 56.984375 13.71875 50.25 
L 4.6875 51.171875 
Q 5.609375 61.28125 11.65625 66.578125 
Q 17.71875 71.875 27.9375 71.875 
Q 38.234375 71.875 44.234375 66.15625 
Q 50.25 60.453125 50.25 52 
Q 50.25 47.703125 48.484375 43.546875 
Q 46.734375 39.40625 42.65625 34.8125 
Q 38.578125 30.21875 29.109375 22.21875 
Q 21.1875 15.578125 18.9375 13.203125 
Q 16.703125 10.84375 15.234375 8.453125 
z
" id="ArialMT-50"/>
       </defs>
       <use xlink:href="#ArialMT-50"/>
      </g>
     </g>
    </g>
    <g id="xtick_3">
     <g id="line2d_3">
      <g>
       <use style="fill:#262626;stroke:#262626;" x="124.362294" xlink:href="#mfdaaa32364" y="419.802"/>
      </g>
     </g>
     <g id="text_3">
      <!-- 4 -->
      <g style="fill:#262626;" transform="translate(121.581825 435.459813)scale(0.1 -0.1)">
       <defs>
        <path d="M 32.328125 0 
L 32.328125 17.140625 
L 1.265625 17.140625 
L 1.265625 25.203125 
L 33.9375 71.578125 
L 41.109375 71.578125 
L 41.109375 25.203125 
L 50.78125 25.203125 
L 50.78125 17.140625 
L 41.109375 17.140625 
L 41.109375 0 
z
M 32.328125 25.203125 
L 32.328125 57.46875 
L 9.90625 25.203125 
z
" id="ArialMT-52"/>
       </defs>
       <use xlink:href="#ArialMT-52"/>
      </g>
     </g>
    </g>
    <g id="xtick_4">
     <g id="line2d_4">
      <g>
       <use style="fill:#262626;stroke:#262626;" x="155.236486" xlink:href="#mfdaaa32364" y="419.802"/>
      </g>
     </g>
     <g id="text_4">
      <!-- 6 -->
      <g style="fill:#262626;" transform="translate(152.456017 435.459813)scale(0.1 -0.1)">
       <defs>
        <path d="M 49.75 54.046875 
L 41.015625 53.375 
Q 39.84375 58.546875 37.703125 60.890625 
Q 34.125 64.65625 28.90625 64.65625 
Q 24.703125 64.65625 21.53125 62.3125 
Q 17.390625 59.28125 14.984375 53.46875 
Q 12.59375 47.65625 12.5 36.921875 
Q 15.671875 41.75 20.265625 44.09375 
Q 24.859375 46.4375 29.890625 46.4375 
Q 38.671875 46.4375 44.84375 39.96875 
Q 51.03125 33.5 51.03125 23.25 
Q 51.03125 16.5 48.125 10.71875 
Q 45.21875 4.9375 40.140625 1.859375 
Q 35.0625 -1.21875 28.609375 -1.21875 
Q 17.625 -1.21875 10.6875 6.859375 
Q 3.765625 14.9375 3.765625 33.5 
Q 3.765625 54.25 11.421875 63.671875 
Q 18.109375 71.875 29.4375 71.875 
Q 37.890625 71.875 43.28125 67.140625 
Q 48.6875 62.40625 49.75 54.046875 
z
M 13.875 23.1875 
Q 13.875 18.65625 15.796875 14.5 
Q 17.71875 10.359375 21.1875 8.171875 
Q 24.65625 6 28.46875 6 
Q 34.03125 6 38.03125 10.484375 
Q 42.046875 14.984375 42.046875 22.703125 
Q 42.046875 30.125 38.078125 34.390625 
Q 34.125 38.671875 28.125 38.671875 
Q 22.171875 38.671875 18.015625 34.390625 
Q 13.875 30.125 13.875 23.1875 
z
" id="ArialMT-54"/>
       </defs>
       <use xlink:href="#ArialMT-54"/>
      </g>
     </g>
    </g>
    <g id="xtick_5">
     <g id="line2d_5">
      <g>
       <use style="fill:#262626;stroke:#262626;" x="186.110678" xlink:href="#mfdaaa32364" y="419.802"/>
      </g>
     </g>
     <g id="text_5">
      <!-- 8 -->
      <g style="fill:#262626;" transform="translate(183.330209 435.459813)scale(0.1 -0.1)">
       <defs>
        <path d="M 17.671875 38.8125 
Q 12.203125 40.828125 9.5625 44.53125 
Q 6.9375 48.25 6.9375 53.421875 
Q 6.9375 61.234375 12.546875 66.546875 
Q 18.171875 71.875 27.484375 71.875 
Q 36.859375 71.875 42.578125 66.421875 
Q 48.296875 60.984375 48.296875 53.171875 
Q 48.296875 48.1875 45.671875 44.5 
Q 43.0625 40.828125 37.75 38.8125 
Q 44.34375 36.671875 47.78125 31.875 
Q 51.21875 27.09375 51.21875 20.453125 
Q 51.21875 11.28125 44.71875 5.03125 
Q 38.234375 -1.21875 27.640625 -1.21875 
Q 17.046875 -1.21875 10.546875 5.046875 
Q 4.046875 11.328125 4.046875 20.703125 
Q 4.046875 27.6875 7.59375 32.390625 
Q 11.140625 37.109375 17.671875 38.8125 
z
M 15.921875 53.71875 
Q 15.921875 48.640625 19.1875 45.40625 
Q 22.46875 42.1875 27.6875 42.1875 
Q 32.765625 42.1875 36.015625 45.375 
Q 39.265625 48.578125 39.265625 53.21875 
Q 39.265625 58.0625 35.90625 61.359375 
Q 32.5625 64.65625 27.59375 64.65625 
Q 22.5625 64.65625 19.234375 61.421875 
Q 15.921875 58.203125 15.921875 53.71875 
z
M 13.09375 20.65625 
Q 13.09375 16.890625 14.875 13.375 
Q 16.65625 9.859375 20.171875 7.921875 
Q 23.6875 6 27.734375 6 
Q 34.03125 6 38.125 10.046875 
Q 42.234375 14.109375 42.234375 20.359375 
Q 42.234375 26.703125 38.015625 30.859375 
Q 33.796875 35.015625 27.4375 35.015625 
Q 21.234375 35.015625 17.15625 30.90625 
Q 13.09375 26.8125 13.09375 20.65625 
z
" id="ArialMT-56"/>
       </defs>
       <use xlink:href="#ArialMT-56"/>
      </g>
     </g>
    </g>
    <g id="xtick_6">
     <g id="line2d_6">
      <g>
       <use style="fill:#262626;stroke:#262626;" x="216.984869" xlink:href="#mfdaaa32364" y="419.802"/>
      </g>
     </g>
     <g id="text_6">
      <!-- 10 -->
      <g style="fill:#262626;" transform="translate(211.423932 435.459813)scale(0.1 -0.1)">
       <defs>
        <path d="M 37.25 0 
L 28.46875 0 
L 28.46875 56 
Q 25.296875 52.984375 20.140625 49.953125 
Q 14.984375 46.921875 10.890625 45.40625 
L 10.890625 53.90625 
Q 18.265625 57.375 23.78125 62.296875 
Q 29.296875 67.234375 31.59375 71.875 
L 37.25 71.875 
z
" id="ArialMT-49"/>
       </defs>
       <use xlink:href="#ArialMT-49"/>
       <use x="55.615234" xlink:href="#ArialMT-48"/>
      </g>
     </g>
    </g>
    <g id="xtick_7">
     <g id="line2d_7">
      <g>
       <use style="fill:#262626;stroke:#262626;" x="247.859061" xlink:href="#mfdaaa32364" y="419.802"/>
      </g>
     </g>
     <g id="text_7">
      <!-- 12 -->
      <g style="fill:#262626;" transform="translate(242.298124 435.459813)scale(0.1 -0.1)">
       <use xlink:href="#ArialMT-49"/>
       <use x="55.615234" xlink:href="#ArialMT-50"/>
      </g>
     </g>
    </g>
    <g id="xtick_8">
     <g id="line2d_8">
      <g>
       <use style="fill:#262626;stroke:#262626;" x="278.733253" xlink:href="#mfdaaa32364" y="419.802"/>
      </g>
     </g>
     <g id="text_8">
      <!-- 14 -->
      <g style="fill:#262626;" transform="translate(273.172316 435.459813)scale(0.1 -0.1)">
       <use xlink:href="#ArialMT-49"/>
       <use x="55.615234" xlink:href="#ArialMT-52"/>
      </g>
     </g>
    </g>
    <g id="xtick_9">
     <g id="line2d_9">
      <g>
       <use style="fill:#262626;stroke:#262626;" x="309.607445" xlink:href="#mfdaaa32364" y="419.802"/>
      </g>
     </g>
     <g id="text_9">
      <!-- 16 -->
      <g style="fill:#262626;" transform="translate(304.046507 435.459813)scale(0.1 -0.1)">
       <use xlink:href="#ArialMT-49"/>
       <use x="55.615234" xlink:href="#ArialMT-54"/>
      </g>
     </g>
    </g>
    <g id="xtick_10">
     <g id="line2d_10">
      <g>
       <use style="fill:#262626;stroke:#262626;" x="340.481637" xlink:href="#mfdaaa32364" y="419.802"/>
      </g>
     </g>
     <g id="text_10">
      <!-- 18 -->
      <g style="fill:#262626;" transform="translate(334.920699 435.459813)scale(0.1 -0.1)">
       <use xlink:href="#ArialMT-49"/>
       <use x="55.615234" xlink:href="#ArialMT-56"/>
      </g>
     </g>
    </g>
    <g id="xtick_11">
     <g id="line2d_11">
      <g>
       <use style="fill:#262626;stroke:#262626;" x="371.355829" xlink:href="#mfdaaa32364" y="419.802"/>
      </g>
     </g>
     <g id="text_11">
      <!-- 20 -->
      <g style="fill:#262626;" transform="translate(365.794891 435.459813)scale(0.1 -0.1)">
       <use xlink:href="#ArialMT-50"/>
       <use x="55.615234" xlink:href="#ArialMT-48"/>
      </g>
     </g>
    </g>
    <g id="xtick_12">
     <g id="line2d_12">
      <g>
       <use style="fill:#262626;stroke:#262626;" x="402.23002" xlink:href="#mfdaaa32364" y="419.802"/>
      </g>
     </g>
     <g id="text_12">
      <!-- 22 -->
      <g style="fill:#262626;" transform="translate(396.669083 435.459813)scale(0.1 -0.1)">
       <use xlink:href="#ArialMT-50"/>
       <use x="55.615234" xlink:href="#ArialMT-50"/>
      </g>
     </g>
    </g>
    <g id="xtick_13">
     <g id="line2d_13">
      <g>
       <use style="fill:#262626;stroke:#262626;" x="433.104212" xlink:href="#mfdaaa32364" y="419.802"/>
      </g>
     </g>
     <g id="text_13">
      <!-- 24 -->
      <g style="fill:#262626;" transform="translate(427.543275 435.459813)scale(0.1 -0.1)">
       <use xlink:href="#ArialMT-50"/>
       <use x="55.615234" xlink:href="#ArialMT-52"/>
      </g>
     </g>
    </g>
    <g id="xtick_14">
     <g id="line2d_14">
      <g>
       <use style="fill:#262626;stroke:#262626;" x="463.978404" xlink:href="#mfdaaa32364" y="419.802"/>
      </g>
     </g>
     <g id="text_14">
      <!-- 26 -->
      <g style="fill:#262626;" transform="translate(458.417467 435.459813)scale(0.1 -0.1)">
       <use xlink:href="#ArialMT-50"/>
       <use x="55.615234" xlink:href="#ArialMT-54"/>
      </g>
     </g>
    </g>
    <g id="xtick_15">
     <g id="line2d_15">
      <g>
       <use style="fill:#262626;stroke:#262626;" x="494.852596" xlink:href="#mfdaaa32364" y="419.802"/>
      </g>
     </g>
     <g id="text_15">
      <!-- 28 -->
      <g style="fill:#262626;" transform="translate(489.291658 435.459813)scale(0.1 -0.1)">
       <use xlink:href="#ArialMT-50"/>
       <use x="55.615234" xlink:href="#ArialMT-56"/>
      </g>
     </g>
    </g>
    <g id="xtick_16">
     <g id="line2d_16">
      <g>
       <use style="fill:#262626;stroke:#262626;" x="525.726788" xlink:href="#mfdaaa32364" y="419.802"/>
      </g>
     </g>
     <g id="text_16">
      <!-- 30 -->
      <g style="fill:#262626;" transform="translate(520.16585 435.459813)scale(0.1 -0.1)">
       <defs>
        <path d="M 4.203125 18.890625 
L 12.984375 20.0625 
Q 14.5 12.59375 18.140625 9.296875 
Q 21.78125 6 27 6 
Q 33.203125 6 37.46875 10.296875 
Q 41.75 14.59375 41.75 20.953125 
Q 41.75 27 37.796875 30.921875 
Q 33.84375 34.859375 27.734375 34.859375 
Q 25.25 34.859375 21.53125 33.890625 
L 22.515625 41.609375 
Q 23.390625 41.5 23.921875 41.5 
Q 29.546875 41.5 34.03125 44.421875 
Q 38.53125 47.359375 38.53125 53.46875 
Q 38.53125 58.296875 35.25 61.46875 
Q 31.984375 64.65625 26.8125 64.65625 
Q 21.6875 64.65625 18.265625 61.421875 
Q 14.84375 58.203125 13.875 51.765625 
L 5.078125 53.328125 
Q 6.6875 62.15625 12.390625 67.015625 
Q 18.109375 71.875 26.609375 71.875 
Q 32.46875 71.875 37.390625 69.359375 
Q 42.328125 66.84375 44.9375 62.5 
Q 47.5625 58.15625 47.5625 53.265625 
Q 47.5625 48.640625 45.0625 44.828125 
Q 42.578125 41.015625 37.703125 38.765625 
Q 44.046875 37.3125 47.5625 32.6875 
Q 51.078125 28.078125 51.078125 21.140625 
Q 51.078125 11.765625 44.234375 5.25 
Q 37.40625 -1.265625 26.953125 -1.265625 
Q 17.53125 -1.265625 11.296875 4.34375 
Q 5.078125 9.96875 4.203125 18.890625 
z
" id="ArialMT-51"/>
       </defs>
       <use xlink:href="#ArialMT-51"/>
       <use x="55.615234" xlink:href="#ArialMT-48"/>
      </g>
     </g>
    </g>
    <g id="xtick_17">
     <g id="line2d_17">
      <g>
       <use style="fill:#262626;stroke:#262626;" x="556.600979" xlink:href="#mfdaaa32364" y="419.802"/>
      </g>
     </g>
     <g id="text_17">
      <!-- 32 -->
      <g style="fill:#262626;" transform="translate(551.040042 435.459813)scale(0.1 -0.1)">
       <use xlink:href="#ArialMT-51"/>
       <use x="55.615234" xlink:href="#ArialMT-50"/>
      </g>
     </g>
    </g>
    <g id="xtick_18">
     <g id="line2d_18">
      <g>
       <use style="fill:#262626;stroke:#262626;" x="587.475171" xlink:href="#mfdaaa32364" y="419.802"/>
      </g>
     </g>
     <g id="text_18">
      <!-- 34 -->
      <g style="fill:#262626;" transform="translate(581.914234 435.459813)scale(0.1 -0.1)">
       <use xlink:href="#ArialMT-51"/>
       <use x="55.615234" xlink:href="#ArialMT-52"/>
      </g>
     </g>
    </g>
    <g id="xtick_19">
     <g id="line2d_19">
      <g>
       <use style="fill:#262626;stroke:#262626;" x="618.349363" xlink:href="#mfdaaa32364" y="419.802"/>
      </g>
     </g>
     <g id="text_19">
      <!-- 36 -->
      <g style="fill:#262626;" transform="translate(612.788426 435.459813)scale(0.1 -0.1)">
       <use xlink:href="#ArialMT-51"/>
       <use x="55.615234" xlink:href="#ArialMT-54"/>
      </g>
     </g>
    </g>
    <g id="xtick_20">
     <g id="line2d_20">
      <g>
       <use style="fill:#262626;stroke:#262626;" x="649.223555" xlink:href="#mfdaaa32364" y="419.802"/>
      </g>
     </g>
     <g id="text_20">
      <!-- 38 -->
      <g style="fill:#262626;" transform="translate(643.662617 435.459813)scale(0.1 -0.1)">
       <use xlink:href="#ArialMT-51"/>
       <use x="55.615234" xlink:href="#ArialMT-56"/>
      </g>
     </g>
    </g>
    <g id="xtick_21">
     <g id="line2d_21">
      <g>
       <use style="fill:#262626;stroke:#262626;" x="680.097747" xlink:href="#mfdaaa32364" y="419.802"/>
      </g>
     </g>
     <g id="text_21">
      <!-- 40 -->
      <g style="fill:#262626;" transform="translate(674.536809 435.459813)scale(0.1 -0.1)">
       <use xlink:href="#ArialMT-52"/>
       <use x="55.615234" xlink:href="#ArialMT-48"/>
      </g>
     </g>
    </g>
    <g id="xtick_22">
     <g id="line2d_22">
      <g>
       <use style="fill:#262626;stroke:#262626;" x="710.971939" xlink:href="#mfdaaa32364" y="419.802"/>
      </g>
     </g>
     <g id="text_22">
      <!-- 42 -->
      <g style="fill:#262626;" transform="translate(705.411001 435.459813)scale(0.1 -0.1)">
       <use xlink:href="#ArialMT-52"/>
       <use x="55.615234" xlink:href="#ArialMT-50"/>
      </g>
     </g>
    </g>
    <g id="xtick_23">
     <g id="line2d_23">
      <g>
       <use style="fill:#262626;stroke:#262626;" x="741.84613" xlink:href="#mfdaaa32364" y="419.802"/>
      </g>
     </g>
     <g id="text_23">
      <!-- 44 -->
      <g style="fill:#262626;" transform="translate(736.285193 435.459813)scale(0.1 -0.1)">
       <use xlink:href="#ArialMT-52"/>
       <use x="55.615234" xlink:href="#ArialMT-52"/>
      </g>
     </g>
    </g>
    <g id="xtick_24">
     <g id="line2d_24">
      <g>
       <use style="fill:#262626;stroke:#262626;" x="772.720322" xlink:href="#mfdaaa32364" y="419.802"/>
      </g>
     </g>
     <g id="text_24">
      <!-- 46 -->
      <g style="fill:#262626;" transform="translate(767.159385 435.459813)scale(0.1 -0.1)">
       <use xlink:href="#ArialMT-52"/>
       <use x="55.615234" xlink:href="#ArialMT-54"/>
      </g>
     </g>
    </g>
    <g id="xtick_25">
     <g id="line2d_25"/>
    </g>
    <g id="xtick_26">
     <g id="line2d_26"/>
    </g>
    <g id="xtick_27">
     <g id="line2d_27"/>
    </g>
    <g id="xtick_28">
     <g id="line2d_28"/>
    </g>
    <g id="xtick_29">
     <g id="line2d_29"/>
    </g>
    <g id="xtick_30">
     <g id="line2d_30"/>
    </g>
    <g id="xtick_31">
     <g id="line2d_31"/>
    </g>
    <g id="xtick_32">
     <g id="line2d_32"/>
    </g>
    <g id="xtick_33">
     <g id="line2d_33"/>
    </g>
    <g id="xtick_34">
     <g id="line2d_34"/>
    </g>
    <g id="xtick_35">
     <g id="line2d_35"/>
    </g>
    <g id="xtick_36">
     <g id="line2d_36"/>
    </g>
    <g id="xtick_37">
     <g id="line2d_37"/>
    </g>
    <g id="xtick_38">
     <g id="line2d_38"/>
    </g>
    <g id="xtick_39">
     <g id="line2d_39"/>
    </g>
    <g id="xtick_40">
     <g id="line2d_40"/>
    </g>
    <g id="xtick_41">
     <g id="line2d_41"/>
    </g>
    <g id="xtick_42">
     <g id="line2d_42"/>
    </g>
    <g id="xtick_43">
     <g id="line2d_43"/>
    </g>
    <g id="xtick_44">
     <g id="line2d_44"/>
    </g>
    <g id="xtick_45">
     <g id="line2d_45"/>
    </g>
    <g id="xtick_46">
     <g id="line2d_46"/>
    </g>
    <g id="xtick_47">
     <g id="line2d_47"/>
    </g>
    <g id="xtick_48">
     <g id="line2d_48"/>
    </g>
    <g id="xtick_49">
     <g id="line2d_49"/>
    </g>
    <g id="xtick_50">
     <g id="line2d_50"/>
    </g>
    <g id="xtick_51">
     <g id="line2d_51"/>
    </g>
    <g id="xtick_52">
     <g id="line2d_52"/>
    </g>
    <g id="xtick_53">
     <g id="line2d_53"/>
    </g>
    <g id="xtick_54">
     <g id="line2d_54"/>
    </g>
    <g id="xtick_55">
     <g id="line2d_55"/>
    </g>
    <g id="xtick_56">
     <g id="line2d_56"/>
    </g>
    <g id="xtick_57">
     <g id="line2d_57"/>
    </g>
    <g id="xtick_58">
     <g id="line2d_58"/>
    </g>
    <g id="xtick_59">
     <g id="line2d_59"/>
    </g>
    <g id="xtick_60">
     <g id="line2d_60"/>
    </g>
    <g id="xtick_61">
     <g id="line2d_61"/>
    </g>
    <g id="xtick_62">
     <g id="line2d_62"/>
    </g>
    <g id="xtick_63">
     <g id="line2d_63"/>
    </g>
    <g id="xtick_64">
     <g id="line2d_64"/>
    </g>
    <g id="xtick_65">
     <g id="line2d_65"/>
    </g>
    <g id="xtick_66">
     <g id="line2d_66"/>
    </g>
    <g id="xtick_67">
     <g id="line2d_67"/>
    </g>
    <g id="xtick_68">
     <g id="line2d_68"/>
    </g>
    <g id="xtick_69">
     <g id="line2d_69"/>
    </g>
    <g id="xtick_70">
     <g id="line2d_70"/>
    </g>
    <g id="xtick_71">
     <g id="line2d_71"/>
    </g>
    <g id="xtick_72">
     <g id="line2d_72"/>
    </g>
    <g id="xtick_73">
     <g id="line2d_73"/>
    </g>
    <g id="xtick_74">
     <g id="line2d_74"/>
    </g>
    <g id="xtick_75">
     <g id="line2d_75"/>
    </g>
    <g id="xtick_76">
     <g id="line2d_76"/>
    </g>
    <g id="xtick_77">
     <g id="line2d_77"/>
    </g>
    <g id="xtick_78">
     <g id="line2d_78"/>
    </g>
    <g id="xtick_79">
     <g id="line2d_79"/>
    </g>
    <g id="xtick_80">
     <g id="line2d_80"/>
    </g>
    <g id="xtick_81">
     <g id="line2d_81"/>
    </g>
    <g id="xtick_82">
     <g id="line2d_82"/>
    </g>
    <g id="xtick_83">
     <g id="line2d_83"/>
    </g>
    <g id="xtick_84">
     <g id="line2d_84"/>
    </g>
    <g id="xtick_85">
     <g id="line2d_85"/>
    </g>
    <g id="xtick_86">
     <g id="line2d_86"/>
    </g>
    <g id="xtick_87">
     <g id="line2d_87"/>
    </g>
    <g id="xtick_88">
     <g id="line2d_88"/>
    </g>
    <g id="xtick_89">
     <g id="line2d_89"/>
    </g>
    <g id="xtick_90">
     <g id="line2d_90"/>
    </g>
    <g id="xtick_91">
     <g id="line2d_91"/>
    </g>
    <g id="xtick_92">
     <g id="line2d_92"/>
    </g>
    <g id="xtick_93">
     <g id="line2d_93"/>
    </g>
    <g id="xtick_94">
     <g id="line2d_94"/>
    </g>
    <g id="xtick_95">
     <g id="line2d_95"/>
    </g>
    <g id="text_25">
     <!-- Time (Months) -->
     <g style="fill:#262626;" transform="translate(371.504506 450.182938)scale(0.12 -0.12)">
      <defs>
       <path d="M 25.921875 0 
L 25.921875 63.140625 
L 2.34375 63.140625 
L 2.34375 71.578125 
L 59.078125 71.578125 
L 59.078125 63.140625 
L 35.40625 63.140625 
L 35.40625 0 
z
" id="ArialMT-84"/>
       <path d="M 6.640625 61.46875 
L 6.640625 71.578125 
L 15.4375 71.578125 
L 15.4375 61.46875 
z
M 6.640625 0 
L 6.640625 51.859375 
L 15.4375 51.859375 
L 15.4375 0 
z
" id="ArialMT-105"/>
       <path d="M 6.59375 0 
L 6.59375 51.859375 
L 14.453125 51.859375 
L 14.453125 44.578125 
Q 16.890625 48.390625 20.9375 50.703125 
Q 25 53.03125 30.171875 53.03125 
Q 35.9375 53.03125 39.625 50.640625 
Q 43.3125 48.25 44.828125 43.953125 
Q 50.984375 53.03125 60.84375 53.03125 
Q 68.5625 53.03125 72.703125 48.75 
Q 76.859375 44.484375 76.859375 35.59375 
L 76.859375 0 
L 68.109375 0 
L 68.109375 32.671875 
Q 68.109375 37.9375 67.25 40.25 
Q 66.40625 42.578125 64.15625 43.984375 
Q 61.921875 45.40625 58.890625 45.40625 
Q 53.421875 45.40625 49.796875 41.765625 
Q 46.1875 38.140625 46.1875 30.125 
L 46.1875 0 
L 37.40625 0 
L 37.40625 33.6875 
Q 37.40625 39.546875 35.25 42.46875 
Q 33.109375 45.40625 28.21875 45.40625 
Q 24.515625 45.40625 21.359375 43.453125 
Q 18.21875 41.5 16.796875 37.734375 
Q 15.375 33.984375 15.375 26.90625 
L 15.375 0 
z
" id="ArialMT-109"/>
       <path d="M 42.09375 16.703125 
L 51.171875 15.578125 
Q 49.03125 7.625 43.21875 3.21875 
Q 37.40625 -1.171875 28.375 -1.171875 
Q 17 -1.171875 10.328125 5.828125 
Q 3.65625 12.84375 3.65625 25.484375 
Q 3.65625 38.578125 10.390625 45.796875 
Q 17.140625 53.03125 27.875 53.03125 
Q 38.28125 53.03125 44.875 45.953125 
Q 51.46875 38.875 51.46875 26.03125 
Q 51.46875 25.25 51.421875 23.6875 
L 12.75 23.6875 
Q 13.234375 15.140625 17.578125 10.59375 
Q 21.921875 6.0625 28.421875 6.0625 
Q 33.25 6.0625 36.671875 8.59375 
Q 40.09375 11.140625 42.09375 16.703125 
z
M 13.234375 30.90625 
L 42.1875 30.90625 
Q 41.609375 37.453125 38.875 40.71875 
Q 34.671875 45.796875 27.984375 45.796875 
Q 21.921875 45.796875 17.796875 41.75 
Q 13.671875 37.703125 13.234375 30.90625 
z
" id="ArialMT-101"/>
       <path id="ArialMT-32"/>
       <path d="M 23.390625 -21.046875 
Q 16.109375 -11.859375 11.078125 0.4375 
Q 6.0625 12.75 6.0625 25.921875 
Q 6.0625 37.546875 9.8125 48.1875 
Q 14.203125 60.546875 23.390625 72.796875 
L 29.6875 72.796875 
Q 23.78125 62.640625 21.875 58.296875 
Q 18.890625 51.5625 17.1875 44.234375 
Q 15.09375 35.109375 15.09375 25.875 
Q 15.09375 2.390625 29.6875 -21.046875 
z
" id="ArialMT-40"/>
       <path d="M 7.421875 0 
L 7.421875 71.578125 
L 21.6875 71.578125 
L 38.625 20.90625 
Q 40.96875 13.8125 42.046875 10.296875 
Q 43.265625 14.203125 45.84375 21.78125 
L 62.984375 71.578125 
L 75.734375 71.578125 
L 75.734375 0 
L 66.609375 0 
L 66.609375 59.90625 
L 45.796875 0 
L 37.25 0 
L 16.546875 60.9375 
L 16.546875 0 
z
" id="ArialMT-77"/>
       <path d="M 3.328125 25.921875 
Q 3.328125 40.328125 11.328125 47.265625 
Q 18.015625 53.03125 27.640625 53.03125 
Q 38.328125 53.03125 45.109375 46.015625 
Q 51.90625 39.015625 51.90625 26.65625 
Q 51.90625 16.65625 48.90625 10.90625 
Q 45.90625 5.171875 40.15625 2 
Q 34.421875 -1.171875 27.640625 -1.171875 
Q 16.75 -1.171875 10.03125 5.8125 
Q 3.328125 12.796875 3.328125 25.921875 
z
M 12.359375 25.921875 
Q 12.359375 15.96875 16.703125 11.015625 
Q 21.046875 6.0625 27.640625 6.0625 
Q 34.1875 6.0625 38.53125 11.03125 
Q 42.875 16.015625 42.875 26.21875 
Q 42.875 35.84375 38.5 40.796875 
Q 34.125 45.75 27.640625 45.75 
Q 21.046875 45.75 16.703125 40.8125 
Q 12.359375 35.890625 12.359375 25.921875 
z
" id="ArialMT-111"/>
       <path d="M 6.59375 0 
L 6.59375 51.859375 
L 14.5 51.859375 
L 14.5 44.484375 
Q 20.21875 53.03125 31 53.03125 
Q 35.6875 53.03125 39.625 51.34375 
Q 43.5625 49.65625 45.515625 46.921875 
Q 47.46875 44.1875 48.25 40.4375 
Q 48.734375 37.984375 48.734375 31.890625 
L 48.734375 0 
L 39.9375 0 
L 39.9375 31.546875 
Q 39.9375 36.921875 38.90625 39.578125 
Q 37.890625 42.234375 35.28125 43.8125 
Q 32.671875 45.40625 29.15625 45.40625 
Q 23.53125 45.40625 19.453125 41.84375 
Q 15.375 38.28125 15.375 28.328125 
L 15.375 0 
z
" id="ArialMT-110"/>
       <path d="M 25.78125 7.859375 
L 27.046875 0.09375 
Q 23.34375 -0.6875 20.40625 -0.6875 
Q 15.625 -0.6875 12.984375 0.828125 
Q 10.359375 2.34375 9.28125 4.8125 
Q 8.203125 7.28125 8.203125 15.1875 
L 8.203125 45.015625 
L 1.765625 45.015625 
L 1.765625 51.859375 
L 8.203125 51.859375 
L 8.203125 64.703125 
L 16.9375 69.96875 
L 16.9375 51.859375 
L 25.78125 51.859375 
L 25.78125 45.015625 
L 16.9375 45.015625 
L 16.9375 14.703125 
Q 16.9375 10.9375 17.40625 9.859375 
Q 17.875 8.796875 18.921875 8.15625 
Q 19.96875 7.515625 21.921875 7.515625 
Q 23.390625 7.515625 25.78125 7.859375 
z
" id="ArialMT-116"/>
       <path d="M 6.59375 0 
L 6.59375 71.578125 
L 15.375 71.578125 
L 15.375 45.90625 
Q 21.53125 53.03125 30.90625 53.03125 
Q 36.671875 53.03125 40.921875 50.75 
Q 45.171875 48.484375 47 44.484375 
Q 48.828125 40.484375 48.828125 32.859375 
L 48.828125 0 
L 40.046875 0 
L 40.046875 32.859375 
Q 40.046875 39.453125 37.1875 42.453125 
Q 34.328125 45.453125 29.109375 45.453125 
Q 25.203125 45.453125 21.75 43.421875 
Q 18.3125 41.40625 16.84375 37.9375 
Q 15.375 34.46875 15.375 28.375 
L 15.375 0 
z
" id="ArialMT-104"/>
       <path d="M 3.078125 15.484375 
L 11.765625 16.84375 
Q 12.5 11.625 15.84375 8.84375 
Q 19.1875 6.0625 25.203125 6.0625 
Q 31.25 6.0625 34.171875 8.515625 
Q 37.109375 10.984375 37.109375 14.3125 
Q 37.109375 17.28125 34.515625 19 
Q 32.71875 20.171875 25.53125 21.96875 
Q 15.875 24.421875 12.140625 26.203125 
Q 8.40625 27.984375 6.46875 31.125 
Q 4.546875 34.28125 4.546875 38.09375 
Q 4.546875 41.546875 6.125 44.5 
Q 7.71875 47.46875 10.453125 49.421875 
Q 12.5 50.921875 16.03125 51.96875 
Q 19.578125 53.03125 23.640625 53.03125 
Q 29.734375 53.03125 34.34375 51.265625 
Q 38.96875 49.515625 41.15625 46.5 
Q 43.359375 43.5 44.1875 38.484375 
L 35.59375 37.3125 
Q 35.015625 41.3125 32.203125 43.546875 
Q 29.390625 45.796875 24.265625 45.796875 
Q 18.21875 45.796875 15.625 43.796875 
Q 13.03125 41.796875 13.03125 39.109375 
Q 13.03125 37.40625 14.109375 36.03125 
Q 15.1875 34.625 17.484375 33.6875 
Q 18.796875 33.203125 25.25 31.453125 
Q 34.578125 28.953125 38.25 27.359375 
Q 41.9375 25.78125 44.03125 22.75 
Q 46.140625 19.734375 46.140625 15.234375 
Q 46.140625 10.84375 43.578125 6.953125 
Q 41.015625 3.078125 36.171875 0.953125 
Q 31.34375 -1.171875 25.25 -1.171875 
Q 15.140625 -1.171875 9.84375 3.03125 
Q 4.546875 7.234375 3.078125 15.484375 
z
" id="ArialMT-115"/>
       <path d="M 12.359375 -21.046875 
L 6.0625 -21.046875 
Q 20.65625 2.390625 20.65625 25.875 
Q 20.65625 35.0625 18.5625 44.09375 
Q 16.890625 51.421875 13.921875 58.15625 
Q 12.015625 62.546875 6.0625 72.796875 
L 12.359375 72.796875 
Q 21.53125 60.546875 25.921875 48.1875 
Q 29.6875 37.546875 29.6875 25.921875 
Q 29.6875 12.75 24.625 0.4375 
Q 19.578125 -11.859375 12.359375 -21.046875 
z
" id="ArialMT-41"/>
      </defs>
      <use xlink:href="#ArialMT-84"/>
      <use x="57.333984" xlink:href="#ArialMT-105"/>
      <use x="79.550781" xlink:href="#ArialMT-109"/>
      <use x="162.851562" xlink:href="#ArialMT-101"/>
      <use x="218.466797" xlink:href="#ArialMT-32"/>
      <use x="246.25" xlink:href="#ArialMT-40"/>
      <use x="279.550781" xlink:href="#ArialMT-77"/>
      <use x="362.851562" xlink:href="#ArialMT-111"/>
      <use x="418.466797" xlink:href="#ArialMT-110"/>
      <use x="474.082031" xlink:href="#ArialMT-116"/>
      <use x="501.865234" xlink:href="#ArialMT-104"/>
      <use x="557.480469" xlink:href="#ArialMT-115"/>
      <use x="607.480469" xlink:href="#ArialMT-41"/>
     </g>
    </g>
   </g>
   <g id="matplotlib.axis_2">
    <g id="ytick_1">
     <g id="line2d_96">
      <path clip-path="url(#p7766fe958a)" d="M 44.86125 419.802 
L 775.035887 419.802 
" style="fill:none;stroke:#cccccc;stroke-linecap:round;stroke-width:0.8;"/>
     </g>
     <g id="line2d_97">
      <defs>
       <path d="M 0 0 
L -5 0 
" id="md48f8e43f3" style="stroke:#262626;"/>
      </defs>
      <g>
       <use style="fill:#262626;stroke:#262626;" x="44.86125" xlink:href="#md48f8e43f3" y="419.802"/>
      </g>
     </g>
     <g id="text_26">
      <!-- 0.0 -->
      <g style="fill:#262626;" transform="translate(22.46125 423.380906)scale(0.1 -0.1)">
       <defs>
        <path d="M 9.078125 0 
L 9.078125 10.015625 
L 19.09375 10.015625 
L 19.09375 0 
z
" id="ArialMT-46"/>
       </defs>
       <use xlink:href="#ArialMT-48"/>
       <use x="55.615234" xlink:href="#ArialMT-46"/>
       <use x="83.398438" xlink:href="#ArialMT-48"/>
      </g>
     </g>
    </g>
    <g id="ytick_2">
     <g id="line2d_98">
      <path clip-path="url(#p7766fe958a)" d="M 44.86125 367.95778 
L 775.035887 367.95778 
" style="fill:none;stroke:#cccccc;stroke-linecap:round;stroke-width:0.8;"/>
     </g>
     <g id="line2d_99">
      <g>
       <use style="fill:#262626;stroke:#262626;" x="44.86125" xlink:href="#md48f8e43f3" y="367.95778"/>
      </g>
     </g>
     <g id="text_27">
      <!-- 0.2 -->
      <g style="fill:#262626;" transform="translate(22.46125 371.536686)scale(0.1 -0.1)">
       <use xlink:href="#ArialMT-48"/>
       <use x="55.615234" xlink:href="#ArialMT-46"/>
       <use x="83.398438" xlink:href="#ArialMT-50"/>
      </g>
     </g>
    </g>
    <g id="ytick_3">
     <g id="line2d_100">
      <path clip-path="url(#p7766fe958a)" d="M 44.86125 316.11356 
L 775.035887 316.11356 
" style="fill:none;stroke:#cccccc;stroke-linecap:round;stroke-width:0.8;"/>
     </g>
     <g id="line2d_101">
      <g>
       <use style="fill:#262626;stroke:#262626;" x="44.86125" xlink:href="#md48f8e43f3" y="316.11356"/>
      </g>
     </g>
     <g id="text_28">
      <!-- 0.4 -->
      <g style="fill:#262626;" transform="translate(22.46125 319.692466)scale(0.1 -0.1)">
       <use xlink:href="#ArialMT-48"/>
       <use x="55.615234" xlink:href="#ArialMT-46"/>
       <use x="83.398438" xlink:href="#ArialMT-52"/>
      </g>
     </g>
    </g>
    <g id="ytick_4">
     <g id="line2d_102">
      <path clip-path="url(#p7766fe958a)" d="M 44.86125 264.26934 
L 775.035887 264.26934 
" style="fill:none;stroke:#cccccc;stroke-linecap:round;stroke-width:0.8;"/>
     </g>
     <g id="line2d_103">
      <g>
       <use style="fill:#262626;stroke:#262626;" x="44.86125" xlink:href="#md48f8e43f3" y="264.26934"/>
      </g>
     </g>
     <g id="text_29">
      <!-- 0.6 -->
      <g style="fill:#262626;" transform="translate(22.46125 267.848246)scale(0.1 -0.1)">
       <use xlink:href="#ArialMT-48"/>
       <use x="55.615234" xlink:href="#ArialMT-46"/>
       <use x="83.398438" xlink:href="#ArialMT-54"/>
      </g>
     </g>
    </g>
    <g id="ytick_5">
     <g id="line2d_104">
      <path clip-path="url(#p7766fe958a)" d="M 44.86125 212.42512 
L 775.035887 212.42512 
" style="fill:none;stroke:#cccccc;stroke-linecap:round;stroke-width:0.8;"/>
     </g>
     <g id="line2d_105">
      <g>
       <use style="fill:#262626;stroke:#262626;" x="44.86125" xlink:href="#md48f8e43f3" y="212.42512"/>
      </g>
     </g>
     <g id="text_30">
      <!-- 0.8 -->
      <g style="fill:#262626;" transform="translate(22.46125 216.004026)scale(0.1 -0.1)">
       <use xlink:href="#ArialMT-48"/>
       <use x="55.615234" xlink:href="#ArialMT-46"/>
       <use x="83.398438" xlink:href="#ArialMT-56"/>
      </g>
     </g>
    </g>
    <g id="ytick_6">
     <g id="line2d_106">
      <path clip-path="url(#p7766fe958a)" d="M 44.86125 160.5809 
L 775.035887 160.5809 
" style="fill:none;stroke:#cccccc;stroke-linecap:round;stroke-width:0.8;"/>
     </g>
     <g id="line2d_107">
      <g>
       <use style="fill:#262626;stroke:#262626;" x="44.86125" xlink:href="#md48f8e43f3" y="160.5809"/>
      </g>
     </g>
     <g id="text_31">
      <!-- 1.0 -->
      <g style="fill:#262626;" transform="translate(22.46125 164.159806)scale(0.1 -0.1)">
       <use xlink:href="#ArialMT-49"/>
       <use x="55.615234" xlink:href="#ArialMT-46"/>
       <use x="83.398438" xlink:href="#ArialMT-48"/>
      </g>
     </g>
    </g>
    <g id="ytick_7">
     <g id="line2d_108">
      <path clip-path="url(#p7766fe958a)" d="M 44.86125 108.73668 
L 775.035887 108.73668 
" style="fill:none;stroke:#cccccc;stroke-linecap:round;stroke-width:0.8;"/>
     </g>
     <g id="line2d_109">
      <g>
       <use style="fill:#262626;stroke:#262626;" x="44.86125" xlink:href="#md48f8e43f3" y="108.73668"/>
      </g>
     </g>
     <g id="text_32">
      <!-- 1.2 -->
      <g style="fill:#262626;" transform="translate(22.46125 112.315586)scale(0.1 -0.1)">
       <use xlink:href="#ArialMT-49"/>
       <use x="55.615234" xlink:href="#ArialMT-46"/>
       <use x="83.398438" xlink:href="#ArialMT-50"/>
      </g>
     </g>
    </g>
    <g id="text_33">
     <!-- Total Views (All Articles) -->
     <g style="fill:#262626;" transform="translate(15.935625 304.615688)rotate(-90)scale(0.12 -0.12)">
      <defs>
       <path d="M 40.4375 6.390625 
Q 35.546875 2.25 31.03125 0.53125 
Q 26.515625 -1.171875 21.34375 -1.171875 
Q 12.796875 -1.171875 8.203125 3 
Q 3.609375 7.171875 3.609375 13.671875 
Q 3.609375 17.484375 5.34375 20.625 
Q 7.078125 23.78125 9.890625 25.6875 
Q 12.703125 27.59375 16.21875 28.5625 
Q 18.796875 29.25 24.03125 29.890625 
Q 34.671875 31.15625 39.703125 32.90625 
Q 39.75 34.71875 39.75 35.203125 
Q 39.75 40.578125 37.25 42.78125 
Q 33.890625 45.75 27.25 45.75 
Q 21.046875 45.75 18.09375 43.578125 
Q 15.140625 41.40625 13.71875 35.890625 
L 5.125 37.0625 
Q 6.296875 42.578125 8.984375 45.96875 
Q 11.671875 49.359375 16.75 51.1875 
Q 21.828125 53.03125 28.515625 53.03125 
Q 35.15625 53.03125 39.296875 51.46875 
Q 43.453125 49.90625 45.40625 47.53125 
Q 47.359375 45.171875 48.140625 41.546875 
Q 48.578125 39.3125 48.578125 33.453125 
L 48.578125 21.734375 
Q 48.578125 9.46875 49.140625 6.21875 
Q 49.703125 2.984375 51.375 0 
L 42.1875 0 
Q 40.828125 2.734375 40.4375 6.390625 
z
M 39.703125 26.03125 
Q 34.90625 24.078125 25.34375 22.703125 
Q 19.921875 21.921875 17.671875 20.9375 
Q 15.4375 19.96875 14.203125 18.09375 
Q 12.984375 16.21875 12.984375 13.921875 
Q 12.984375 10.40625 15.640625 8.0625 
Q 18.3125 5.71875 23.4375 5.71875 
Q 28.515625 5.71875 32.46875 7.9375 
Q 36.421875 10.15625 38.28125 14.015625 
Q 39.703125 17 39.703125 22.796875 
z
" id="ArialMT-97"/>
       <path d="M 6.390625 0 
L 6.390625 71.578125 
L 15.1875 71.578125 
L 15.1875 0 
z
" id="ArialMT-108"/>
       <path d="M 28.171875 0 
L 0.4375 71.578125 
L 10.6875 71.578125 
L 29.296875 19.578125 
Q 31.546875 13.328125 33.0625 7.859375 
Q 34.71875 13.71875 36.921875 19.578125 
L 56.25 71.578125 
L 65.921875 71.578125 
L 37.890625 0 
z
" id="ArialMT-86"/>
       <path d="M 16.15625 0 
L 0.296875 51.859375 
L 9.375 51.859375 
L 17.625 21.921875 
L 20.703125 10.796875 
Q 20.90625 11.625 23.390625 21.484375 
L 31.640625 51.859375 
L 40.671875 51.859375 
L 48.4375 21.78125 
L 51.03125 11.859375 
L 54 21.875 
L 62.890625 51.859375 
L 71.4375 51.859375 
L 55.21875 0 
L 46.09375 0 
L 37.84375 31.0625 
L 35.84375 39.890625 
L 25.34375 0 
z
" id="ArialMT-119"/>
       <path d="M -0.140625 0 
L 27.34375 71.578125 
L 37.546875 71.578125 
L 66.84375 0 
L 56.0625 0 
L 47.703125 21.6875 
L 17.78125 21.6875 
L 9.90625 0 
z
M 20.515625 29.390625 
L 44.78125 29.390625 
L 37.3125 49.21875 
Q 33.890625 58.25 32.234375 64.0625 
Q 30.859375 57.171875 28.375 50.390625 
z
" id="ArialMT-65"/>
       <path d="M 6.5 0 
L 6.5 51.859375 
L 14.40625 51.859375 
L 14.40625 44 
Q 17.4375 49.515625 20 51.265625 
Q 22.5625 53.03125 25.640625 53.03125 
Q 30.078125 53.03125 34.671875 50.203125 
L 31.640625 42.046875 
Q 28.421875 43.953125 25.203125 43.953125 
Q 22.3125 43.953125 20.015625 42.21875 
Q 17.71875 40.484375 16.75 37.40625 
Q 15.28125 32.71875 15.28125 27.15625 
L 15.28125 0 
z
" id="ArialMT-114"/>
       <path d="M 40.4375 19 
L 49.078125 17.875 
Q 47.65625 8.9375 41.8125 3.875 
Q 35.984375 -1.171875 27.484375 -1.171875 
Q 16.84375 -1.171875 10.375 5.78125 
Q 3.90625 12.75 3.90625 25.734375 
Q 3.90625 34.125 6.6875 40.421875 
Q 9.46875 46.734375 15.15625 49.875 
Q 20.84375 53.03125 27.546875 53.03125 
Q 35.984375 53.03125 41.359375 48.75 
Q 46.734375 44.484375 48.25 36.625 
L 39.703125 35.296875 
Q 38.484375 40.53125 35.375 43.15625 
Q 32.28125 45.796875 27.875 45.796875 
Q 21.234375 45.796875 17.078125 41.03125 
Q 12.9375 36.28125 12.9375 25.984375 
Q 12.9375 15.53125 16.9375 10.796875 
Q 20.953125 6.0625 27.390625 6.0625 
Q 32.5625 6.0625 36.03125 9.234375 
Q 39.5 12.40625 40.4375 19 
z
" id="ArialMT-99"/>
      </defs>
      <use xlink:href="#ArialMT-84"/>
      <use x="49.958984" xlink:href="#ArialMT-111"/>
      <use x="105.574219" xlink:href="#ArialMT-116"/>
      <use x="133.357422" xlink:href="#ArialMT-97"/>
      <use x="188.972656" xlink:href="#ArialMT-108"/>
      <use x="211.189453" xlink:href="#ArialMT-32"/>
      <use x="238.972656" xlink:href="#ArialMT-86"/>
      <use x="303.921875" xlink:href="#ArialMT-105"/>
      <use x="326.138672" xlink:href="#ArialMT-101"/>
      <use x="381.753906" xlink:href="#ArialMT-119"/>
      <use x="453.970703" xlink:href="#ArialMT-115"/>
      <use x="503.970703" xlink:href="#ArialMT-32"/>
      <use x="531.753906" xlink:href="#ArialMT-40"/>
      <use x="565.054688" xlink:href="#ArialMT-65"/>
      <use x="631.753906" xlink:href="#ArialMT-108"/>
      <use x="653.970703" xlink:href="#ArialMT-108"/>
      <use x="676.1875" xlink:href="#ArialMT-32"/>
      <use x="698.470703" xlink:href="#ArialMT-65"/>
      <use x="765.169922" xlink:href="#ArialMT-114"/>
      <use x="798.470703" xlink:href="#ArialMT-116"/>
      <use x="826.253906" xlink:href="#ArialMT-105"/>
      <use x="848.470703" xlink:href="#ArialMT-99"/>
      <use x="898.470703" xlink:href="#ArialMT-108"/>
      <use x="920.6875" xlink:href="#ArialMT-101"/>
      <use x="976.302734" xlink:href="#ArialMT-115"/>
      <use x="1026.302734" xlink:href="#ArialMT-41"/>
     </g>
    </g>
   </g>
   <g id="PathCollection_1">
    <defs>
     <path d="M 0 3.535534 
C 0.937635 3.535534 1.836992 3.163008 2.5 2.5 
C 3.163008 1.836992 3.535534 0.937635 3.535534 0 
C 3.535534 -0.937635 3.163008 -1.836992 2.5 -2.5 
C 1.836992 -3.163008 0.937635 -3.535534 0 -3.535534 
C -0.937635 -3.535534 -1.836992 -3.163008 -2.5 -2.5 
C -3.163008 -1.836992 -3.535534 -0.937635 -3.535534 0 
C -3.535534 0.937635 -3.163008 1.836992 -2.5 2.5 
C -1.836992 3.163008 -0.937635 3.535534 0 3.535534 
z
" id="m2a436cd0ac" style="stroke:#8b0000;"/>
    </defs>
    <g clip-path="url(#p7766fe958a)">
     <use style="fill:#8b0000;stroke:#8b0000;" x="78.051006" xlink:href="#m2a436cd0ac" y="122.754925"/>
     <use style="fill:#8b0000;stroke:#8b0000;" x="93.488102" xlink:href="#m2a436cd0ac" y="140.737646"/>
     <use style="fill:#8b0000;stroke:#8b0000;" x="108.925198" xlink:href="#m2a436cd0ac" y="116.164373"/>
     <use style="fill:#8b0000;stroke:#8b0000;" x="124.362294" xlink:href="#m2a436cd0ac" y="147.138563"/>
     <use style="fill:#8b0000;stroke:#8b0000;" x="139.79939" xlink:href="#m2a436cd0ac" y="134.112803"/>
     <use style="fill:#8b0000;stroke:#8b0000;" x="155.236486" xlink:href="#m2a436cd0ac" y="148.61681"/>
     <use style="fill:#8b0000;stroke:#8b0000;" x="170.673582" xlink:href="#m2a436cd0ac" y="166.933356"/>
     <use style="fill:#8b0000;stroke:#8b0000;" x="186.110678" xlink:href="#m2a436cd0ac" y="169.92001"/>
     <use style="fill:#8b0000;stroke:#8b0000;" x="201.547774" xlink:href="#m2a436cd0ac" y="135.923222"/>
     <use style="fill:#8b0000;stroke:#8b0000;" x="216.984869" xlink:href="#m2a436cd0ac" y="123.397372"/>
     <use style="fill:#8b0000;stroke:#8b0000;" x="232.421965" xlink:href="#m2a436cd0ac" y="130.994768"/>
     <use style="fill:#8b0000;stroke:#8b0000;" x="247.859061" xlink:href="#m2a436cd0ac" y="171.924608"/>
     <use style="fill:#8b0000;stroke:#8b0000;" x="263.296157" xlink:href="#m2a436cd0ac" y="135.840592"/>
     <use style="fill:#8b0000;stroke:#8b0000;" x="278.733253" xlink:href="#m2a436cd0ac" y="154.445102"/>
     <use style="fill:#8b0000;stroke:#8b0000;" x="294.170349" xlink:href="#m2a436cd0ac" y="131.531035"/>
     <use style="fill:#8b0000;stroke:#8b0000;" x="309.607445" xlink:href="#m2a436cd0ac" y="143.465256"/>
     <use style="fill:#8b0000;stroke:#8b0000;" x="325.044541" xlink:href="#m2a436cd0ac" y="138.8855"/>
     <use style="fill:#8b0000;stroke:#8b0000;" x="340.481637" xlink:href="#m2a436cd0ac" y="164.630464"/>
     <use style="fill:#8b0000;stroke:#8b0000;" x="355.918733" xlink:href="#m2a436cd0ac" y="157.485052"/>
     <use style="fill:#8b0000;stroke:#8b0000;" x="371.355829" xlink:href="#m2a436cd0ac" y="136.071129"/>
     <use style="fill:#8b0000;stroke:#8b0000;" x="386.792924" xlink:href="#m2a436cd0ac" y="143.192991"/>
     <use style="fill:#8b0000;stroke:#8b0000;" x="402.23002" xlink:href="#m2a436cd0ac" y="139.265597"/>
     <use style="fill:#8b0000;stroke:#8b0000;" x="417.667116" xlink:href="#m2a436cd0ac" y="135.40348"/>
     <use style="fill:#8b0000;stroke:#8b0000;" x="433.104212" xlink:href="#m2a436cd0ac" y="168.505388"/>
     <use style="fill:#8b0000;stroke:#8b0000;" x="448.541308" xlink:href="#m2a436cd0ac" y="149.889309"/>
     <use style="fill:#8b0000;stroke:#8b0000;" x="463.978404" xlink:href="#m2a436cd0ac" y="179.107616"/>
     <use style="fill:#8b0000;stroke:#8b0000;" x="479.4155" xlink:href="#m2a436cd0ac" y="155.610596"/>
     <use style="fill:#8b0000;stroke:#8b0000;" x="494.852596" xlink:href="#m2a436cd0ac" y="166.001292"/>
     <use style="fill:#8b0000;stroke:#8b0000;" x="510.289692" xlink:href="#m2a436cd0ac" y="150.593315"/>
     <use style="fill:#8b0000;stroke:#8b0000;" x="525.726788" xlink:href="#m2a436cd0ac" y="179.582737"/>
     <use style="fill:#8b0000;stroke:#8b0000;" x="541.163884" xlink:href="#m2a436cd0ac" y="191.569428"/>
     <use style="fill:#8b0000;stroke:#8b0000;" x="556.600979" xlink:href="#m2a436cd0ac" y="190.259746"/>
     <use style="fill:#8b0000;stroke:#8b0000;" x="572.038075" xlink:href="#m2a436cd0ac" y="161.245121"/>
     <use style="fill:#8b0000;stroke:#8b0000;" x="587.475171" xlink:href="#m2a436cd0ac" y="160.989382"/>
     <use style="fill:#8b0000;stroke:#8b0000;" x="602.912267" xlink:href="#m2a436cd0ac" y="163.041906"/>
     <use style="fill:#8b0000;stroke:#8b0000;" x="618.349363" xlink:href="#m2a436cd0ac" y="199.156082"/>
     <use style="fill:#8b0000;stroke:#8b0000;" x="633.786459" xlink:href="#m2a436cd0ac" y="165.813722"/>
     <use style="fill:#8b0000;stroke:#8b0000;" x="649.223555" xlink:href="#m2a436cd0ac" y="183.567972"/>
     <use style="fill:#8b0000;stroke:#8b0000;" x="664.660651" xlink:href="#m2a436cd0ac" y="190.986888"/>
     <use style="fill:#8b0000;stroke:#8b0000;" x="680.097747" xlink:href="#m2a436cd0ac" y="164.128488"/>
     <use style="fill:#8b0000;stroke:#8b0000;" x="695.534843" xlink:href="#m2a436cd0ac" y="191.098025"/>
     <use style="fill:#8b0000;stroke:#8b0000;" x="710.971939" xlink:href="#m2a436cd0ac" y="229.399825"/>
     <use style="fill:#8b0000;stroke:#8b0000;" x="726.409035" xlink:href="#m2a436cd0ac" y="212.131025"/>
     <use style="fill:#8b0000;stroke:#8b0000;" x="741.84613" xlink:href="#m2a436cd0ac" y="224.047067"/>
    </g>
   </g>
   <g id="PolyCollection_1">
    <path clip-path="url(#p7766fe958a)" d="M 78.051006 148.756894 
L 78.051006 148.756894 
L 93.488102 148.6486 
L 108.925198 148.583097 
L 124.362294 148.573147 
L 139.79939 148.635937 
L 155.236486 148.794271 
L 170.673582 149.077297 
L 186.110678 149.519564 
L 201.547774 150.156687 
L 216.984869 151.016811 
L 232.421965 152.110822 
L 247.859061 153.427834 
L 263.296157 154.939702 
L 278.733253 156.610812 
L 294.170349 158.406612 
L 309.607445 160.297957 
L 325.044541 162.262043 
L 340.481637 164.281681 
L 355.918733 166.34411 
L 355.918733 166.34411 
L 355.918733 139.12747 
L 340.481637 139.235764 
L 325.044541 139.301267 
L 309.607445 139.311217 
L 294.170349 139.248427 
L 278.733253 139.090092 
L 263.296157 138.807067 
L 247.859061 138.3648 
L 232.421965 137.727677 
L 216.984869 136.867553 
L 201.547774 135.773542 
L 186.110678 134.456529 
L 170.673582 132.944661 
L 155.236486 131.273552 
L 139.79939 129.477752 
L 124.362294 127.586406 
L 108.925198 125.622321 
L 93.488102 123.602683 
L 78.051006 121.540254 
z
" style="fill:#cd5c5c;fill-opacity:0.25;"/>
   </g>
   <g id="PolyCollection_2">
    <path clip-path="url(#p7766fe958a)" d="M 371.355829 165.17343 
L 371.355829 165.17343 
L 386.792924 155.67026 
L 402.23002 155.077226 
L 417.667116 163.394328 
L 417.667116 163.394328 
L 417.667116 111.793168 
L 402.23002 121.296338 
L 386.792924 121.889372 
L 371.355829 113.57227 
z
" style="fill:#cd5c5c;fill-opacity:0.25;"/>
   </g>
   <g id="PolyCollection_3">
    <path clip-path="url(#p7766fe958a)" d="M 433.104212 175.212233 
L 433.104212 175.212233 
L 448.541308 175.482554 
L 463.978404 176.193626 
L 479.4155 177.681079 
L 494.852596 180.403578 
L 510.289692 184.614104 
L 525.726788 190.059676 
L 541.163884 196.281629 
L 556.600979 202.944334 
L 556.600979 202.944334 
L 556.600979 165.036528 
L 541.163884 164.766208 
L 525.726788 164.055136 
L 510.289692 162.567682 
L 494.852596 159.845184 
L 479.4155 155.634657 
L 463.978404 150.189085 
L 448.541308 143.967132 
L 433.104212 137.304428 
z
" style="fill:#cd5c5c;fill-opacity:0.25;"/>
   </g>
   <g id="PolyCollection_4">
    <path clip-path="url(#p7766fe958a)" d="M 572.038075 173.539356 
L 572.038075 173.539356 
L 587.475171 176.935901 
L 602.912267 180.503712 
L 618.349363 184.334256 
L 633.786459 188.565409 
L 649.223555 193.370559 
L 664.660651 198.886904 
L 680.097747 205.114443 
L 695.534843 211.915979 
L 710.971939 219.118124 
L 726.409035 226.583002 
L 741.84613 234.219147 
L 741.84613 234.219147 
L 741.84613 200.728228 
L 726.409035 197.331683 
L 710.971939 193.763872 
L 695.534843 189.933328 
L 680.097747 185.702175 
L 664.660651 180.897025 
L 649.223555 175.38068 
L 633.786459 169.153141 
L 618.349363 162.351605 
L 602.912267 155.14946 
L 587.475171 147.684582 
L 572.038075 140.048437 
z
" style="fill:#cd5c5c;fill-opacity:0.25;"/>
   </g>
   <g id="PathCollection_2">
    <defs>
     <path d="M 0 3.535534 
C 0.937635 3.535534 1.836992 3.163008 2.5 2.5 
C 3.163008 1.836992 3.535534 0.937635 3.535534 0 
C 3.535534 -0.937635 3.163008 -1.836992 2.5 -2.5 
C 1.836992 -3.163008 0.937635 -3.535534 0 -3.535534 
C -0.937635 -3.535534 -1.836992 -3.163008 -2.5 -2.5 
C -3.163008 -1.836992 -3.535534 -0.937635 -3.535534 0 
C -3.535534 0.937635 -3.163008 1.836992 -2.5 2.5 
C -1.836992 3.163008 -0.937635 3.535534 0 3.535534 
z
" id="m2571b38427" style="stroke:#66cdaa;"/>
    </defs>
    <g clip-path="url(#p7766fe958a)">
     <use style="fill:#66cdaa;stroke:#66cdaa;" x="78.051006" xlink:href="#m2571b38427" y="116.204758"/>
     <use style="fill:#66cdaa;stroke:#66cdaa;" x="93.488102" xlink:href="#m2571b38427" y="124.569188"/>
     <use style="fill:#66cdaa;stroke:#66cdaa;" x="108.925198" xlink:href="#m2571b38427" y="94.782"/>
     <use style="fill:#66cdaa;stroke:#66cdaa;" x="124.362294" xlink:href="#m2571b38427" y="130.684629"/>
     <use style="fill:#66cdaa;stroke:#66cdaa;" x="139.79939" xlink:href="#m2571b38427" y="129.169395"/>
     <use style="fill:#66cdaa;stroke:#66cdaa;" x="155.236486" xlink:href="#m2571b38427" y="155.666719"/>
     <use style="fill:#66cdaa;stroke:#66cdaa;" x="170.673582" xlink:href="#m2571b38427" y="176.92552"/>
     <use style="fill:#66cdaa;stroke:#66cdaa;" x="186.110678" xlink:href="#m2571b38427" y="162.095626"/>
     <use style="fill:#66cdaa;stroke:#66cdaa;" x="201.547774" xlink:href="#m2571b38427" y="136.679455"/>
     <use style="fill:#66cdaa;stroke:#66cdaa;" x="216.984869" xlink:href="#m2571b38427" y="103.522722"/>
     <use style="fill:#66cdaa;stroke:#66cdaa;" x="232.421965" xlink:href="#m2571b38427" y="105.829283"/>
     <use style="fill:#66cdaa;stroke:#66cdaa;" x="247.859061" xlink:href="#m2571b38427" y="151.91344"/>
     <use style="fill:#66cdaa;stroke:#66cdaa;" x="263.296157" xlink:href="#m2571b38427" y="124.067248"/>
     <use style="fill:#66cdaa;stroke:#66cdaa;" x="278.733253" xlink:href="#m2571b38427" y="146.29403"/>
     <use style="fill:#66cdaa;stroke:#66cdaa;" x="294.170349" xlink:href="#m2571b38427" y="100.45526"/>
     <use style="fill:#66cdaa;stroke:#66cdaa;" x="309.607445" xlink:href="#m2571b38427" y="131.578402"/>
     <use style="fill:#66cdaa;stroke:#66cdaa;" x="325.044541" xlink:href="#m2571b38427" y="143.504792"/>
     <use style="fill:#66cdaa;stroke:#66cdaa;" x="340.481637" xlink:href="#m2571b38427" y="169.682957"/>
     <use style="fill:#66cdaa;stroke:#66cdaa;" x="355.918733" xlink:href="#m2571b38427" y="171.698599"/>
     <use style="fill:#66cdaa;stroke:#66cdaa;" x="371.355829" xlink:href="#m2571b38427" y="164.919231"/>
     <use style="fill:#66cdaa;stroke:#66cdaa;" x="386.792924" xlink:href="#m2571b38427" y="153.846994"/>
     <use style="fill:#66cdaa;stroke:#66cdaa;" x="402.23002" xlink:href="#m2571b38427" y="135.06878"/>
     <use style="fill:#66cdaa;stroke:#66cdaa;" x="417.667116" xlink:href="#m2571b38427" y="146.476812"/>
     <use style="fill:#66cdaa;stroke:#66cdaa;" x="433.104212" xlink:href="#m2571b38427" y="183.030453"/>
     <use style="fill:#66cdaa;stroke:#66cdaa;" x="448.541308" xlink:href="#m2571b38427" y="154.743832"/>
     <use style="fill:#66cdaa;stroke:#66cdaa;" x="463.978404" xlink:href="#m2571b38427" y="171.999369"/>
     <use style="fill:#66cdaa;stroke:#66cdaa;" x="479.4155" xlink:href="#m2571b38427" y="153.02305"/>
     <use style="fill:#66cdaa;stroke:#66cdaa;" x="494.852596" xlink:href="#m2571b38427" y="166.982812"/>
     <use style="fill:#66cdaa;stroke:#66cdaa;" x="510.289692" xlink:href="#m2571b38427" y="166.511518"/>
     <use style="fill:#66cdaa;stroke:#66cdaa;" x="525.726788" xlink:href="#m2571b38427" y="206.094312"/>
     <use style="fill:#66cdaa;stroke:#66cdaa;" x="541.163884" xlink:href="#m2571b38427" y="210.436654"/>
     <use style="fill:#66cdaa;stroke:#66cdaa;" x="556.600979" xlink:href="#m2571b38427" y="207.230409"/>
     <use style="fill:#66cdaa;stroke:#66cdaa;" x="572.038075" xlink:href="#m2571b38427" y="176.332954"/>
     <use style="fill:#66cdaa;stroke:#66cdaa;" x="587.475171" xlink:href="#m2571b38427" y="155.46927"/>
     <use style="fill:#66cdaa;stroke:#66cdaa;" x="602.912267" xlink:href="#m2571b38427" y="168.342407"/>
     <use style="fill:#66cdaa;stroke:#66cdaa;" x="618.349363" xlink:href="#m2571b38427" y="203.554622"/>
     <use style="fill:#66cdaa;stroke:#66cdaa;" x="633.786459" xlink:href="#m2571b38427" y="167.723573"/>
     <use style="fill:#66cdaa;stroke:#66cdaa;" x="649.223555" xlink:href="#m2571b38427" y="189.117874"/>
     <use style="fill:#66cdaa;stroke:#66cdaa;" x="664.660651" xlink:href="#m2571b38427" y="189.016961"/>
     <use style="fill:#66cdaa;stroke:#66cdaa;" x="680.097747" xlink:href="#m2571b38427" y="173.209892"/>
     <use style="fill:#66cdaa;stroke:#66cdaa;" x="695.534843" xlink:href="#m2571b38427" y="185.321253"/>
     <use style="fill:#66cdaa;stroke:#66cdaa;" x="710.971939" xlink:href="#m2571b38427" y="204.390167"/>
     <use style="fill:#66cdaa;stroke:#66cdaa;" x="726.409035" xlink:href="#m2571b38427" y="235.284557"/>
     <use style="fill:#66cdaa;stroke:#66cdaa;" x="741.84613" xlink:href="#m2571b38427" y="222.107805"/>
    </g>
   </g>
   <g id="PolyCollection_5">
    <path clip-path="url(#p7766fe958a)" d="M 78.051006 141.001718 
L 78.051006 141.001718 
L 93.488102 140.97031 
L 108.925198 140.996575 
L 124.362294 141.097714 
L 139.79939 141.296893 
L 155.236486 141.624849 
L 170.673582 142.120863 
L 186.110678 142.831505 
L 201.547774 143.804774 
L 216.984869 145.078605 
L 232.421965 146.667673 
L 247.859061 148.557302 
L 263.296157 150.709559 
L 278.733253 153.076443 
L 294.170349 155.611387 
L 309.607445 158.275106 
L 325.044541 161.036865 
L 340.481637 163.873499 
L 355.918733 166.767806 
L 355.918733 166.767806 
L 355.918733 130.085021 
L 340.481637 130.116429 
L 325.044541 130.090164 
L 309.607445 129.989025 
L 294.170349 129.789846 
L 278.733253 129.46189 
L 263.296157 128.965876 
L 247.859061 128.255234 
L 232.421965 127.281965 
L 216.984869 126.008134 
L 201.547774 124.419066 
L 186.110678 122.529437 
L 170.673582 120.37718 
L 155.236486 118.010296 
L 139.79939 115.475352 
L 124.362294 112.811633 
L 108.925198 110.049874 
L 93.488102 107.21324 
L 78.051006 104.318933 
z
" style="fill:#afeeee;fill-opacity:0.25;"/>
   </g>
   <g id="PolyCollection_6">
    <path clip-path="url(#p7766fe958a)" d="M 371.355829 195.967984 
L 371.355829 195.967984 
L 386.792924 176.548292 
L 402.23002 169.137745 
L 417.667116 173.736343 
L 417.667116 173.736343 
L 417.667116 104.187924 
L 402.23002 123.607617 
L 386.792924 131.018164 
L 371.355829 126.419566 
z
" style="fill:#afeeee;fill-opacity:0.25;"/>
   </g>
   <g id="PolyCollection_7">
    <path clip-path="url(#p7766fe958a)" d="M 433.104212 182.514922 
L 433.104212 182.514922 
L 448.541308 183.966348 
L 463.978404 186.011823 
L 479.4155 189.103709 
L 494.852596 193.8602 
L 510.289692 200.622264 
L 525.726788 209.048932 
L 541.163884 218.522013 
L 556.600979 228.589141 
L 556.600979 228.589141 
L 556.600979 177.496725 
L 541.163884 176.045298 
L 525.726788 173.999824 
L 510.289692 170.907937 
L 494.852596 166.151447 
L 479.4155 159.389382 
L 463.978404 150.962714 
L 448.541308 141.489634 
L 433.104212 131.422505 
z
" style="fill:#afeeee;fill-opacity:0.25;"/>
   </g>
   <g id="PolyCollection_8">
    <path clip-path="url(#p7766fe958a)" d="M 572.038075 184.814318 
L 572.038075 184.814318 
L 587.475171 186.850196 
L 602.912267 189.116908 
L 618.349363 191.737733 
L 633.786459 194.898503 
L 649.223555 198.832909 
L 664.660651 203.725869 
L 680.097747 209.577382 
L 695.534843 216.202532 
L 710.971939 223.367626 
L 726.409035 230.886833 
L 741.84613 238.636875 
L 741.84613 238.636875 
L 741.84613 193.497571 
L 726.409035 191.461693 
L 710.971939 189.194981 
L 695.534843 186.574156 
L 680.097747 183.413387 
L 664.660651 179.47898 
L 649.223555 174.58602 
L 633.786459 168.734508 
L 618.349363 162.109358 
L 602.912267 154.944263 
L 587.475171 147.425056 
L 572.038075 139.675015 
z
" style="fill:#afeeee;fill-opacity:0.25;"/>
   </g>
   <g id="line2d_110">
    <path clip-path="url(#p7766fe958a)" d="M 78.051006 135.148574 
L 93.488102 136.125641 
L 108.925198 137.102709 
L 124.362294 138.079777 
L 139.79939 139.056844 
L 155.236486 140.033912 
L 170.673582 141.010979 
L 186.110678 141.988047 
L 201.547774 142.965114 
L 216.984869 143.942182 
L 232.421965 144.919249 
L 247.859061 145.896317 
L 263.296157 146.873385 
L 278.733253 147.850452 
L 294.170349 148.82752 
L 309.607445 149.804587 
L 325.044541 150.781655 
L 340.481637 151.758722 
L 355.918733 152.73579 
" style="fill:none;stroke:#b22222;stroke-linecap:round;stroke-opacity:0.9;stroke-width:4;"/>
   </g>
   <g id="line2d_111">
    <path clip-path="url(#p7766fe958a)" d="M 371.355829 139.37285 
L 386.792924 138.779816 
L 402.23002 138.186782 
L 417.667116 137.593748 
" style="fill:none;stroke:#b22222;stroke-linecap:round;stroke-opacity:0.9;stroke-width:4;"/>
   </g>
   <g id="line2d_112">
    <path clip-path="url(#p7766fe958a)" d="M 433.104212 156.258331 
L 448.541308 159.724843 
L 463.978404 163.191356 
L 479.4155 166.657868 
L 494.852596 170.124381 
L 510.289692 173.590893 
L 525.726788 177.057406 
L 541.163884 180.523918 
L 556.600979 183.990431 
" style="fill:none;stroke:#b22222;stroke-linecap:round;stroke-opacity:0.9;stroke-width:4;"/>
   </g>
   <g id="line2d_113">
    <path clip-path="url(#p7766fe958a)" d="M 572.038075 156.793897 
L 587.475171 162.310241 
L 602.912267 167.826586 
L 618.349363 173.34293 
L 633.786459 178.859275 
L 649.223555 184.37562 
L 664.660651 189.891964 
L 680.097747 195.408309 
L 695.534843 200.924654 
L 710.971939 206.440998 
L 726.409035 211.957343 
L 741.84613 217.473687 
" style="fill:none;stroke:#b22222;stroke-linecap:round;stroke-opacity:0.9;stroke-width:4;"/>
   </g>
   <g id="line2d_114">
    <path clip-path="url(#p7766fe958a)" d="M 78.051006 148.756894 
L 93.488102 148.6486 
L 108.925198 148.583097 
L 124.362294 148.573147 
L 139.79939 148.635937 
L 155.236486 148.794271 
L 170.673582 149.077297 
L 186.110678 149.519564 
L 201.547774 150.156687 
L 216.984869 151.016811 
L 232.421965 152.110822 
L 247.859061 153.427834 
L 263.296157 154.939702 
L 278.733253 156.610812 
L 294.170349 158.406612 
L 309.607445 160.297957 
L 325.044541 162.262043 
L 340.481637 164.281681 
L 355.918733 166.34411 
" style="fill:none;stroke:#cd5c5c;stroke-linecap:round;stroke-opacity:0.1;stroke-width:2;"/>
   </g>
   <g id="line2d_115">
    <path clip-path="url(#p7766fe958a)" d="M 78.051006 121.540254 
L 93.488102 123.602683 
L 108.925198 125.622321 
L 124.362294 127.586406 
L 139.79939 129.477752 
L 155.236486 131.273552 
L 170.673582 132.944661 
L 186.110678 134.456529 
L 201.547774 135.773542 
L 216.984869 136.867553 
L 232.421965 137.727677 
L 247.859061 138.3648 
L 263.296157 138.807067 
L 278.733253 139.090092 
L 294.170349 139.248427 
L 309.607445 139.311217 
L 325.044541 139.301267 
L 340.481637 139.235764 
L 355.918733 139.12747 
" style="fill:none;stroke:#cd5c5c;stroke-linecap:round;stroke-opacity:0.1;stroke-width:2;"/>
   </g>
   <g id="line2d_116">
    <path clip-path="url(#p7766fe958a)" d="M 371.355829 165.17343 
L 386.792924 155.67026 
L 402.23002 155.077226 
L 417.667116 163.394328 
" style="fill:none;stroke:#cd5c5c;stroke-linecap:round;stroke-opacity:0.1;stroke-width:2;"/>
   </g>
   <g id="line2d_117">
    <path clip-path="url(#p7766fe958a)" d="M 371.355829 113.57227 
L 386.792924 121.889372 
L 402.23002 121.296338 
L 417.667116 111.793168 
" style="fill:none;stroke:#cd5c5c;stroke-linecap:round;stroke-opacity:0.1;stroke-width:2;"/>
   </g>
   <g id="line2d_118">
    <path clip-path="url(#p7766fe958a)" d="M 433.104212 175.212233 
L 448.541308 175.482554 
L 463.978404 176.193626 
L 479.4155 177.681079 
L 494.852596 180.403578 
L 510.289692 184.614104 
L 525.726788 190.059676 
L 541.163884 196.281629 
L 556.600979 202.944334 
" style="fill:none;stroke:#cd5c5c;stroke-linecap:round;stroke-opacity:0.1;stroke-width:2;"/>
   </g>
   <g id="line2d_119">
    <path clip-path="url(#p7766fe958a)" d="M 433.104212 137.304428 
L 448.541308 143.967132 
L 463.978404 150.189085 
L 479.4155 155.634657 
L 494.852596 159.845184 
L 510.289692 162.567682 
L 525.726788 164.055136 
L 541.163884 164.766208 
L 556.600979 165.036528 
" style="fill:none;stroke:#cd5c5c;stroke-linecap:round;stroke-opacity:0.1;stroke-width:2;"/>
   </g>
   <g id="line2d_120">
    <path clip-path="url(#p7766fe958a)" d="M 572.038075 173.539356 
L 587.475171 176.935901 
L 602.912267 180.503712 
L 618.349363 184.334256 
L 633.786459 188.565409 
L 649.223555 193.370559 
L 664.660651 198.886904 
L 680.097747 205.114443 
L 695.534843 211.915979 
L 710.971939 219.118124 
L 726.409035 226.583002 
L 741.84613 234.219147 
" style="fill:none;stroke:#cd5c5c;stroke-linecap:round;stroke-opacity:0.1;stroke-width:2;"/>
   </g>
   <g id="line2d_121">
    <path clip-path="url(#p7766fe958a)" d="M 572.038075 140.048437 
L 587.475171 147.684582 
L 602.912267 155.14946 
L 618.349363 162.351605 
L 633.786459 169.153141 
L 649.223555 175.38068 
L 664.660651 180.897025 
L 680.097747 185.702175 
L 695.534843 189.933328 
L 710.971939 193.763872 
L 726.409035 197.331683 
L 741.84613 200.728228 
" style="fill:none;stroke:#cd5c5c;stroke-linecap:round;stroke-opacity:0.1;stroke-width:2;"/>
   </g>
   <g id="line2d_122">
    <path clip-path="url(#p7766fe958a)" d="M 78.051006 122.660326 
L 93.488102 124.091775 
L 108.925198 125.523224 
L 124.362294 126.954674 
L 139.79939 128.386123 
L 155.236486 129.817572 
L 170.673582 131.249022 
L 186.110678 132.680471 
L 201.547774 134.11192 
L 216.984869 135.54337 
L 232.421965 136.974819 
L 247.859061 138.406268 
L 263.296157 139.837718 
L 278.733253 141.269167 
L 294.170349 142.700616 
L 309.607445 144.132065 
L 325.044541 145.563515 
L 340.481637 146.994964 
L 355.918733 148.426413 
" style="fill:none;stroke:#7fffd4;stroke-linecap:round;stroke-opacity:0.9;stroke-width:4;"/>
   </g>
   <g id="line2d_123">
    <path clip-path="url(#p7766fe958a)" d="M 371.355829 161.193775 
L 386.792924 153.783228 
L 402.23002 146.372681 
L 417.667116 138.962134 
" style="fill:none;stroke:#7fffd4;stroke-linecap:round;stroke-opacity:0.9;stroke-width:4;"/>
   </g>
   <g id="line2d_124">
    <path clip-path="url(#p7766fe958a)" d="M 433.104212 156.968713 
L 448.541308 162.727991 
L 463.978404 168.487268 
L 479.4155 174.246546 
L 494.852596 180.005823 
L 510.289692 185.765101 
L 525.726788 191.524378 
L 541.163884 197.283655 
L 556.600979 203.042933 
" style="fill:none;stroke:#7fffd4;stroke-linecap:round;stroke-opacity:0.9;stroke-width:4;"/>
   </g>
   <g id="line2d_125">
    <path clip-path="url(#p7766fe958a)" d="M 572.038075 162.244666 
L 587.475171 167.137626 
L 602.912267 172.030586 
L 618.349363 176.923545 
L 633.786459 181.816505 
L 649.223555 186.709465 
L 664.660651 191.602424 
L 680.097747 196.495384 
L 695.534843 201.388344 
L 710.971939 206.281303 
L 726.409035 211.174263 
L 741.84613 216.067223 
" style="fill:none;stroke:#7fffd4;stroke-linecap:round;stroke-opacity:0.9;stroke-width:4;"/>
   </g>
   <g id="line2d_126">
    <path clip-path="url(#p7766fe958a)" d="M 78.051006 141.001718 
L 93.488102 140.97031 
L 108.925198 140.996575 
L 124.362294 141.097714 
L 139.79939 141.296893 
L 155.236486 141.624849 
L 170.673582 142.120863 
L 186.110678 142.831505 
L 201.547774 143.804774 
L 216.984869 145.078605 
L 232.421965 146.667673 
L 247.859061 148.557302 
L 263.296157 150.709559 
L 278.733253 153.076443 
L 294.170349 155.611387 
L 309.607445 158.275106 
L 325.044541 161.036865 
L 340.481637 163.873499 
L 355.918733 166.767806 
" style="fill:none;stroke:#afeeee;stroke-linecap:round;stroke-opacity:0.1;stroke-width:2;"/>
   </g>
   <g id="line2d_127">
    <path clip-path="url(#p7766fe958a)" d="M 78.051006 104.318933 
L 93.488102 107.21324 
L 108.925198 110.049874 
L 124.362294 112.811633 
L 139.79939 115.475352 
L 155.236486 118.010296 
L 170.673582 120.37718 
L 186.110678 122.529437 
L 201.547774 124.419066 
L 216.984869 126.008134 
L 232.421965 127.281965 
L 247.859061 128.255234 
L 263.296157 128.965876 
L 278.733253 129.46189 
L 294.170349 129.789846 
L 309.607445 129.989025 
L 325.044541 130.090164 
L 340.481637 130.116429 
L 355.918733 130.085021 
" style="fill:none;stroke:#afeeee;stroke-linecap:round;stroke-opacity:0.1;stroke-width:2;"/>
   </g>
   <g id="line2d_128">
    <path clip-path="url(#p7766fe958a)" d="M 371.355829 195.967984 
L 386.792924 176.548292 
L 402.23002 169.137745 
L 417.667116 173.736343 
" style="fill:none;stroke:#afeeee;stroke-linecap:round;stroke-opacity:0.1;stroke-width:2;"/>
   </g>
   <g id="line2d_129">
    <path clip-path="url(#p7766fe958a)" d="M 371.355829 126.419566 
L 386.792924 131.018164 
L 402.23002 123.607617 
L 417.667116 104.187924 
" style="fill:none;stroke:#afeeee;stroke-linecap:round;stroke-opacity:0.1;stroke-width:2;"/>
   </g>
   <g id="line2d_130">
    <path clip-path="url(#p7766fe958a)" d="M 433.104212 182.514922 
L 448.541308 183.966348 
L 463.978404 186.011823 
L 479.4155 189.103709 
L 494.852596 193.8602 
L 510.289692 200.622264 
L 525.726788 209.048932 
L 541.163884 218.522013 
L 556.600979 228.589141 
" style="fill:none;stroke:#afeeee;stroke-linecap:round;stroke-opacity:0.1;stroke-width:2;"/>
   </g>
   <g id="line2d_131">
    <path clip-path="url(#p7766fe958a)" d="M 433.104212 131.422505 
L 448.541308 141.489634 
L 463.978404 150.962714 
L 479.4155 159.389382 
L 494.852596 166.151447 
L 510.289692 170.907937 
L 525.726788 173.999824 
L 541.163884 176.045298 
L 556.600979 177.496725 
" style="fill:none;stroke:#afeeee;stroke-linecap:round;stroke-opacity:0.1;stroke-width:2;"/>
   </g>
   <g id="line2d_132">
    <path clip-path="url(#p7766fe958a)" d="M 572.038075 184.814318 
L 587.475171 186.850196 
L 602.912267 189.116908 
L 618.349363 191.737733 
L 633.786459 194.898503 
L 649.223555 198.832909 
L 664.660651 203.725869 
L 680.097747 209.577382 
L 695.534843 216.202532 
L 710.971939 223.367626 
L 726.409035 230.886833 
L 741.84613 238.636875 
" style="fill:none;stroke:#afeeee;stroke-linecap:round;stroke-opacity:0.1;stroke-width:2;"/>
   </g>
   <g id="line2d_133">
    <path clip-path="url(#p7766fe958a)" d="M 572.038075 139.675015 
L 587.475171 147.425056 
L 602.912267 154.944263 
L 618.349363 162.109358 
L 633.786459 168.734508 
L 649.223555 174.58602 
L 664.660651 179.47898 
L 680.097747 183.413387 
L 695.534843 186.574156 
L 710.971939 189.194981 
L 726.409035 191.461693 
L 741.84613 193.497571 
" style="fill:none;stroke:#afeeee;stroke-linecap:round;stroke-opacity:0.1;stroke-width:2;"/>
   </g>
   <g id="line2d_134">
    <path clip-path="url(#p7766fe958a)" d="M 363.637281 419.802 
L 363.637281 62.28 
" style="fill:none;stroke:#000000;stroke-linecap:round;stroke-width:3.5;"/>
   </g>
   <g id="line2d_135">
    <path clip-path="url(#p7766fe958a)" d="M 425.385664 419.802 
L 425.385664 62.28 
" style="fill:none;stroke:#000000;stroke-linecap:round;stroke-width:3.5;"/>
   </g>
   <g id="line2d_136">
    <path clip-path="url(#p7766fe958a)" d="M 564.319527 419.802 
L 564.319527 62.28 
" style="fill:none;stroke:#000000;stroke-linecap:round;stroke-width:3.5;"/>
   </g>
   <g id="patch_3">
    <path d="M 44.86125 419.802 
L 44.86125 62.28 
" style="fill:none;stroke:#cccccc;stroke-linecap:square;stroke-linejoin:miter;"/>
   </g>
   <g id="patch_4">
    <path d="M 775.035887 419.802 
L 775.035887 62.28 
" style="fill:none;stroke:#cccccc;stroke-linecap:square;stroke-linejoin:miter;"/>
   </g>
   <g id="patch_5">
    <path d="M 44.86125 419.802 
L 775.035887 419.802 
" style="fill:none;stroke:#cccccc;stroke-linecap:square;stroke-linejoin:miter;"/>
   </g>
   <g id="patch_6">
    <path d="M 44.86125 62.28 
L 775.035887 62.28 
" style="fill:none;stroke:#cccccc;stroke-linecap:square;stroke-linejoin:miter;"/>
   </g>
   <g id="text_34">
    <!-- 2018-08 -->
    <g style="fill:#262626;" transform="translate(346.656475 62.28)scale(0.13 -0.13)">
     <defs>
      <path d="M 3.171875 21.484375 
L 3.171875 30.328125 
L 30.171875 30.328125 
L 30.171875 21.484375 
z
" id="ArialMT-45"/>
     </defs>
     <use xlink:href="#ArialMT-50"/>
     <use x="55.615234" xlink:href="#ArialMT-48"/>
     <use x="111.230469" xlink:href="#ArialMT-49"/>
     <use x="166.845703" xlink:href="#ArialMT-56"/>
     <use x="222.460938" xlink:href="#ArialMT-45"/>
     <use x="255.761719" xlink:href="#ArialMT-48"/>
     <use x="311.376953" xlink:href="#ArialMT-56"/>
    </g>
   </g>
   <g id="text_35">
    <!-- 2018-12 -->
    <g style="fill:#262626;" transform="translate(408.404859 62.28)scale(0.13 -0.13)">
     <use xlink:href="#ArialMT-50"/>
     <use x="55.615234" xlink:href="#ArialMT-48"/>
     <use x="111.230469" xlink:href="#ArialMT-49"/>
     <use x="166.845703" xlink:href="#ArialMT-56"/>
     <use x="222.460938" xlink:href="#ArialMT-45"/>
     <use x="255.761719" xlink:href="#ArialMT-49"/>
     <use x="311.376953" xlink:href="#ArialMT-50"/>
    </g>
   </g>
   <g id="text_36">
    <!-- 2019-09 -->
    <g style="fill:#262626;" transform="translate(547.338722 62.28)scale(0.13 -0.13)">
     <defs>
      <path d="M 5.46875 16.546875 
L 13.921875 17.328125 
Q 14.984375 11.375 18.015625 8.6875 
Q 21.046875 6 25.78125 6 
Q 29.828125 6 32.875 7.859375 
Q 35.9375 9.71875 37.890625 12.8125 
Q 39.84375 15.921875 41.15625 21.1875 
Q 42.484375 26.46875 42.484375 31.9375 
Q 42.484375 32.515625 42.4375 33.6875 
Q 39.796875 29.5 35.234375 26.875 
Q 30.671875 24.265625 25.34375 24.265625 
Q 16.453125 24.265625 10.296875 30.703125 
Q 4.15625 37.15625 4.15625 47.703125 
Q 4.15625 58.59375 10.578125 65.234375 
Q 17 71.875 26.65625 71.875 
Q 33.640625 71.875 39.421875 68.109375 
Q 45.21875 64.359375 48.21875 57.390625 
Q 51.21875 50.4375 51.21875 37.25 
Q 51.21875 23.53125 48.234375 15.40625 
Q 45.265625 7.28125 39.375 3.03125 
Q 33.5 -1.21875 25.59375 -1.21875 
Q 17.1875 -1.21875 11.859375 3.4375 
Q 6.546875 8.109375 5.46875 16.546875 
z
M 41.453125 48.140625 
Q 41.453125 55.71875 37.421875 60.15625 
Q 33.40625 64.59375 27.734375 64.59375 
Q 21.875 64.59375 17.53125 59.8125 
Q 13.1875 55.03125 13.1875 47.40625 
Q 13.1875 40.578125 17.3125 36.296875 
Q 21.4375 32.03125 27.484375 32.03125 
Q 33.59375 32.03125 37.515625 36.296875 
Q 41.453125 40.578125 41.453125 48.140625 
z
" id="ArialMT-57"/>
     </defs>
     <use xlink:href="#ArialMT-50"/>
     <use x="55.615234" xlink:href="#ArialMT-48"/>
     <use x="111.230469" xlink:href="#ArialMT-49"/>
     <use x="166.845703" xlink:href="#ArialMT-57"/>
     <use x="222.460938" xlink:href="#ArialMT-45"/>
     <use x="255.761719" xlink:href="#ArialMT-48"/>
     <use x="311.376953" xlink:href="#ArialMT-57"/>
    </g>
   </g>
   <g id="legend_1">
    <g id="patch_7">
     <path d="M 151.834826 534.534675 
L 602.642951 534.534675 
Q 605.042951 534.534675 605.042951 532.134675 
L 605.042951 481.8303 
Q 605.042951 479.4303 602.642951 479.4303 
L 151.834826 479.4303 
Q 149.434826 479.4303 149.434826 481.8303 
L 149.434826 532.134675 
Q 149.434826 534.534675 151.834826 534.534675 
z
" style="fill:#ffffff;opacity:0.8;stroke:#000000;stroke-linejoin:miter;"/>
    </g>
    <g id="line2d_137">
     <path d="M 154.234826 488.765925 
L 178.234826 488.765925 
" style="fill:none;stroke:#b22222;stroke-linecap:round;stroke-opacity:0.9;stroke-width:4;"/>
    </g>
    <g id="line2d_138"/>
    <g id="text_37">
     <!-- Climate Article Trend -->
     <g style="fill:#262626;" transform="translate(187.834826 492.965925)scale(0.12 -0.12)">
      <defs>
       <path d="M 58.796875 25.09375 
L 68.265625 22.703125 
Q 65.28125 11.03125 57.546875 4.90625 
Q 49.8125 -1.21875 38.625 -1.21875 
Q 27.046875 -1.21875 19.796875 3.484375 
Q 12.546875 8.203125 8.765625 17.140625 
Q 4.984375 26.078125 4.984375 36.328125 
Q 4.984375 47.515625 9.25 55.828125 
Q 13.53125 64.15625 21.40625 68.46875 
Q 29.296875 72.796875 38.765625 72.796875 
Q 49.515625 72.796875 56.828125 67.328125 
Q 64.15625 61.859375 67.046875 51.953125 
L 57.71875 49.75 
Q 55.21875 57.5625 50.484375 61.125 
Q 45.75 64.703125 38.578125 64.703125 
Q 30.328125 64.703125 24.78125 60.734375 
Q 19.234375 56.78125 16.984375 50.109375 
Q 14.75 43.453125 14.75 36.375 
Q 14.75 27.25 17.40625 20.4375 
Q 20.0625 13.625 25.671875 10.25 
Q 31.296875 6.890625 37.84375 6.890625 
Q 45.796875 6.890625 51.3125 11.46875 
Q 56.84375 16.0625 58.796875 25.09375 
z
" id="ArialMT-67"/>
       <path d="M 40.234375 0 
L 40.234375 6.546875 
Q 35.296875 -1.171875 25.734375 -1.171875 
Q 19.53125 -1.171875 14.328125 2.25 
Q 9.125 5.671875 6.265625 11.796875 
Q 3.421875 17.921875 3.421875 25.875 
Q 3.421875 33.640625 6 39.96875 
Q 8.59375 46.296875 13.765625 49.65625 
Q 18.953125 53.03125 25.34375 53.03125 
Q 30.03125 53.03125 33.6875 51.046875 
Q 37.359375 49.078125 39.65625 45.90625 
L 39.65625 71.578125 
L 48.390625 71.578125 
L 48.390625 0 
z
M 12.453125 25.875 
Q 12.453125 15.921875 16.640625 10.984375 
Q 20.84375 6.0625 26.5625 6.0625 
Q 32.328125 6.0625 36.34375 10.765625 
Q 40.375 15.484375 40.375 25.140625 
Q 40.375 35.796875 36.265625 40.765625 
Q 32.171875 45.75 26.171875 45.75 
Q 20.3125 45.75 16.375 40.96875 
Q 12.453125 36.1875 12.453125 25.875 
z
" id="ArialMT-100"/>
      </defs>
      <use xlink:href="#ArialMT-67"/>
      <use x="72.216797" xlink:href="#ArialMT-108"/>
      <use x="94.433594" xlink:href="#ArialMT-105"/>
      <use x="116.650391" xlink:href="#ArialMT-109"/>
      <use x="199.951172" xlink:href="#ArialMT-97"/>
      <use x="255.566406" xlink:href="#ArialMT-116"/>
      <use x="283.349609" xlink:href="#ArialMT-101"/>
      <use x="338.964844" xlink:href="#ArialMT-32"/>
      <use x="361.248047" xlink:href="#ArialMT-65"/>
      <use x="427.947266" xlink:href="#ArialMT-114"/>
      <use x="461.248047" xlink:href="#ArialMT-116"/>
      <use x="489.03125" xlink:href="#ArialMT-105"/>
      <use x="511.248047" xlink:href="#ArialMT-99"/>
      <use x="561.248047" xlink:href="#ArialMT-108"/>
      <use x="583.464844" xlink:href="#ArialMT-101"/>
      <use x="639.080078" xlink:href="#ArialMT-32"/>
      <use x="665.113281" xlink:href="#ArialMT-84"/>
      <use x="722.447266" xlink:href="#ArialMT-114"/>
      <use x="755.748047" xlink:href="#ArialMT-101"/>
      <use x="811.363281" xlink:href="#ArialMT-110"/>
      <use x="866.978516" xlink:href="#ArialMT-100"/>
     </g>
    </g>
    <g id="line2d_139">
     <path d="M 154.234826 505.7403 
L 178.234826 505.7403 
" style="fill:none;stroke:#7fffd4;stroke-linecap:round;stroke-opacity:0.9;stroke-width:4;"/>
    </g>
    <g id="line2d_140"/>
    <g id="text_38">
     <!-- Quasi-control Article Trend -->
     <g style="fill:#262626;" transform="translate(187.834826 509.9403)scale(0.12 -0.12)">
      <defs>
       <path d="M 61.96875 7.671875 
Q 68.5625 3.125 74.125 1.03125 
L 71.34375 -5.5625 
Q 63.625 -2.78125 55.953125 3.21875 
Q 48 -1.21875 38.375 -1.21875 
Q 28.65625 -1.21875 20.75 3.46875 
Q 12.84375 8.15625 8.5625 16.640625 
Q 4.296875 25.140625 4.296875 35.796875 
Q 4.296875 46.390625 8.59375 55.078125 
Q 12.890625 63.765625 20.828125 68.3125 
Q 28.765625 72.859375 38.578125 72.859375 
Q 48.484375 72.859375 56.4375 68.140625 
Q 64.40625 63.421875 68.578125 54.953125 
Q 72.75 46.484375 72.75 35.84375 
Q 72.75 27 70.0625 19.9375 
Q 67.390625 12.890625 61.96875 7.671875 
z
M 41.109375 19.78125 
Q 49.3125 17.484375 54.640625 12.9375 
Q 62.984375 20.5625 62.984375 35.84375 
Q 62.984375 44.53125 60.03125 51.015625 
Q 57.078125 57.515625 51.390625 61.109375 
Q 45.703125 64.703125 38.625 64.703125 
Q 28.03125 64.703125 21.046875 57.453125 
Q 14.0625 50.203125 14.0625 35.796875 
Q 14.0625 21.828125 20.96875 14.359375 
Q 27.875 6.890625 38.625 6.890625 
Q 43.703125 6.890625 48.1875 8.796875 
Q 43.75 11.671875 38.8125 12.890625 
z
" id="ArialMT-81"/>
       <path d="M 40.578125 0 
L 40.578125 7.625 
Q 34.515625 -1.171875 24.125 -1.171875 
Q 19.53125 -1.171875 15.546875 0.578125 
Q 11.578125 2.34375 9.640625 5 
Q 7.71875 7.671875 6.9375 11.53125 
Q 6.390625 14.109375 6.390625 19.734375 
L 6.390625 51.859375 
L 15.1875 51.859375 
L 15.1875 23.09375 
Q 15.1875 16.21875 15.71875 13.8125 
Q 16.546875 10.359375 19.234375 8.375 
Q 21.921875 6.390625 25.875 6.390625 
Q 29.828125 6.390625 33.296875 8.421875 
Q 36.765625 10.453125 38.203125 13.9375 
Q 39.65625 17.4375 39.65625 24.078125 
L 39.65625 51.859375 
L 48.4375 51.859375 
L 48.4375 0 
z
" id="ArialMT-117"/>
      </defs>
      <use xlink:href="#ArialMT-81"/>
      <use x="77.783203" xlink:href="#ArialMT-117"/>
      <use x="133.398438" xlink:href="#ArialMT-97"/>
      <use x="189.013672" xlink:href="#ArialMT-115"/>
      <use x="239.013672" xlink:href="#ArialMT-105"/>
      <use x="261.230469" xlink:href="#ArialMT-45"/>
      <use x="294.53125" xlink:href="#ArialMT-99"/>
      <use x="344.53125" xlink:href="#ArialMT-111"/>
      <use x="400.146484" xlink:href="#ArialMT-110"/>
      <use x="455.761719" xlink:href="#ArialMT-116"/>
      <use x="483.544922" xlink:href="#ArialMT-114"/>
      <use x="516.845703" xlink:href="#ArialMT-111"/>
      <use x="572.460938" xlink:href="#ArialMT-108"/>
      <use x="594.677734" xlink:href="#ArialMT-32"/>
      <use x="616.960938" xlink:href="#ArialMT-65"/>
      <use x="683.660156" xlink:href="#ArialMT-114"/>
      <use x="716.960938" xlink:href="#ArialMT-116"/>
      <use x="744.744141" xlink:href="#ArialMT-105"/>
      <use x="766.960938" xlink:href="#ArialMT-99"/>
      <use x="816.960938" xlink:href="#ArialMT-108"/>
      <use x="839.177734" xlink:href="#ArialMT-101"/>
      <use x="894.792969" xlink:href="#ArialMT-32"/>
      <use x="920.826172" xlink:href="#ArialMT-84"/>
      <use x="978.160156" xlink:href="#ArialMT-114"/>
      <use x="1011.460938" xlink:href="#ArialMT-101"/>
      <use x="1067.076172" xlink:href="#ArialMT-110"/>
      <use x="1122.691406" xlink:href="#ArialMT-100"/>
     </g>
    </g>
    <g id="PathCollection_3">
     <g>
      <use style="fill:#8b0000;stroke:#8b0000;" x="166.234826" xlink:href="#m2a436cd0ac" y="523.764675"/>
     </g>
    </g>
    <g id="text_39">
     <!-- Climate-related Articles -->
     <g style="fill:#262626;" transform="translate(187.834826 526.914675)scale(0.12 -0.12)">
      <use xlink:href="#ArialMT-67"/>
      <use x="72.216797" xlink:href="#ArialMT-108"/>
      <use x="94.433594" xlink:href="#ArialMT-105"/>
      <use x="116.650391" xlink:href="#ArialMT-109"/>
      <use x="199.951172" xlink:href="#ArialMT-97"/>
      <use x="255.566406" xlink:href="#ArialMT-116"/>
      <use x="283.349609" xlink:href="#ArialMT-101"/>
      <use x="338.964844" xlink:href="#ArialMT-45"/>
      <use x="372.265625" xlink:href="#ArialMT-114"/>
      <use x="405.566406" xlink:href="#ArialMT-101"/>
      <use x="461.181641" xlink:href="#ArialMT-108"/>
      <use x="483.398438" xlink:href="#ArialMT-97"/>
      <use x="539.013672" xlink:href="#ArialMT-116"/>
      <use x="566.796875" xlink:href="#ArialMT-101"/>
      <use x="622.412109" xlink:href="#ArialMT-100"/>
      <use x="678.027344" xlink:href="#ArialMT-32"/>
      <use x="700.310547" xlink:href="#ArialMT-65"/>
      <use x="767.009766" xlink:href="#ArialMT-114"/>
      <use x="800.310547" xlink:href="#ArialMT-116"/>
      <use x="828.09375" xlink:href="#ArialMT-105"/>
      <use x="850.310547" xlink:href="#ArialMT-99"/>
      <use x="900.310547" xlink:href="#ArialMT-108"/>
      <use x="922.527344" xlink:href="#ArialMT-101"/>
      <use x="978.142578" xlink:href="#ArialMT-115"/>
     </g>
    </g>
    <g id="patch_8">
     <path d="M 353.222951 492.965925 
L 377.222951 492.965925 
L 377.222951 484.565925 
L 353.222951 484.565925 
z
" style="fill:#cd5c5c;opacity:0.25;"/>
    </g>
    <g id="text_40">
     <!-- Climate Confidence Interval (95%) -->
     <g style="fill:#262626;" transform="translate(386.822951 492.965925)scale(0.12 -0.12)">
      <defs>
       <path d="M 8.6875 0 
L 8.6875 45.015625 
L 0.921875 45.015625 
L 0.921875 51.859375 
L 8.6875 51.859375 
L 8.6875 57.375 
Q 8.6875 62.59375 9.625 65.140625 
Q 10.890625 68.5625 14.078125 70.671875 
Q 17.28125 72.796875 23.046875 72.796875 
Q 26.765625 72.796875 31.25 71.921875 
L 29.9375 64.265625 
Q 27.203125 64.75 24.75 64.75 
Q 20.75 64.75 19.09375 63.03125 
Q 17.4375 61.328125 17.4375 56.640625 
L 17.4375 51.859375 
L 27.546875 51.859375 
L 27.546875 45.015625 
L 17.4375 45.015625 
L 17.4375 0 
z
" id="ArialMT-102"/>
       <path d="M 9.328125 0 
L 9.328125 71.578125 
L 18.796875 71.578125 
L 18.796875 0 
z
" id="ArialMT-73"/>
       <path d="M 21 0 
L 1.265625 51.859375 
L 10.546875 51.859375 
L 21.6875 20.796875 
Q 23.484375 15.765625 25 10.359375 
Q 26.171875 14.453125 28.265625 20.21875 
L 39.796875 51.859375 
L 48.828125 51.859375 
L 29.203125 0 
z
" id="ArialMT-118"/>
       <path d="M 4.15625 18.75 
L 13.375 19.53125 
Q 14.40625 12.796875 18.140625 9.390625 
Q 21.875 6 27.15625 6 
Q 33.5 6 37.890625 10.78125 
Q 42.28125 15.578125 42.28125 23.484375 
Q 42.28125 31 38.0625 35.34375 
Q 33.84375 39.703125 27 39.703125 
Q 22.75 39.703125 19.328125 37.765625 
Q 15.921875 35.84375 13.96875 32.765625 
L 5.71875 33.84375 
L 12.640625 70.609375 
L 48.25 70.609375 
L 48.25 62.203125 
L 19.671875 62.203125 
L 15.828125 42.96875 
Q 22.265625 47.46875 29.34375 47.46875 
Q 38.71875 47.46875 45.15625 40.96875 
Q 51.609375 34.46875 51.609375 24.265625 
Q 51.609375 14.546875 45.953125 7.46875 
Q 39.0625 -1.21875 27.15625 -1.21875 
Q 17.390625 -1.21875 11.203125 4.25 
Q 5.03125 9.71875 4.15625 18.75 
z
" id="ArialMT-53"/>
       <path d="M 5.8125 54.390625 
Q 5.8125 62.0625 9.671875 67.421875 
Q 13.53125 72.796875 20.84375 72.796875 
Q 27.59375 72.796875 32 67.984375 
Q 36.421875 63.1875 36.421875 53.859375 
Q 36.421875 44.78125 31.953125 39.875 
Q 27.484375 34.96875 20.953125 34.96875 
Q 14.453125 34.96875 10.125 39.796875 
Q 5.8125 44.625 5.8125 54.390625 
z
M 21.09375 66.75 
Q 17.828125 66.75 15.65625 63.90625 
Q 13.484375 61.078125 13.484375 53.515625 
Q 13.484375 46.625 15.671875 43.8125 
Q 17.875 41.015625 21.09375 41.015625 
Q 24.421875 41.015625 26.59375 43.84375 
Q 28.765625 46.6875 28.765625 54.203125 
Q 28.765625 61.140625 26.5625 63.9375 
Q 24.359375 66.75 21.09375 66.75 
z
M 21.140625 -2.640625 
L 60.296875 72.796875 
L 67.4375 72.796875 
L 28.421875 -2.640625 
z
M 52.09375 16.796875 
Q 52.09375 24.515625 55.953125 29.859375 
Q 59.8125 35.203125 67.1875 35.203125 
Q 73.921875 35.203125 78.34375 30.390625 
Q 82.765625 25.59375 82.765625 16.265625 
Q 82.765625 7.171875 78.296875 2.265625 
Q 73.828125 -2.640625 67.234375 -2.640625 
Q 60.75 -2.640625 56.421875 2.21875 
Q 52.09375 7.078125 52.09375 16.796875 
z
M 67.4375 29.15625 
Q 64.109375 29.15625 61.9375 26.3125 
Q 59.765625 23.484375 59.765625 15.921875 
Q 59.765625 9.078125 61.953125 6.25 
Q 64.15625 3.421875 67.390625 3.421875 
Q 70.75 3.421875 72.921875 6.25 
Q 75.09375 9.078125 75.09375 16.609375 
Q 75.09375 23.53125 72.890625 26.34375 
Q 70.703125 29.15625 67.4375 29.15625 
z
" id="ArialMT-37"/>
      </defs>
      <use xlink:href="#ArialMT-67"/>
      <use x="72.216797" xlink:href="#ArialMT-108"/>
      <use x="94.433594" xlink:href="#ArialMT-105"/>
      <use x="116.650391" xlink:href="#ArialMT-109"/>
      <use x="199.951172" xlink:href="#ArialMT-97"/>
      <use x="255.566406" xlink:href="#ArialMT-116"/>
      <use x="283.349609" xlink:href="#ArialMT-101"/>
      <use x="338.964844" xlink:href="#ArialMT-32"/>
      <use x="366.748047" xlink:href="#ArialMT-67"/>
      <use x="438.964844" xlink:href="#ArialMT-111"/>
      <use x="494.580078" xlink:href="#ArialMT-110"/>
      <use x="550.195312" xlink:href="#ArialMT-102"/>
      <use x="577.978516" xlink:href="#ArialMT-105"/>
      <use x="600.195312" xlink:href="#ArialMT-100"/>
      <use x="655.810547" xlink:href="#ArialMT-101"/>
      <use x="711.425781" xlink:href="#ArialMT-110"/>
      <use x="767.041016" xlink:href="#ArialMT-99"/>
      <use x="817.041016" xlink:href="#ArialMT-101"/>
      <use x="872.65625" xlink:href="#ArialMT-32"/>
      <use x="900.439453" xlink:href="#ArialMT-73"/>
      <use x="928.222656" xlink:href="#ArialMT-110"/>
      <use x="983.837891" xlink:href="#ArialMT-116"/>
      <use x="1011.621094" xlink:href="#ArialMT-101"/>
      <use x="1067.236328" xlink:href="#ArialMT-114"/>
      <use x="1100.537109" xlink:href="#ArialMT-118"/>
      <use x="1150.537109" xlink:href="#ArialMT-97"/>
      <use x="1206.152344" xlink:href="#ArialMT-108"/>
      <use x="1228.369141" xlink:href="#ArialMT-32"/>
      <use x="1256.152344" xlink:href="#ArialMT-40"/>
      <use x="1289.453125" xlink:href="#ArialMT-57"/>
      <use x="1345.068359" xlink:href="#ArialMT-53"/>
      <use x="1400.683594" xlink:href="#ArialMT-37"/>
      <use x="1489.599609" xlink:href="#ArialMT-41"/>
     </g>
    </g>
    <g id="PathCollection_4">
     <g>
      <use style="fill:#66cdaa;stroke:#66cdaa;" x="365.222951" xlink:href="#m2571b38427" y="506.930925"/>
     </g>
    </g>
    <g id="text_41">
     <!-- Quasi-control-related Articles -->
     <g style="fill:#262626;" transform="translate(386.822951 510.080925)scale(0.12 -0.12)">
      <use xlink:href="#ArialMT-81"/>
      <use x="77.783203" xlink:href="#ArialMT-117"/>
      <use x="133.398438" xlink:href="#ArialMT-97"/>
      <use x="189.013672" xlink:href="#ArialMT-115"/>
      <use x="239.013672" xlink:href="#ArialMT-105"/>
      <use x="261.230469" xlink:href="#ArialMT-45"/>
      <use x="294.53125" xlink:href="#ArialMT-99"/>
      <use x="344.53125" xlink:href="#ArialMT-111"/>
      <use x="400.146484" xlink:href="#ArialMT-110"/>
      <use x="455.761719" xlink:href="#ArialMT-116"/>
      <use x="483.544922" xlink:href="#ArialMT-114"/>
      <use x="516.845703" xlink:href="#ArialMT-111"/>
      <use x="572.460938" xlink:href="#ArialMT-108"/>
      <use x="594.677734" xlink:href="#ArialMT-45"/>
      <use x="627.978516" xlink:href="#ArialMT-114"/>
      <use x="661.279297" xlink:href="#ArialMT-101"/>
      <use x="716.894531" xlink:href="#ArialMT-108"/>
      <use x="739.111328" xlink:href="#ArialMT-97"/>
      <use x="794.726562" xlink:href="#ArialMT-116"/>
      <use x="822.509766" xlink:href="#ArialMT-101"/>
      <use x="878.125" xlink:href="#ArialMT-100"/>
      <use x="933.740234" xlink:href="#ArialMT-32"/>
      <use x="956.023438" xlink:href="#ArialMT-65"/>
      <use x="1022.722656" xlink:href="#ArialMT-114"/>
      <use x="1056.023438" xlink:href="#ArialMT-116"/>
      <use x="1083.806641" xlink:href="#ArialMT-105"/>
      <use x="1106.023438" xlink:href="#ArialMT-99"/>
      <use x="1156.023438" xlink:href="#ArialMT-108"/>
      <use x="1178.240234" xlink:href="#ArialMT-101"/>
      <use x="1233.855469" xlink:href="#ArialMT-115"/>
     </g>
    </g>
    <g id="patch_9">
     <path d="M 353.222951 527.20905 
L 377.222951 527.20905 
L 377.222951 518.80905 
L 353.222951 518.80905 
z
" style="fill:#afeeee;opacity:0.25;"/>
    </g>
    <g id="text_42">
     <!-- Quasi-control Confidence Interval (95%) -->
     <g style="fill:#262626;" transform="translate(386.822951 527.20905)scale(0.12 -0.12)">
      <use xlink:href="#ArialMT-81"/>
      <use x="77.783203" xlink:href="#ArialMT-117"/>
      <use x="133.398438" xlink:href="#ArialMT-97"/>
      <use x="189.013672" xlink:href="#ArialMT-115"/>
      <use x="239.013672" xlink:href="#ArialMT-105"/>
      <use x="261.230469" xlink:href="#ArialMT-45"/>
      <use x="294.53125" xlink:href="#ArialMT-99"/>
      <use x="344.53125" xlink:href="#ArialMT-111"/>
      <use x="400.146484" xlink:href="#ArialMT-110"/>
      <use x="455.761719" xlink:href="#ArialMT-116"/>
      <use x="483.544922" xlink:href="#ArialMT-114"/>
      <use x="516.845703" xlink:href="#ArialMT-111"/>
      <use x="572.460938" xlink:href="#ArialMT-108"/>
      <use x="594.677734" xlink:href="#ArialMT-32"/>
      <use x="622.460938" xlink:href="#ArialMT-67"/>
      <use x="694.677734" xlink:href="#ArialMT-111"/>
      <use x="750.292969" xlink:href="#ArialMT-110"/>
      <use x="805.908203" xlink:href="#ArialMT-102"/>
      <use x="833.691406" xlink:href="#ArialMT-105"/>
      <use x="855.908203" xlink:href="#ArialMT-100"/>
      <use x="911.523438" xlink:href="#ArialMT-101"/>
      <use x="967.138672" xlink:href="#ArialMT-110"/>
      <use x="1022.753906" xlink:href="#ArialMT-99"/>
      <use x="1072.753906" xlink:href="#ArialMT-101"/>
      <use x="1128.369141" xlink:href="#ArialMT-32"/>
      <use x="1156.152344" xlink:href="#ArialMT-73"/>
      <use x="1183.935547" xlink:href="#ArialMT-110"/>
      <use x="1239.550781" xlink:href="#ArialMT-116"/>
      <use x="1267.333984" xlink:href="#ArialMT-101"/>
      <use x="1322.949219" xlink:href="#ArialMT-114"/>
      <use x="1356.25" xlink:href="#ArialMT-118"/>
      <use x="1406.25" xlink:href="#ArialMT-97"/>
      <use x="1461.865234" xlink:href="#ArialMT-108"/>
      <use x="1484.082031" xlink:href="#ArialMT-32"/>
      <use x="1511.865234" xlink:href="#ArialMT-40"/>
      <use x="1545.166016" xlink:href="#ArialMT-57"/>
      <use x="1600.78125" xlink:href="#ArialMT-53"/>
      <use x="1656.396484" xlink:href="#ArialMT-37"/>
      <use x="1745.3125" xlink:href="#ArialMT-41"/>
     </g>
    </g>
   </g>
  </g>
  <g id="text_43">
   <!-- [SCIENTIFIC] Climate articles vs. Comparator articles (Quasi-control) -->
   <g style="fill:#262626;" transform="translate(86.795625 21.771875)scale(0.2 -0.2)">
    <defs>
     <path d="M 6.78125 -19.875 
L 6.78125 71.578125 
L 26.171875 71.578125 
L 26.171875 64.3125 
L 15.578125 64.3125 
L 15.578125 -12.59375 
L 26.171875 -12.59375 
L 26.171875 -19.875 
z
" id="ArialMT-91"/>
     <path d="M 4.5 23 
L 13.421875 23.78125 
Q 14.0625 18.40625 16.375 14.96875 
Q 18.703125 11.53125 23.578125 9.40625 
Q 28.46875 7.28125 34.578125 7.28125 
Q 39.984375 7.28125 44.140625 8.890625 
Q 48.296875 10.5 50.3125 13.296875 
Q 52.34375 16.109375 52.34375 19.4375 
Q 52.34375 22.796875 50.390625 25.3125 
Q 48.4375 27.828125 43.953125 29.546875 
Q 41.0625 30.671875 31.203125 33.03125 
Q 21.34375 35.40625 17.390625 37.5 
Q 12.25 40.1875 9.734375 44.15625 
Q 7.234375 48.140625 7.234375 53.078125 
Q 7.234375 58.5 10.296875 63.203125 
Q 13.375 67.921875 19.28125 70.359375 
Q 25.203125 72.796875 32.421875 72.796875 
Q 40.375 72.796875 46.453125 70.234375 
Q 52.546875 67.671875 55.8125 62.6875 
Q 59.078125 57.71875 59.328125 51.421875 
L 50.25 50.734375 
Q 49.515625 57.515625 45.28125 60.984375 
Q 41.0625 64.453125 32.8125 64.453125 
Q 24.21875 64.453125 20.28125 61.296875 
Q 16.359375 58.15625 16.359375 53.71875 
Q 16.359375 49.859375 19.140625 47.359375 
Q 21.875 44.875 33.421875 42.265625 
Q 44.96875 39.65625 49.265625 37.703125 
Q 55.515625 34.8125 58.484375 30.390625 
Q 61.46875 25.984375 61.46875 20.21875 
Q 61.46875 14.5 58.203125 9.4375 
Q 54.9375 4.390625 48.796875 1.578125 
Q 42.671875 -1.21875 35.015625 -1.21875 
Q 25.296875 -1.21875 18.71875 1.609375 
Q 12.15625 4.4375 8.421875 10.125 
Q 4.6875 15.828125 4.5 23 
z
" id="ArialMT-83"/>
     <path d="M 7.90625 0 
L 7.90625 71.578125 
L 59.671875 71.578125 
L 59.671875 63.140625 
L 17.390625 63.140625 
L 17.390625 41.21875 
L 56.984375 41.21875 
L 56.984375 32.8125 
L 17.390625 32.8125 
L 17.390625 8.453125 
L 61.328125 8.453125 
L 61.328125 0 
z
" id="ArialMT-69"/>
     <path d="M 7.625 0 
L 7.625 71.578125 
L 17.328125 71.578125 
L 54.9375 15.375 
L 54.9375 71.578125 
L 64.015625 71.578125 
L 64.015625 0 
L 54.296875 0 
L 16.703125 56.25 
L 16.703125 0 
z
" id="ArialMT-78"/>
     <path d="M 8.203125 0 
L 8.203125 71.578125 
L 56.5 71.578125 
L 56.5 63.140625 
L 17.671875 63.140625 
L 17.671875 40.96875 
L 51.265625 40.96875 
L 51.265625 32.515625 
L 17.671875 32.515625 
L 17.671875 0 
z
" id="ArialMT-70"/>
     <path d="M 21.296875 -19.875 
L 1.90625 -19.875 
L 1.90625 -12.59375 
L 12.5 -12.59375 
L 12.5 64.3125 
L 1.90625 64.3125 
L 1.90625 71.578125 
L 21.296875 71.578125 
z
" id="ArialMT-93"/>
     <path d="M 6.59375 -19.875 
L 6.59375 51.859375 
L 14.59375 51.859375 
L 14.59375 45.125 
Q 17.4375 49.078125 21 51.046875 
Q 24.5625 53.03125 29.640625 53.03125 
Q 36.28125 53.03125 41.359375 49.609375 
Q 46.4375 46.1875 49.015625 39.953125 
Q 51.609375 33.734375 51.609375 26.3125 
Q 51.609375 18.359375 48.75 11.984375 
Q 45.90625 5.609375 40.453125 2.21875 
Q 35.015625 -1.171875 29 -1.171875 
Q 24.609375 -1.171875 21.109375 0.6875 
Q 17.625 2.546875 15.375 5.375 
L 15.375 -19.875 
z
M 14.546875 25.640625 
Q 14.546875 15.625 18.59375 10.84375 
Q 22.65625 6.0625 28.421875 6.0625 
Q 34.28125 6.0625 38.453125 11.015625 
Q 42.625 15.96875 42.625 26.375 
Q 42.625 36.28125 38.546875 41.203125 
Q 34.46875 46.140625 28.8125 46.140625 
Q 23.1875 46.140625 18.859375 40.890625 
Q 14.546875 35.640625 14.546875 25.640625 
z
" id="ArialMT-112"/>
    </defs>
    <use xlink:href="#ArialMT-91"/>
    <use x="27.783203" xlink:href="#ArialMT-83"/>
    <use x="94.482422" xlink:href="#ArialMT-67"/>
    <use x="166.699219" xlink:href="#ArialMT-73"/>
    <use x="194.482422" xlink:href="#ArialMT-69"/>
    <use x="261.181641" xlink:href="#ArialMT-78"/>
    <use x="333.398438" xlink:href="#ArialMT-84"/>
    <use x="394.482422" xlink:href="#ArialMT-73"/>
    <use x="422.265625" xlink:href="#ArialMT-70"/>
    <use x="483.349609" xlink:href="#ArialMT-73"/>
    <use x="511.132812" xlink:href="#ArialMT-67"/>
    <use x="583.349609" xlink:href="#ArialMT-93"/>
    <use x="611.132812" xlink:href="#ArialMT-32"/>
    <use x="638.916016" xlink:href="#ArialMT-67"/>
    <use x="711.132812" xlink:href="#ArialMT-108"/>
    <use x="733.349609" xlink:href="#ArialMT-105"/>
    <use x="755.566406" xlink:href="#ArialMT-109"/>
    <use x="838.867188" xlink:href="#ArialMT-97"/>
    <use x="894.482422" xlink:href="#ArialMT-116"/>
    <use x="922.265625" xlink:href="#ArialMT-101"/>
    <use x="977.880859" xlink:href="#ArialMT-32"/>
    <use x="1005.664062" xlink:href="#ArialMT-97"/>
    <use x="1061.279297" xlink:href="#ArialMT-114"/>
    <use x="1094.580078" xlink:href="#ArialMT-116"/>
    <use x="1122.363281" xlink:href="#ArialMT-105"/>
    <use x="1144.580078" xlink:href="#ArialMT-99"/>
    <use x="1194.580078" xlink:href="#ArialMT-108"/>
    <use x="1216.796875" xlink:href="#ArialMT-101"/>
    <use x="1272.412109" xlink:href="#ArialMT-115"/>
    <use x="1322.412109" xlink:href="#ArialMT-32"/>
    <use x="1350.195312" xlink:href="#ArialMT-118"/>
    <use x="1400.195312" xlink:href="#ArialMT-115"/>
    <use x="1450.195312" xlink:href="#ArialMT-46"/>
    <use x="1477.978516" xlink:href="#ArialMT-32"/>
    <use x="1505.761719" xlink:href="#ArialMT-67"/>
    <use x="1577.978516" xlink:href="#ArialMT-111"/>
    <use x="1633.59375" xlink:href="#ArialMT-109"/>
    <use x="1716.894531" xlink:href="#ArialMT-112"/>
    <use x="1772.509766" xlink:href="#ArialMT-97"/>
    <use x="1828.125" xlink:href="#ArialMT-114"/>
    <use x="1861.425781" xlink:href="#ArialMT-97"/>
    <use x="1917.041016" xlink:href="#ArialMT-116"/>
    <use x="1944.824219" xlink:href="#ArialMT-111"/>
    <use x="2000.439453" xlink:href="#ArialMT-114"/>
    <use x="2033.740234" xlink:href="#ArialMT-32"/>
    <use x="2061.523438" xlink:href="#ArialMT-97"/>
    <use x="2117.138672" xlink:href="#ArialMT-114"/>
    <use x="2150.439453" xlink:href="#ArialMT-116"/>
    <use x="2178.222656" xlink:href="#ArialMT-105"/>
    <use x="2200.439453" xlink:href="#ArialMT-99"/>
    <use x="2250.439453" xlink:href="#ArialMT-108"/>
    <use x="2272.65625" xlink:href="#ArialMT-101"/>
    <use x="2328.271484" xlink:href="#ArialMT-115"/>
    <use x="2378.271484" xlink:href="#ArialMT-32"/>
    <use x="2406.054688" xlink:href="#ArialMT-40"/>
    <use x="2439.355469" xlink:href="#ArialMT-81"/>
    <use x="2517.138672" xlink:href="#ArialMT-117"/>
    <use x="2572.753906" xlink:href="#ArialMT-97"/>
    <use x="2628.369141" xlink:href="#ArialMT-115"/>
    <use x="2678.369141" xlink:href="#ArialMT-105"/>
    <use x="2700.585938" xlink:href="#ArialMT-45"/>
    <use x="2733.886719" xlink:href="#ArialMT-99"/>
    <use x="2783.886719" xlink:href="#ArialMT-111"/>
    <use x="2839.501953" xlink:href="#ArialMT-110"/>
    <use x="2895.117188" xlink:href="#ArialMT-116"/>
    <use x="2922.900391" xlink:href="#ArialMT-114"/>
    <use x="2956.201172" xlink:href="#ArialMT-111"/>
    <use x="3011.816406" xlink:href="#ArialMT-108"/>
    <use x="3034.033203" xlink:href="#ArialMT-41"/>
   </g>
  </g>
 </g>
 <defs>
  <clipPath id="p7766fe958a">
   <rect height="357.522" width="730.174637" x="44.86125" y="62.28"/>
  </clipPath>
 </defs>
</svg>
