<?xml version="1.0" encoding="utf-8" standalone="no"?>
<!DOCTYPE svg PUBLIC "-//W3C//DTD SVG 1.1//EN"
  "http://www.w3.org/Graphics/SVG/1.1/DTD/svg11.dtd">
<!-- Created with matplotlib (https://matplotlib.org/) -->
<svg height="541.734675pt" version="1.1" viewBox="0 0 785.48126 541.734675" width="785.48126pt" xmlns="http://www.w3.org/2000/svg" xmlns:xlink="http://www.w3.org/1999/xlink">
 <metadata>
  <rdf:RDF xmlns:cc="http://creativecommons.org/ns#" xmlns:dc="http://purl.org/dc/elements/1.1/" xmlns:rdf="http://www.w3.org/1999/02/22-rdf-syntax-ns#">
   <cc:Work>
    <dc:type rdf:resource="http://purl.org/dc/dcmitype/StillImage"/>
    <dc:date>2020-12-17T20:42:35.309019</dc:date>
    <dc:format>image/svg+xml</dc:format>
    <dc:creator>
     <cc:Agent>
      <dc:title>Matplotlib v3.3.1, https://matplotlib.org/</dc:title>
     </cc:Agent>
    </dc:creator>
   </cc:Work>
  </rdf:RDF>
 </metadata>
 <defs>
  <style type="text/css">*{stroke-linecap:butt;stroke-linejoin:round;}</style>
 </defs>
 <g id="figure_1">
  <g id="patch_1">
   <path d="M 0 541.734675 
L 785.48126 541.734675 
L 785.48126 0 
L 0 0 
z
" style="fill:#ffffff;"/>
  </g>
  <g id="axes_1">
   <g id="patch_2">
    <path d="M 44.86125 419.802 
L 775.035887 419.802 
L 775.035887 62.28 
L 44.86125 62.28 
z
" style="fill:#ffffff;"/>
   </g>
   <g id="matplotlib.axis_1">
    <g id="xtick_1">
     <g id="line2d_1">
      <defs>
       <path d="M 0 0 
L 0 5 
" id="m7df9a7e231" style="stroke:#262626;"/>
      </defs>
      <g>
       <use style="fill:#262626;stroke:#262626;" x="62.61391" xlink:href="#m7df9a7e231" y="419.802"/>
      </g>
     </g>
     <g id="text_1">
      <!-- 0 -->
      <g style="fill:#262626;" transform="translate(59.833442 435.459813)scale(0.1 -0.1)">
       <defs>
        <path d="M 4.15625 35.296875 
Q 4.15625 48 6.765625 55.734375 
Q 9.375 63.484375 14.515625 67.671875 
Q 19.671875 71.875 27.484375 71.875 
Q 33.25 71.875 37.59375 69.546875 
Q 41.9375 67.234375 44.765625 62.859375 
Q 47.609375 58.5 49.21875 52.21875 
Q 50.828125 45.953125 50.828125 35.296875 
Q 50.828125 22.703125 48.234375 14.96875 
Q 45.65625 7.234375 40.5 3 
Q 35.359375 -1.21875 27.484375 -1.21875 
Q 17.140625 -1.21875 11.234375 6.203125 
Q 4.15625 15.140625 4.15625 35.296875 
z
M 13.1875 35.296875 
Q 13.1875 17.671875 17.3125 11.828125 
Q 21.4375 6 27.484375 6 
Q 33.546875 6 37.671875 11.859375 
Q 41.796875 17.71875 41.796875 35.296875 
Q 41.796875 52.984375 37.671875 58.78125 
Q 33.546875 64.59375 27.390625 64.59375 
Q 21.34375 64.59375 17.71875 59.46875 
Q 13.1875 52.9375 13.1875 35.296875 
z
" id="ArialMT-48"/>
       </defs>
       <use xlink:href="#ArialMT-48"/>
      </g>
     </g>
    </g>
    <g id="xtick_2">
     <g id="line2d_2">
      <g>
       <use style="fill:#262626;stroke:#262626;" x="93.488102" xlink:href="#m7df9a7e231" y="419.802"/>
      </g>
     </g>
     <g id="text_2">
      <!-- 2 -->
      <g style="fill:#262626;" transform="translate(90.707633 435.459813)scale(0.1 -0.1)">
       <defs>
        <path d="M 50.34375 8.453125 
L 50.34375 0 
L 3.03125 0 
Q 2.9375 3.171875 4.046875 6.109375 
Q 5.859375 10.9375 9.828125 15.625 
Q 13.8125 20.3125 21.34375 26.46875 
Q 33.015625 36.03125 37.109375 41.625 
Q 41.21875 47.21875 41.21875 52.203125 
Q 41.21875 57.421875 37.46875 61 
Q 33.734375 64.59375 27.734375 64.59375 
Q 21.390625 64.59375 17.578125 60.78125 
Q 13.765625 56.984375 13.71875 50.25 
L 4.6875 51.171875 
Q 5.609375 61.28125 11.65625 66.578125 
Q 17.71875 71.875 27.9375 71.875 
Q 38.234375 71.875 44.234375 66.15625 
Q 50.25 60.453125 50.25 52 
Q 50.25 47.703125 48.484375 43.546875 
Q 46.734375 39.40625 42.65625 34.8125 
Q 38.578125 30.21875 29.109375 22.21875 
Q 21.1875 15.578125 18.9375 13.203125 
Q 16.703125 10.84375 15.234375 8.453125 
z
" id="ArialMT-50"/>
       </defs>
       <use xlink:href="#ArialMT-50"/>
      </g>
     </g>
    </g>
    <g id="xtick_3">
     <g id="line2d_3">
      <g>
       <use style="fill:#262626;stroke:#262626;" x="124.362294" xlink:href="#m7df9a7e231" y="419.802"/>
      </g>
     </g>
     <g id="text_3">
      <!-- 4 -->
      <g style="fill:#262626;" transform="translate(121.581825 435.459813)scale(0.1 -0.1)">
       <defs>
        <path d="M 32.328125 0 
L 32.328125 17.140625 
L 1.265625 17.140625 
L 1.265625 25.203125 
L 33.9375 71.578125 
L 41.109375 71.578125 
L 41.109375 25.203125 
L 50.78125 25.203125 
L 50.78125 17.140625 
L 41.109375 17.140625 
L 41.109375 0 
z
M 32.328125 25.203125 
L 32.328125 57.46875 
L 9.90625 25.203125 
z
" id="ArialMT-52"/>
       </defs>
       <use xlink:href="#ArialMT-52"/>
      </g>
     </g>
    </g>
    <g id="xtick_4">
     <g id="line2d_4">
      <g>
       <use style="fill:#262626;stroke:#262626;" x="155.236486" xlink:href="#m7df9a7e231" y="419.802"/>
      </g>
     </g>
     <g id="text_4">
      <!-- 6 -->
      <g style="fill:#262626;" transform="translate(152.456017 435.459813)scale(0.1 -0.1)">
       <defs>
        <path d="M 49.75 54.046875 
L 41.015625 53.375 
Q 39.84375 58.546875 37.703125 60.890625 
Q 34.125 64.65625 28.90625 64.65625 
Q 24.703125 64.65625 21.53125 62.3125 
Q 17.390625 59.28125 14.984375 53.46875 
Q 12.59375 47.65625 12.5 36.921875 
Q 15.671875 41.75 20.265625 44.09375 
Q 24.859375 46.4375 29.890625 46.4375 
Q 38.671875 46.4375 44.84375 39.96875 
Q 51.03125 33.5 51.03125 23.25 
Q 51.03125 16.5 48.125 10.71875 
Q 45.21875 4.9375 40.140625 1.859375 
Q 35.0625 -1.21875 28.609375 -1.21875 
Q 17.625 -1.21875 10.6875 6.859375 
Q 3.765625 14.9375 3.765625 33.5 
Q 3.765625 54.25 11.421875 63.671875 
Q 18.109375 71.875 29.4375 71.875 
Q 37.890625 71.875 43.28125 67.140625 
Q 48.6875 62.40625 49.75 54.046875 
z
M 13.875 23.1875 
Q 13.875 18.65625 15.796875 14.5 
Q 17.71875 10.359375 21.1875 8.171875 
Q 24.65625 6 28.46875 6 
Q 34.03125 6 38.03125 10.484375 
Q 42.046875 14.984375 42.046875 22.703125 
Q 42.046875 30.125 38.078125 34.390625 
Q 34.125 38.671875 28.125 38.671875 
Q 22.171875 38.671875 18.015625 34.390625 
Q 13.875 30.125 13.875 23.1875 
z
" id="ArialMT-54"/>
       </defs>
       <use xlink:href="#ArialMT-54"/>
      </g>
     </g>
    </g>
    <g id="xtick_5">
     <g id="line2d_5">
      <g>
       <use style="fill:#262626;stroke:#262626;" x="186.110678" xlink:href="#m7df9a7e231" y="419.802"/>
      </g>
     </g>
     <g id="text_5">
      <!-- 8 -->
      <g style="fill:#262626;" transform="translate(183.330209 435.459813)scale(0.1 -0.1)">
       <defs>
        <path d="M 17.671875 38.8125 
Q 12.203125 40.828125 9.5625 44.53125 
Q 6.9375 48.25 6.9375 53.421875 
Q 6.9375 61.234375 12.546875 66.546875 
Q 18.171875 71.875 27.484375 71.875 
Q 36.859375 71.875 42.578125 66.421875 
Q 48.296875 60.984375 48.296875 53.171875 
Q 48.296875 48.1875 45.671875 44.5 
Q 43.0625 40.828125 37.75 38.8125 
Q 44.34375 36.671875 47.78125 31.875 
Q 51.21875 27.09375 51.21875 20.453125 
Q 51.21875 11.28125 44.71875 5.03125 
Q 38.234375 -1.21875 27.640625 -1.21875 
Q 17.046875 -1.21875 10.546875 5.046875 
Q 4.046875 11.328125 4.046875 20.703125 
Q 4.046875 27.6875 7.59375 32.390625 
Q 11.140625 37.109375 17.671875 38.8125 
z
M 15.921875 53.71875 
Q 15.921875 48.640625 19.1875 45.40625 
Q 22.46875 42.1875 27.6875 42.1875 
Q 32.765625 42.1875 36.015625 45.375 
Q 39.265625 48.578125 39.265625 53.21875 
Q 39.265625 58.0625 35.90625 61.359375 
Q 32.5625 64.65625 27.59375 64.65625 
Q 22.5625 64.65625 19.234375 61.421875 
Q 15.921875 58.203125 15.921875 53.71875 
z
M 13.09375 20.65625 
Q 13.09375 16.890625 14.875 13.375 
Q 16.65625 9.859375 20.171875 7.921875 
Q 23.6875 6 27.734375 6 
Q 34.03125 6 38.125 10.046875 
Q 42.234375 14.109375 42.234375 20.359375 
Q 42.234375 26.703125 38.015625 30.859375 
Q 33.796875 35.015625 27.4375 35.015625 
Q 21.234375 35.015625 17.15625 30.90625 
Q 13.09375 26.8125 13.09375 20.65625 
z
" id="ArialMT-56"/>
       </defs>
       <use xlink:href="#ArialMT-56"/>
      </g>
     </g>
    </g>
    <g id="xtick_6">
     <g id="line2d_6">
      <g>
       <use style="fill:#262626;stroke:#262626;" x="216.984869" xlink:href="#m7df9a7e231" y="419.802"/>
      </g>
     </g>
     <g id="text_6">
      <!-- 10 -->
      <g style="fill:#262626;" transform="translate(211.423932 435.459813)scale(0.1 -0.1)">
       <defs>
        <path d="M 37.25 0 
L 28.46875 0 
L 28.46875 56 
Q 25.296875 52.984375 20.140625 49.953125 
Q 14.984375 46.921875 10.890625 45.40625 
L 10.890625 53.90625 
Q 18.265625 57.375 23.78125 62.296875 
Q 29.296875 67.234375 31.59375 71.875 
L 37.25 71.875 
z
" id="ArialMT-49"/>
       </defs>
       <use xlink:href="#ArialMT-49"/>
       <use x="55.615234" xlink:href="#ArialMT-48"/>
      </g>
     </g>
    </g>
    <g id="xtick_7">
     <g id="line2d_7">
      <g>
       <use style="fill:#262626;stroke:#262626;" x="247.859061" xlink:href="#m7df9a7e231" y="419.802"/>
      </g>
     </g>
     <g id="text_7">
      <!-- 12 -->
      <g style="fill:#262626;" transform="translate(242.298124 435.459813)scale(0.1 -0.1)">
       <use xlink:href="#ArialMT-49"/>
       <use x="55.615234" xlink:href="#ArialMT-50"/>
      </g>
     </g>
    </g>
    <g id="xtick_8">
     <g id="line2d_8">
      <g>
       <use style="fill:#262626;stroke:#262626;" x="278.733253" xlink:href="#m7df9a7e231" y="419.802"/>
      </g>
     </g>
     <g id="text_8">
      <!-- 14 -->
      <g style="fill:#262626;" transform="translate(273.172316 435.459813)scale(0.1 -0.1)">
       <use xlink:href="#ArialMT-49"/>
       <use x="55.615234" xlink:href="#ArialMT-52"/>
      </g>
     </g>
    </g>
    <g id="xtick_9">
     <g id="line2d_9">
      <g>
       <use style="fill:#262626;stroke:#262626;" x="309.607445" xlink:href="#m7df9a7e231" y="419.802"/>
      </g>
     </g>
     <g id="text_9">
      <!-- 16 -->
      <g style="fill:#262626;" transform="translate(304.046507 435.459813)scale(0.1 -0.1)">
       <use xlink:href="#ArialMT-49"/>
       <use x="55.615234" xlink:href="#ArialMT-54"/>
      </g>
     </g>
    </g>
    <g id="xtick_10">
     <g id="line2d_10">
      <g>
       <use style="fill:#262626;stroke:#262626;" x="340.481637" xlink:href="#m7df9a7e231" y="419.802"/>
      </g>
     </g>
     <g id="text_10">
      <!-- 18 -->
      <g style="fill:#262626;" transform="translate(334.920699 435.459813)scale(0.1 -0.1)">
       <use xlink:href="#ArialMT-49"/>
       <use x="55.615234" xlink:href="#ArialMT-56"/>
      </g>
     </g>
    </g>
    <g id="xtick_11">
     <g id="line2d_11">
      <g>
       <use style="fill:#262626;stroke:#262626;" x="371.355829" xlink:href="#m7df9a7e231" y="419.802"/>
      </g>
     </g>
     <g id="text_11">
      <!-- 20 -->
      <g style="fill:#262626;" transform="translate(365.794891 435.459813)scale(0.1 -0.1)">
       <use xlink:href="#ArialMT-50"/>
       <use x="55.615234" xlink:href="#ArialMT-48"/>
      </g>
     </g>
    </g>
    <g id="xtick_12">
     <g id="line2d_12">
      <g>
       <use style="fill:#262626;stroke:#262626;" x="402.23002" xlink:href="#m7df9a7e231" y="419.802"/>
      </g>
     </g>
     <g id="text_12">
      <!-- 22 -->
      <g style="fill:#262626;" transform="translate(396.669083 435.459813)scale(0.1 -0.1)">
       <use xlink:href="#ArialMT-50"/>
       <use x="55.615234" xlink:href="#ArialMT-50"/>
      </g>
     </g>
    </g>
    <g id="xtick_13">
     <g id="line2d_13">
      <g>
       <use style="fill:#262626;stroke:#262626;" x="433.104212" xlink:href="#m7df9a7e231" y="419.802"/>
      </g>
     </g>
     <g id="text_13">
      <!-- 24 -->
      <g style="fill:#262626;" transform="translate(427.543275 435.459813)scale(0.1 -0.1)">
       <use xlink:href="#ArialMT-50"/>
       <use x="55.615234" xlink:href="#ArialMT-52"/>
      </g>
     </g>
    </g>
    <g id="xtick_14">
     <g id="line2d_14">
      <g>
       <use style="fill:#262626;stroke:#262626;" x="463.978404" xlink:href="#m7df9a7e231" y="419.802"/>
      </g>
     </g>
     <g id="text_14">
      <!-- 26 -->
      <g style="fill:#262626;" transform="translate(458.417467 435.459813)scale(0.1 -0.1)">
       <use xlink:href="#ArialMT-50"/>
       <use x="55.615234" xlink:href="#ArialMT-54"/>
      </g>
     </g>
    </g>
    <g id="xtick_15">
     <g id="line2d_15">
      <g>
       <use style="fill:#262626;stroke:#262626;" x="494.852596" xlink:href="#m7df9a7e231" y="419.802"/>
      </g>
     </g>
     <g id="text_15">
      <!-- 28 -->
      <g style="fill:#262626;" transform="translate(489.291658 435.459813)scale(0.1 -0.1)">
       <use xlink:href="#ArialMT-50"/>
       <use x="55.615234" xlink:href="#ArialMT-56"/>
      </g>
     </g>
    </g>
    <g id="xtick_16">
     <g id="line2d_16">
      <g>
       <use style="fill:#262626;stroke:#262626;" x="525.726788" xlink:href="#m7df9a7e231" y="419.802"/>
      </g>
     </g>
     <g id="text_16">
      <!-- 30 -->
      <g style="fill:#262626;" transform="translate(520.16585 435.459813)scale(0.1 -0.1)">
       <defs>
        <path d="M 4.203125 18.890625 
L 12.984375 20.0625 
Q 14.5 12.59375 18.140625 9.296875 
Q 21.78125 6 27 6 
Q 33.203125 6 37.46875 10.296875 
Q 41.75 14.59375 41.75 20.953125 
Q 41.75 27 37.796875 30.921875 
Q 33.84375 34.859375 27.734375 34.859375 
Q 25.25 34.859375 21.53125 33.890625 
L 22.515625 41.609375 
Q 23.390625 41.5 23.921875 41.5 
Q 29.546875 41.5 34.03125 44.421875 
Q 38.53125 47.359375 38.53125 53.46875 
Q 38.53125 58.296875 35.25 61.46875 
Q 31.984375 64.65625 26.8125 64.65625 
Q 21.6875 64.65625 18.265625 61.421875 
Q 14.84375 58.203125 13.875 51.765625 
L 5.078125 53.328125 
Q 6.6875 62.15625 12.390625 67.015625 
Q 18.109375 71.875 26.609375 71.875 
Q 32.46875 71.875 37.390625 69.359375 
Q 42.328125 66.84375 44.9375 62.5 
Q 47.5625 58.15625 47.5625 53.265625 
Q 47.5625 48.640625 45.0625 44.828125 
Q 42.578125 41.015625 37.703125 38.765625 
Q 44.046875 37.3125 47.5625 32.6875 
Q 51.078125 28.078125 51.078125 21.140625 
Q 51.078125 11.765625 44.234375 5.25 
Q 37.40625 -1.265625 26.953125 -1.265625 
Q 17.53125 -1.265625 11.296875 4.34375 
Q 5.078125 9.96875 4.203125 18.890625 
z
" id="ArialMT-51"/>
       </defs>
       <use xlink:href="#ArialMT-51"/>
       <use x="55.615234" xlink:href="#ArialMT-48"/>
      </g>
     </g>
    </g>
    <g id="xtick_17">
     <g id="line2d_17">
      <g>
       <use style="fill:#262626;stroke:#262626;" x="556.600979" xlink:href="#m7df9a7e231" y="419.802"/>
      </g>
     </g>
     <g id="text_17">
      <!-- 32 -->
      <g style="fill:#262626;" transform="translate(551.040042 435.459813)scale(0.1 -0.1)">
       <use xlink:href="#ArialMT-51"/>
       <use x="55.615234" xlink:href="#ArialMT-50"/>
      </g>
     </g>
    </g>
    <g id="xtick_18">
     <g id="line2d_18">
      <g>
       <use style="fill:#262626;stroke:#262626;" x="587.475171" xlink:href="#m7df9a7e231" y="419.802"/>
      </g>
     </g>
     <g id="text_18">
      <!-- 34 -->
      <g style="fill:#262626;" transform="translate(581.914234 435.459813)scale(0.1 -0.1)">
       <use xlink:href="#ArialMT-51"/>
       <use x="55.615234" xlink:href="#ArialMT-52"/>
      </g>
     </g>
    </g>
    <g id="xtick_19">
     <g id="line2d_19">
      <g>
       <use style="fill:#262626;stroke:#262626;" x="618.349363" xlink:href="#m7df9a7e231" y="419.802"/>
      </g>
     </g>
     <g id="text_19">
      <!-- 36 -->
      <g style="fill:#262626;" transform="translate(612.788426 435.459813)scale(0.1 -0.1)">
       <use xlink:href="#ArialMT-51"/>
       <use x="55.615234" xlink:href="#ArialMT-54"/>
      </g>
     </g>
    </g>
    <g id="xtick_20">
     <g id="line2d_20">
      <g>
       <use style="fill:#262626;stroke:#262626;" x="649.223555" xlink:href="#m7df9a7e231" y="419.802"/>
      </g>
     </g>
     <g id="text_20">
      <!-- 38 -->
      <g style="fill:#262626;" transform="translate(643.662617 435.459813)scale(0.1 -0.1)">
       <use xlink:href="#ArialMT-51"/>
       <use x="55.615234" xlink:href="#ArialMT-56"/>
      </g>
     </g>
    </g>
    <g id="xtick_21">
     <g id="line2d_21">
      <g>
       <use style="fill:#262626;stroke:#262626;" x="680.097747" xlink:href="#m7df9a7e231" y="419.802"/>
      </g>
     </g>
     <g id="text_21">
      <!-- 40 -->
      <g style="fill:#262626;" transform="translate(674.536809 435.459813)scale(0.1 -0.1)">
       <use xlink:href="#ArialMT-52"/>
       <use x="55.615234" xlink:href="#ArialMT-48"/>
      </g>
     </g>
    </g>
    <g id="xtick_22">
     <g id="line2d_22">
      <g>
       <use style="fill:#262626;stroke:#262626;" x="710.971939" xlink:href="#m7df9a7e231" y="419.802"/>
      </g>
     </g>
     <g id="text_22">
      <!-- 42 -->
      <g style="fill:#262626;" transform="translate(705.411001 435.459813)scale(0.1 -0.1)">
       <use xlink:href="#ArialMT-52"/>
       <use x="55.615234" xlink:href="#ArialMT-50"/>
      </g>
     </g>
    </g>
    <g id="xtick_23">
     <g id="line2d_23">
      <g>
       <use style="fill:#262626;stroke:#262626;" x="741.84613" xlink:href="#m7df9a7e231" y="419.802"/>
      </g>
     </g>
     <g id="text_23">
      <!-- 44 -->
      <g style="fill:#262626;" transform="translate(736.285193 435.459813)scale(0.1 -0.1)">
       <use xlink:href="#ArialMT-52"/>
       <use x="55.615234" xlink:href="#ArialMT-52"/>
      </g>
     </g>
    </g>
    <g id="xtick_24">
     <g id="line2d_24">
      <g>
       <use style="fill:#262626;stroke:#262626;" x="772.720322" xlink:href="#m7df9a7e231" y="419.802"/>
      </g>
     </g>
     <g id="text_24">
      <!-- 46 -->
      <g style="fill:#262626;" transform="translate(767.159385 435.459813)scale(0.1 -0.1)">
       <use xlink:href="#ArialMT-52"/>
       <use x="55.615234" xlink:href="#ArialMT-54"/>
      </g>
     </g>
    </g>
    <g id="xtick_25">
     <g id="line2d_25"/>
    </g>
    <g id="xtick_26">
     <g id="line2d_26"/>
    </g>
    <g id="xtick_27">
     <g id="line2d_27"/>
    </g>
    <g id="xtick_28">
     <g id="line2d_28"/>
    </g>
    <g id="xtick_29">
     <g id="line2d_29"/>
    </g>
    <g id="xtick_30">
     <g id="line2d_30"/>
    </g>
    <g id="xtick_31">
     <g id="line2d_31"/>
    </g>
    <g id="xtick_32">
     <g id="line2d_32"/>
    </g>
    <g id="xtick_33">
     <g id="line2d_33"/>
    </g>
    <g id="xtick_34">
     <g id="line2d_34"/>
    </g>
    <g id="xtick_35">
     <g id="line2d_35"/>
    </g>
    <g id="xtick_36">
     <g id="line2d_36"/>
    </g>
    <g id="xtick_37">
     <g id="line2d_37"/>
    </g>
    <g id="xtick_38">
     <g id="line2d_38"/>
    </g>
    <g id="xtick_39">
     <g id="line2d_39"/>
    </g>
    <g id="xtick_40">
     <g id="line2d_40"/>
    </g>
    <g id="xtick_41">
     <g id="line2d_41"/>
    </g>
    <g id="xtick_42">
     <g id="line2d_42"/>
    </g>
    <g id="xtick_43">
     <g id="line2d_43"/>
    </g>
    <g id="xtick_44">
     <g id="line2d_44"/>
    </g>
    <g id="xtick_45">
     <g id="line2d_45"/>
    </g>
    <g id="xtick_46">
     <g id="line2d_46"/>
    </g>
    <g id="xtick_47">
     <g id="line2d_47"/>
    </g>
    <g id="xtick_48">
     <g id="line2d_48"/>
    </g>
    <g id="xtick_49">
     <g id="line2d_49"/>
    </g>
    <g id="xtick_50">
     <g id="line2d_50"/>
    </g>
    <g id="xtick_51">
     <g id="line2d_51"/>
    </g>
    <g id="xtick_52">
     <g id="line2d_52"/>
    </g>
    <g id="xtick_53">
     <g id="line2d_53"/>
    </g>
    <g id="xtick_54">
     <g id="line2d_54"/>
    </g>
    <g id="xtick_55">
     <g id="line2d_55"/>
    </g>
    <g id="xtick_56">
     <g id="line2d_56"/>
    </g>
    <g id="xtick_57">
     <g id="line2d_57"/>
    </g>
    <g id="xtick_58">
     <g id="line2d_58"/>
    </g>
    <g id="xtick_59">
     <g id="line2d_59"/>
    </g>
    <g id="xtick_60">
     <g id="line2d_60"/>
    </g>
    <g id="xtick_61">
     <g id="line2d_61"/>
    </g>
    <g id="xtick_62">
     <g id="line2d_62"/>
    </g>
    <g id="xtick_63">
     <g id="line2d_63"/>
    </g>
    <g id="xtick_64">
     <g id="line2d_64"/>
    </g>
    <g id="xtick_65">
     <g id="line2d_65"/>
    </g>
    <g id="xtick_66">
     <g id="line2d_66"/>
    </g>
    <g id="xtick_67">
     <g id="line2d_67"/>
    </g>
    <g id="xtick_68">
     <g id="line2d_68"/>
    </g>
    <g id="xtick_69">
     <g id="line2d_69"/>
    </g>
    <g id="xtick_70">
     <g id="line2d_70"/>
    </g>
    <g id="xtick_71">
     <g id="line2d_71"/>
    </g>
    <g id="xtick_72">
     <g id="line2d_72"/>
    </g>
    <g id="xtick_73">
     <g id="line2d_73"/>
    </g>
    <g id="xtick_74">
     <g id="line2d_74"/>
    </g>
    <g id="xtick_75">
     <g id="line2d_75"/>
    </g>
    <g id="xtick_76">
     <g id="line2d_76"/>
    </g>
    <g id="xtick_77">
     <g id="line2d_77"/>
    </g>
    <g id="xtick_78">
     <g id="line2d_78"/>
    </g>
    <g id="xtick_79">
     <g id="line2d_79"/>
    </g>
    <g id="xtick_80">
     <g id="line2d_80"/>
    </g>
    <g id="xtick_81">
     <g id="line2d_81"/>
    </g>
    <g id="xtick_82">
     <g id="line2d_82"/>
    </g>
    <g id="xtick_83">
     <g id="line2d_83"/>
    </g>
    <g id="xtick_84">
     <g id="line2d_84"/>
    </g>
    <g id="xtick_85">
     <g id="line2d_85"/>
    </g>
    <g id="xtick_86">
     <g id="line2d_86"/>
    </g>
    <g id="xtick_87">
     <g id="line2d_87"/>
    </g>
    <g id="xtick_88">
     <g id="line2d_88"/>
    </g>
    <g id="xtick_89">
     <g id="line2d_89"/>
    </g>
    <g id="xtick_90">
     <g id="line2d_90"/>
    </g>
    <g id="xtick_91">
     <g id="line2d_91"/>
    </g>
    <g id="xtick_92">
     <g id="line2d_92"/>
    </g>
    <g id="xtick_93">
     <g id="line2d_93"/>
    </g>
    <g id="xtick_94">
     <g id="line2d_94"/>
    </g>
    <g id="xtick_95">
     <g id="line2d_95"/>
    </g>
    <g id="text_25">
     <!-- Time (Months) -->
     <g style="fill:#262626;" transform="translate(371.504506 450.182938)scale(0.12 -0.12)">
      <defs>
       <path d="M 25.921875 0 
L 25.921875 63.140625 
L 2.34375 63.140625 
L 2.34375 71.578125 
L 59.078125 71.578125 
L 59.078125 63.140625 
L 35.40625 63.140625 
L 35.40625 0 
z
" id="ArialMT-84"/>
       <path d="M 6.640625 61.46875 
L 6.640625 71.578125 
L 15.4375 71.578125 
L 15.4375 61.46875 
z
M 6.640625 0 
L 6.640625 51.859375 
L 15.4375 51.859375 
L 15.4375 0 
z
" id="ArialMT-105"/>
       <path d="M 6.59375 0 
L 6.59375 51.859375 
L 14.453125 51.859375 
L 14.453125 44.578125 
Q 16.890625 48.390625 20.9375 50.703125 
Q 25 53.03125 30.171875 53.03125 
Q 35.9375 53.03125 39.625 50.640625 
Q 43.3125 48.25 44.828125 43.953125 
Q 50.984375 53.03125 60.84375 53.03125 
Q 68.5625 53.03125 72.703125 48.75 
Q 76.859375 44.484375 76.859375 35.59375 
L 76.859375 0 
L 68.109375 0 
L 68.109375 32.671875 
Q 68.109375 37.9375 67.25 40.25 
Q 66.40625 42.578125 64.15625 43.984375 
Q 61.921875 45.40625 58.890625 45.40625 
Q 53.421875 45.40625 49.796875 41.765625 
Q 46.1875 38.140625 46.1875 30.125 
L 46.1875 0 
L 37.40625 0 
L 37.40625 33.6875 
Q 37.40625 39.546875 35.25 42.46875 
Q 33.109375 45.40625 28.21875 45.40625 
Q 24.515625 45.40625 21.359375 43.453125 
Q 18.21875 41.5 16.796875 37.734375 
Q 15.375 33.984375 15.375 26.90625 
L 15.375 0 
z
" id="ArialMT-109"/>
       <path d="M 42.09375 16.703125 
L 51.171875 15.578125 
Q 49.03125 7.625 43.21875 3.21875 
Q 37.40625 -1.171875 28.375 -1.171875 
Q 17 -1.171875 10.328125 5.828125 
Q 3.65625 12.84375 3.65625 25.484375 
Q 3.65625 38.578125 10.390625 45.796875 
Q 17.140625 53.03125 27.875 53.03125 
Q 38.28125 53.03125 44.875 45.953125 
Q 51.46875 38.875 51.46875 26.03125 
Q 51.46875 25.25 51.421875 23.6875 
L 12.75 23.6875 
Q 13.234375 15.140625 17.578125 10.59375 
Q 21.921875 6.0625 28.421875 6.0625 
Q 33.25 6.0625 36.671875 8.59375 
Q 40.09375 11.140625 42.09375 16.703125 
z
M 13.234375 30.90625 
L 42.1875 30.90625 
Q 41.609375 37.453125 38.875 40.71875 
Q 34.671875 45.796875 27.984375 45.796875 
Q 21.921875 45.796875 17.796875 41.75 
Q 13.671875 37.703125 13.234375 30.90625 
z
" id="ArialMT-101"/>
       <path id="ArialMT-32"/>
       <path d="M 23.390625 -21.046875 
Q 16.109375 -11.859375 11.078125 0.4375 
Q 6.0625 12.75 6.0625 25.921875 
Q 6.0625 37.546875 9.8125 48.1875 
Q 14.203125 60.546875 23.390625 72.796875 
L 29.6875 72.796875 
Q 23.78125 62.640625 21.875 58.296875 
Q 18.890625 51.5625 17.1875 44.234375 
Q 15.09375 35.109375 15.09375 25.875 
Q 15.09375 2.390625 29.6875 -21.046875 
z
" id="ArialMT-40"/>
       <path d="M 7.421875 0 
L 7.421875 71.578125 
L 21.6875 71.578125 
L 38.625 20.90625 
Q 40.96875 13.8125 42.046875 10.296875 
Q 43.265625 14.203125 45.84375 21.78125 
L 62.984375 71.578125 
L 75.734375 71.578125 
L 75.734375 0 
L 66.609375 0 
L 66.609375 59.90625 
L 45.796875 0 
L 37.25 0 
L 16.546875 60.9375 
L 16.546875 0 
z
" id="ArialMT-77"/>
       <path d="M 3.328125 25.921875 
Q 3.328125 40.328125 11.328125 47.265625 
Q 18.015625 53.03125 27.640625 53.03125 
Q 38.328125 53.03125 45.109375 46.015625 
Q 51.90625 39.015625 51.90625 26.65625 
Q 51.90625 16.65625 48.90625 10.90625 
Q 45.90625 5.171875 40.15625 2 
Q 34.421875 -1.171875 27.640625 -1.171875 
Q 16.75 -1.171875 10.03125 5.8125 
Q 3.328125 12.796875 3.328125 25.921875 
z
M 12.359375 25.921875 
Q 12.359375 15.96875 16.703125 11.015625 
Q 21.046875 6.0625 27.640625 6.0625 
Q 34.1875 6.0625 38.53125 11.03125 
Q 42.875 16.015625 42.875 26.21875 
Q 42.875 35.84375 38.5 40.796875 
Q 34.125 45.75 27.640625 45.75 
Q 21.046875 45.75 16.703125 40.8125 
Q 12.359375 35.890625 12.359375 25.921875 
z
" id="ArialMT-111"/>
       <path d="M 6.59375 0 
L 6.59375 51.859375 
L 14.5 51.859375 
L 14.5 44.484375 
Q 20.21875 53.03125 31 53.03125 
Q 35.6875 53.03125 39.625 51.34375 
Q 43.5625 49.65625 45.515625 46.921875 
Q 47.46875 44.1875 48.25 40.4375 
Q 48.734375 37.984375 48.734375 31.890625 
L 48.734375 0 
L 39.9375 0 
L 39.9375 31.546875 
Q 39.9375 36.921875 38.90625 39.578125 
Q 37.890625 42.234375 35.28125 43.8125 
Q 32.671875 45.40625 29.15625 45.40625 
Q 23.53125 45.40625 19.453125 41.84375 
Q 15.375 38.28125 15.375 28.328125 
L 15.375 0 
z
" id="ArialMT-110"/>
       <path d="M 25.78125 7.859375 
L 27.046875 0.09375 
Q 23.34375 -0.6875 20.40625 -0.6875 
Q 15.625 -0.6875 12.984375 0.828125 
Q 10.359375 2.34375 9.28125 4.8125 
Q 8.203125 7.28125 8.203125 15.1875 
L 8.203125 45.015625 
L 1.765625 45.015625 
L 1.765625 51.859375 
L 8.203125 51.859375 
L 8.203125 64.703125 
L 16.9375 69.96875 
L 16.9375 51.859375 
L 25.78125 51.859375 
L 25.78125 45.015625 
L 16.9375 45.015625 
L 16.9375 14.703125 
Q 16.9375 10.9375 17.40625 9.859375 
Q 17.875 8.796875 18.921875 8.15625 
Q 19.96875 7.515625 21.921875 7.515625 
Q 23.390625 7.515625 25.78125 7.859375 
z
" id="ArialMT-116"/>
       <path d="M 6.59375 0 
L 6.59375 71.578125 
L 15.375 71.578125 
L 15.375 45.90625 
Q 21.53125 53.03125 30.90625 53.03125 
Q 36.671875 53.03125 40.921875 50.75 
Q 45.171875 48.484375 47 44.484375 
Q 48.828125 40.484375 48.828125 32.859375 
L 48.828125 0 
L 40.046875 0 
L 40.046875 32.859375 
Q 40.046875 39.453125 37.1875 42.453125 
Q 34.328125 45.453125 29.109375 45.453125 
Q 25.203125 45.453125 21.75 43.421875 
Q 18.3125 41.40625 16.84375 37.9375 
Q 15.375 34.46875 15.375 28.375 
L 15.375 0 
z
" id="ArialMT-104"/>
       <path d="M 3.078125 15.484375 
L 11.765625 16.84375 
Q 12.5 11.625 15.84375 8.84375 
Q 19.1875 6.0625 25.203125 6.0625 
Q 31.25 6.0625 34.171875 8.515625 
Q 37.109375 10.984375 37.109375 14.3125 
Q 37.109375 17.28125 34.515625 19 
Q 32.71875 20.171875 25.53125 21.96875 
Q 15.875 24.421875 12.140625 26.203125 
Q 8.40625 27.984375 6.46875 31.125 
Q 4.546875 34.28125 4.546875 38.09375 
Q 4.546875 41.546875 6.125 44.5 
Q 7.71875 47.46875 10.453125 49.421875 
Q 12.5 50.921875 16.03125 51.96875 
Q 19.578125 53.03125 23.640625 53.03125 
Q 29.734375 53.03125 34.34375 51.265625 
Q 38.96875 49.515625 41.15625 46.5 
Q 43.359375 43.5 44.1875 38.484375 
L 35.59375 37.3125 
Q 35.015625 41.3125 32.203125 43.546875 
Q 29.390625 45.796875 24.265625 45.796875 
Q 18.21875 45.796875 15.625 43.796875 
Q 13.03125 41.796875 13.03125 39.109375 
Q 13.03125 37.40625 14.109375 36.03125 
Q 15.1875 34.625 17.484375 33.6875 
Q 18.796875 33.203125 25.25 31.453125 
Q 34.578125 28.953125 38.25 27.359375 
Q 41.9375 25.78125 44.03125 22.75 
Q 46.140625 19.734375 46.140625 15.234375 
Q 46.140625 10.84375 43.578125 6.953125 
Q 41.015625 3.078125 36.171875 0.953125 
Q 31.34375 -1.171875 25.25 -1.171875 
Q 15.140625 -1.171875 9.84375 3.03125 
Q 4.546875 7.234375 3.078125 15.484375 
z
" id="ArialMT-115"/>
       <path d="M 12.359375 -21.046875 
L 6.0625 -21.046875 
Q 20.65625 2.390625 20.65625 25.875 
Q 20.65625 35.0625 18.5625 44.09375 
Q 16.890625 51.421875 13.921875 58.15625 
Q 12.015625 62.546875 6.0625 72.796875 
L 12.359375 72.796875 
Q 21.53125 60.546875 25.921875 48.1875 
Q 29.6875 37.546875 29.6875 25.921875 
Q 29.6875 12.75 24.625 0.4375 
Q 19.578125 -11.859375 12.359375 -21.046875 
z
" id="ArialMT-41"/>
      </defs>
      <use xlink:href="#ArialMT-84"/>
      <use x="57.333984" xlink:href="#ArialMT-105"/>
      <use x="79.550781" xlink:href="#ArialMT-109"/>
      <use x="162.851562" xlink:href="#ArialMT-101"/>
      <use x="218.466797" xlink:href="#ArialMT-32"/>
      <use x="246.25" xlink:href="#ArialMT-40"/>
      <use x="279.550781" xlink:href="#ArialMT-77"/>
      <use x="362.851562" xlink:href="#ArialMT-111"/>
      <use x="418.466797" xlink:href="#ArialMT-110"/>
      <use x="474.082031" xlink:href="#ArialMT-116"/>
      <use x="501.865234" xlink:href="#ArialMT-104"/>
      <use x="557.480469" xlink:href="#ArialMT-115"/>
      <use x="607.480469" xlink:href="#ArialMT-41"/>
     </g>
    </g>
   </g>
   <g id="matplotlib.axis_2">
    <g id="ytick_1">
     <g id="line2d_96">
      <path clip-path="url(#p1f5acdb04d)" d="M 44.86125 419.802 
L 775.035887 419.802 
" style="fill:none;stroke:#cccccc;stroke-linecap:round;stroke-width:0.8;"/>
     </g>
     <g id="line2d_97">
      <defs>
       <path d="M 0 0 
L -5 0 
" id="m93272af0c5" style="stroke:#262626;"/>
      </defs>
      <g>
       <use style="fill:#262626;stroke:#262626;" x="44.86125" xlink:href="#m93272af0c5" y="419.802"/>
      </g>
     </g>
     <g id="text_26">
      <!-- 0.0 -->
      <g style="fill:#262626;" transform="translate(22.46125 423.380906)scale(0.1 -0.1)">
       <defs>
        <path d="M 9.078125 0 
L 9.078125 10.015625 
L 19.09375 10.015625 
L 19.09375 0 
z
" id="ArialMT-46"/>
       </defs>
       <use xlink:href="#ArialMT-48"/>
       <use x="55.615234" xlink:href="#ArialMT-46"/>
       <use x="83.398438" xlink:href="#ArialMT-48"/>
      </g>
     </g>
    </g>
    <g id="ytick_2">
     <g id="line2d_98">
      <path clip-path="url(#p1f5acdb04d)" d="M 44.86125 367.379328 
L 775.035887 367.379328 
" style="fill:none;stroke:#cccccc;stroke-linecap:round;stroke-width:0.8;"/>
     </g>
     <g id="line2d_99">
      <g>
       <use style="fill:#262626;stroke:#262626;" x="44.86125" xlink:href="#m93272af0c5" y="367.379328"/>
      </g>
     </g>
     <g id="text_27">
      <!-- 0.2 -->
      <g style="fill:#262626;" transform="translate(22.46125 370.958234)scale(0.1 -0.1)">
       <use xlink:href="#ArialMT-48"/>
       <use x="55.615234" xlink:href="#ArialMT-46"/>
       <use x="83.398438" xlink:href="#ArialMT-50"/>
      </g>
     </g>
    </g>
    <g id="ytick_3">
     <g id="line2d_100">
      <path clip-path="url(#p1f5acdb04d)" d="M 44.86125 314.956656 
L 775.035887 314.956656 
" style="fill:none;stroke:#cccccc;stroke-linecap:round;stroke-width:0.8;"/>
     </g>
     <g id="line2d_101">
      <g>
       <use style="fill:#262626;stroke:#262626;" x="44.86125" xlink:href="#m93272af0c5" y="314.956656"/>
      </g>
     </g>
     <g id="text_28">
      <!-- 0.4 -->
      <g style="fill:#262626;" transform="translate(22.46125 318.535563)scale(0.1 -0.1)">
       <use xlink:href="#ArialMT-48"/>
       <use x="55.615234" xlink:href="#ArialMT-46"/>
       <use x="83.398438" xlink:href="#ArialMT-52"/>
      </g>
     </g>
    </g>
    <g id="ytick_4">
     <g id="line2d_102">
      <path clip-path="url(#p1f5acdb04d)" d="M 44.86125 262.533984 
L 775.035887 262.533984 
" style="fill:none;stroke:#cccccc;stroke-linecap:round;stroke-width:0.8;"/>
     </g>
     <g id="line2d_103">
      <g>
       <use style="fill:#262626;stroke:#262626;" x="44.86125" xlink:href="#m93272af0c5" y="262.533984"/>
      </g>
     </g>
     <g id="text_29">
      <!-- 0.6 -->
      <g style="fill:#262626;" transform="translate(22.46125 266.112891)scale(0.1 -0.1)">
       <use xlink:href="#ArialMT-48"/>
       <use x="55.615234" xlink:href="#ArialMT-46"/>
       <use x="83.398438" xlink:href="#ArialMT-54"/>
      </g>
     </g>
    </g>
    <g id="ytick_5">
     <g id="line2d_104">
      <path clip-path="url(#p1f5acdb04d)" d="M 44.86125 210.111313 
L 775.035887 210.111313 
" style="fill:none;stroke:#cccccc;stroke-linecap:round;stroke-width:0.8;"/>
     </g>
     <g id="line2d_105">
      <g>
       <use style="fill:#262626;stroke:#262626;" x="44.86125" xlink:href="#m93272af0c5" y="210.111313"/>
      </g>
     </g>
     <g id="text_30">
      <!-- 0.8 -->
      <g style="fill:#262626;" transform="translate(22.46125 213.690219)scale(0.1 -0.1)">
       <use xlink:href="#ArialMT-48"/>
       <use x="55.615234" xlink:href="#ArialMT-46"/>
       <use x="83.398438" xlink:href="#ArialMT-56"/>
      </g>
     </g>
    </g>
    <g id="ytick_6">
     <g id="line2d_106">
      <path clip-path="url(#p1f5acdb04d)" d="M 44.86125 157.688641 
L 775.035887 157.688641 
" style="fill:none;stroke:#cccccc;stroke-linecap:round;stroke-width:0.8;"/>
     </g>
     <g id="line2d_107">
      <g>
       <use style="fill:#262626;stroke:#262626;" x="44.86125" xlink:href="#m93272af0c5" y="157.688641"/>
      </g>
     </g>
     <g id="text_31">
      <!-- 1.0 -->
      <g style="fill:#262626;" transform="translate(22.46125 161.267547)scale(0.1 -0.1)">
       <use xlink:href="#ArialMT-49"/>
       <use x="55.615234" xlink:href="#ArialMT-46"/>
       <use x="83.398438" xlink:href="#ArialMT-48"/>
      </g>
     </g>
    </g>
    <g id="ytick_7">
     <g id="line2d_108">
      <path clip-path="url(#p1f5acdb04d)" d="M 44.86125 105.265969 
L 775.035887 105.265969 
" style="fill:none;stroke:#cccccc;stroke-linecap:round;stroke-width:0.8;"/>
     </g>
     <g id="line2d_109">
      <g>
       <use style="fill:#262626;stroke:#262626;" x="44.86125" xlink:href="#m93272af0c5" y="105.265969"/>
      </g>
     </g>
     <g id="text_32">
      <!-- 1.2 -->
      <g style="fill:#262626;" transform="translate(22.46125 108.844875)scale(0.1 -0.1)">
       <use xlink:href="#ArialMT-49"/>
       <use x="55.615234" xlink:href="#ArialMT-46"/>
       <use x="83.398438" xlink:href="#ArialMT-50"/>
      </g>
     </g>
    </g>
    <g id="text_33">
     <!-- Total Views (All Articles) -->
     <g style="fill:#262626;" transform="translate(15.935625 304.615688)rotate(-90)scale(0.12 -0.12)">
      <defs>
       <path d="M 40.4375 6.390625 
Q 35.546875 2.25 31.03125 0.53125 
Q 26.515625 -1.171875 21.34375 -1.171875 
Q 12.796875 -1.171875 8.203125 3 
Q 3.609375 7.171875 3.609375 13.671875 
Q 3.609375 17.484375 5.34375 20.625 
Q 7.078125 23.78125 9.890625 25.6875 
Q 12.703125 27.59375 16.21875 28.5625 
Q 18.796875 29.25 24.03125 29.890625 
Q 34.671875 31.15625 39.703125 32.90625 
Q 39.75 34.71875 39.75 35.203125 
Q 39.75 40.578125 37.25 42.78125 
Q 33.890625 45.75 27.25 45.75 
Q 21.046875 45.75 18.09375 43.578125 
Q 15.140625 41.40625 13.71875 35.890625 
L 5.125 37.0625 
Q 6.296875 42.578125 8.984375 45.96875 
Q 11.671875 49.359375 16.75 51.1875 
Q 21.828125 53.03125 28.515625 53.03125 
Q 35.15625 53.03125 39.296875 51.46875 
Q 43.453125 49.90625 45.40625 47.53125 
Q 47.359375 45.171875 48.140625 41.546875 
Q 48.578125 39.3125 48.578125 33.453125 
L 48.578125 21.734375 
Q 48.578125 9.46875 49.140625 6.21875 
Q 49.703125 2.984375 51.375 0 
L 42.1875 0 
Q 40.828125 2.734375 40.4375 6.390625 
z
M 39.703125 26.03125 
Q 34.90625 24.078125 25.34375 22.703125 
Q 19.921875 21.921875 17.671875 20.9375 
Q 15.4375 19.96875 14.203125 18.09375 
Q 12.984375 16.21875 12.984375 13.921875 
Q 12.984375 10.40625 15.640625 8.0625 
Q 18.3125 5.71875 23.4375 5.71875 
Q 28.515625 5.71875 32.46875 7.9375 
Q 36.421875 10.15625 38.28125 14.015625 
Q 39.703125 17 39.703125 22.796875 
z
" id="ArialMT-97"/>
       <path d="M 6.390625 0 
L 6.390625 71.578125 
L 15.1875 71.578125 
L 15.1875 0 
z
" id="ArialMT-108"/>
       <path d="M 28.171875 0 
L 0.4375 71.578125 
L 10.6875 71.578125 
L 29.296875 19.578125 
Q 31.546875 13.328125 33.0625 7.859375 
Q 34.71875 13.71875 36.921875 19.578125 
L 56.25 71.578125 
L 65.921875 71.578125 
L 37.890625 0 
z
" id="ArialMT-86"/>
       <path d="M 16.15625 0 
L 0.296875 51.859375 
L 9.375 51.859375 
L 17.625 21.921875 
L 20.703125 10.796875 
Q 20.90625 11.625 23.390625 21.484375 
L 31.640625 51.859375 
L 40.671875 51.859375 
L 48.4375 21.78125 
L 51.03125 11.859375 
L 54 21.875 
L 62.890625 51.859375 
L 71.4375 51.859375 
L 55.21875 0 
L 46.09375 0 
L 37.84375 31.0625 
L 35.84375 39.890625 
L 25.34375 0 
z
" id="ArialMT-119"/>
       <path d="M -0.140625 0 
L 27.34375 71.578125 
L 37.546875 71.578125 
L 66.84375 0 
L 56.0625 0 
L 47.703125 21.6875 
L 17.78125 21.6875 
L 9.90625 0 
z
M 20.515625 29.390625 
L 44.78125 29.390625 
L 37.3125 49.21875 
Q 33.890625 58.25 32.234375 64.0625 
Q 30.859375 57.171875 28.375 50.390625 
z
" id="ArialMT-65"/>
       <path d="M 6.5 0 
L 6.5 51.859375 
L 14.40625 51.859375 
L 14.40625 44 
Q 17.4375 49.515625 20 51.265625 
Q 22.5625 53.03125 25.640625 53.03125 
Q 30.078125 53.03125 34.671875 50.203125 
L 31.640625 42.046875 
Q 28.421875 43.953125 25.203125 43.953125 
Q 22.3125 43.953125 20.015625 42.21875 
Q 17.71875 40.484375 16.75 37.40625 
Q 15.28125 32.71875 15.28125 27.15625 
L 15.28125 0 
z
" id="ArialMT-114"/>
       <path d="M 40.4375 19 
L 49.078125 17.875 
Q 47.65625 8.9375 41.8125 3.875 
Q 35.984375 -1.171875 27.484375 -1.171875 
Q 16.84375 -1.171875 10.375 5.78125 
Q 3.90625 12.75 3.90625 25.734375 
Q 3.90625 34.125 6.6875 40.421875 
Q 9.46875 46.734375 15.15625 49.875 
Q 20.84375 53.03125 27.546875 53.03125 
Q 35.984375 53.03125 41.359375 48.75 
Q 46.734375 44.484375 48.25 36.625 
L 39.703125 35.296875 
Q 38.484375 40.53125 35.375 43.15625 
Q 32.28125 45.796875 27.875 45.796875 
Q 21.234375 45.796875 17.078125 41.03125 
Q 12.9375 36.28125 12.9375 25.984375 
Q 12.9375 15.53125 16.9375 10.796875 
Q 20.953125 6.0625 27.390625 6.0625 
Q 32.5625 6.0625 36.03125 9.234375 
Q 39.5 12.40625 40.4375 19 
z
" id="ArialMT-99"/>
      </defs>
      <use xlink:href="#ArialMT-84"/>
      <use x="49.958984" xlink:href="#ArialMT-111"/>
      <use x="105.574219" xlink:href="#ArialMT-116"/>
      <use x="133.357422" xlink:href="#ArialMT-97"/>
      <use x="188.972656" xlink:href="#ArialMT-108"/>
      <use x="211.189453" xlink:href="#ArialMT-32"/>
      <use x="238.972656" xlink:href="#ArialMT-86"/>
      <use x="303.921875" xlink:href="#ArialMT-105"/>
      <use x="326.138672" xlink:href="#ArialMT-101"/>
      <use x="381.753906" xlink:href="#ArialMT-119"/>
      <use x="453.970703" xlink:href="#ArialMT-115"/>
      <use x="503.970703" xlink:href="#ArialMT-32"/>
      <use x="531.753906" xlink:href="#ArialMT-40"/>
      <use x="565.054688" xlink:href="#ArialMT-65"/>
      <use x="631.753906" xlink:href="#ArialMT-108"/>
      <use x="653.970703" xlink:href="#ArialMT-108"/>
      <use x="676.1875" xlink:href="#ArialMT-32"/>
      <use x="698.470703" xlink:href="#ArialMT-65"/>
      <use x="765.169922" xlink:href="#ArialMT-114"/>
      <use x="798.470703" xlink:href="#ArialMT-116"/>
      <use x="826.253906" xlink:href="#ArialMT-105"/>
      <use x="848.470703" xlink:href="#ArialMT-99"/>
      <use x="898.470703" xlink:href="#ArialMT-108"/>
      <use x="920.6875" xlink:href="#ArialMT-101"/>
      <use x="976.302734" xlink:href="#ArialMT-115"/>
      <use x="1026.302734" xlink:href="#ArialMT-41"/>
     </g>
    </g>
   </g>
   <g id="PathCollection_1">
    <defs>
     <path d="M 0 3.535534 
C 0.937635 3.535534 1.836992 3.163008 2.5 2.5 
C 3.163008 1.836992 3.535534 0.937635 3.535534 0 
C 3.535534 -0.937635 3.163008 -1.836992 2.5 -2.5 
C 1.836992 -3.163008 0.937635 -3.535534 0 -3.535534 
C -0.937635 -3.535534 -1.836992 -3.163008 -2.5 -2.5 
C -3.163008 -1.836992 -3.535534 -0.937635 -3.535534 0 
C -3.535534 0.937635 -3.163008 1.836992 -2.5 2.5 
C -1.836992 3.163008 -0.937635 3.535534 0 3.535534 
z
" id="m6444f3d114" style="stroke:#8b0000;"/>
    </defs>
    <g clip-path="url(#p1f5acdb04d)">
     <use style="fill:#8b0000;stroke:#8b0000;" x="78.051006" xlink:href="#m6444f3d114" y="120.541743"/>
     <use style="fill:#8b0000;stroke:#8b0000;" x="93.488102" xlink:href="#m6444f3d114" y="134.285039"/>
     <use style="fill:#8b0000;stroke:#8b0000;" x="108.925198" xlink:href="#m6444f3d114" y="106.412328"/>
     <use style="fill:#8b0000;stroke:#8b0000;" x="124.362294" xlink:href="#m6444f3d114" y="134.682724"/>
     <use style="fill:#8b0000;stroke:#8b0000;" x="139.79939" xlink:href="#m6444f3d114" y="118.993962"/>
     <use style="fill:#8b0000;stroke:#8b0000;" x="155.236486" xlink:href="#m6444f3d114" y="153.987013"/>
     <use style="fill:#8b0000;stroke:#8b0000;" x="170.673582" xlink:href="#m6444f3d114" y="171.956685"/>
     <use style="fill:#8b0000;stroke:#8b0000;" x="186.110678" xlink:href="#m6444f3d114" y="164.497596"/>
     <use style="fill:#8b0000;stroke:#8b0000;" x="201.547774" xlink:href="#m6444f3d114" y="120.530726"/>
     <use style="fill:#8b0000;stroke:#8b0000;" x="216.984869" xlink:href="#m6444f3d114" y="118.078514"/>
     <use style="fill:#8b0000;stroke:#8b0000;" x="232.421965" xlink:href="#m6444f3d114" y="124.500975"/>
     <use style="fill:#8b0000;stroke:#8b0000;" x="247.859061" xlink:href="#m6444f3d114" y="164.476666"/>
     <use style="fill:#8b0000;stroke:#8b0000;" x="263.296157" xlink:href="#m6444f3d114" y="129.044068"/>
     <use style="fill:#8b0000;stroke:#8b0000;" x="278.733253" xlink:href="#m6444f3d114" y="152.740526"/>
     <use style="fill:#8b0000;stroke:#8b0000;" x="294.170349" xlink:href="#m6444f3d114" y="127.252829"/>
     <use style="fill:#8b0000;stroke:#8b0000;" x="309.607445" xlink:href="#m6444f3d114" y="132.472318"/>
     <use style="fill:#8b0000;stroke:#8b0000;" x="325.044541" xlink:href="#m6444f3d114" y="123.979907"/>
     <use style="fill:#8b0000;stroke:#8b0000;" x="340.481637" xlink:href="#m6444f3d114" y="170.927769"/>
     <use style="fill:#8b0000;stroke:#8b0000;" x="355.918733" xlink:href="#m6444f3d114" y="175.441669"/>
     <use style="fill:#8b0000;stroke:#8b0000;" x="371.355829" xlink:href="#m6444f3d114" y="149.050641"/>
     <use style="fill:#8b0000;stroke:#8b0000;" x="386.792924" xlink:href="#m6444f3d114" y="158.321348"/>
     <use style="fill:#8b0000;stroke:#8b0000;" x="402.23002" xlink:href="#m6444f3d114" y="149.296303"/>
     <use style="fill:#8b0000;stroke:#8b0000;" x="417.667116" xlink:href="#m6444f3d114" y="133.00275"/>
     <use style="fill:#8b0000;stroke:#8b0000;" x="433.104212" xlink:href="#m6444f3d114" y="170.418268"/>
     <use style="fill:#8b0000;stroke:#8b0000;" x="448.541308" xlink:href="#m6444f3d114" y="152.751543"/>
     <use style="fill:#8b0000;stroke:#8b0000;" x="463.978404" xlink:href="#m6444f3d114" y="180.670522"/>
     <use style="fill:#8b0000;stroke:#8b0000;" x="479.4155" xlink:href="#m6444f3d114" y="158.156655"/>
     <use style="fill:#8b0000;stroke:#8b0000;" x="494.852596" xlink:href="#m6444f3d114" y="164.020043"/>
     <use style="fill:#8b0000;stroke:#8b0000;" x="510.289692" xlink:href="#m6444f3d114" y="142.926719"/>
     <use style="fill:#8b0000;stroke:#8b0000;" x="525.726788" xlink:href="#m6444f3d114" y="184.924989"/>
     <use style="fill:#8b0000;stroke:#8b0000;" x="541.163884" xlink:href="#m6444f3d114" y="188.10262"/>
     <use style="fill:#8b0000;stroke:#8b0000;" x="556.600979" xlink:href="#m6444f3d114" y="184.613781"/>
     <use style="fill:#8b0000;stroke:#8b0000;" x="572.038075" xlink:href="#m6444f3d114" y="152.258566"/>
     <use style="fill:#8b0000;stroke:#8b0000;" x="587.475171" xlink:href="#m6444f3d114" y="153.055591"/>
     <use style="fill:#8b0000;stroke:#8b0000;" x="602.912267" xlink:href="#m6444f3d114" y="160.394602"/>
     <use style="fill:#8b0000;stroke:#8b0000;" x="618.349363" xlink:href="#m6444f3d114" y="199.283542"/>
     <use style="fill:#8b0000;stroke:#8b0000;" x="633.786459" xlink:href="#m6444f3d114" y="160.686532"/>
     <use style="fill:#8b0000;stroke:#8b0000;" x="649.223555" xlink:href="#m6444f3d114" y="176.615448"/>
     <use style="fill:#8b0000;stroke:#8b0000;" x="664.660651" xlink:href="#m6444f3d114" y="192.710158"/>
     <use style="fill:#8b0000;stroke:#8b0000;" x="680.097747" xlink:href="#m6444f3d114" y="153.013729"/>
     <use style="fill:#8b0000;stroke:#8b0000;" x="695.534843" xlink:href="#m6444f3d114" y="183.016428"/>
     <use style="fill:#8b0000;stroke:#8b0000;" x="710.971939" xlink:href="#m6444f3d114" y="220.134508"/>
     <use style="fill:#8b0000;stroke:#8b0000;" x="726.409035" xlink:href="#m6444f3d114" y="211.981948"/>
     <use style="fill:#8b0000;stroke:#8b0000;" x="741.84613" xlink:href="#m6444f3d114" y="214.089904"/>
    </g>
   </g>
   <g id="PolyCollection_1">
    <path clip-path="url(#p1f5acdb04d)" d="M 78.051006 143.005818 
L 78.051006 143.005818 
L 93.488102 143.102522 
L 108.925198 143.251333 
L 124.362294 143.467789 
L 139.79939 143.77282 
L 155.236486 144.194195 
L 170.673582 144.767404 
L 186.110678 145.534519 
L 201.547774 146.538908 
L 216.984869 147.814841 
L 232.421965 149.375577 
L 247.859061 151.207857 
L 263.296157 153.277411 
L 278.733253 155.540871 
L 294.170349 157.956166 
L 309.607445 160.487804 
L 325.044541 163.108017 
L 340.481637 165.795876 
L 355.918733 168.535841 
L 355.918733 168.535841 
L 355.918733 135.394504 
L 340.481637 135.297799 
L 325.044541 135.148989 
L 309.607445 134.932533 
L 294.170349 134.627502 
L 278.733253 134.206127 
L 263.296157 133.632918 
L 247.859061 132.865803 
L 232.421965 131.861414 
L 216.984869 130.585481 
L 201.547774 129.024745 
L 186.110678 127.192464 
L 170.673582 125.12291 
L 155.236486 122.85945 
L 139.79939 120.444156 
L 124.362294 117.912518 
L 108.925198 115.292304 
L 93.488102 112.604446 
L 78.051006 109.864481 
z
" style="fill:#cd5c5c;fill-opacity:0.25;"/>
   </g>
   <g id="PolyCollection_2">
    <path clip-path="url(#p1f5acdb04d)" d="M 371.355829 187.410087 
L 371.355829 187.410087 
L 386.792924 170.843463 
L 402.23002 165.126591 
L 417.667116 170.259472 
L 417.667116 170.259472 
L 417.667116 107.425433 
L 402.23002 123.992057 
L 386.792924 129.708929 
L 371.355829 124.576049 
z
" style="fill:#cd5c5c;fill-opacity:0.25;"/>
   </g>
   <g id="PolyCollection_3">
    <path clip-path="url(#p1f5acdb04d)" d="M 433.104212 182.292865 
L 433.104212 182.292865 
L 448.541308 181.00281 
L 463.978404 180.249451 
L 479.4155 180.441482 
L 494.852596 182.137411 
L 510.289692 185.645291 
L 525.726788 190.65707 
L 541.163884 196.614238 
L 556.600979 203.108103 
L 556.600979 203.108103 
L 556.600979 156.948277 
L 541.163884 158.238333 
L 525.726788 158.991691 
L 510.289692 158.79966 
L 494.852596 157.103731 
L 479.4155 153.595851 
L 463.978404 148.584072 
L 448.541308 142.626905 
L 433.104212 136.13304 
z
" style="fill:#cd5c5c;fill-opacity:0.25;"/>
   </g>
   <g id="PolyCollection_4">
    <path clip-path="url(#p1f5acdb04d)" d="M 572.038075 172.204352 
L 572.038075 172.204352 
L 587.475171 175.009121 
L 602.912267 178.022439 
L 618.349363 181.355683 
L 633.786459 185.176743 
L 649.223555 189.696752 
L 664.660651 195.082773 
L 680.097747 201.334806 
L 695.534843 208.285788 
L 710.971939 215.724586 
L 726.409035 223.48331 
L 741.84613 231.450582 
L 741.84613 231.450582 
L 741.84613 190.669141 
L 726.409035 187.864372 
L 710.971939 184.851054 
L 695.534843 181.51781 
L 680.097747 177.696749 
L 664.660651 173.17674 
L 649.223555 167.790719 
L 633.786459 161.538686 
L 618.349363 154.587705 
L 602.912267 147.148907 
L 587.475171 139.390183 
L 572.038075 131.42291 
z
" style="fill:#cd5c5c;fill-opacity:0.25;"/>
   </g>
   <g id="PathCollection_2">
    <defs>
     <path d="M 0 3.535534 
C 0.937635 3.535534 1.836992 3.163008 2.5 2.5 
C 3.163008 1.836992 3.535534 0.937635 3.535534 0 
C 3.535534 -0.937635 3.163008 -1.836992 2.5 -2.5 
C 1.836992 -3.163008 0.937635 -3.535534 0 -3.535534 
C -0.937635 -3.535534 -1.836992 -3.163008 -2.5 -2.5 
C -3.163008 -1.836992 -3.535534 -0.937635 -3.535534 0 
C -3.535534 0.937635 -3.163008 1.836992 -2.5 2.5 
C -1.836992 3.163008 -0.937635 3.535534 0 3.535534 
z
" id="m0280693f01" style="stroke:#66cdaa;"/>
    </defs>
    <g clip-path="url(#p1f5acdb04d)">
     <use style="fill:#66cdaa;stroke:#66cdaa;" x="78.051006" xlink:href="#m0280693f01" y="116.462252"/>
     <use style="fill:#66cdaa;stroke:#66cdaa;" x="93.488102" xlink:href="#m0280693f01" y="126.533478"/>
     <use style="fill:#66cdaa;stroke:#66cdaa;" x="108.925198" xlink:href="#m0280693f01" y="95.846031"/>
     <use style="fill:#66cdaa;stroke:#66cdaa;" x="124.362294" xlink:href="#m0280693f01" y="141.534881"/>
     <use style="fill:#66cdaa;stroke:#66cdaa;" x="139.79939" xlink:href="#m0280693f01" y="135.953702"/>
     <use style="fill:#66cdaa;stroke:#66cdaa;" x="155.236486" xlink:href="#m0280693f01" y="154.078671"/>
     <use style="fill:#66cdaa;stroke:#66cdaa;" x="170.673582" xlink:href="#m0280693f01" y="174.912308"/>
     <use style="fill:#66cdaa;stroke:#66cdaa;" x="186.110678" xlink:href="#m0280693f01" y="165.413278"/>
     <use style="fill:#66cdaa;stroke:#66cdaa;" x="201.547774" xlink:href="#m0280693f01" y="138.80067"/>
     <use style="fill:#66cdaa;stroke:#66cdaa;" x="216.984869" xlink:href="#m0280693f01" y="103.350937"/>
     <use style="fill:#66cdaa;stroke:#66cdaa;" x="232.421965" xlink:href="#m0280693f01" y="94.782"/>
     <use style="fill:#66cdaa;stroke:#66cdaa;" x="247.859061" xlink:href="#m0280693f01" y="143.196962"/>
     <use style="fill:#66cdaa;stroke:#66cdaa;" x="263.296157" xlink:href="#m0280693f01" y="118.438309"/>
     <use style="fill:#66cdaa;stroke:#66cdaa;" x="278.733253" xlink:href="#m0280693f01" y="143.627744"/>
     <use style="fill:#66cdaa;stroke:#66cdaa;" x="294.170349" xlink:href="#m0280693f01" y="117.656172"/>
     <use style="fill:#66cdaa;stroke:#66cdaa;" x="309.607445" xlink:href="#m0280693f01" y="139.014348"/>
     <use style="fill:#66cdaa;stroke:#66cdaa;" x="325.044541" xlink:href="#m0280693f01" y="142.963348"/>
     <use style="fill:#66cdaa;stroke:#66cdaa;" x="340.481637" xlink:href="#m0280693f01" y="161.940226"/>
     <use style="fill:#66cdaa;stroke:#66cdaa;" x="355.918733" xlink:href="#m0280693f01" y="169.004694"/>
     <use style="fill:#66cdaa;stroke:#66cdaa;" x="371.355829" xlink:href="#m0280693f01" y="166.254909"/>
     <use style="fill:#66cdaa;stroke:#66cdaa;" x="386.792924" xlink:href="#m0280693f01" y="160.168191"/>
     <use style="fill:#66cdaa;stroke:#66cdaa;" x="402.23002" xlink:href="#m0280693f01" y="135.505788"/>
     <use style="fill:#66cdaa;stroke:#66cdaa;" x="417.667116" xlink:href="#m0280693f01" y="145.86981"/>
     <use style="fill:#66cdaa;stroke:#66cdaa;" x="433.104212" xlink:href="#m0280693f01" y="179.336633"/>
     <use style="fill:#66cdaa;stroke:#66cdaa;" x="448.541308" xlink:href="#m0280693f01" y="152.690384"/>
     <use style="fill:#66cdaa;stroke:#66cdaa;" x="463.978404" xlink:href="#m0280693f01" y="172.873019"/>
     <use style="fill:#66cdaa;stroke:#66cdaa;" x="479.4155" xlink:href="#m0280693f01" y="143.922409"/>
     <use style="fill:#66cdaa;stroke:#66cdaa;" x="494.852596" xlink:href="#m0280693f01" y="160.066025"/>
     <use style="fill:#66cdaa;stroke:#66cdaa;" x="510.289692" xlink:href="#m0280693f01" y="151.938772"/>
     <use style="fill:#66cdaa;stroke:#66cdaa;" x="525.726788" xlink:href="#m0280693f01" y="196.958242"/>
     <use style="fill:#66cdaa;stroke:#66cdaa;" x="541.163884" xlink:href="#m0280693f01" y="203.339001"/>
     <use style="fill:#66cdaa;stroke:#66cdaa;" x="556.600979" xlink:href="#m0280693f01" y="203.522154"/>
     <use style="fill:#66cdaa;stroke:#66cdaa;" x="572.038075" xlink:href="#m0280693f01" y="172.398628"/>
     <use style="fill:#66cdaa;stroke:#66cdaa;" x="587.475171" xlink:href="#m0280693f01" y="145.890367"/>
     <use style="fill:#66cdaa;stroke:#66cdaa;" x="602.912267" xlink:href="#m0280693f01" y="159.350856"/>
     <use style="fill:#66cdaa;stroke:#66cdaa;" x="618.349363" xlink:href="#m0280693f01" y="198.11821"/>
     <use style="fill:#66cdaa;stroke:#66cdaa;" x="633.786459" xlink:href="#m0280693f01" y="156.302046"/>
     <use style="fill:#66cdaa;stroke:#66cdaa;" x="649.223555" xlink:href="#m0280693f01" y="182.273308"/>
     <use style="fill:#66cdaa;stroke:#66cdaa;" x="664.660651" xlink:href="#m0280693f01" y="173.357066"/>
     <use style="fill:#66cdaa;stroke:#66cdaa;" x="680.097747" xlink:href="#m0280693f01" y="162.464143"/>
     <use style="fill:#66cdaa;stroke:#66cdaa;" x="695.534843" xlink:href="#m0280693f01" y="176.214624"/>
     <use style="fill:#66cdaa;stroke:#66cdaa;" x="710.971939" xlink:href="#m0280693f01" y="191.829651"/>
     <use style="fill:#66cdaa;stroke:#66cdaa;" x="726.409035" xlink:href="#m0280693f01" y="237.083045"/>
     <use style="fill:#66cdaa;stroke:#66cdaa;" x="741.84613" xlink:href="#m0280693f01" y="227.062902"/>
    </g>
   </g>
   <g id="PolyCollection_5">
    <path clip-path="url(#p1f5acdb04d)" d="M 78.051006 144.479024 
L 78.051006 144.479024 
L 93.488102 144.137182 
L 108.925198 143.855829 
L 124.362294 143.653003 
L 139.79939 143.553002 
L 155.236486 143.588061 
L 170.673582 143.79938 
L 186.110678 144.2358 
L 201.547774 144.947664 
L 216.984869 145.974757 
L 232.421965 147.332469 
L 247.859061 149.00541 
L 263.296157 150.953794 
L 278.733253 153.12728 
L 294.170349 155.477026 
L 309.607445 157.961831 
L 325.044541 160.549461 
L 340.481637 163.21562 
L 355.918733 165.942266 
L 355.918733 165.942266 
L 355.918733 127.469398 
L 340.481637 127.81124 
L 325.044541 128.092593 
L 309.607445 128.295419 
L 294.170349 128.39542 
L 278.733253 128.360361 
L 263.296157 128.149042 
L 247.859061 127.712622 
L 232.421965 127.000758 
L 216.984869 125.973665 
L 201.547774 124.615954 
L 186.110678 122.943013 
L 170.673582 120.994628 
L 155.236486 118.821142 
L 139.79939 116.471397 
L 124.362294 113.986591 
L 108.925198 111.398961 
L 93.488102 108.732802 
L 78.051006 106.006156 
z
" style="fill:#afeeee;fill-opacity:0.25;"/>
   </g>
   <g id="PolyCollection_6">
    <path clip-path="url(#p1f5acdb04d)" d="M 371.355829 201.293485 
L 371.355829 201.293485 
L 386.792924 180.116535 
L 402.23002 171.534765 
L 417.667116 175.548174 
L 417.667116 175.548174 
L 417.667116 102.605864 
L 402.23002 123.782814 
L 386.792924 132.364584 
L 371.355829 128.351175 
z
" style="fill:#afeeee;fill-opacity:0.25;"/>
   </g>
   <g id="PolyCollection_7">
    <path clip-path="url(#p1f5acdb04d)" d="M 433.104212 180.31748 
L 433.104212 180.31748 
L 448.541308 180.880656 
L 463.978404 182.06687 
L 479.4155 184.350559 
L 494.852596 188.380082 
L 510.289692 194.51305 
L 525.726788 202.391852 
L 541.163884 211.368131 
L 556.600979 220.967446 
L 556.600979 220.967446 
L 556.600979 167.381772 
L 541.163884 166.818596 
L 525.726788 165.632383 
L 510.289692 163.348694 
L 494.852596 159.31917 
L 479.4155 153.186203 
L 463.978404 145.3074 
L 448.541308 136.331122 
L 433.104212 126.731807 
z
" style="fill:#afeeee;fill-opacity:0.25;"/>
   </g>
   <g id="PolyCollection_8">
    <path clip-path="url(#p1f5acdb04d)" d="M 572.038075 175.736083 
L 572.038075 175.736083 
L 587.475171 178.157218 
L 602.912267 180.820451 
L 618.349363 183.855078 
L 633.786459 187.455997 
L 649.223555 191.868307 
L 664.660651 197.285946 
L 680.097747 203.708915 
L 695.534843 210.943273 
L 710.971939 218.743925 
L 726.409035 226.91597 
L 741.84613 235.330113 
L 741.84613 235.330113 
L 741.84613 187.988058 
L 726.409035 185.566923 
L 710.971939 182.90369 
L 695.534843 179.869063 
L 680.097747 176.268144 
L 664.660651 171.855834 
L 649.223555 166.438195 
L 633.786459 160.015226 
L 618.349363 152.780868 
L 602.912267 144.980216 
L 587.475171 136.808171 
L 572.038075 128.394028 
z
" style="fill:#afeeee;fill-opacity:0.25;"/>
   </g>
   <g id="line2d_110">
    <path clip-path="url(#p1f5acdb04d)" d="M 78.051006 126.435149 
L 93.488102 127.853484 
L 108.925198 129.271819 
L 124.362294 130.690153 
L 139.79939 132.108488 
L 155.236486 133.526822 
L 170.673582 134.945157 
L 186.110678 136.363492 
L 201.547774 137.781826 
L 216.984869 139.200161 
L 232.421965 140.618495 
L 247.859061 142.03683 
L 263.296157 143.455165 
L 278.733253 144.873499 
L 294.170349 146.291834 
L 309.607445 147.710169 
L 325.044541 149.128503 
L 340.481637 150.546838 
L 355.918733 151.965172 
" style="fill:none;stroke:#b22222;stroke-linecap:round;stroke-opacity:0.9;stroke-width:4;"/>
   </g>
   <g id="line2d_111">
    <path clip-path="url(#p1f5acdb04d)" d="M 371.355829 155.993068 
L 386.792924 150.276196 
L 402.23002 144.559324 
L 417.667116 138.842452 
" style="fill:none;stroke:#b22222;stroke-linecap:round;stroke-opacity:0.9;stroke-width:4;"/>
   </g>
   <g id="line2d_112">
    <path clip-path="url(#p1f5acdb04d)" d="M 433.104212 159.212952 
L 448.541308 161.814857 
L 463.978404 164.416762 
L 479.4155 167.018666 
L 494.852596 169.620571 
L 510.289692 172.222476 
L 525.726788 174.82438 
L 541.163884 177.426285 
L 556.600979 180.02819 
" style="fill:none;stroke:#b22222;stroke-linecap:round;stroke-opacity:0.9;stroke-width:4;"/>
   </g>
   <g id="line2d_113">
    <path clip-path="url(#p1f5acdb04d)" d="M 572.038075 151.813631 
L 587.475171 157.199652 
L 602.912267 162.585673 
L 618.349363 167.971694 
L 633.786459 173.357715 
L 649.223555 178.743736 
L 664.660651 184.129757 
L 680.097747 189.515778 
L 695.534843 194.901799 
L 710.971939 200.28782 
L 726.409035 205.673841 
L 741.84613 211.059862 
" style="fill:none;stroke:#b22222;stroke-linecap:round;stroke-opacity:0.9;stroke-width:4;"/>
   </g>
   <g id="line2d_114">
    <path clip-path="url(#p1f5acdb04d)" d="M 78.051006 143.005818 
L 93.488102 143.102522 
L 108.925198 143.251333 
L 124.362294 143.467789 
L 139.79939 143.77282 
L 155.236486 144.194195 
L 170.673582 144.767404 
L 186.110678 145.534519 
L 201.547774 146.538908 
L 216.984869 147.814841 
L 232.421965 149.375577 
L 247.859061 151.207857 
L 263.296157 153.277411 
L 278.733253 155.540871 
L 294.170349 157.956166 
L 309.607445 160.487804 
L 325.044541 163.108017 
L 340.481637 165.795876 
L 355.918733 168.535841 
" style="fill:none;stroke:#cd5c5c;stroke-linecap:round;stroke-opacity:0.1;stroke-width:2;"/>
   </g>
   <g id="line2d_115">
    <path clip-path="url(#p1f5acdb04d)" d="M 78.051006 109.864481 
L 93.488102 112.604446 
L 108.925198 115.292304 
L 124.362294 117.912518 
L 139.79939 120.444156 
L 155.236486 122.85945 
L 170.673582 125.12291 
L 186.110678 127.192464 
L 201.547774 129.024745 
L 216.984869 130.585481 
L 232.421965 131.861414 
L 247.859061 132.865803 
L 263.296157 133.632918 
L 278.733253 134.206127 
L 294.170349 134.627502 
L 309.607445 134.932533 
L 325.044541 135.148989 
L 340.481637 135.297799 
L 355.918733 135.394504 
" style="fill:none;stroke:#cd5c5c;stroke-linecap:round;stroke-opacity:0.1;stroke-width:2;"/>
   </g>
   <g id="line2d_116">
    <path clip-path="url(#p1f5acdb04d)" d="M 371.355829 187.410087 
L 386.792924 170.843463 
L 402.23002 165.126591 
L 417.667116 170.259472 
" style="fill:none;stroke:#cd5c5c;stroke-linecap:round;stroke-opacity:0.1;stroke-width:2;"/>
   </g>
   <g id="line2d_117">
    <path clip-path="url(#p1f5acdb04d)" d="M 371.355829 124.576049 
L 386.792924 129.708929 
L 402.23002 123.992057 
L 417.667116 107.425433 
" style="fill:none;stroke:#cd5c5c;stroke-linecap:round;stroke-opacity:0.1;stroke-width:2;"/>
   </g>
   <g id="line2d_118">
    <path clip-path="url(#p1f5acdb04d)" d="M 433.104212 182.292865 
L 448.541308 181.00281 
L 463.978404 180.249451 
L 479.4155 180.441482 
L 494.852596 182.137411 
L 510.289692 185.645291 
L 525.726788 190.65707 
L 541.163884 196.614238 
L 556.600979 203.108103 
" style="fill:none;stroke:#cd5c5c;stroke-linecap:round;stroke-opacity:0.1;stroke-width:2;"/>
   </g>
   <g id="line2d_119">
    <path clip-path="url(#p1f5acdb04d)" d="M 433.104212 136.13304 
L 448.541308 142.626905 
L 463.978404 148.584072 
L 479.4155 153.595851 
L 494.852596 157.103731 
L 510.289692 158.79966 
L 525.726788 158.991691 
L 541.163884 158.238333 
L 556.600979 156.948277 
" style="fill:none;stroke:#cd5c5c;stroke-linecap:round;stroke-opacity:0.1;stroke-width:2;"/>
   </g>
   <g id="line2d_120">
    <path clip-path="url(#p1f5acdb04d)" d="M 572.038075 172.204352 
L 587.475171 175.009121 
L 602.912267 178.022439 
L 618.349363 181.355683 
L 633.786459 185.176743 
L 649.223555 189.696752 
L 664.660651 195.082773 
L 680.097747 201.334806 
L 695.534843 208.285788 
L 710.971939 215.724586 
L 726.409035 223.48331 
L 741.84613 231.450582 
" style="fill:none;stroke:#cd5c5c;stroke-linecap:round;stroke-opacity:0.1;stroke-width:2;"/>
   </g>
   <g id="line2d_121">
    <path clip-path="url(#p1f5acdb04d)" d="M 572.038075 131.42291 
L 587.475171 139.390183 
L 602.912267 147.148907 
L 618.349363 154.587705 
L 633.786459 161.538686 
L 649.223555 167.790719 
L 664.660651 173.17674 
L 680.097747 177.696749 
L 695.534843 181.51781 
L 710.971939 184.851054 
L 726.409035 187.864372 
L 741.84613 190.669141 
" style="fill:none;stroke:#cd5c5c;stroke-linecap:round;stroke-opacity:0.1;stroke-width:2;"/>
   </g>
   <g id="line2d_122">
    <path clip-path="url(#p1f5acdb04d)" d="M 78.051006 125.24259 
L 93.488102 126.434992 
L 108.925198 127.627395 
L 124.362294 128.819797 
L 139.79939 130.012199 
L 155.236486 131.204602 
L 170.673582 132.397004 
L 186.110678 133.589406 
L 201.547774 134.781809 
L 216.984869 135.974211 
L 232.421965 137.166613 
L 247.859061 138.359016 
L 263.296157 139.551418 
L 278.733253 140.74382 
L 294.170349 141.936223 
L 309.607445 143.128625 
L 325.044541 144.321027 
L 340.481637 145.51343 
L 355.918733 146.705832 
" style="fill:none;stroke:#7fffd4;stroke-linecap:round;stroke-opacity:0.9;stroke-width:4;"/>
   </g>
   <g id="line2d_123">
    <path clip-path="url(#p1f5acdb04d)" d="M 371.355829 164.82233 
L 386.792924 156.240559 
L 402.23002 147.658789 
L 417.667116 139.077019 
" style="fill:none;stroke:#7fffd4;stroke-linecap:round;stroke-opacity:0.9;stroke-width:4;"/>
   </g>
   <g id="line2d_124">
    <path clip-path="url(#p1f5acdb04d)" d="M 433.104212 153.524644 
L 448.541308 158.605889 
L 463.978404 163.687135 
L 479.4155 168.768381 
L 494.852596 173.849626 
L 510.289692 178.930872 
L 525.726788 184.012118 
L 541.163884 189.093364 
L 556.600979 194.174609 
" style="fill:none;stroke:#7fffd4;stroke-linecap:round;stroke-opacity:0.9;stroke-width:4;"/>
   </g>
   <g id="line2d_125">
    <path clip-path="url(#p1f5acdb04d)" d="M 572.038075 152.065055 
L 587.475171 157.482695 
L 602.912267 162.900334 
L 618.349363 168.317973 
L 633.786459 173.735612 
L 649.223555 179.153251 
L 664.660651 184.57089 
L 680.097747 189.988529 
L 695.534843 195.406168 
L 710.971939 200.823808 
L 726.409035 206.241447 
L 741.84613 211.659086 
" style="fill:none;stroke:#7fffd4;stroke-linecap:round;stroke-opacity:0.9;stroke-width:4;"/>
   </g>
   <g id="line2d_126">
    <path clip-path="url(#p1f5acdb04d)" d="M 78.051006 144.479024 
L 93.488102 144.137182 
L 108.925198 143.855829 
L 124.362294 143.653003 
L 139.79939 143.553002 
L 155.236486 143.588061 
L 170.673582 143.79938 
L 186.110678 144.2358 
L 201.547774 144.947664 
L 216.984869 145.974757 
L 232.421965 147.332469 
L 247.859061 149.00541 
L 263.296157 150.953794 
L 278.733253 153.12728 
L 294.170349 155.477026 
L 309.607445 157.961831 
L 325.044541 160.549461 
L 340.481637 163.21562 
L 355.918733 165.942266 
" style="fill:none;stroke:#afeeee;stroke-linecap:round;stroke-opacity:0.1;stroke-width:2;"/>
   </g>
   <g id="line2d_127">
    <path clip-path="url(#p1f5acdb04d)" d="M 78.051006 106.006156 
L 93.488102 108.732802 
L 108.925198 111.398961 
L 124.362294 113.986591 
L 139.79939 116.471397 
L 155.236486 118.821142 
L 170.673582 120.994628 
L 186.110678 122.943013 
L 201.547774 124.615954 
L 216.984869 125.973665 
L 232.421965 127.000758 
L 247.859061 127.712622 
L 263.296157 128.149042 
L 278.733253 128.360361 
L 294.170349 128.39542 
L 309.607445 128.295419 
L 325.044541 128.092593 
L 340.481637 127.81124 
L 355.918733 127.469398 
" style="fill:none;stroke:#afeeee;stroke-linecap:round;stroke-opacity:0.1;stroke-width:2;"/>
   </g>
   <g id="line2d_128">
    <path clip-path="url(#p1f5acdb04d)" d="M 371.355829 201.293485 
L 386.792924 180.116535 
L 402.23002 171.534765 
L 417.667116 175.548174 
" style="fill:none;stroke:#afeeee;stroke-linecap:round;stroke-opacity:0.1;stroke-width:2;"/>
   </g>
   <g id="line2d_129">
    <path clip-path="url(#p1f5acdb04d)" d="M 371.355829 128.351175 
L 386.792924 132.364584 
L 402.23002 123.782814 
L 417.667116 102.605864 
" style="fill:none;stroke:#afeeee;stroke-linecap:round;stroke-opacity:0.1;stroke-width:2;"/>
   </g>
   <g id="line2d_130">
    <path clip-path="url(#p1f5acdb04d)" d="M 433.104212 180.31748 
L 448.541308 180.880656 
L 463.978404 182.06687 
L 479.4155 184.350559 
L 494.852596 188.380082 
L 510.289692 194.51305 
L 525.726788 202.391852 
L 541.163884 211.368131 
L 556.600979 220.967446 
" style="fill:none;stroke:#afeeee;stroke-linecap:round;stroke-opacity:0.1;stroke-width:2;"/>
   </g>
   <g id="line2d_131">
    <path clip-path="url(#p1f5acdb04d)" d="M 433.104212 126.731807 
L 448.541308 136.331122 
L 463.978404 145.3074 
L 479.4155 153.186203 
L 494.852596 159.31917 
L 510.289692 163.348694 
L 525.726788 165.632383 
L 541.163884 166.818596 
L 556.600979 167.381772 
" style="fill:none;stroke:#afeeee;stroke-linecap:round;stroke-opacity:0.1;stroke-width:2;"/>
   </g>
   <g id="line2d_132">
    <path clip-path="url(#p1f5acdb04d)" d="M 572.038075 175.736083 
L 587.475171 178.157218 
L 602.912267 180.820451 
L 618.349363 183.855078 
L 633.786459 187.455997 
L 649.223555 191.868307 
L 664.660651 197.285946 
L 680.097747 203.708915 
L 695.534843 210.943273 
L 710.971939 218.743925 
L 726.409035 226.91597 
L 741.84613 235.330113 
" style="fill:none;stroke:#afeeee;stroke-linecap:round;stroke-opacity:0.1;stroke-width:2;"/>
   </g>
   <g id="line2d_133">
    <path clip-path="url(#p1f5acdb04d)" d="M 572.038075 128.394028 
L 587.475171 136.808171 
L 602.912267 144.980216 
L 618.349363 152.780868 
L 633.786459 160.015226 
L 649.223555 166.438195 
L 664.660651 171.855834 
L 680.097747 176.268144 
L 695.534843 179.869063 
L 710.971939 182.90369 
L 726.409035 185.566923 
L 741.84613 187.988058 
" style="fill:none;stroke:#afeeee;stroke-linecap:round;stroke-opacity:0.1;stroke-width:2;"/>
   </g>
   <g id="line2d_134">
    <path clip-path="url(#p1f5acdb04d)" d="M 363.637281 419.802 
L 363.637281 62.28 
" style="fill:none;stroke:#000000;stroke-linecap:round;stroke-width:3.5;"/>
   </g>
   <g id="line2d_135">
    <path clip-path="url(#p1f5acdb04d)" d="M 425.385664 419.802 
L 425.385664 62.28 
" style="fill:none;stroke:#000000;stroke-linecap:round;stroke-width:3.5;"/>
   </g>
   <g id="line2d_136">
    <path clip-path="url(#p1f5acdb04d)" d="M 564.319527 419.802 
L 564.319527 62.28 
" style="fill:none;stroke:#000000;stroke-linecap:round;stroke-width:3.5;"/>
   </g>
   <g id="patch_3">
    <path d="M 44.86125 419.802 
L 44.86125 62.28 
" style="fill:none;stroke:#cccccc;stroke-linecap:square;stroke-linejoin:miter;"/>
   </g>
   <g id="patch_4">
    <path d="M 775.035887 419.802 
L 775.035887 62.28 
" style="fill:none;stroke:#cccccc;stroke-linecap:square;stroke-linejoin:miter;"/>
   </g>
   <g id="patch_5">
    <path d="M 44.86125 419.802 
L 775.035887 419.802 
" style="fill:none;stroke:#cccccc;stroke-linecap:square;stroke-linejoin:miter;"/>
   </g>
   <g id="patch_6">
    <path d="M 44.86125 62.28 
L 775.035887 62.28 
" style="fill:none;stroke:#cccccc;stroke-linecap:square;stroke-linejoin:miter;"/>
   </g>
   <g id="text_34">
    <!-- 2018-08 -->
    <g style="fill:#262626;" transform="translate(346.656475 62.28)scale(0.13 -0.13)">
     <defs>
      <path d="M 3.171875 21.484375 
L 3.171875 30.328125 
L 30.171875 30.328125 
L 30.171875 21.484375 
z
" id="ArialMT-45"/>
     </defs>
     <use xlink:href="#ArialMT-50"/>
     <use x="55.615234" xlink:href="#ArialMT-48"/>
     <use x="111.230469" xlink:href="#ArialMT-49"/>
     <use x="166.845703" xlink:href="#ArialMT-56"/>
     <use x="222.460938" xlink:href="#ArialMT-45"/>
     <use x="255.761719" xlink:href="#ArialMT-48"/>
     <use x="311.376953" xlink:href="#ArialMT-56"/>
    </g>
   </g>
   <g id="text_35">
    <!-- 2018-12 -->
    <g style="fill:#262626;" transform="translate(408.404859 62.28)scale(0.13 -0.13)">
     <use xlink:href="#ArialMT-50"/>
     <use x="55.615234" xlink:href="#ArialMT-48"/>
     <use x="111.230469" xlink:href="#ArialMT-49"/>
     <use x="166.845703" xlink:href="#ArialMT-56"/>
     <use x="222.460938" xlink:href="#ArialMT-45"/>
     <use x="255.761719" xlink:href="#ArialMT-49"/>
     <use x="311.376953" xlink:href="#ArialMT-50"/>
    </g>
   </g>
   <g id="text_36">
    <!-- 2019-09 -->
    <g style="fill:#262626;" transform="translate(547.338722 62.28)scale(0.13 -0.13)">
     <defs>
      <path d="M 5.46875 16.546875 
L 13.921875 17.328125 
Q 14.984375 11.375 18.015625 8.6875 
Q 21.046875 6 25.78125 6 
Q 29.828125 6 32.875 7.859375 
Q 35.9375 9.71875 37.890625 12.8125 
Q 39.84375 15.921875 41.15625 21.1875 
Q 42.484375 26.46875 42.484375 31.9375 
Q 42.484375 32.515625 42.4375 33.6875 
Q 39.796875 29.5 35.234375 26.875 
Q 30.671875 24.265625 25.34375 24.265625 
Q 16.453125 24.265625 10.296875 30.703125 
Q 4.15625 37.15625 4.15625 47.703125 
Q 4.15625 58.59375 10.578125 65.234375 
Q 17 71.875 26.65625 71.875 
Q 33.640625 71.875 39.421875 68.109375 
Q 45.21875 64.359375 48.21875 57.390625 
Q 51.21875 50.4375 51.21875 37.25 
Q 51.21875 23.53125 48.234375 15.40625 
Q 45.265625 7.28125 39.375 3.03125 
Q 33.5 -1.21875 25.59375 -1.21875 
Q 17.1875 -1.21875 11.859375 3.4375 
Q 6.546875 8.109375 5.46875 16.546875 
z
M 41.453125 48.140625 
Q 41.453125 55.71875 37.421875 60.15625 
Q 33.40625 64.59375 27.734375 64.59375 
Q 21.875 64.59375 17.53125 59.8125 
Q 13.1875 55.03125 13.1875 47.40625 
Q 13.1875 40.578125 17.3125 36.296875 
Q 21.4375 32.03125 27.484375 32.03125 
Q 33.59375 32.03125 37.515625 36.296875 
Q 41.453125 40.578125 41.453125 48.140625 
z
" id="ArialMT-57"/>
     </defs>
     <use xlink:href="#ArialMT-50"/>
     <use x="55.615234" xlink:href="#ArialMT-48"/>
     <use x="111.230469" xlink:href="#ArialMT-49"/>
     <use x="166.845703" xlink:href="#ArialMT-57"/>
     <use x="222.460938" xlink:href="#ArialMT-45"/>
     <use x="255.761719" xlink:href="#ArialMT-48"/>
     <use x="311.376953" xlink:href="#ArialMT-57"/>
    </g>
   </g>
   <g id="legend_1">
    <g id="patch_7">
     <path d="M 151.834826 534.534675 
L 602.642951 534.534675 
Q 605.042951 534.534675 605.042951 532.134675 
L 605.042951 481.8303 
Q 605.042951 479.4303 602.642951 479.4303 
L 151.834826 479.4303 
Q 149.434826 479.4303 149.434826 481.8303 
L 149.434826 532.134675 
Q 149.434826 534.534675 151.834826 534.534675 
z
" style="fill:#ffffff;opacity:0.8;stroke:#000000;stroke-linejoin:miter;"/>
    </g>
    <g id="line2d_137">
     <path d="M 154.234826 488.765925 
L 178.234826 488.765925 
" style="fill:none;stroke:#b22222;stroke-linecap:round;stroke-opacity:0.9;stroke-width:4;"/>
    </g>
    <g id="line2d_138"/>
    <g id="text_37">
     <!-- Climate Article Trend -->
     <g style="fill:#262626;" transform="translate(187.834826 492.965925)scale(0.12 -0.12)">
      <defs>
       <path d="M 58.796875 25.09375 
L 68.265625 22.703125 
Q 65.28125 11.03125 57.546875 4.90625 
Q 49.8125 -1.21875 38.625 -1.21875 
Q 27.046875 -1.21875 19.796875 3.484375 
Q 12.546875 8.203125 8.765625 17.140625 
Q 4.984375 26.078125 4.984375 36.328125 
Q 4.984375 47.515625 9.25 55.828125 
Q 13.53125 64.15625 21.40625 68.46875 
Q 29.296875 72.796875 38.765625 72.796875 
Q 49.515625 72.796875 56.828125 67.328125 
Q 64.15625 61.859375 67.046875 51.953125 
L 57.71875 49.75 
Q 55.21875 57.5625 50.484375 61.125 
Q 45.75 64.703125 38.578125 64.703125 
Q 30.328125 64.703125 24.78125 60.734375 
Q 19.234375 56.78125 16.984375 50.109375 
Q 14.75 43.453125 14.75 36.375 
Q 14.75 27.25 17.40625 20.4375 
Q 20.0625 13.625 25.671875 10.25 
Q 31.296875 6.890625 37.84375 6.890625 
Q 45.796875 6.890625 51.3125 11.46875 
Q 56.84375 16.0625 58.796875 25.09375 
z
" id="ArialMT-67"/>
       <path d="M 40.234375 0 
L 40.234375 6.546875 
Q 35.296875 -1.171875 25.734375 -1.171875 
Q 19.53125 -1.171875 14.328125 2.25 
Q 9.125 5.671875 6.265625 11.796875 
Q 3.421875 17.921875 3.421875 25.875 
Q 3.421875 33.640625 6 39.96875 
Q 8.59375 46.296875 13.765625 49.65625 
Q 18.953125 53.03125 25.34375 53.03125 
Q 30.03125 53.03125 33.6875 51.046875 
Q 37.359375 49.078125 39.65625 45.90625 
L 39.65625 71.578125 
L 48.390625 71.578125 
L 48.390625 0 
z
M 12.453125 25.875 
Q 12.453125 15.921875 16.640625 10.984375 
Q 20.84375 6.0625 26.5625 6.0625 
Q 32.328125 6.0625 36.34375 10.765625 
Q 40.375 15.484375 40.375 25.140625 
Q 40.375 35.796875 36.265625 40.765625 
Q 32.171875 45.75 26.171875 45.75 
Q 20.3125 45.75 16.375 40.96875 
Q 12.453125 36.1875 12.453125 25.875 
z
" id="ArialMT-100"/>
      </defs>
      <use xlink:href="#ArialMT-67"/>
      <use x="72.216797" xlink:href="#ArialMT-108"/>
      <use x="94.433594" xlink:href="#ArialMT-105"/>
      <use x="116.650391" xlink:href="#ArialMT-109"/>
      <use x="199.951172" xlink:href="#ArialMT-97"/>
      <use x="255.566406" xlink:href="#ArialMT-116"/>
      <use x="283.349609" xlink:href="#ArialMT-101"/>
      <use x="338.964844" xlink:href="#ArialMT-32"/>
      <use x="361.248047" xlink:href="#ArialMT-65"/>
      <use x="427.947266" xlink:href="#ArialMT-114"/>
      <use x="461.248047" xlink:href="#ArialMT-116"/>
      <use x="489.03125" xlink:href="#ArialMT-105"/>
      <use x="511.248047" xlink:href="#ArialMT-99"/>
      <use x="561.248047" xlink:href="#ArialMT-108"/>
      <use x="583.464844" xlink:href="#ArialMT-101"/>
      <use x="639.080078" xlink:href="#ArialMT-32"/>
      <use x="665.113281" xlink:href="#ArialMT-84"/>
      <use x="722.447266" xlink:href="#ArialMT-114"/>
      <use x="755.748047" xlink:href="#ArialMT-101"/>
      <use x="811.363281" xlink:href="#ArialMT-110"/>
      <use x="866.978516" xlink:href="#ArialMT-100"/>
     </g>
    </g>
    <g id="line2d_139">
     <path d="M 154.234826 505.7403 
L 178.234826 505.7403 
" style="fill:none;stroke:#7fffd4;stroke-linecap:round;stroke-opacity:0.9;stroke-width:4;"/>
    </g>
    <g id="line2d_140"/>
    <g id="text_38">
     <!-- Quasi-control Article Trend -->
     <g style="fill:#262626;" transform="translate(187.834826 509.9403)scale(0.12 -0.12)">
      <defs>
       <path d="M 61.96875 7.671875 
Q 68.5625 3.125 74.125 1.03125 
L 71.34375 -5.5625 
Q 63.625 -2.78125 55.953125 3.21875 
Q 48 -1.21875 38.375 -1.21875 
Q 28.65625 -1.21875 20.75 3.46875 
Q 12.84375 8.15625 8.5625 16.640625 
Q 4.296875 25.140625 4.296875 35.796875 
Q 4.296875 46.390625 8.59375 55.078125 
Q 12.890625 63.765625 20.828125 68.3125 
Q 28.765625 72.859375 38.578125 72.859375 
Q 48.484375 72.859375 56.4375 68.140625 
Q 64.40625 63.421875 68.578125 54.953125 
Q 72.75 46.484375 72.75 35.84375 
Q 72.75 27 70.0625 19.9375 
Q 67.390625 12.890625 61.96875 7.671875 
z
M 41.109375 19.78125 
Q 49.3125 17.484375 54.640625 12.9375 
Q 62.984375 20.5625 62.984375 35.84375 
Q 62.984375 44.53125 60.03125 51.015625 
Q 57.078125 57.515625 51.390625 61.109375 
Q 45.703125 64.703125 38.625 64.703125 
Q 28.03125 64.703125 21.046875 57.453125 
Q 14.0625 50.203125 14.0625 35.796875 
Q 14.0625 21.828125 20.96875 14.359375 
Q 27.875 6.890625 38.625 6.890625 
Q 43.703125 6.890625 48.1875 8.796875 
Q 43.75 11.671875 38.8125 12.890625 
z
" id="ArialMT-81"/>
       <path d="M 40.578125 0 
L 40.578125 7.625 
Q 34.515625 -1.171875 24.125 -1.171875 
Q 19.53125 -1.171875 15.546875 0.578125 
Q 11.578125 2.34375 9.640625 5 
Q 7.71875 7.671875 6.9375 11.53125 
Q 6.390625 14.109375 6.390625 19.734375 
L 6.390625 51.859375 
L 15.1875 51.859375 
L 15.1875 23.09375 
Q 15.1875 16.21875 15.71875 13.8125 
Q 16.546875 10.359375 19.234375 8.375 
Q 21.921875 6.390625 25.875 6.390625 
Q 29.828125 6.390625 33.296875 8.421875 
Q 36.765625 10.453125 38.203125 13.9375 
Q 39.65625 17.4375 39.65625 24.078125 
L 39.65625 51.859375 
L 48.4375 51.859375 
L 48.4375 0 
z
" id="ArialMT-117"/>
      </defs>
      <use xlink:href="#ArialMT-81"/>
      <use x="77.783203" xlink:href="#ArialMT-117"/>
      <use x="133.398438" xlink:href="#ArialMT-97"/>
      <use x="189.013672" xlink:href="#ArialMT-115"/>
      <use x="239.013672" xlink:href="#ArialMT-105"/>
      <use x="261.230469" xlink:href="#ArialMT-45"/>
      <use x="294.53125" xlink:href="#ArialMT-99"/>
      <use x="344.53125" xlink:href="#ArialMT-111"/>
      <use x="400.146484" xlink:href="#ArialMT-110"/>
      <use x="455.761719" xlink:href="#ArialMT-116"/>
      <use x="483.544922" xlink:href="#ArialMT-114"/>
      <use x="516.845703" xlink:href="#ArialMT-111"/>
      <use x="572.460938" xlink:href="#ArialMT-108"/>
      <use x="594.677734" xlink:href="#ArialMT-32"/>
      <use x="616.960938" xlink:href="#ArialMT-65"/>
      <use x="683.660156" xlink:href="#ArialMT-114"/>
      <use x="716.960938" xlink:href="#ArialMT-116"/>
      <use x="744.744141" xlink:href="#ArialMT-105"/>
      <use x="766.960938" xlink:href="#ArialMT-99"/>
      <use x="816.960938" xlink:href="#ArialMT-108"/>
      <use x="839.177734" xlink:href="#ArialMT-101"/>
      <use x="894.792969" xlink:href="#ArialMT-32"/>
      <use x="920.826172" xlink:href="#ArialMT-84"/>
      <use x="978.160156" xlink:href="#ArialMT-114"/>
      <use x="1011.460938" xlink:href="#ArialMT-101"/>
      <use x="1067.076172" xlink:href="#ArialMT-110"/>
      <use x="1122.691406" xlink:href="#ArialMT-100"/>
     </g>
    </g>
    <g id="PathCollection_3">
     <g>
      <use style="fill:#8b0000;stroke:#8b0000;" x="166.234826" xlink:href="#m6444f3d114" y="523.764675"/>
     </g>
    </g>
    <g id="text_39">
     <!-- Climate-related Articles -->
     <g style="fill:#262626;" transform="translate(187.834826 526.914675)scale(0.12 -0.12)">
      <use xlink:href="#ArialMT-67"/>
      <use x="72.216797" xlink:href="#ArialMT-108"/>
      <use x="94.433594" xlink:href="#ArialMT-105"/>
      <use x="116.650391" xlink:href="#ArialMT-109"/>
      <use x="199.951172" xlink:href="#ArialMT-97"/>
      <use x="255.566406" xlink:href="#ArialMT-116"/>
      <use x="283.349609" xlink:href="#ArialMT-101"/>
      <use x="338.964844" xlink:href="#ArialMT-45"/>
      <use x="372.265625" xlink:href="#ArialMT-114"/>
      <use x="405.566406" xlink:href="#ArialMT-101"/>
      <use x="461.181641" xlink:href="#ArialMT-108"/>
      <use x="483.398438" xlink:href="#ArialMT-97"/>
      <use x="539.013672" xlink:href="#ArialMT-116"/>
      <use x="566.796875" xlink:href="#ArialMT-101"/>
      <use x="622.412109" xlink:href="#ArialMT-100"/>
      <use x="678.027344" xlink:href="#ArialMT-32"/>
      <use x="700.310547" xlink:href="#ArialMT-65"/>
      <use x="767.009766" xlink:href="#ArialMT-114"/>
      <use x="800.310547" xlink:href="#ArialMT-116"/>
      <use x="828.09375" xlink:href="#ArialMT-105"/>
      <use x="850.310547" xlink:href="#ArialMT-99"/>
      <use x="900.310547" xlink:href="#ArialMT-108"/>
      <use x="922.527344" xlink:href="#ArialMT-101"/>
      <use x="978.142578" xlink:href="#ArialMT-115"/>
     </g>
    </g>
    <g id="patch_8">
     <path d="M 353.222951 492.965925 
L 377.222951 492.965925 
L 377.222951 484.565925 
L 353.222951 484.565925 
z
" style="fill:#cd5c5c;opacity:0.25;"/>
    </g>
    <g id="text_40">
     <!-- Climate Confidence Interval (95%) -->
     <g style="fill:#262626;" transform="translate(386.822951 492.965925)scale(0.12 -0.12)">
      <defs>
       <path d="M 8.6875 0 
L 8.6875 45.015625 
L 0.921875 45.015625 
L 0.921875 51.859375 
L 8.6875 51.859375 
L 8.6875 57.375 
Q 8.6875 62.59375 9.625 65.140625 
Q 10.890625 68.5625 14.078125 70.671875 
Q 17.28125 72.796875 23.046875 72.796875 
Q 26.765625 72.796875 31.25 71.921875 
L 29.9375 64.265625 
Q 27.203125 64.75 24.75 64.75 
Q 20.75 64.75 19.09375 63.03125 
Q 17.4375 61.328125 17.4375 56.640625 
L 17.4375 51.859375 
L 27.546875 51.859375 
L 27.546875 45.015625 
L 17.4375 45.015625 
L 17.4375 0 
z
" id="ArialMT-102"/>
       <path d="M 9.328125 0 
L 9.328125 71.578125 
L 18.796875 71.578125 
L 18.796875 0 
z
" id="ArialMT-73"/>
       <path d="M 21 0 
L 1.265625 51.859375 
L 10.546875 51.859375 
L 21.6875 20.796875 
Q 23.484375 15.765625 25 10.359375 
Q 26.171875 14.453125 28.265625 20.21875 
L 39.796875 51.859375 
L 48.828125 51.859375 
L 29.203125 0 
z
" id="ArialMT-118"/>
       <path d="M 4.15625 18.75 
L 13.375 19.53125 
Q 14.40625 12.796875 18.140625 9.390625 
Q 21.875 6 27.15625 6 
Q 33.5 6 37.890625 10.78125 
Q 42.28125 15.578125 42.28125 23.484375 
Q 42.28125 31 38.0625 35.34375 
Q 33.84375 39.703125 27 39.703125 
Q 22.75 39.703125 19.328125 37.765625 
Q 15.921875 35.84375 13.96875 32.765625 
L 5.71875 33.84375 
L 12.640625 70.609375 
L 48.25 70.609375 
L 48.25 62.203125 
L 19.671875 62.203125 
L 15.828125 42.96875 
Q 22.265625 47.46875 29.34375 47.46875 
Q 38.71875 47.46875 45.15625 40.96875 
Q 51.609375 34.46875 51.609375 24.265625 
Q 51.609375 14.546875 45.953125 7.46875 
Q 39.0625 -1.21875 27.15625 -1.21875 
Q 17.390625 -1.21875 11.203125 4.25 
Q 5.03125 9.71875 4.15625 18.75 
z
" id="ArialMT-53"/>
       <path d="M 5.8125 54.390625 
Q 5.8125 62.0625 9.671875 67.421875 
Q 13.53125 72.796875 20.84375 72.796875 
Q 27.59375 72.796875 32 67.984375 
Q 36.421875 63.1875 36.421875 53.859375 
Q 36.421875 44.78125 31.953125 39.875 
Q 27.484375 34.96875 20.953125 34.96875 
Q 14.453125 34.96875 10.125 39.796875 
Q 5.8125 44.625 5.8125 54.390625 
z
M 21.09375 66.75 
Q 17.828125 66.75 15.65625 63.90625 
Q 13.484375 61.078125 13.484375 53.515625 
Q 13.484375 46.625 15.671875 43.8125 
Q 17.875 41.015625 21.09375 41.015625 
Q 24.421875 41.015625 26.59375 43.84375 
Q 28.765625 46.6875 28.765625 54.203125 
Q 28.765625 61.140625 26.5625 63.9375 
Q 24.359375 66.75 21.09375 66.75 
z
M 21.140625 -2.640625 
L 60.296875 72.796875 
L 67.4375 72.796875 
L 28.421875 -2.640625 
z
M 52.09375 16.796875 
Q 52.09375 24.515625 55.953125 29.859375 
Q 59.8125 35.203125 67.1875 35.203125 
Q 73.921875 35.203125 78.34375 30.390625 
Q 82.765625 25.59375 82.765625 16.265625 
Q 82.765625 7.171875 78.296875 2.265625 
Q 73.828125 -2.640625 67.234375 -2.640625 
Q 60.75 -2.640625 56.421875 2.21875 
Q 52.09375 7.078125 52.09375 16.796875 
z
M 67.4375 29.15625 
Q 64.109375 29.15625 61.9375 26.3125 
Q 59.765625 23.484375 59.765625 15.921875 
Q 59.765625 9.078125 61.953125 6.25 
Q 64.15625 3.421875 67.390625 3.421875 
Q 70.75 3.421875 72.921875 6.25 
Q 75.09375 9.078125 75.09375 16.609375 
Q 75.09375 23.53125 72.890625 26.34375 
Q 70.703125 29.15625 67.4375 29.15625 
z
" id="ArialMT-37"/>
      </defs>
      <use xlink:href="#ArialMT-67"/>
      <use x="72.216797" xlink:href="#ArialMT-108"/>
      <use x="94.433594" xlink:href="#ArialMT-105"/>
      <use x="116.650391" xlink:href="#ArialMT-109"/>
      <use x="199.951172" xlink:href="#ArialMT-97"/>
      <use x="255.566406" xlink:href="#ArialMT-116"/>
      <use x="283.349609" xlink:href="#ArialMT-101"/>
      <use x="338.964844" xlink:href="#ArialMT-32"/>
      <use x="366.748047" xlink:href="#ArialMT-67"/>
      <use x="438.964844" xlink:href="#ArialMT-111"/>
      <use x="494.580078" xlink:href="#ArialMT-110"/>
      <use x="550.195312" xlink:href="#ArialMT-102"/>
      <use x="577.978516" xlink:href="#ArialMT-105"/>
      <use x="600.195312" xlink:href="#ArialMT-100"/>
      <use x="655.810547" xlink:href="#ArialMT-101"/>
      <use x="711.425781" xlink:href="#ArialMT-110"/>
      <use x="767.041016" xlink:href="#ArialMT-99"/>
      <use x="817.041016" xlink:href="#ArialMT-101"/>
      <use x="872.65625" xlink:href="#ArialMT-32"/>
      <use x="900.439453" xlink:href="#ArialMT-73"/>
      <use x="928.222656" xlink:href="#ArialMT-110"/>
      <use x="983.837891" xlink:href="#ArialMT-116"/>
      <use x="1011.621094" xlink:href="#ArialMT-101"/>
      <use x="1067.236328" xlink:href="#ArialMT-114"/>
      <use x="1100.537109" xlink:href="#ArialMT-118"/>
      <use x="1150.537109" xlink:href="#ArialMT-97"/>
      <use x="1206.152344" xlink:href="#ArialMT-108"/>
      <use x="1228.369141" xlink:href="#ArialMT-32"/>
      <use x="1256.152344" xlink:href="#ArialMT-40"/>
      <use x="1289.453125" xlink:href="#ArialMT-57"/>
      <use x="1345.068359" xlink:href="#ArialMT-53"/>
      <use x="1400.683594" xlink:href="#ArialMT-37"/>
      <use x="1489.599609" xlink:href="#ArialMT-41"/>
     </g>
    </g>
    <g id="PathCollection_4">
     <g>
      <use style="fill:#66cdaa;stroke:#66cdaa;" x="365.222951" xlink:href="#m0280693f01" y="506.930925"/>
     </g>
    </g>
    <g id="text_41">
     <!-- Quasi-control-related Articles -->
     <g style="fill:#262626;" transform="translate(386.822951 510.080925)scale(0.12 -0.12)">
      <use xlink:href="#ArialMT-81"/>
      <use x="77.783203" xlink:href="#ArialMT-117"/>
      <use x="133.398438" xlink:href="#ArialMT-97"/>
      <use x="189.013672" xlink:href="#ArialMT-115"/>
      <use x="239.013672" xlink:href="#ArialMT-105"/>
      <use x="261.230469" xlink:href="#ArialMT-45"/>
      <use x="294.53125" xlink:href="#ArialMT-99"/>
      <use x="344.53125" xlink:href="#ArialMT-111"/>
      <use x="400.146484" xlink:href="#ArialMT-110"/>
      <use x="455.761719" xlink:href="#ArialMT-116"/>
      <use x="483.544922" xlink:href="#ArialMT-114"/>
      <use x="516.845703" xlink:href="#ArialMT-111"/>
      <use x="572.460938" xlink:href="#ArialMT-108"/>
      <use x="594.677734" xlink:href="#ArialMT-45"/>
      <use x="627.978516" xlink:href="#ArialMT-114"/>
      <use x="661.279297" xlink:href="#ArialMT-101"/>
      <use x="716.894531" xlink:href="#ArialMT-108"/>
      <use x="739.111328" xlink:href="#ArialMT-97"/>
      <use x="794.726562" xlink:href="#ArialMT-116"/>
      <use x="822.509766" xlink:href="#ArialMT-101"/>
      <use x="878.125" xlink:href="#ArialMT-100"/>
      <use x="933.740234" xlink:href="#ArialMT-32"/>
      <use x="956.023438" xlink:href="#ArialMT-65"/>
      <use x="1022.722656" xlink:href="#ArialMT-114"/>
      <use x="1056.023438" xlink:href="#ArialMT-116"/>
      <use x="1083.806641" xlink:href="#ArialMT-105"/>
      <use x="1106.023438" xlink:href="#ArialMT-99"/>
      <use x="1156.023438" xlink:href="#ArialMT-108"/>
      <use x="1178.240234" xlink:href="#ArialMT-101"/>
      <use x="1233.855469" xlink:href="#ArialMT-115"/>
     </g>
    </g>
    <g id="patch_9">
     <path d="M 353.222951 527.20905 
L 377.222951 527.20905 
L 377.222951 518.80905 
L 353.222951 518.80905 
z
" style="fill:#afeeee;opacity:0.25;"/>
    </g>
    <g id="text_42">
     <!-- Quasi-control Confidence Interval (95%) -->
     <g style="fill:#262626;" transform="translate(386.822951 527.20905)scale(0.12 -0.12)">
      <use xlink:href="#ArialMT-81"/>
      <use x="77.783203" xlink:href="#ArialMT-117"/>
      <use x="133.398438" xlink:href="#ArialMT-97"/>
      <use x="189.013672" xlink:href="#ArialMT-115"/>
      <use x="239.013672" xlink:href="#ArialMT-105"/>
      <use x="261.230469" xlink:href="#ArialMT-45"/>
      <use x="294.53125" xlink:href="#ArialMT-99"/>
      <use x="344.53125" xlink:href="#ArialMT-111"/>
      <use x="400.146484" xlink:href="#ArialMT-110"/>
      <use x="455.761719" xlink:href="#ArialMT-116"/>
      <use x="483.544922" xlink:href="#ArialMT-114"/>
      <use x="516.845703" xlink:href="#ArialMT-111"/>
      <use x="572.460938" xlink:href="#ArialMT-108"/>
      <use x="594.677734" xlink:href="#ArialMT-32"/>
      <use x="622.460938" xlink:href="#ArialMT-67"/>
      <use x="694.677734" xlink:href="#ArialMT-111"/>
      <use x="750.292969" xlink:href="#ArialMT-110"/>
      <use x="805.908203" xlink:href="#ArialMT-102"/>
      <use x="833.691406" xlink:href="#ArialMT-105"/>
      <use x="855.908203" xlink:href="#ArialMT-100"/>
      <use x="911.523438" xlink:href="#ArialMT-101"/>
      <use x="967.138672" xlink:href="#ArialMT-110"/>
      <use x="1022.753906" xlink:href="#ArialMT-99"/>
      <use x="1072.753906" xlink:href="#ArialMT-101"/>
      <use x="1128.369141" xlink:href="#ArialMT-32"/>
      <use x="1156.152344" xlink:href="#ArialMT-73"/>
      <use x="1183.935547" xlink:href="#ArialMT-110"/>
      <use x="1239.550781" xlink:href="#ArialMT-116"/>
      <use x="1267.333984" xlink:href="#ArialMT-101"/>
      <use x="1322.949219" xlink:href="#ArialMT-114"/>
      <use x="1356.25" xlink:href="#ArialMT-118"/>
      <use x="1406.25" xlink:href="#ArialMT-97"/>
      <use x="1461.865234" xlink:href="#ArialMT-108"/>
      <use x="1484.082031" xlink:href="#ArialMT-32"/>
      <use x="1511.865234" xlink:href="#ArialMT-40"/>
      <use x="1545.166016" xlink:href="#ArialMT-57"/>
      <use x="1600.78125" xlink:href="#ArialMT-53"/>
      <use x="1656.396484" xlink:href="#ArialMT-37"/>
      <use x="1745.3125" xlink:href="#ArialMT-41"/>
     </g>
    </g>
   </g>
  </g>
  <g id="text_43">
   <!-- [SCIENTIFIC] Climate articles vs. Comparator articles (Quasi-control) -->
   <g style="fill:#262626;" transform="translate(86.795625 21.771875)scale(0.2 -0.2)">
    <defs>
     <path d="M 6.78125 -19.875 
L 6.78125 71.578125 
L 26.171875 71.578125 
L 26.171875 64.3125 
L 15.578125 64.3125 
L 15.578125 -12.59375 
L 26.171875 -12.59375 
L 26.171875 -19.875 
z
" id="ArialMT-91"/>
     <path d="M 4.5 23 
L 13.421875 23.78125 
Q 14.0625 18.40625 16.375 14.96875 
Q 18.703125 11.53125 23.578125 9.40625 
Q 28.46875 7.28125 34.578125 7.28125 
Q 39.984375 7.28125 44.140625 8.890625 
Q 48.296875 10.5 50.3125 13.296875 
Q 52.34375 16.109375 52.34375 19.4375 
Q 52.34375 22.796875 50.390625 25.3125 
Q 48.4375 27.828125 43.953125 29.546875 
Q 41.0625 30.671875 31.203125 33.03125 
Q 21.34375 35.40625 17.390625 37.5 
Q 12.25 40.1875 9.734375 44.15625 
Q 7.234375 48.140625 7.234375 53.078125 
Q 7.234375 58.5 10.296875 63.203125 
Q 13.375 67.921875 19.28125 70.359375 
Q 25.203125 72.796875 32.421875 72.796875 
Q 40.375 72.796875 46.453125 70.234375 
Q 52.546875 67.671875 55.8125 62.6875 
Q 59.078125 57.71875 59.328125 51.421875 
L 50.25 50.734375 
Q 49.515625 57.515625 45.28125 60.984375 
Q 41.0625 64.453125 32.8125 64.453125 
Q 24.21875 64.453125 20.28125 61.296875 
Q 16.359375 58.15625 16.359375 53.71875 
Q 16.359375 49.859375 19.140625 47.359375 
Q 21.875 44.875 33.421875 42.265625 
Q 44.96875 39.65625 49.265625 37.703125 
Q 55.515625 34.8125 58.484375 30.390625 
Q 61.46875 25.984375 61.46875 20.21875 
Q 61.46875 14.5 58.203125 9.4375 
Q 54.9375 4.390625 48.796875 1.578125 
Q 42.671875 -1.21875 35.015625 -1.21875 
Q 25.296875 -1.21875 18.71875 1.609375 
Q 12.15625 4.4375 8.421875 10.125 
Q 4.6875 15.828125 4.5 23 
z
" id="ArialMT-83"/>
     <path d="M 7.90625 0 
L 7.90625 71.578125 
L 59.671875 71.578125 
L 59.671875 63.140625 
L 17.390625 63.140625 
L 17.390625 41.21875 
L 56.984375 41.21875 
L 56.984375 32.8125 
L 17.390625 32.8125 
L 17.390625 8.453125 
L 61.328125 8.453125 
L 61.328125 0 
z
" id="ArialMT-69"/>
     <path d="M 7.625 0 
L 7.625 71.578125 
L 17.328125 71.578125 
L 54.9375 15.375 
L 54.9375 71.578125 
L 64.015625 71.578125 
L 64.015625 0 
L 54.296875 0 
L 16.703125 56.25 
L 16.703125 0 
z
" id="ArialMT-78"/>
     <path d="M 8.203125 0 
L 8.203125 71.578125 
L 56.5 71.578125 
L 56.5 63.140625 
L 17.671875 63.140625 
L 17.671875 40.96875 
L 51.265625 40.96875 
L 51.265625 32.515625 
L 17.671875 32.515625 
L 17.671875 0 
z
" id="ArialMT-70"/>
     <path d="M 21.296875 -19.875 
L 1.90625 -19.875 
L 1.90625 -12.59375 
L 12.5 -12.59375 
L 12.5 64.3125 
L 1.90625 64.3125 
L 1.90625 71.578125 
L 21.296875 71.578125 
z
" id="ArialMT-93"/>
     <path d="M 6.59375 -19.875 
L 6.59375 51.859375 
L 14.59375 51.859375 
L 14.59375 45.125 
Q 17.4375 49.078125 21 51.046875 
Q 24.5625 53.03125 29.640625 53.03125 
Q 36.28125 53.03125 41.359375 49.609375 
Q 46.4375 46.1875 49.015625 39.953125 
Q 51.609375 33.734375 51.609375 26.3125 
Q 51.609375 18.359375 48.75 11.984375 
Q 45.90625 5.609375 40.453125 2.21875 
Q 35.015625 -1.171875 29 -1.171875 
Q 24.609375 -1.171875 21.109375 0.6875 
Q 17.625 2.546875 15.375 5.375 
L 15.375 -19.875 
z
M 14.546875 25.640625 
Q 14.546875 15.625 18.59375 10.84375 
Q 22.65625 6.0625 28.421875 6.0625 
Q 34.28125 6.0625 38.453125 11.015625 
Q 42.625 15.96875 42.625 26.375 
Q 42.625 36.28125 38.546875 41.203125 
Q 34.46875 46.140625 28.8125 46.140625 
Q 23.1875 46.140625 18.859375 40.890625 
Q 14.546875 35.640625 14.546875 25.640625 
z
" id="ArialMT-112"/>
    </defs>
    <use xlink:href="#ArialMT-91"/>
    <use x="27.783203" xlink:href="#ArialMT-83"/>
    <use x="94.482422" xlink:href="#ArialMT-67"/>
    <use x="166.699219" xlink:href="#ArialMT-73"/>
    <use x="194.482422" xlink:href="#ArialMT-69"/>
    <use x="261.181641" xlink:href="#ArialMT-78"/>
    <use x="333.398438" xlink:href="#ArialMT-84"/>
    <use x="394.482422" xlink:href="#ArialMT-73"/>
    <use x="422.265625" xlink:href="#ArialMT-70"/>
    <use x="483.349609" xlink:href="#ArialMT-73"/>
    <use x="511.132812" xlink:href="#ArialMT-67"/>
    <use x="583.349609" xlink:href="#ArialMT-93"/>
    <use x="611.132812" xlink:href="#ArialMT-32"/>
    <use x="638.916016" xlink:href="#ArialMT-67"/>
    <use x="711.132812" xlink:href="#ArialMT-108"/>
    <use x="733.349609" xlink:href="#ArialMT-105"/>
    <use x="755.566406" xlink:href="#ArialMT-109"/>
    <use x="838.867188" xlink:href="#ArialMT-97"/>
    <use x="894.482422" xlink:href="#ArialMT-116"/>
    <use x="922.265625" xlink:href="#ArialMT-101"/>
    <use x="977.880859" xlink:href="#ArialMT-32"/>
    <use x="1005.664062" xlink:href="#ArialMT-97"/>
    <use x="1061.279297" xlink:href="#ArialMT-114"/>
    <use x="1094.580078" xlink:href="#ArialMT-116"/>
    <use x="1122.363281" xlink:href="#ArialMT-105"/>
    <use x="1144.580078" xlink:href="#ArialMT-99"/>
    <use x="1194.580078" xlink:href="#ArialMT-108"/>
    <use x="1216.796875" xlink:href="#ArialMT-101"/>
    <use x="1272.412109" xlink:href="#ArialMT-115"/>
    <use x="1322.412109" xlink:href="#ArialMT-32"/>
    <use x="1350.195312" xlink:href="#ArialMT-118"/>
    <use x="1400.195312" xlink:href="#ArialMT-115"/>
    <use x="1450.195312" xlink:href="#ArialMT-46"/>
    <use x="1477.978516" xlink:href="#ArialMT-32"/>
    <use x="1505.761719" xlink:href="#ArialMT-67"/>
    <use x="1577.978516" xlink:href="#ArialMT-111"/>
    <use x="1633.59375" xlink:href="#ArialMT-109"/>
    <use x="1716.894531" xlink:href="#ArialMT-112"/>
    <use x="1772.509766" xlink:href="#ArialMT-97"/>
    <use x="1828.125" xlink:href="#ArialMT-114"/>
    <use x="1861.425781" xlink:href="#ArialMT-97"/>
    <use x="1917.041016" xlink:href="#ArialMT-116"/>
    <use x="1944.824219" xlink:href="#ArialMT-111"/>
    <use x="2000.439453" xlink:href="#ArialMT-114"/>
    <use x="2033.740234" xlink:href="#ArialMT-32"/>
    <use x="2061.523438" xlink:href="#ArialMT-97"/>
    <use x="2117.138672" xlink:href="#ArialMT-114"/>
    <use x="2150.439453" xlink:href="#ArialMT-116"/>
    <use x="2178.222656" xlink:href="#ArialMT-105"/>
    <use x="2200.439453" xlink:href="#ArialMT-99"/>
    <use x="2250.439453" xlink:href="#ArialMT-108"/>
    <use x="2272.65625" xlink:href="#ArialMT-101"/>
    <use x="2328.271484" xlink:href="#ArialMT-115"/>
    <use x="2378.271484" xlink:href="#ArialMT-32"/>
    <use x="2406.054688" xlink:href="#ArialMT-40"/>
    <use x="2439.355469" xlink:href="#ArialMT-81"/>
    <use x="2517.138672" xlink:href="#ArialMT-117"/>
    <use x="2572.753906" xlink:href="#ArialMT-97"/>
    <use x="2628.369141" xlink:href="#ArialMT-115"/>
    <use x="2678.369141" xlink:href="#ArialMT-105"/>
    <use x="2700.585938" xlink:href="#ArialMT-45"/>
    <use x="2733.886719" xlink:href="#ArialMT-99"/>
    <use x="2783.886719" xlink:href="#ArialMT-111"/>
    <use x="2839.501953" xlink:href="#ArialMT-110"/>
    <use x="2895.117188" xlink:href="#ArialMT-116"/>
    <use x="2922.900391" xlink:href="#ArialMT-114"/>
    <use x="2956.201172" xlink:href="#ArialMT-111"/>
    <use x="3011.816406" xlink:href="#ArialMT-108"/>
    <use x="3034.033203" xlink:href="#ArialMT-41"/>
   </g>
   <!-- Without outliers -->
   <g style="fill:#262626;" transform="translate(324.601875 43.16)scale(0.2 -0.2)">
    <defs>
     <path d="M 20.21875 0 
L 1.21875 71.578125 
L 10.9375 71.578125 
L 21.828125 24.65625 
Q 23.578125 17.28125 24.859375 10.015625 
Q 27.59375 21.484375 28.078125 23.25 
L 41.703125 71.578125 
L 53.125 71.578125 
L 63.375 35.359375 
Q 67.234375 21.875 68.953125 10.015625 
Q 70.3125 16.796875 72.515625 25.59375 
L 83.734375 71.578125 
L 93.265625 71.578125 
L 73.640625 0 
L 64.5 0 
L 49.421875 54.546875 
Q 47.515625 61.375 47.171875 62.9375 
Q 46.046875 58.015625 45.0625 54.546875 
L 29.890625 0 
z
" id="ArialMT-87"/>
    </defs>
    <use xlink:href="#ArialMT-87"/>
    <use x="94.384766" xlink:href="#ArialMT-105"/>
    <use x="116.601562" xlink:href="#ArialMT-116"/>
    <use x="144.384766" xlink:href="#ArialMT-104"/>
    <use x="200" xlink:href="#ArialMT-111"/>
    <use x="255.615234" xlink:href="#ArialMT-117"/>
    <use x="311.230469" xlink:href="#ArialMT-116"/>
    <use x="339.013672" xlink:href="#ArialMT-32"/>
    <use x="366.796875" xlink:href="#ArialMT-111"/>
    <use x="422.412109" xlink:href="#ArialMT-117"/>
    <use x="478.027344" xlink:href="#ArialMT-116"/>
    <use x="505.810547" xlink:href="#ArialMT-108"/>
    <use x="528.027344" xlink:href="#ArialMT-105"/>
    <use x="550.244141" xlink:href="#ArialMT-101"/>
    <use x="605.859375" xlink:href="#ArialMT-114"/>
    <use x="639.160156" xlink:href="#ArialMT-115"/>
   </g>
  </g>
 </g>
 <defs>
  <clipPath id="p1f5acdb04d">
   <rect height="357.522" width="730.174637" x="44.86125" y="62.28"/>
  </clipPath>
 </defs>
</svg>
